M48
; DRILL file {KiCad 9.0.0} date 2025-03-16T18:04:47+0200
; FORMAT={-:-/ absolute / metric / decimal}
; #@! TF.CreationDate,2025-03-16T18:04:47+02:00
; #@! TF.GenerationSoftware,Kicad,Pcbnew,9.0.0
; #@! TF.FileFunction,Plated,1,2,PTH
FMAT,2
METRIC
; #@! TA.AperFunction,Plated,PTH,ViaDrill
T1C0.300
%
G90
G05
T1
X138.0Y-102.3
X138.25Y-92.75
X138.4Y-96.2
X139.489Y-103.6
X140.445Y-91.695
X142.4Y-106.4
X143.0Y-85.0
X143.15Y-95.7
X143.761Y-91.882
X146.3Y-108.8
X146.374Y-89.465
X147.3Y-100.4
X147.75Y-92.0
X148.1Y-101.2
X148.8Y-106.1
X149.2Y-102.0
X151.5Y-86.7
X151.75Y-92.0
X152.4Y-88.6
X152.5Y-99.0
X153.1Y-107.0
X153.25Y-84.0
X153.25Y-110.25
X156.25Y-103.4
X156.8Y-88.487
X157.5Y-86.25
X158.5Y-108.5
X160.877Y-92.941
X161.25Y-108.0
X161.4Y-103.3
X161.98Y-107.08
X163.4Y-96.0
X163.8Y-92.7
M30
