%TF.GenerationSoftware,KiCad,Pcbnew,9.0.0*%
%TF.CreationDate,2025-03-16T18:04:45+02:00*%
%TF.ProjectId,LumiTimeV2,4c756d69-5469-46d6-9556-322e6b696361,rev?*%
%TF.SameCoordinates,Original*%
%TF.FileFunction,Copper,L1,Top*%
%TF.FilePolarity,Positive*%
%FSLAX46Y46*%
G04 Gerber Fmt 4.6, Leading zero omitted, Abs format (unit mm)*
G04 Created by KiCad (PCBNEW 9.0.0) date 2025-03-16 18:04:45*
%MOMM*%
%LPD*%
G01*
G04 APERTURE LIST*
G04 Aperture macros list*
%AMRoundRect*
0 Rectangle with rounded corners*
0 $1 Rounding radius*
0 $2 $3 $4 $5 $6 $7 $8 $9 X,Y pos of 4 corners*
0 Add a 4 corners polygon primitive as box body*
4,1,4,$2,$3,$4,$5,$6,$7,$8,$9,$2,$3,0*
0 Add four circle primitives for the rounded corners*
1,1,$1+$1,$2,$3*
1,1,$1+$1,$4,$5*
1,1,$1+$1,$6,$7*
1,1,$1+$1,$8,$9*
0 Add four rect primitives between the rounded corners*
20,1,$1+$1,$2,$3,$4,$5,0*
20,1,$1+$1,$4,$5,$6,$7,0*
20,1,$1+$1,$6,$7,$8,$9,0*
20,1,$1+$1,$8,$9,$2,$3,0*%
G04 Aperture macros list end*
%TA.AperFunction,SMDPad,CuDef*%
%ADD10RoundRect,0.175000X0.525000X0.825000X-0.525000X0.825000X-0.525000X-0.825000X0.525000X-0.825000X0*%
%TD*%
%TA.AperFunction,SMDPad,CuDef*%
%ADD11RoundRect,0.150000X0.525000X0.450000X-0.525000X0.450000X-0.525000X-0.450000X0.525000X-0.450000X0*%
%TD*%
%TA.AperFunction,SMDPad,CuDef*%
%ADD12RoundRect,0.243750X-0.516999X-0.017031X-0.273249X-0.439219X0.516999X0.017031X0.273249X0.439219X0*%
%TD*%
%TA.AperFunction,SMDPad,CuDef*%
%ADD13RoundRect,0.150000X0.825000X0.150000X-0.825000X0.150000X-0.825000X-0.150000X0.825000X-0.150000X0*%
%TD*%
%TA.AperFunction,SMDPad,CuDef*%
%ADD14RoundRect,0.243750X-0.017031X0.516999X-0.439219X0.273249X0.017031X-0.516999X0.439219X-0.273249X0*%
%TD*%
%TA.AperFunction,SMDPad,CuDef*%
%ADD15RoundRect,0.243750X-0.439219X-0.273249X-0.017031X-0.516999X0.439219X0.273249X0.017031X0.516999X0*%
%TD*%
%TA.AperFunction,SMDPad,CuDef*%
%ADD16C,0.500000*%
%TD*%
%TA.AperFunction,SMDPad,CuDef*%
%ADD17RoundRect,0.168750X0.854050X0.466759X-0.022800X0.973009X-0.854050X-0.466759X0.022800X-0.973009X0*%
%TD*%
%TA.AperFunction,SMDPad,CuDef*%
%ADD18RoundRect,0.150000X0.701314X0.114711X-0.251314X0.664711X-0.701314X-0.114711X0.251314X-0.664711X0*%
%TD*%
%TA.AperFunction,SMDPad,CuDef*%
%ADD19RoundRect,0.175000X-0.976971X0.042163X-0.451971X-0.867163X0.976971X-0.042163X0.451971X0.867163X0*%
%TD*%
%TA.AperFunction,SMDPad,CuDef*%
%ADD20RoundRect,0.150000X-0.664711X0.251314X-0.114711X-0.701314X0.664711X-0.251314X0.114711X0.701314X0*%
%TD*%
%TA.AperFunction,SMDPad,CuDef*%
%ADD21RoundRect,0.175000X-0.867163X-0.451971X0.042163X-0.976971X0.867163X0.451971X-0.042163X0.976971X0*%
%TD*%
%TA.AperFunction,SMDPad,CuDef*%
%ADD22RoundRect,0.150000X-0.701314X-0.114711X0.251314X-0.664711X0.701314X0.114711X-0.251314X0.664711X0*%
%TD*%
%TA.AperFunction,SMDPad,CuDef*%
%ADD23RoundRect,0.243750X-0.456250X0.243750X-0.456250X-0.243750X0.456250X-0.243750X0.456250X0.243750X0*%
%TD*%
%TA.AperFunction,SMDPad,CuDef*%
%ADD24RoundRect,0.243750X0.273249X-0.439219X0.516999X-0.017031X-0.273249X0.439219X-0.516999X0.017031X0*%
%TD*%
%TA.AperFunction,SMDPad,CuDef*%
%ADD25RoundRect,0.243750X0.516999X0.017031X0.273249X0.439219X-0.516999X-0.017031X-0.273249X-0.439219X0*%
%TD*%
%TA.AperFunction,SMDPad,CuDef*%
%ADD26RoundRect,0.175000X0.825000X-0.525000X0.825000X0.525000X-0.825000X0.525000X-0.825000X-0.525000X0*%
%TD*%
%TA.AperFunction,SMDPad,CuDef*%
%ADD27RoundRect,0.150000X0.450000X-0.550000X0.450000X0.550000X-0.450000X0.550000X-0.450000X-0.550000X0*%
%TD*%
%TA.AperFunction,SMDPad,CuDef*%
%ADD28RoundRect,0.243750X-0.273249X0.439219X-0.516999X0.017031X0.273249X-0.439219X0.516999X-0.017031X0*%
%TD*%
%TA.AperFunction,SMDPad,CuDef*%
%ADD29RoundRect,0.243750X0.439219X0.273249X0.017031X0.516999X-0.439219X-0.273249X-0.017031X-0.516999X0*%
%TD*%
%TA.AperFunction,SMDPad,CuDef*%
%ADD30RoundRect,0.175000X0.976971X-0.042163X0.451971X0.867163X-0.976971X0.042163X-0.451971X-0.867163X0*%
%TD*%
%TA.AperFunction,SMDPad,CuDef*%
%ADD31RoundRect,0.150000X0.664711X-0.251314X0.114711X0.701314X-0.664711X0.251314X-0.114711X-0.701314X0*%
%TD*%
%TA.AperFunction,SMDPad,CuDef*%
%ADD32R,1.100000X0.600000*%
%TD*%
%TA.AperFunction,SMDPad,CuDef*%
%ADD33R,2.400000X1.500000*%
%TD*%
%TA.AperFunction,SMDPad,CuDef*%
%ADD34RoundRect,0.250000X-0.475000X0.250000X-0.475000X-0.250000X0.475000X-0.250000X0.475000X0.250000X0*%
%TD*%
%TA.AperFunction,SMDPad,CuDef*%
%ADD35RoundRect,0.243750X-0.243750X-0.456250X0.243750X-0.456250X0.243750X0.456250X-0.243750X0.456250X0*%
%TD*%
%TA.AperFunction,SMDPad,CuDef*%
%ADD36RoundRect,0.243750X0.017031X-0.516999X0.439219X-0.273249X-0.017031X0.516999X-0.439219X0.273249X0*%
%TD*%
%TA.AperFunction,SMDPad,CuDef*%
%ADD37RoundRect,0.175000X-0.451971X0.867163X-0.976971X-0.042163X0.451971X-0.867163X0.976971X0.042163X0*%
%TD*%
%TA.AperFunction,SMDPad,CuDef*%
%ADD38RoundRect,0.150000X-0.114711X0.701314X-0.664711X-0.251314X0.114711X-0.701314X0.664711X0.251314X0*%
%TD*%
%TA.AperFunction,SMDPad,CuDef*%
%ADD39RoundRect,0.175000X0.451971X-0.867163X0.976971X0.042163X-0.451971X0.867163X-0.976971X-0.042163X0*%
%TD*%
%TA.AperFunction,SMDPad,CuDef*%
%ADD40RoundRect,0.150000X0.114711X-0.701314X0.664711X0.251314X-0.114711X0.701314X-0.664711X-0.251314X0*%
%TD*%
%TA.AperFunction,SMDPad,CuDef*%
%ADD41RoundRect,0.175000X-0.042163X-0.976971X0.867163X-0.451971X0.042163X0.976971X-0.867163X0.451971X0*%
%TD*%
%TA.AperFunction,SMDPad,CuDef*%
%ADD42RoundRect,0.150000X-0.251314X-0.664711X0.701314X-0.114711X0.251314X0.664711X-0.701314X0.114711X0*%
%TD*%
%TA.AperFunction,SMDPad,CuDef*%
%ADD43RoundRect,0.175000X0.042163X0.976971X-0.867163X0.451971X-0.042163X-0.976971X0.867163X-0.451971X0*%
%TD*%
%TA.AperFunction,SMDPad,CuDef*%
%ADD44RoundRect,0.150000X0.251314X0.664711X-0.701314X0.114711X-0.251314X-0.664711X0.701314X-0.114711X0*%
%TD*%
%TA.AperFunction,SMDPad,CuDef*%
%ADD45RoundRect,0.175000X-0.825000X0.525000X-0.825000X-0.525000X0.825000X-0.525000X0.825000X0.525000X0*%
%TD*%
%TA.AperFunction,SMDPad,CuDef*%
%ADD46RoundRect,0.150000X-0.450000X0.550000X-0.450000X-0.550000X0.450000X-0.550000X0.450000X0.550000X0*%
%TD*%
%TA.AperFunction,SMDPad,CuDef*%
%ADD47RoundRect,0.175000X-0.525000X-0.825000X0.525000X-0.825000X0.525000X0.825000X-0.525000X0.825000X0*%
%TD*%
%TA.AperFunction,SMDPad,CuDef*%
%ADD48RoundRect,0.150000X-0.550000X-0.450000X0.550000X-0.450000X0.550000X0.450000X-0.550000X0.450000X0*%
%TD*%
%TA.AperFunction,SMDPad,CuDef*%
%ADD49RoundRect,0.243750X0.243750X0.456250X-0.243750X0.456250X-0.243750X-0.456250X0.243750X-0.456250X0*%
%TD*%
%TA.AperFunction,SMDPad,CuDef*%
%ADD50RoundRect,0.243750X0.456250X-0.243750X0.456250X0.243750X-0.456250X0.243750X-0.456250X-0.243750X0*%
%TD*%
%TA.AperFunction,ViaPad*%
%ADD51C,0.600000*%
%TD*%
%TA.AperFunction,Conductor*%
%ADD52C,0.300000*%
%TD*%
%TA.AperFunction,Conductor*%
%ADD53C,0.500000*%
%TD*%
%TA.AperFunction,Conductor*%
%ADD54C,0.400000*%
%TD*%
G04 APERTURE END LIST*
D10*
%TO.P,PV12,1,K*%
%TO.N,Net-(PV11-A)*%
X146950000Y-85000000D03*
D11*
%TO.P,PV12,2,A*%
%TO.N,Net-(D13-A)*%
X153050000Y-85000000D03*
%TD*%
D12*
%TO.P,D2,1,K*%
%TO.N,GND*%
X159500000Y-93438101D03*
%TO.P,D2,2,A*%
%TO.N,Net-(D2-A)*%
X160437500Y-95061899D03*
%TD*%
D13*
%TO.P,U2,1,OSCI*%
%TO.N,Net-(U2-OSCI)*%
X149975000Y-97655000D03*
%TO.P,U2,2,OSCO*%
%TO.N,Net-(U2-OSCO)*%
X149975000Y-96385000D03*
%TO.P,U2,3,~{INT}*%
%TO.N,unconnected-(U2-~{INT}-Pad3)*%
X149975000Y-95115000D03*
%TO.P,U2,4,VSS*%
%TO.N,GND*%
X149975000Y-93845000D03*
%TO.P,U2,5,SDA*%
%TO.N,/SDA*%
X145025000Y-93845000D03*
%TO.P,U2,6,SCL*%
%TO.N,/SCL*%
X145025000Y-95115000D03*
%TO.P,U2,7,CLKO*%
%TO.N,unconnected-(U2-CLKO-Pad7)*%
X145025000Y-96385000D03*
%TO.P,U2,8,VDD*%
%TO.N,+3V7*%
X145025000Y-97655000D03*
%TD*%
D14*
%TO.P,D5,1,K*%
%TO.N,GND*%
X156561899Y-109531250D03*
%TO.P,D5,2,A*%
%TO.N,Net-(D5-A)*%
X154938101Y-110468750D03*
%TD*%
D15*
%TO.P,D1,1,K*%
%TO.N,GND*%
X154938101Y-89531250D03*
%TO.P,D1,2,A*%
%TO.N,Net-(D1-A)*%
X156561899Y-90468750D03*
%TD*%
D16*
%TO.P,FID6,*%
%TO.N,*%
X157250000Y-106500000D03*
%TD*%
D17*
%TO.P,PV1,1,K*%
%TO.N,GND*%
X154858622Y-85474999D03*
D18*
%TO.P,PV1,2,A*%
%TO.N,Net-(PV1-A)*%
X160141378Y-88525001D03*
%TD*%
D19*
%TO.P,PV8,1,K*%
%TO.N,Net-(PV7-A)*%
X138524999Y-110141377D03*
D20*
%TO.P,PV8,2,A*%
%TO.N,Net-(PV8-A)*%
X135475001Y-104858623D03*
%TD*%
D21*
%TO.P,PV7,1,K*%
%TO.N,Net-(PV6-A)*%
X145141377Y-114525000D03*
D22*
%TO.P,PV7,2,A*%
%TO.N,Net-(PV7-A)*%
X139858623Y-111475000D03*
%TD*%
D23*
%TO.P,D3,1,K*%
%TO.N,GND*%
X161500000Y-99000000D03*
%TO.P,D3,2,A*%
%TO.N,Net-(D3-A)*%
X161500000Y-100875000D03*
%TD*%
D24*
%TO.P,D10,1,K*%
%TO.N,GND*%
X139531250Y-95061899D03*
%TO.P,D10,2,A*%
%TO.N,Net-(D10-A)*%
X140468750Y-93438101D03*
%TD*%
D25*
%TO.P,D8,1,K*%
%TO.N,GND*%
X140468750Y-106561899D03*
%TO.P,D8,2,A*%
%TO.N,Net-(D8-A)*%
X139531250Y-104938101D03*
%TD*%
D26*
%TO.P,PV3,1,K*%
%TO.N,Net-(PV2-A)*%
X165000000Y-96950000D03*
D27*
%TO.P,PV3,2,A*%
%TO.N,Net-(PV3-A)*%
X165000000Y-103050000D03*
%TD*%
D28*
%TO.P,D4,1,K*%
%TO.N,GND*%
X160500000Y-104750000D03*
%TO.P,D4,2,A*%
%TO.N,Net-(D4-A)*%
X159562500Y-106373798D03*
%TD*%
D29*
%TO.P,D7,1,K*%
%TO.N,GND*%
X145061899Y-110468750D03*
%TO.P,D7,2,A*%
%TO.N,Net-(D7-A)*%
X143438101Y-109531250D03*
%TD*%
D30*
%TO.P,PV2,1,K*%
%TO.N,Net-(PV1-A)*%
X161474999Y-89858622D03*
D31*
%TO.P,PV2,2,A*%
%TO.N,Net-(PV2-A)*%
X164525001Y-95141378D03*
%TD*%
D32*
%TO.P,Y1,1,1*%
%TO.N,Net-(U2-OSCI)*%
X152375000Y-97500000D03*
%TO.P,Y1,2,2*%
%TO.N,Net-(U2-OSCO)*%
X152375000Y-96500000D03*
D33*
%TO.P,Y1,3,3*%
%TO.N,GND*%
X157975000Y-97000000D03*
%TD*%
D34*
%TO.P,C5,1*%
%TO.N,+3V7*%
X145000000Y-99550000D03*
%TO.P,C5,2*%
%TO.N,GND*%
X145000000Y-101450000D03*
%TD*%
D35*
%TO.P,D12,1,K*%
%TO.N,GND*%
X149062500Y-88500000D03*
%TO.P,D12,2,A*%
%TO.N,Net-(D12-A)*%
X150937500Y-88500000D03*
%TD*%
D16*
%TO.P,FID4,*%
%TO.N,*%
X147250000Y-88250000D03*
%TD*%
D36*
%TO.P,D11,1,K*%
%TO.N,GND*%
X143438101Y-90468750D03*
%TO.P,D11,2,A*%
%TO.N,Net-(D11-A)*%
X145061899Y-89531250D03*
%TD*%
D37*
%TO.P,PV10,1,K*%
%TO.N,Net-(PV10-K)*%
X135475000Y-95141377D03*
D38*
%TO.P,PV10,2,A*%
%TO.N,Net-(PV10-A)*%
X138525000Y-89858623D03*
%TD*%
D39*
%TO.P,PV4,1,K*%
%TO.N,Net-(PV3-A)*%
X164525000Y-104858623D03*
D40*
%TO.P,PV4,2,A*%
%TO.N,Net-(PV4-A)*%
X161475000Y-110141377D03*
%TD*%
D41*
%TO.P,PV5,1,K*%
%TO.N,Net-(PV4-A)*%
X160141377Y-111475000D03*
D42*
%TO.P,PV5,2,A*%
%TO.N,Net-(PV5-A)*%
X154858623Y-114525000D03*
%TD*%
D43*
%TO.P,PV11,1,K*%
%TO.N,Net-(PV10-A)*%
X139858623Y-88525000D03*
D44*
%TO.P,PV11,2,A*%
%TO.N,Net-(PV11-A)*%
X145141377Y-85475000D03*
%TD*%
D45*
%TO.P,PV9,1,K*%
%TO.N,Net-(PV8-A)*%
X135000000Y-103050000D03*
D46*
%TO.P,PV9,2,A*%
%TO.N,Net-(PV10-K)*%
X135000000Y-96950000D03*
%TD*%
D16*
%TO.P,FID5,*%
%TO.N,*%
X141250000Y-108500000D03*
%TD*%
D47*
%TO.P,PV6,1,K*%
%TO.N,Net-(PV5-A)*%
X153050000Y-115000000D03*
D48*
%TO.P,PV6,2,A*%
%TO.N,Net-(PV6-A)*%
X146950000Y-115000000D03*
%TD*%
D49*
%TO.P,D6,1,K*%
%TO.N,GND*%
X151125000Y-111500000D03*
%TO.P,D6,2,A*%
%TO.N,Net-(D6-A)*%
X149250000Y-111500000D03*
%TD*%
D50*
%TO.P,D9,1,K*%
%TO.N,GND*%
X138500000Y-101000000D03*
%TO.P,D9,2,A*%
%TO.N,Net-(D9-A)*%
X138500000Y-99125000D03*
%TD*%
D51*
%TO.N,GND*%
X138000000Y-102300000D03*
X138400000Y-96200000D03*
X152500000Y-99000000D03*
X151500000Y-86700000D03*
X163800000Y-92700000D03*
X148800000Y-106100000D03*
X149200000Y-102000000D03*
X153250000Y-110250000D03*
X147750000Y-92000000D03*
X143000000Y-85000000D03*
X158500000Y-108500000D03*
%TO.N,Net-(D1-A)*%
X156800000Y-88487500D03*
%TO.N,Net-(D2-A)*%
X160876672Y-92940832D03*
%TO.N,Net-(D3-A)*%
X163400000Y-96000000D03*
%TO.N,Net-(D4-A)*%
X161980331Y-107080331D03*
%TO.N,Net-(D5-A)*%
X161250000Y-108000000D03*
%TO.N,Net-(D6-A)*%
X161400000Y-103300000D03*
%TO.N,Net-(D7-A)*%
X146300000Y-108800000D03*
%TO.N,Net-(D8-A)*%
X142400000Y-106400000D03*
%TO.N,Net-(D9-A)*%
X139488685Y-103600000D03*
%TO.N,Net-(D10-A)*%
X143761307Y-91881712D03*
%TO.N,Net-(D11-A)*%
X146374171Y-89465168D03*
%TO.N,Net-(D12-A)*%
X152400000Y-88600000D03*
%TO.N,Net-(D13-A)*%
X153250000Y-84000000D03*
%TO.N,+3V7*%
X157500000Y-86250000D03*
X151750000Y-92000000D03*
X156250000Y-103400000D03*
X153100000Y-107000000D03*
X143150000Y-95700000D03*
%TO.N,/But0*%
X138250000Y-92750000D03*
X140444669Y-91694669D03*
%TO.N,/SDA*%
X148100000Y-101200000D03*
%TO.N,/SCL*%
X147300000Y-100400000D03*
%TD*%
D52*
%TO.N,Net-(D1-A)*%
X156800000Y-90230649D02*
X156561899Y-90468750D01*
X156800000Y-88487500D02*
X156800000Y-90230649D01*
%TO.N,Net-(D2-A)*%
X160437500Y-95061899D02*
X160876672Y-94622727D01*
X160876672Y-94622727D02*
X160876672Y-92940832D01*
%TO.N,Net-(D3-A)*%
X163400000Y-99700000D02*
X163400000Y-96000000D01*
X161500000Y-100875000D02*
X162225000Y-100875000D01*
X162225000Y-100875000D02*
X163400000Y-99700000D01*
%TO.N,Net-(D4-A)*%
X161980331Y-107080331D02*
X161273798Y-106373798D01*
X161273798Y-106373798D02*
X159562500Y-106373798D01*
%TO.N,Net-(D5-A)*%
X161250000Y-108000000D02*
X161050000Y-107800000D01*
X161050000Y-107800000D02*
X156100000Y-107800000D01*
X154938101Y-108961899D02*
X154938101Y-110468750D01*
X156100000Y-107800000D02*
X154938101Y-108961899D01*
%TO.N,Net-(D6-A)*%
X154300000Y-105600000D02*
X154300000Y-107700000D01*
X149250000Y-110350000D02*
X149250000Y-111500000D01*
X161400000Y-103300000D02*
X158800000Y-103300000D01*
X153400000Y-108600000D02*
X151000000Y-108600000D01*
X151000000Y-108600000D02*
X149250000Y-110350000D01*
X155600000Y-104300000D02*
X154300000Y-105600000D01*
X157800000Y-104300000D02*
X155600000Y-104300000D01*
X158800000Y-103300000D02*
X157800000Y-104300000D01*
X154300000Y-107700000D02*
X153400000Y-108600000D01*
%TO.N,Net-(D7-A)*%
X144169351Y-108800000D02*
X143438101Y-109531250D01*
X146300000Y-108800000D02*
X144169351Y-108800000D01*
%TO.N,Net-(D8-A)*%
X142400000Y-105900000D02*
X141250000Y-104750000D01*
X142400000Y-106400000D02*
X142400000Y-105900000D01*
X139719351Y-104750000D02*
X139531250Y-104938101D01*
X139300000Y-104706851D02*
X139531250Y-104938101D01*
X141250000Y-104750000D02*
X139719351Y-104750000D01*
%TO.N,Net-(D9-A)*%
X140800000Y-102288685D02*
X140800000Y-100550000D01*
X139488685Y-103600000D02*
X140800000Y-102288685D01*
X140800000Y-100550000D02*
X139375000Y-99125000D01*
X139375000Y-99125000D02*
X138500000Y-99125000D01*
%TO.N,Net-(D10-A)*%
X140468750Y-92731250D02*
X140468750Y-93438101D01*
X141318288Y-91881712D02*
X140468750Y-92731250D01*
X143761307Y-91881712D02*
X141318288Y-91881712D01*
%TO.N,Net-(D11-A)*%
X146308089Y-89531250D02*
X145061899Y-89531250D01*
X146374171Y-89465168D02*
X146308089Y-89531250D01*
%TO.N,Net-(D12-A)*%
X150937500Y-88500000D02*
X152300000Y-88500000D01*
X152300000Y-88500000D02*
X152400000Y-88600000D01*
D53*
%TO.N,Net-(D13-A)*%
X153250000Y-84000000D02*
X153250000Y-84800000D01*
D52*
X153250000Y-84800000D02*
X153050000Y-85000000D01*
D53*
%TO.N,+3V7*%
X156250000Y-103400000D02*
X154600000Y-103400000D01*
X156000000Y-87250000D02*
X154850000Y-87250000D01*
D54*
X150750000Y-91000000D02*
X151750000Y-92000000D01*
X143200000Y-99550000D02*
X142900000Y-99850000D01*
D53*
X157500000Y-86250000D02*
X157000000Y-86250000D01*
D54*
X144750000Y-99250000D02*
X145000000Y-99250000D01*
D53*
X153100000Y-104900000D02*
X153100000Y-107000000D01*
X154850000Y-87250000D02*
X153200000Y-88900000D01*
D54*
X145947316Y-91000000D02*
X150750000Y-91000000D01*
X143200000Y-97700000D02*
X143200000Y-99000000D01*
D53*
X153200000Y-90550000D02*
X151750000Y-92000000D01*
D54*
X142900000Y-101800000D02*
X142900000Y-102500000D01*
D53*
X157000000Y-86250000D02*
X156000000Y-87250000D01*
D54*
X145300000Y-104900000D02*
X153100000Y-104900000D01*
X143200000Y-98350000D02*
X143200000Y-99550000D01*
X143200000Y-95750000D02*
X143150000Y-95700000D01*
X143150000Y-95700000D02*
X143200000Y-95650000D01*
X142900000Y-99850000D02*
X142900000Y-101750000D01*
X145000000Y-99550000D02*
X143200000Y-99550000D01*
X143200000Y-95650000D02*
X143200000Y-93747316D01*
X142900000Y-102500000D02*
X145300000Y-104900000D01*
D53*
X153200000Y-88900000D02*
X153200000Y-90550000D01*
X154600000Y-103400000D02*
X153100000Y-104900000D01*
D54*
X143200000Y-97700000D02*
X143200000Y-95750000D01*
X143200000Y-93747316D02*
X145947316Y-91000000D01*
X143200000Y-97700000D02*
X143245000Y-97655000D01*
X143245000Y-97655000D02*
X145025000Y-97655000D01*
D53*
%TO.N,Net-(PV1-A)*%
X160141378Y-88525001D02*
X161474999Y-89858622D01*
D52*
%TO.N,Net-(PV2-A)*%
X164525001Y-96475001D02*
X165000000Y-96950000D01*
D53*
X164525001Y-95141378D02*
X164525001Y-96475001D01*
%TO.N,Net-(PV3-A)*%
X165000000Y-103050000D02*
X165000000Y-104383623D01*
D52*
X165000000Y-104383623D02*
X164525000Y-104858623D01*
D53*
%TO.N,Net-(PV4-A)*%
X161475000Y-110141377D02*
X160141377Y-111475000D01*
%TO.N,Net-(PV5-A)*%
X154858623Y-114525000D02*
X153525000Y-114525000D01*
D52*
X153525000Y-114525000D02*
X153050000Y-115000000D01*
%TO.N,Net-(PV6-A)*%
X145616377Y-115000000D02*
X145141377Y-114525000D01*
D53*
X146950000Y-115000000D02*
X145616377Y-115000000D01*
%TO.N,Net-(PV7-A)*%
X139858622Y-111475000D02*
X138524999Y-110141377D01*
D52*
X139858623Y-111475000D02*
X139858622Y-111475000D01*
%TO.N,Net-(PV8-A)*%
X135475001Y-103525001D02*
X135000000Y-103050000D01*
D53*
X135475001Y-104858623D02*
X135475001Y-103525001D01*
%TO.N,Net-(PV10-K)*%
X135000000Y-96950000D02*
X135000000Y-95616377D01*
D52*
X135000000Y-95616377D02*
X135475000Y-95141377D01*
D53*
%TO.N,Net-(PV10-A)*%
X138525000Y-89858623D02*
X139858623Y-88525000D01*
D52*
%TO.N,Net-(PV11-A)*%
X146475000Y-85475000D02*
X146950000Y-85000000D01*
D53*
X145141377Y-85475000D02*
X146475000Y-85475000D01*
D52*
%TO.N,/But0*%
X139305331Y-91694669D02*
X140444669Y-91694669D01*
X138250000Y-92750000D02*
X139305331Y-91694669D01*
%TO.N,/SDA*%
X148100000Y-101200000D02*
X148100000Y-95850001D01*
X148100000Y-95850001D02*
X146094999Y-93845000D01*
X145120000Y-93845000D02*
X145025000Y-93750000D01*
X146094999Y-93845000D02*
X145120000Y-93845000D01*
%TO.N,/SCL*%
X147300000Y-96320001D02*
X147300000Y-100400000D01*
X145120000Y-95115000D02*
X146094999Y-95115000D01*
X145025000Y-95020000D02*
X145120000Y-95115000D01*
X146094999Y-95115000D02*
X147300000Y-96320001D01*
%TO.N,Net-(U2-OSCI)*%
X152315000Y-97560000D02*
X152375000Y-97500000D01*
X149975000Y-97560000D02*
X152315000Y-97560000D01*
%TO.N,Net-(U2-OSCO)*%
X149975000Y-96290000D02*
X150185000Y-96500000D01*
X150185000Y-96500000D02*
X152375000Y-96500000D01*
%TD*%
%TA.AperFunction,Conductor*%
%TO.N,GND*%
G36*
X150396092Y-83005194D02*
G01*
X151173702Y-83041144D01*
X151180542Y-83041620D01*
X151955684Y-83113447D01*
X151962438Y-83114231D01*
X152733454Y-83221783D01*
X152740208Y-83222884D01*
X152838785Y-83241312D01*
X152908346Y-83274623D01*
X152951934Y-83338253D01*
X152957867Y-83415153D01*
X152924555Y-83484716D01*
X152885911Y-83516808D01*
X152881284Y-83519479D01*
X152769480Y-83631283D01*
X152690424Y-83768214D01*
X152649500Y-83920941D01*
X152649500Y-83950500D01*
X152629538Y-84025000D01*
X152575000Y-84079538D01*
X152500500Y-84099500D01*
X152470724Y-84099500D01*
X152440304Y-84102353D01*
X152312116Y-84147207D01*
X152202851Y-84227848D01*
X152202848Y-84227851D01*
X152122207Y-84337116D01*
X152077353Y-84465304D01*
X152074500Y-84495724D01*
X152074500Y-85504275D01*
X152077353Y-85534695D01*
X152077353Y-85534697D01*
X152077354Y-85534699D01*
X152078699Y-85538543D01*
X152122207Y-85662883D01*
X152202848Y-85772148D01*
X152202851Y-85772151D01*
X152312116Y-85852792D01*
X152312117Y-85852792D01*
X152312118Y-85852793D01*
X152440301Y-85897646D01*
X152470734Y-85900500D01*
X152470741Y-85900500D01*
X153395053Y-85900500D01*
X153469553Y-85920462D01*
X153524091Y-85975000D01*
X153543116Y-86032818D01*
X153546679Y-86064447D01*
X153546680Y-86064449D01*
X153603186Y-86193965D01*
X153603188Y-86193967D01*
X153695356Y-86301069D01*
X153695355Y-86301069D01*
X153721288Y-86319469D01*
X154078717Y-86525830D01*
X154717116Y-85420094D01*
X155063526Y-85420094D01*
X155777996Y-85832594D01*
X156146858Y-85193707D01*
X156160115Y-85164807D01*
X156186384Y-85025965D01*
X156186384Y-85025963D01*
X156170564Y-84885551D01*
X156170563Y-84885548D01*
X156114057Y-84756032D01*
X156114055Y-84756030D01*
X156021887Y-84648928D01*
X156021888Y-84648928D01*
X155995955Y-84630528D01*
X155638525Y-84424166D01*
X155063526Y-85420094D01*
X154717116Y-85420094D01*
X154728718Y-85399999D01*
X154772282Y-85324544D01*
X155378717Y-84274165D01*
X155043719Y-84080753D01*
X154923951Y-84041598D01*
X154853544Y-84028277D01*
X154713130Y-84044098D01*
X154583614Y-84100606D01*
X154476509Y-84192775D01*
X154458107Y-84218711D01*
X154295557Y-84500254D01*
X154241019Y-84554791D01*
X154166519Y-84574753D01*
X154092019Y-84554790D01*
X154037482Y-84500252D01*
X154027078Y-84473354D01*
X154025640Y-84473858D01*
X154022646Y-84465301D01*
X153977793Y-84337118D01*
X153897150Y-84227850D01*
X153889743Y-84220443D01*
X153851179Y-84153648D01*
X153851179Y-84088994D01*
X153849225Y-84088737D01*
X153850500Y-84079054D01*
X153850500Y-83920943D01*
X153850499Y-83920941D01*
X153809577Y-83768216D01*
X153760808Y-83683746D01*
X153740847Y-83609246D01*
X153760809Y-83534747D01*
X153815347Y-83480209D01*
X153889848Y-83460247D01*
X153923953Y-83464204D01*
X154269900Y-83545570D01*
X154276509Y-83547286D01*
X154896536Y-83723699D01*
X155001880Y-83753672D01*
X155004433Y-83755198D01*
X155007404Y-83755360D01*
X155151076Y-83802330D01*
X155151940Y-83802616D01*
X155769922Y-84009742D01*
X155776344Y-84012061D01*
X156502233Y-84293272D01*
X156508560Y-84295893D01*
X156799897Y-84424531D01*
X157220668Y-84610320D01*
X157226899Y-84613245D01*
X157563155Y-84780680D01*
X157923716Y-84960218D01*
X157929782Y-84963415D01*
X158343235Y-85193707D01*
X158609861Y-85342217D01*
X158615795Y-85345705D01*
X158871880Y-85504266D01*
X159247784Y-85737016D01*
X159277597Y-85755475D01*
X159283357Y-85759227D01*
X159461538Y-85881284D01*
X159925561Y-86199147D01*
X159931148Y-86203167D01*
X160552359Y-86672283D01*
X160557745Y-86676549D01*
X161083934Y-87113491D01*
X161156612Y-87173842D01*
X161161803Y-87178359D01*
X161427116Y-87420224D01*
X161737061Y-87702777D01*
X161742039Y-87707530D01*
X162292469Y-88257960D01*
X162297222Y-88262938D01*
X162419117Y-88396650D01*
X162454555Y-88465155D01*
X162452520Y-88509152D01*
X162455226Y-88508428D01*
X162529726Y-88528390D01*
X162565338Y-88557047D01*
X162821638Y-88838194D01*
X162826157Y-88843387D01*
X163298401Y-89412089D01*
X163323442Y-89442244D01*
X163327716Y-89447640D01*
X163796832Y-90068851D01*
X163800852Y-90074438D01*
X164240767Y-90716635D01*
X164244524Y-90722402D01*
X164654294Y-91384204D01*
X164657782Y-91390138D01*
X165036578Y-92070206D01*
X165039787Y-92076295D01*
X165386754Y-92773100D01*
X165389679Y-92779331D01*
X165704099Y-93491423D01*
X165706733Y-93497782D01*
X165883717Y-93954630D01*
X165956649Y-94142890D01*
X165987928Y-94223629D01*
X165990265Y-94230101D01*
X166046470Y-94397793D01*
X166237644Y-94968180D01*
X166239680Y-94974755D01*
X166452706Y-95723464D01*
X166454436Y-95730126D01*
X166564231Y-96196946D01*
X166566174Y-96205205D01*
X166585099Y-96285672D01*
X166592244Y-96316048D01*
X166592244Y-96316049D01*
X166632653Y-96487860D01*
X166634074Y-96494594D01*
X166777111Y-97259771D01*
X166778219Y-97266565D01*
X166839410Y-97705226D01*
X166884778Y-98030462D01*
X166885763Y-98037519D01*
X166886556Y-98044356D01*
X166958378Y-98819444D01*
X166958855Y-98826311D01*
X166994806Y-99603907D01*
X166994965Y-99610788D01*
X166994965Y-100389211D01*
X166994806Y-100396092D01*
X166958855Y-101173688D01*
X166958378Y-101180555D01*
X166886556Y-101955643D01*
X166885763Y-101962480D01*
X166778219Y-102733434D01*
X166777111Y-102740228D01*
X166634074Y-103505405D01*
X166632653Y-103512140D01*
X166454436Y-104269873D01*
X166452706Y-104276535D01*
X166265644Y-104933989D01*
X166264506Y-104937794D01*
X166197422Y-105151735D01*
X166196821Y-105152680D01*
X166196524Y-105154505D01*
X165990266Y-105769896D01*
X165987928Y-105776370D01*
X165706733Y-106502217D01*
X165704099Y-106508576D01*
X165389679Y-107220668D01*
X165386754Y-107226899D01*
X165039787Y-107923704D01*
X165036578Y-107929793D01*
X164657782Y-108609861D01*
X164654294Y-108615795D01*
X164244524Y-109277597D01*
X164240767Y-109283364D01*
X163800852Y-109925561D01*
X163796832Y-109931148D01*
X163327716Y-110552359D01*
X163323442Y-110557755D01*
X162826157Y-111156612D01*
X162821638Y-111161805D01*
X162297222Y-111737061D01*
X162292469Y-111742039D01*
X161742039Y-112292469D01*
X161737061Y-112297222D01*
X161603348Y-112419118D01*
X161534843Y-112454556D01*
X161490845Y-112452521D01*
X161491570Y-112455227D01*
X161471608Y-112529727D01*
X161442951Y-112565339D01*
X161161805Y-112821638D01*
X161156612Y-112826157D01*
X160557755Y-113323442D01*
X160552359Y-113327716D01*
X159931148Y-113796832D01*
X159925561Y-113800852D01*
X159283364Y-114240767D01*
X159277597Y-114244524D01*
X158615795Y-114654294D01*
X158609861Y-114657782D01*
X157929793Y-115036578D01*
X157923704Y-115039787D01*
X157226899Y-115386754D01*
X157220668Y-115389679D01*
X156508576Y-115704099D01*
X156502217Y-115706733D01*
X155776370Y-115987928D01*
X155769896Y-115990266D01*
X155031819Y-116237644D01*
X155025244Y-116239680D01*
X154276535Y-116452706D01*
X154269873Y-116454436D01*
X153803053Y-116564231D01*
X153683951Y-116592244D01*
X153683950Y-116592243D01*
X153683950Y-116592244D01*
X153512139Y-116632653D01*
X153505405Y-116634074D01*
X152740228Y-116777111D01*
X152733434Y-116778219D01*
X151962480Y-116885763D01*
X151955643Y-116886556D01*
X151180555Y-116958378D01*
X151173688Y-116958855D01*
X150396092Y-116994806D01*
X150389211Y-116994965D01*
X149610789Y-116994965D01*
X149603908Y-116994806D01*
X148826311Y-116958855D01*
X148819444Y-116958378D01*
X148124680Y-116893999D01*
X148044352Y-116886555D01*
X148037523Y-116885763D01*
X147853389Y-116860077D01*
X147266565Y-116778219D01*
X147259771Y-116777111D01*
X146494594Y-116634074D01*
X146487859Y-116632653D01*
X145730126Y-116454436D01*
X145723464Y-116452706D01*
X145066010Y-116265644D01*
X145062205Y-116264506D01*
X144848264Y-116197422D01*
X144847318Y-116196821D01*
X144845494Y-116196524D01*
X144750502Y-116164686D01*
X144230101Y-115990265D01*
X144223629Y-115987928D01*
X143497782Y-115706733D01*
X143491423Y-115704099D01*
X142779331Y-115389679D01*
X142773100Y-115386754D01*
X142076295Y-115039787D01*
X142070206Y-115036578D01*
X141942661Y-114965536D01*
X143793960Y-114965536D01*
X143793960Y-114965541D01*
X143810192Y-115101303D01*
X143810193Y-115101305D01*
X143864017Y-115226998D01*
X143864018Y-115227000D01*
X143951071Y-115332434D01*
X143951073Y-115332436D01*
X143997059Y-115366015D01*
X143997064Y-115366018D01*
X143997072Y-115366024D01*
X144195678Y-115480689D01*
X144953111Y-115917992D01*
X144953113Y-115917992D01*
X144985181Y-115936507D01*
X145037268Y-115959551D01*
X145172108Y-115982225D01*
X145307874Y-115965992D01*
X145433568Y-115912167D01*
X145539006Y-115825110D01*
X145572593Y-115779112D01*
X145639698Y-115662883D01*
X145661570Y-115625000D01*
X145716108Y-115570462D01*
X145790608Y-115550500D01*
X145852161Y-115550500D01*
X145926661Y-115570462D01*
X145981199Y-115625000D01*
X145992799Y-115650286D01*
X145997207Y-115662882D01*
X146077848Y-115772148D01*
X146077851Y-115772151D01*
X146187116Y-115852792D01*
X146187117Y-115852792D01*
X146187118Y-115852793D01*
X146315301Y-115897646D01*
X146345734Y-115900500D01*
X146345741Y-115900500D01*
X147554259Y-115900500D01*
X147554266Y-115900500D01*
X147584699Y-115897646D01*
X147712882Y-115852793D01*
X147822150Y-115772150D01*
X147902793Y-115662882D01*
X147947646Y-115534699D01*
X147950500Y-115504266D01*
X147950500Y-114495734D01*
X147947646Y-114465301D01*
X147902793Y-114337118D01*
X147833113Y-114242705D01*
X147822151Y-114227851D01*
X147822148Y-114227848D01*
X147712883Y-114147207D01*
X147662339Y-114129521D01*
X152049500Y-114129521D01*
X152049500Y-115870479D01*
X152051970Y-115893458D01*
X152055588Y-115927114D01*
X152055588Y-115927116D01*
X152055589Y-115927117D01*
X152055589Y-115927119D01*
X152097593Y-116039734D01*
X152103372Y-116055226D01*
X152185313Y-116164687D01*
X152294774Y-116246628D01*
X152422886Y-116294412D01*
X152479515Y-116300500D01*
X153620484Y-116300499D01*
X153677114Y-116294412D01*
X153805226Y-116246628D01*
X153914687Y-116164687D01*
X153996628Y-116055226D01*
X154044412Y-115927114D01*
X154050500Y-115870485D01*
X154050499Y-115629687D01*
X154070461Y-115555190D01*
X154124998Y-115500652D01*
X154199498Y-115480689D01*
X154273998Y-115500651D01*
X154296690Y-115516752D01*
X154364917Y-115575466D01*
X154364921Y-115575469D01*
X154489393Y-115629777D01*
X154512358Y-115632364D01*
X154624344Y-115644981D01*
X154757781Y-115619734D01*
X154757782Y-115619733D01*
X154757784Y-115619733D01*
X154785552Y-115606994D01*
X154785551Y-115606994D01*
X154785563Y-115606989D01*
X155832183Y-115002723D01*
X155857111Y-114985035D01*
X155945695Y-114882099D01*
X156000002Y-114757627D01*
X156015207Y-114622676D01*
X155989959Y-114489240D01*
X155978979Y-114465304D01*
X155977216Y-114461461D01*
X155905425Y-114337116D01*
X155472948Y-113588043D01*
X155455260Y-113563114D01*
X155352325Y-113474531D01*
X155352324Y-113474530D01*
X155227852Y-113420222D01*
X155092905Y-113405019D01*
X155092903Y-113405019D01*
X155092902Y-113405019D01*
X155066214Y-113410068D01*
X154959461Y-113430266D01*
X154931693Y-113443005D01*
X154131066Y-113905247D01*
X154056566Y-113925209D01*
X153982066Y-113905247D01*
X153937286Y-113865502D01*
X153914688Y-113835315D01*
X153914687Y-113835313D01*
X153805226Y-113753372D01*
X153784793Y-113745751D01*
X153677113Y-113705587D01*
X153620499Y-113699501D01*
X153620490Y-113699500D01*
X153620485Y-113699500D01*
X153620478Y-113699500D01*
X152479520Y-113699500D01*
X152451201Y-113702544D01*
X152422886Y-113705588D01*
X152422883Y-113705588D01*
X152422882Y-113705589D01*
X152422880Y-113705589D01*
X152294776Y-113753371D01*
X152294772Y-113753373D01*
X152185313Y-113835313D01*
X152103373Y-113944772D01*
X152103371Y-113944776D01*
X152055587Y-114072886D01*
X152049501Y-114129500D01*
X152049500Y-114129521D01*
X147662339Y-114129521D01*
X147653042Y-114126268D01*
X147584699Y-114102354D01*
X147584697Y-114102353D01*
X147584695Y-114102353D01*
X147554275Y-114099500D01*
X147554266Y-114099500D01*
X146622838Y-114099500D01*
X146548338Y-114079538D01*
X146493800Y-114025000D01*
X146474892Y-113968189D01*
X146472561Y-113948696D01*
X146472561Y-113948695D01*
X146418736Y-113823001D01*
X146418735Y-113822999D01*
X146331682Y-113717565D01*
X146331680Y-113717563D01*
X146285694Y-113683984D01*
X146285685Y-113683978D01*
X146285682Y-113683976D01*
X146285672Y-113683970D01*
X145297579Y-113113496D01*
X145297571Y-113113492D01*
X145245488Y-113090450D01*
X145245484Y-113090448D01*
X145137902Y-113072358D01*
X145110646Y-113067775D01*
X145110645Y-113067775D01*
X144974881Y-113084007D01*
X144974879Y-113084008D01*
X144849187Y-113137831D01*
X144743745Y-113224892D01*
X144710169Y-113270875D01*
X144710154Y-113270897D01*
X143839679Y-114778608D01*
X143816633Y-114830700D01*
X143793960Y-114965536D01*
X141942661Y-114965536D01*
X141390138Y-114657782D01*
X141384204Y-114654294D01*
X140722402Y-114244524D01*
X140716635Y-114240767D01*
X140074438Y-113800852D01*
X140068851Y-113796832D01*
X139447640Y-113327716D01*
X139442244Y-113323442D01*
X139323562Y-113224890D01*
X138843387Y-112826157D01*
X138838194Y-112821638D01*
X138262938Y-112297222D01*
X138257960Y-112292469D01*
X137707530Y-111742039D01*
X137702777Y-111737061D01*
X137580885Y-111603352D01*
X137545447Y-111534847D01*
X137547481Y-111490840D01*
X137544769Y-111491567D01*
X137470269Y-111471605D01*
X137434657Y-111442948D01*
X137431506Y-111439492D01*
X137178359Y-111161803D01*
X137173842Y-111156612D01*
X136676549Y-110557745D01*
X136672283Y-110552359D01*
X136338715Y-110110643D01*
X137067774Y-110110643D01*
X137067774Y-110110648D01*
X137090448Y-110245487D01*
X137113487Y-110297567D01*
X137673807Y-111268067D01*
X137693769Y-111342567D01*
X137689413Y-111358821D01*
X137736167Y-111360983D01*
X137785863Y-111388074D01*
X137822998Y-111418735D01*
X137823000Y-111418736D01*
X137948694Y-111472561D01*
X138084460Y-111488794D01*
X138219301Y-111466120D01*
X138271387Y-111443078D01*
X138501094Y-111310456D01*
X138575594Y-111290493D01*
X138650094Y-111310455D01*
X138704632Y-111364992D01*
X138724595Y-111439492D01*
X138721997Y-111467194D01*
X138702039Y-111572671D01*
X138702039Y-111572677D01*
X138717243Y-111707627D01*
X138717244Y-111707628D01*
X138771550Y-111832098D01*
X138771551Y-111832099D01*
X138860135Y-111935035D01*
X138885063Y-111952723D01*
X139931683Y-112556989D01*
X139931689Y-112556991D01*
X139931693Y-112556994D01*
X139959461Y-112569733D01*
X139959464Y-112569733D01*
X139959465Y-112569734D01*
X140092902Y-112594981D01*
X140227852Y-112579777D01*
X140352325Y-112525469D01*
X140455260Y-112436886D01*
X140472948Y-112411957D01*
X140977214Y-111538543D01*
X140989959Y-111510760D01*
X141009067Y-111409774D01*
X144691803Y-111409774D01*
X144809864Y-111477936D01*
X144890779Y-111512537D01*
X145038620Y-111534574D01*
X145186924Y-111515908D01*
X145186926Y-111515908D01*
X145324692Y-111457922D01*
X145441705Y-111364918D01*
X145441705Y-111364917D01*
X145494480Y-111294496D01*
X145668892Y-110992403D01*
X145116802Y-110673654D01*
X144691803Y-111409774D01*
X141009067Y-111409774D01*
X141015207Y-111377324D01*
X141000002Y-111242373D01*
X140945695Y-111117901D01*
X140857111Y-111014965D01*
X140832183Y-110997277D01*
X140379207Y-110735751D01*
X144073854Y-110735751D01*
X144092520Y-110884055D01*
X144092520Y-110884057D01*
X144150506Y-111021823D01*
X144243509Y-111138835D01*
X144243514Y-111138840D01*
X144313939Y-111191615D01*
X144431994Y-111259774D01*
X144856993Y-110523653D01*
X144666800Y-110413845D01*
X145266803Y-110413845D01*
X145818893Y-110732595D01*
X145818894Y-110732595D01*
X145993304Y-110430509D01*
X146027905Y-110349589D01*
X146049943Y-110201748D01*
X146031277Y-110053444D01*
X146031277Y-110053442D01*
X145973291Y-109915676D01*
X145880288Y-109798664D01*
X145880283Y-109798659D01*
X145809858Y-109745884D01*
X145691802Y-109677724D01*
X145266803Y-110413845D01*
X144666800Y-110413845D01*
X144304903Y-110204903D01*
X144130493Y-110506990D01*
X144095892Y-110587910D01*
X144073854Y-110735751D01*
X140379207Y-110735751D01*
X140015522Y-110525777D01*
X139960985Y-110471240D01*
X139941023Y-110396740D01*
X139953052Y-110338088D01*
X139965991Y-110307874D01*
X139982224Y-110172108D01*
X139959550Y-110037268D01*
X139936508Y-109985182D01*
X139828579Y-109798244D01*
X142449552Y-109798244D01*
X142468234Y-109946683D01*
X142468234Y-109946685D01*
X142468235Y-109946686D01*
X142521563Y-110073388D01*
X142526274Y-110084580D01*
X142599025Y-110176113D01*
X142619364Y-110201702D01*
X142689856Y-110254528D01*
X143185846Y-110540888D01*
X143266841Y-110575523D01*
X143414817Y-110597580D01*
X143563256Y-110578897D01*
X143701150Y-110520857D01*
X143818273Y-110427767D01*
X143871099Y-110357275D01*
X144369959Y-109493225D01*
X144404594Y-109412230D01*
X144406216Y-109401346D01*
X144409766Y-109377534D01*
X144420879Y-109351946D01*
X144428100Y-109325000D01*
X144436027Y-109317072D01*
X144440493Y-109306791D01*
X144462910Y-109290189D01*
X144482638Y-109270462D01*
X144493467Y-109267560D01*
X144502476Y-109260889D01*
X144557138Y-109250500D01*
X144660390Y-109250500D01*
X144734890Y-109270462D01*
X144789428Y-109325000D01*
X144809390Y-109399500D01*
X144789428Y-109474000D01*
X144753100Y-109516144D01*
X144682092Y-109572581D01*
X144682092Y-109572582D01*
X144629317Y-109643003D01*
X144454904Y-109945095D01*
X145006994Y-110263844D01*
X145431993Y-109527724D01*
X145431775Y-109526909D01*
X145378866Y-109474001D01*
X145358903Y-109399501D01*
X145378865Y-109325001D01*
X145433402Y-109270463D01*
X145507902Y-109250500D01*
X145841583Y-109250500D01*
X145916083Y-109270462D01*
X145930182Y-109279883D01*
X145931282Y-109280518D01*
X145931284Y-109280520D01*
X146068216Y-109359577D01*
X146220943Y-109400500D01*
X146379057Y-109400500D01*
X146531784Y-109359577D01*
X146668716Y-109280520D01*
X146780520Y-109168716D01*
X146859577Y-109031784D01*
X146900500Y-108879057D01*
X146900500Y-108720943D01*
X146859577Y-108568216D01*
X146780520Y-108431284D01*
X146668716Y-108319480D01*
X146531784Y-108240423D01*
X146379057Y-108199500D01*
X146220943Y-108199500D01*
X146068216Y-108240423D01*
X145931284Y-108319480D01*
X145931283Y-108319480D01*
X145922827Y-108324363D01*
X145922018Y-108322962D01*
X145861033Y-108348225D01*
X145841583Y-108349500D01*
X144110038Y-108349500D01*
X144019677Y-108373712D01*
X144019677Y-108373713D01*
X144007570Y-108376957D01*
X143995463Y-108380201D01*
X143892735Y-108439511D01*
X143845876Y-108486370D01*
X143779081Y-108524933D01*
X143701953Y-108524933D01*
X143681935Y-108518010D01*
X143609367Y-108486979D01*
X143609363Y-108486977D01*
X143609361Y-108486977D01*
X143461385Y-108464920D01*
X143312946Y-108483603D01*
X143312944Y-108483603D01*
X143175051Y-108541643D01*
X143175048Y-108541645D01*
X143057930Y-108634731D01*
X143057929Y-108634733D01*
X143005103Y-108705225D01*
X143005100Y-108705229D01*
X143005100Y-108705230D01*
X142506241Y-109569277D01*
X142471608Y-109650268D01*
X142471606Y-109650276D01*
X142449552Y-109798244D01*
X139828579Y-109798244D01*
X139366022Y-108997074D01*
X139332436Y-108951074D01*
X139273715Y-108902590D01*
X139226999Y-108864018D01*
X139226997Y-108864017D01*
X139101304Y-108810193D01*
X139101302Y-108810192D01*
X138965540Y-108793960D01*
X138965535Y-108793960D01*
X138830695Y-108816634D01*
X138778615Y-108839673D01*
X137270882Y-109710164D01*
X137224889Y-109743747D01*
X137137831Y-109849187D01*
X137084007Y-109974879D01*
X137084006Y-109974881D01*
X137067774Y-110110643D01*
X136338715Y-110110643D01*
X136203167Y-109931148D01*
X136199147Y-109925561D01*
X135847507Y-109412230D01*
X135759227Y-109283357D01*
X135755475Y-109277597D01*
X135749260Y-109267560D01*
X135523281Y-108902590D01*
X135345705Y-108615795D01*
X135342217Y-108609861D01*
X135279268Y-108496846D01*
X135244322Y-108434106D01*
X140749500Y-108434106D01*
X140749500Y-108565893D01*
X140758639Y-108600001D01*
X140783608Y-108693186D01*
X140799634Y-108720943D01*
X140849497Y-108807310D01*
X140849498Y-108807311D01*
X140849500Y-108807314D01*
X140942686Y-108900500D01*
X140942688Y-108900501D01*
X140942689Y-108900502D01*
X140946306Y-108902590D01*
X141056814Y-108966392D01*
X141184108Y-109000500D01*
X141315892Y-109000500D01*
X141443186Y-108966392D01*
X141557314Y-108900500D01*
X141650500Y-108807314D01*
X141716392Y-108693186D01*
X141750500Y-108565892D01*
X141750500Y-108434108D01*
X141716392Y-108306814D01*
X141650500Y-108192686D01*
X141557314Y-108099500D01*
X141557311Y-108099498D01*
X141557310Y-108099497D01*
X141486514Y-108058623D01*
X141443186Y-108033608D01*
X141315892Y-107999500D01*
X141184108Y-107999500D01*
X141056814Y-108033608D01*
X141056812Y-108033608D01*
X141056812Y-108033609D01*
X140942689Y-108099497D01*
X140849497Y-108192689D01*
X140798641Y-108280776D01*
X140783608Y-108306814D01*
X140767778Y-108365890D01*
X140749500Y-108434106D01*
X135244322Y-108434106D01*
X135061489Y-108105859D01*
X134963415Y-107929782D01*
X134960212Y-107923704D01*
X134958837Y-107920943D01*
X134818898Y-107639906D01*
X134639322Y-107279268D01*
X134613245Y-107226900D01*
X134613245Y-107226899D01*
X134610320Y-107220668D01*
X134597574Y-107191802D01*
X139677724Y-107191802D01*
X139745884Y-107309858D01*
X139798659Y-107380283D01*
X139798664Y-107380288D01*
X139915676Y-107473291D01*
X140053443Y-107531277D01*
X140201748Y-107549943D01*
X140349589Y-107527905D01*
X140430509Y-107493304D01*
X140732595Y-107318894D01*
X140732595Y-107318893D01*
X140413845Y-106766803D01*
X139677724Y-107191802D01*
X134597574Y-107191802D01*
X134352546Y-106636866D01*
X134343687Y-106616802D01*
X134329723Y-106585177D01*
X139402925Y-106585177D01*
X139424962Y-106733018D01*
X139459564Y-106813935D01*
X139459568Y-106813945D01*
X139527724Y-106931993D01*
X140073651Y-106616802D01*
X140673654Y-106616802D01*
X140992403Y-107168892D01*
X141294496Y-106994480D01*
X141364917Y-106941705D01*
X141364918Y-106941705D01*
X141457922Y-106824692D01*
X141515908Y-106686926D01*
X141515909Y-106686922D01*
X141529390Y-106579806D01*
X141558499Y-106508381D01*
X141603175Y-106473692D01*
X141594158Y-106468351D01*
X141576000Y-106463486D01*
X141561551Y-106449037D01*
X141543972Y-106438625D01*
X141534754Y-106422240D01*
X141521462Y-106408948D01*
X141513500Y-106393031D01*
X141477936Y-106309864D01*
X141409774Y-106191803D01*
X140673654Y-106616802D01*
X140073651Y-106616802D01*
X140263844Y-106506994D01*
X139945095Y-105954904D01*
X139643003Y-106129317D01*
X139572582Y-106182092D01*
X139572581Y-106182092D01*
X139479577Y-106299105D01*
X139421591Y-106436871D01*
X139421591Y-106436873D01*
X139402925Y-106585177D01*
X134329723Y-106585177D01*
X134295893Y-106508560D01*
X134293266Y-106502217D01*
X134292002Y-106498953D01*
X134012061Y-105776344D01*
X134009742Y-105769922D01*
X133762347Y-105031793D01*
X133760327Y-105025270D01*
X133547286Y-104276509D01*
X133545570Y-104269900D01*
X133367345Y-103512135D01*
X133365925Y-103505405D01*
X133361000Y-103479057D01*
X133222884Y-102740208D01*
X133221780Y-102733434D01*
X133186361Y-102479521D01*
X133699500Y-102479521D01*
X133699500Y-103620489D01*
X133699955Y-103624723D01*
X133699958Y-103624735D01*
X133705588Y-103677114D01*
X133753372Y-103805226D01*
X133835313Y-103914687D01*
X133944774Y-103996628D01*
X134072886Y-104044412D01*
X134129515Y-104050500D01*
X134370312Y-104050499D01*
X134444810Y-104070461D01*
X134499348Y-104124998D01*
X134519311Y-104199498D01*
X134499349Y-104273998D01*
X134483249Y-104296689D01*
X134424534Y-104364917D01*
X134424531Y-104364921D01*
X134370223Y-104489393D01*
X134355020Y-104624340D01*
X134355020Y-104624344D01*
X134361859Y-104660489D01*
X134380267Y-104757784D01*
X134393006Y-104785552D01*
X134393010Y-104785560D01*
X134393012Y-104785563D01*
X134997278Y-105832183D01*
X135014966Y-105857111D01*
X135117902Y-105945695D01*
X135241223Y-105999500D01*
X135242372Y-106000001D01*
X135242373Y-106000002D01*
X135259508Y-106001932D01*
X135377325Y-106015207D01*
X135510761Y-105989959D01*
X135538544Y-105977214D01*
X136411958Y-105472948D01*
X136436887Y-105455260D01*
X136525470Y-105352325D01*
X136579778Y-105227852D01*
X136594982Y-105092902D01*
X136569735Y-104959465D01*
X136569734Y-104959464D01*
X136569734Y-104959461D01*
X136556995Y-104931693D01*
X136556992Y-104931689D01*
X136556990Y-104931683D01*
X136094752Y-104131063D01*
X136074791Y-104056565D01*
X136094753Y-103982065D01*
X136134495Y-103937287D01*
X136164687Y-103914687D01*
X136246628Y-103805226D01*
X136294412Y-103677114D01*
X136300500Y-103620485D01*
X136300499Y-102479516D01*
X136294412Y-102422886D01*
X136246628Y-102294774D01*
X136164687Y-102185313D01*
X136055226Y-102103372D01*
X136034793Y-102095751D01*
X135927113Y-102055587D01*
X135870499Y-102049501D01*
X135870490Y-102049500D01*
X135870485Y-102049500D01*
X135870478Y-102049500D01*
X134129520Y-102049500D01*
X134102973Y-102052354D01*
X134072886Y-102055588D01*
X134072883Y-102055588D01*
X134072882Y-102055589D01*
X134072880Y-102055589D01*
X133944776Y-102103371D01*
X133944772Y-102103373D01*
X133835313Y-102185313D01*
X133753373Y-102294772D01*
X133753371Y-102294776D01*
X133705587Y-102422886D01*
X133699501Y-102479500D01*
X133699500Y-102479521D01*
X133186361Y-102479521D01*
X133114231Y-101962438D01*
X133113447Y-101955684D01*
X133051422Y-101286318D01*
X137500000Y-101286318D01*
X137510493Y-101373697D01*
X137510494Y-101373699D01*
X137565328Y-101512751D01*
X137565328Y-101512752D01*
X137655644Y-101631852D01*
X137655647Y-101631855D01*
X137774748Y-101722171D01*
X137913800Y-101777005D01*
X137913802Y-101777006D01*
X138001181Y-101787499D01*
X138001183Y-101787500D01*
X138350000Y-101787500D01*
X138650000Y-101787500D01*
X138998817Y-101787500D01*
X138998818Y-101787499D01*
X139086197Y-101777006D01*
X139086199Y-101777005D01*
X139225251Y-101722171D01*
X139225252Y-101722171D01*
X139344352Y-101631855D01*
X139344355Y-101631852D01*
X139434671Y-101512752D01*
X139434671Y-101512751D01*
X139489505Y-101373699D01*
X139489506Y-101373697D01*
X139499999Y-101286318D01*
X139500000Y-101286316D01*
X139500000Y-101150000D01*
X138650000Y-101150000D01*
X138650000Y-101787500D01*
X138350000Y-101787500D01*
X138350000Y-101150000D01*
X137500000Y-101150000D01*
X137500000Y-101286318D01*
X133051422Y-101286318D01*
X133041620Y-101180542D01*
X133041144Y-101173688D01*
X133037514Y-101095163D01*
X133024886Y-100822019D01*
X133019877Y-100713681D01*
X137500000Y-100713681D01*
X137500000Y-100850000D01*
X138350000Y-100850000D01*
X138650000Y-100850000D01*
X139500000Y-100850000D01*
X139500000Y-100713683D01*
X139499999Y-100713681D01*
X139489506Y-100626302D01*
X139489505Y-100626300D01*
X139434671Y-100487248D01*
X139434671Y-100487247D01*
X139344355Y-100368147D01*
X139344352Y-100368144D01*
X139225251Y-100277828D01*
X139086199Y-100222994D01*
X139086197Y-100222993D01*
X138998818Y-100212500D01*
X138650000Y-100212500D01*
X138650000Y-100850000D01*
X138350000Y-100850000D01*
X138350000Y-100212500D01*
X138001181Y-100212500D01*
X137913802Y-100222993D01*
X137913800Y-100222994D01*
X137774748Y-100277828D01*
X137774747Y-100277828D01*
X137655647Y-100368144D01*
X137655644Y-100368147D01*
X137565328Y-100487247D01*
X137565328Y-100487248D01*
X137510494Y-100626300D01*
X137510493Y-100626302D01*
X137500000Y-100713681D01*
X133019877Y-100713681D01*
X133005194Y-100396092D01*
X133005035Y-100389211D01*
X133005035Y-99610788D01*
X133005194Y-99603907D01*
X133008788Y-99526178D01*
X133040574Y-98838636D01*
X137499500Y-98838636D01*
X137499500Y-99411363D01*
X137510002Y-99498821D01*
X137564888Y-99637998D01*
X137564889Y-99638000D01*
X137655287Y-99757209D01*
X137655290Y-99757212D01*
X137690758Y-99784108D01*
X137774500Y-99847611D01*
X137841120Y-99873883D01*
X137913678Y-99902497D01*
X137930095Y-99904468D01*
X138001140Y-99913000D01*
X138001141Y-99913000D01*
X138998859Y-99913000D01*
X138998860Y-99913000D01*
X139086321Y-99902497D01*
X139225500Y-99847611D01*
X139255635Y-99824758D01*
X139327054Y-99795651D01*
X139403463Y-99806152D01*
X139451022Y-99838125D01*
X140305859Y-100692962D01*
X140344423Y-100759757D01*
X140349500Y-100798321D01*
X140349500Y-102040364D01*
X140329538Y-102114864D01*
X140305859Y-102145723D01*
X139494283Y-102957298D01*
X139427488Y-102995862D01*
X139410856Y-102999170D01*
X139307107Y-103026970D01*
X139256901Y-103040423D01*
X139256899Y-103040423D01*
X139256899Y-103040424D01*
X139119968Y-103119480D01*
X139008165Y-103231283D01*
X138956402Y-103320941D01*
X138929108Y-103368216D01*
X138926203Y-103379058D01*
X138888185Y-103520941D01*
X138888185Y-103679058D01*
X138897630Y-103714305D01*
X138929108Y-103831784D01*
X138981279Y-103922148D01*
X139008165Y-103968716D01*
X139100030Y-104060581D01*
X139138594Y-104127376D01*
X139138594Y-104204504D01*
X139100030Y-104271299D01*
X139069171Y-104294978D01*
X138905436Y-104389511D01*
X138705225Y-104505103D01*
X138677257Y-104526062D01*
X138634731Y-104557930D01*
X138541645Y-104675048D01*
X138541643Y-104675051D01*
X138483603Y-104812944D01*
X138483603Y-104812946D01*
X138464920Y-104961385D01*
X138486977Y-105109360D01*
X138486978Y-105109364D01*
X138495719Y-105129806D01*
X138521612Y-105190356D01*
X138807972Y-105686346D01*
X138860798Y-105756838D01*
X138976498Y-105848798D01*
X138977919Y-105849927D01*
X138977920Y-105849928D01*
X139115814Y-105907967D01*
X139264254Y-105926650D01*
X139412230Y-105904594D01*
X139493225Y-105869959D01*
X139605905Y-105804903D01*
X140204903Y-105804903D01*
X140523653Y-106356993D01*
X141259774Y-105931994D01*
X141191615Y-105813939D01*
X141138840Y-105743514D01*
X141138835Y-105743509D01*
X141021823Y-105650506D01*
X140884056Y-105592520D01*
X140735751Y-105573854D01*
X140587910Y-105595892D01*
X140506990Y-105630493D01*
X140204903Y-105804903D01*
X139605905Y-105804903D01*
X140357275Y-105371099D01*
X140427767Y-105318273D01*
X140476633Y-105256790D01*
X140538615Y-105210889D01*
X140593278Y-105200500D01*
X141001679Y-105200500D01*
X141076179Y-105220462D01*
X141107038Y-105244141D01*
X141829375Y-105966479D01*
X141867939Y-106033274D01*
X141867939Y-106110402D01*
X141867500Y-106112005D01*
X141862439Y-106130081D01*
X141840423Y-106168216D01*
X141799500Y-106320943D01*
X141799500Y-106354911D01*
X141793984Y-106374615D01*
X141784403Y-106390789D01*
X141779538Y-106408948D01*
X141765089Y-106423396D01*
X141754677Y-106440976D01*
X141738292Y-106450193D01*
X141725724Y-106462761D01*
X141767254Y-106479686D01*
X141814555Y-106540607D01*
X141821147Y-106559845D01*
X141840423Y-106631784D01*
X141919480Y-106768716D01*
X142031284Y-106880520D01*
X142168216Y-106959577D01*
X142320943Y-107000500D01*
X142479057Y-107000500D01*
X142631784Y-106959577D01*
X142768716Y-106880520D01*
X142880520Y-106768716D01*
X142959577Y-106631784D01*
X143000500Y-106479057D01*
X143000500Y-106320943D01*
X142959577Y-106168216D01*
X142880520Y-106031284D01*
X142880519Y-106031283D01*
X142875637Y-106022827D01*
X142877035Y-106022019D01*
X142851774Y-105961022D01*
X142850500Y-105941582D01*
X142850500Y-105840691D01*
X142819799Y-105726114D01*
X142819797Y-105726110D01*
X142796839Y-105686345D01*
X142796838Y-105686344D01*
X142761741Y-105625553D01*
X142760490Y-105623386D01*
X141526614Y-104389511D01*
X141526611Y-104389509D01*
X141526607Y-104389506D01*
X141423890Y-104330202D01*
X141423887Y-104330201D01*
X141399673Y-104323713D01*
X141309309Y-104299500D01*
X140403856Y-104299500D01*
X140329356Y-104279538D01*
X140274818Y-104225000D01*
X140274818Y-104224999D01*
X140254530Y-104189860D01*
X140254528Y-104189856D01*
X140201702Y-104119364D01*
X140143794Y-104073338D01*
X140083262Y-104025226D01*
X140037361Y-103963244D01*
X140028600Y-103886615D01*
X140032907Y-103866946D01*
X140037933Y-103849672D01*
X140048262Y-103831784D01*
X140089185Y-103679057D01*
X140089185Y-103673569D01*
X140093680Y-103658124D01*
X140107976Y-103634541D01*
X140118529Y-103609062D01*
X140131378Y-103594409D01*
X141160489Y-102565299D01*
X141198478Y-102499500D01*
X141210014Y-102479520D01*
X141219797Y-102462575D01*
X141219797Y-102462573D01*
X141219799Y-102462571D01*
X141250500Y-102347994D01*
X141250500Y-100490691D01*
X141219799Y-100376114D01*
X141219797Y-100376110D01*
X141166826Y-100284362D01*
X141166823Y-100284356D01*
X141160492Y-100273389D01*
X141160490Y-100273387D01*
X140413281Y-99526178D01*
X139651614Y-98764511D01*
X139651611Y-98764509D01*
X139651607Y-98764506D01*
X139548888Y-98705201D01*
X139548890Y-98705201D01*
X139535270Y-98701552D01*
X139468476Y-98662986D01*
X139440657Y-98620573D01*
X139440106Y-98620884D01*
X139435568Y-98612814D01*
X139435226Y-98612292D01*
X139435111Y-98612000D01*
X139435110Y-98611999D01*
X139344712Y-98492790D01*
X139344709Y-98492787D01*
X139225500Y-98402389D01*
X139225498Y-98402388D01*
X139086321Y-98347502D01*
X138998863Y-98337000D01*
X138998860Y-98337000D01*
X138001140Y-98337000D01*
X138001136Y-98337000D01*
X137913678Y-98347502D01*
X137774501Y-98402388D01*
X137774499Y-98402389D01*
X137655290Y-98492787D01*
X137655287Y-98492790D01*
X137564889Y-98611999D01*
X137564888Y-98612001D01*
X137510002Y-98751178D01*
X137499500Y-98838636D01*
X133040574Y-98838636D01*
X133041145Y-98826294D01*
X133041621Y-98819444D01*
X133041974Y-98815638D01*
X133113448Y-98044310D01*
X133114230Y-98037566D01*
X133221784Y-97266538D01*
X133222883Y-97259798D01*
X133365929Y-96494571D01*
X133367346Y-96487860D01*
X133545572Y-95730088D01*
X133547283Y-95723501D01*
X133704169Y-95172103D01*
X134017775Y-95172103D01*
X134017775Y-95172110D01*
X134034007Y-95307872D01*
X134034008Y-95307874D01*
X134087831Y-95433566D01*
X134174892Y-95539008D01*
X134220875Y-95572584D01*
X134220880Y-95572587D01*
X134220888Y-95572593D01*
X134220901Y-95572600D01*
X134220905Y-95572603D01*
X134276870Y-95604914D01*
X134375001Y-95661570D01*
X134429538Y-95716107D01*
X134449500Y-95790607D01*
X134449500Y-95852161D01*
X134429538Y-95926661D01*
X134375000Y-95981199D01*
X134349717Y-95992798D01*
X134337120Y-95997206D01*
X134337112Y-95997210D01*
X134227851Y-96077848D01*
X134227848Y-96077851D01*
X134147207Y-96187116D01*
X134102353Y-96315304D01*
X134099500Y-96345724D01*
X134099500Y-97554275D01*
X134102353Y-97584695D01*
X134147207Y-97712883D01*
X134227848Y-97822148D01*
X134227851Y-97822151D01*
X134337116Y-97902792D01*
X134337117Y-97902792D01*
X134337118Y-97902793D01*
X134465301Y-97947646D01*
X134495734Y-97950500D01*
X134495741Y-97950500D01*
X135504259Y-97950500D01*
X135504266Y-97950500D01*
X135534699Y-97947646D01*
X135662882Y-97902793D01*
X135772150Y-97822150D01*
X135852793Y-97712882D01*
X135897646Y-97584699D01*
X135900500Y-97554266D01*
X135900500Y-96622837D01*
X135920462Y-96548337D01*
X135975000Y-96493799D01*
X136031810Y-96474891D01*
X136051305Y-96472561D01*
X136176999Y-96418736D01*
X136282437Y-96331680D01*
X136316024Y-96285682D01*
X136585524Y-95818893D01*
X139267403Y-95818893D01*
X139569490Y-95993304D01*
X139650410Y-96027905D01*
X139798251Y-96049943D01*
X139946555Y-96031277D01*
X139946557Y-96031277D01*
X140084323Y-95973291D01*
X140201335Y-95880288D01*
X140201340Y-95880283D01*
X140254112Y-95809862D01*
X140322274Y-95691802D01*
X139586153Y-95266803D01*
X139267403Y-95818893D01*
X136585524Y-95818893D01*
X136886507Y-95297573D01*
X136909551Y-95245486D01*
X136932225Y-95110646D01*
X136923613Y-95038620D01*
X138465425Y-95038620D01*
X138484091Y-95186924D01*
X138484091Y-95186926D01*
X138542077Y-95324692D01*
X138635081Y-95441705D01*
X138705503Y-95494480D01*
X139007595Y-95668891D01*
X139326344Y-95116802D01*
X139136151Y-95006994D01*
X139736154Y-95006994D01*
X140472274Y-95431993D01*
X140472275Y-95431993D01*
X140540435Y-95313937D01*
X140575037Y-95233018D01*
X140597074Y-95085177D01*
X140578408Y-94936873D01*
X140578408Y-94936871D01*
X140520422Y-94799105D01*
X140427418Y-94682092D01*
X140356996Y-94629317D01*
X140054903Y-94454904D01*
X139736154Y-95006994D01*
X139136151Y-95006994D01*
X138590223Y-94691803D01*
X138590222Y-94691803D01*
X138522072Y-94809844D01*
X138522064Y-94809862D01*
X138487462Y-94890779D01*
X138465425Y-95038620D01*
X136923613Y-95038620D01*
X136915992Y-94974880D01*
X136879918Y-94890639D01*
X136862168Y-94849187D01*
X136829518Y-94809644D01*
X136775110Y-94743748D01*
X136775108Y-94743747D01*
X136775107Y-94743745D01*
X136729124Y-94710169D01*
X136729102Y-94710154D01*
X136434354Y-94539982D01*
X136247313Y-94431994D01*
X138740224Y-94431994D01*
X139476345Y-94856993D01*
X139476346Y-94856993D01*
X139795095Y-94304903D01*
X139493009Y-94130493D01*
X139412089Y-94095892D01*
X139264248Y-94073854D01*
X139115944Y-94092520D01*
X139115942Y-94092520D01*
X138978176Y-94150506D01*
X138861164Y-94243509D01*
X138861159Y-94243514D01*
X138808383Y-94313940D01*
X138808381Y-94313943D01*
X138740224Y-94431994D01*
X136247313Y-94431994D01*
X135492627Y-93996277D01*
X135221388Y-93839677D01*
X135169302Y-93816634D01*
X135169300Y-93816633D01*
X135169299Y-93816633D01*
X135068622Y-93799704D01*
X135034461Y-93793960D01*
X135034460Y-93793960D01*
X134898696Y-93810192D01*
X134898694Y-93810193D01*
X134773001Y-93864017D01*
X134772999Y-93864018D01*
X134667565Y-93951071D01*
X134667563Y-93951073D01*
X134633984Y-93997059D01*
X134633969Y-93997081D01*
X134082006Y-94953111D01*
X134082002Y-94953120D01*
X134063493Y-94985181D01*
X134040449Y-95037268D01*
X134022907Y-95141584D01*
X134022905Y-95141593D01*
X134017775Y-95172103D01*
X133704169Y-95172103D01*
X133734368Y-95065964D01*
X133735493Y-95062205D01*
X133802577Y-94848264D01*
X133803177Y-94847318D01*
X133803473Y-94845500D01*
X134009747Y-94230063D01*
X134012056Y-94223668D01*
X134293278Y-93497751D01*
X134295886Y-93491454D01*
X134610322Y-92779326D01*
X134613245Y-92773100D01*
X134627536Y-92744401D01*
X134664115Y-92670941D01*
X137649500Y-92670941D01*
X137649500Y-92670943D01*
X137649500Y-92829057D01*
X137690423Y-92981784D01*
X137769480Y-93118716D01*
X137881284Y-93230520D01*
X138018216Y-93309577D01*
X138170943Y-93350500D01*
X138329057Y-93350500D01*
X138481784Y-93309577D01*
X138618716Y-93230520D01*
X138730520Y-93118716D01*
X138809577Y-92981784D01*
X138850500Y-92829057D01*
X138853028Y-92819623D01*
X138854590Y-92820041D01*
X138879844Y-92759062D01*
X138892693Y-92744409D01*
X139448293Y-92188810D01*
X139515088Y-92150246D01*
X139553652Y-92145169D01*
X139986252Y-92145169D01*
X139987847Y-92145596D01*
X139989453Y-92145203D01*
X139999311Y-92148668D01*
X140060752Y-92165131D01*
X140063507Y-92166762D01*
X140073716Y-92172952D01*
X140075953Y-92175189D01*
X140106284Y-92192700D01*
X140107662Y-92193536D01*
X140133268Y-92220266D01*
X140159444Y-92246442D01*
X140159871Y-92248038D01*
X140161016Y-92249233D01*
X140169831Y-92285206D01*
X140179407Y-92320942D01*
X140178979Y-92322537D01*
X140179373Y-92324144D01*
X140169024Y-92359691D01*
X140159445Y-92395442D01*
X140158276Y-92396611D01*
X140157814Y-92398198D01*
X140131083Y-92423804D01*
X140104908Y-92449980D01*
X140103135Y-92450575D01*
X140102117Y-92451552D01*
X140095177Y-92453252D01*
X140062766Y-92464152D01*
X140063154Y-92465599D01*
X140053307Y-92468237D01*
X139915424Y-92526271D01*
X139915419Y-92526274D01*
X139798298Y-92619363D01*
X139745472Y-92689855D01*
X139459110Y-93185849D01*
X139424478Y-93266837D01*
X139424477Y-93266841D01*
X139404741Y-93399249D01*
X139402420Y-93414817D01*
X139410921Y-93482354D01*
X139421103Y-93563255D01*
X139421103Y-93563257D01*
X139479143Y-93701150D01*
X139479145Y-93701153D01*
X139570929Y-93816633D01*
X139572233Y-93818273D01*
X139642725Y-93871099D01*
X140506775Y-94369959D01*
X140587770Y-94404594D01*
X140587774Y-94404594D01*
X140587776Y-94404595D01*
X140607126Y-94407479D01*
X140735746Y-94426650D01*
X140884186Y-94407967D01*
X141022080Y-94349928D01*
X141139202Y-94256838D01*
X141192028Y-94186346D01*
X141478388Y-93690356D01*
X141513023Y-93609361D01*
X141535080Y-93461385D01*
X141516397Y-93312946D01*
X141458357Y-93175052D01*
X141413581Y-93118716D01*
X141365268Y-93057930D01*
X141365267Y-93057929D01*
X141294775Y-93005103D01*
X141220074Y-92961974D01*
X141169552Y-92932805D01*
X141115014Y-92878267D01*
X141095052Y-92803766D01*
X141115014Y-92729267D01*
X141138688Y-92698413D01*
X141461250Y-92375853D01*
X141528045Y-92337289D01*
X141566609Y-92332212D01*
X143302890Y-92332212D01*
X143303351Y-92332335D01*
X143303814Y-92332215D01*
X143307075Y-92333333D01*
X143377390Y-92352174D01*
X143378189Y-92352639D01*
X143389795Y-92359436D01*
X143392591Y-92362232D01*
X143529523Y-92441289D01*
X143529591Y-92441307D01*
X143532499Y-92443010D01*
X143559316Y-92470162D01*
X143586237Y-92497082D01*
X143586360Y-92497543D01*
X143586697Y-92497884D01*
X143596333Y-92534761D01*
X143606200Y-92571582D01*
X143606076Y-92572044D01*
X143606197Y-92572507D01*
X143596104Y-92609259D01*
X143586238Y-92646082D01*
X143585855Y-92646579D01*
X143585773Y-92646882D01*
X143585158Y-92647489D01*
X143562559Y-92676942D01*
X142892686Y-93346816D01*
X142892685Y-93346815D01*
X142799502Y-93439999D01*
X142799497Y-93440005D01*
X142763652Y-93502092D01*
X142733608Y-93554130D01*
X142718847Y-93609220D01*
X142699500Y-93681422D01*
X142699500Y-95241582D01*
X142679538Y-95316082D01*
X142670111Y-95330190D01*
X142599500Y-95452494D01*
X142590423Y-95468216D01*
X142576687Y-95519480D01*
X142549500Y-95620941D01*
X142549500Y-95779058D01*
X142557680Y-95809585D01*
X142590423Y-95931784D01*
X142658933Y-96050448D01*
X142674363Y-96077173D01*
X142672962Y-96077981D01*
X142698225Y-96138967D01*
X142699500Y-96158417D01*
X142699500Y-99280968D01*
X142679538Y-99355468D01*
X142655859Y-99386327D01*
X142592686Y-99449500D01*
X142592685Y-99449499D01*
X142499502Y-99542683D01*
X142499497Y-99542689D01*
X142433609Y-99656812D01*
X142399500Y-99784106D01*
X142399500Y-99784108D01*
X142399500Y-101734108D01*
X142399500Y-102434108D01*
X142399500Y-102565892D01*
X142433608Y-102693186D01*
X142456845Y-102733434D01*
X142499497Y-102807310D01*
X142499498Y-102807311D01*
X142499500Y-102807314D01*
X144899500Y-105207314D01*
X144899499Y-105207314D01*
X144948438Y-105256252D01*
X144992686Y-105300500D01*
X145106814Y-105366392D01*
X145234108Y-105400500D01*
X145365893Y-105400500D01*
X152400500Y-105400500D01*
X152475000Y-105420462D01*
X152529538Y-105475000D01*
X152549500Y-105549500D01*
X152549500Y-106716665D01*
X152541215Y-106758318D01*
X152542951Y-106758784D01*
X152540424Y-106768213D01*
X152540423Y-106768216D01*
X152522941Y-106833461D01*
X152499500Y-106920941D01*
X152499500Y-106920943D01*
X152499500Y-107079057D01*
X152540423Y-107231784D01*
X152619480Y-107368716D01*
X152731284Y-107480520D01*
X152868216Y-107559577D01*
X153020943Y-107600500D01*
X153179057Y-107600500D01*
X153331784Y-107559577D01*
X153467313Y-107481329D01*
X153541809Y-107461369D01*
X153616309Y-107481331D01*
X153670847Y-107535869D01*
X153690809Y-107610369D01*
X153670847Y-107684869D01*
X153647168Y-107715728D01*
X153257038Y-108105859D01*
X153190243Y-108144423D01*
X153151679Y-108149500D01*
X150940687Y-108149500D01*
X150850326Y-108173712D01*
X150850326Y-108173713D01*
X150838219Y-108176957D01*
X150826112Y-108180201D01*
X150723385Y-108239510D01*
X148889509Y-110073388D01*
X148889508Y-110073389D01*
X148830201Y-110176111D01*
X148830202Y-110176111D01*
X148830201Y-110176113D01*
X148830201Y-110176114D01*
X148822487Y-110204903D01*
X148799500Y-110290689D01*
X148799500Y-110443487D01*
X148779538Y-110517987D01*
X148740531Y-110562211D01*
X148617790Y-110655287D01*
X148617787Y-110655290D01*
X148527389Y-110774499D01*
X148527388Y-110774501D01*
X148472502Y-110913678D01*
X148462000Y-111001136D01*
X148462000Y-111998863D01*
X148472502Y-112086321D01*
X148527388Y-112225498D01*
X148527389Y-112225500D01*
X148617516Y-112344352D01*
X148617789Y-112344711D01*
X148737000Y-112435111D01*
X148788010Y-112455227D01*
X148876178Y-112489997D01*
X148892595Y-112491968D01*
X148963640Y-112500500D01*
X148963641Y-112500500D01*
X149536359Y-112500500D01*
X149536360Y-112500500D01*
X149623821Y-112489997D01*
X149763000Y-112435111D01*
X149882211Y-112344711D01*
X149972611Y-112225500D01*
X150027497Y-112086321D01*
X150038000Y-111998860D01*
X150038000Y-111998818D01*
X150337500Y-111998818D01*
X150347993Y-112086197D01*
X150347994Y-112086199D01*
X150402828Y-112225251D01*
X150402828Y-112225252D01*
X150493144Y-112344352D01*
X150493147Y-112344355D01*
X150612248Y-112434671D01*
X150751300Y-112489505D01*
X150751302Y-112489506D01*
X150838681Y-112499999D01*
X150838683Y-112500000D01*
X150975000Y-112500000D01*
X151275000Y-112500000D01*
X151411317Y-112500000D01*
X151411318Y-112499999D01*
X151498697Y-112489506D01*
X151498699Y-112489505D01*
X151637751Y-112434671D01*
X151637752Y-112434671D01*
X151756852Y-112344355D01*
X151756855Y-112344352D01*
X151847171Y-112225252D01*
X151847171Y-112225251D01*
X151902005Y-112086199D01*
X151902006Y-112086197D01*
X151912499Y-111998818D01*
X151912500Y-111998816D01*
X151912500Y-111650000D01*
X151275000Y-111650000D01*
X151275000Y-112500000D01*
X150975000Y-112500000D01*
X150975000Y-111650000D01*
X150337500Y-111650000D01*
X150337500Y-111998818D01*
X150038000Y-111998818D01*
X150038000Y-111001181D01*
X150337500Y-111001181D01*
X150337500Y-111350000D01*
X150975000Y-111350000D01*
X151275000Y-111350000D01*
X151912500Y-111350000D01*
X151912500Y-111001183D01*
X151912499Y-111001181D01*
X151902006Y-110913802D01*
X151902005Y-110913800D01*
X151847171Y-110774748D01*
X151847171Y-110774747D01*
X151756855Y-110655647D01*
X151756852Y-110655644D01*
X151637751Y-110565328D01*
X151498699Y-110510494D01*
X151498697Y-110510493D01*
X151411318Y-110500000D01*
X151275000Y-110500000D01*
X151275000Y-111350000D01*
X150975000Y-111350000D01*
X150975000Y-110500000D01*
X150838681Y-110500000D01*
X150751302Y-110510493D01*
X150751300Y-110510494D01*
X150612248Y-110565328D01*
X150612247Y-110565328D01*
X150493147Y-110655644D01*
X150493144Y-110655647D01*
X150402828Y-110774747D01*
X150402828Y-110774748D01*
X150347994Y-110913800D01*
X150347993Y-110913802D01*
X150337500Y-111001181D01*
X150038000Y-111001181D01*
X150038000Y-111001140D01*
X150027497Y-110913679D01*
X150015866Y-110884186D01*
X150000054Y-110844089D01*
X149972611Y-110774500D01*
X149896138Y-110673654D01*
X149882212Y-110655290D01*
X149882211Y-110655289D01*
X149854109Y-110633979D01*
X149847525Y-110628986D01*
X149800226Y-110568067D01*
X149789723Y-110491657D01*
X149818832Y-110420233D01*
X149832190Y-110404912D01*
X150035347Y-110201755D01*
X153949552Y-110201755D01*
X153971606Y-110349723D01*
X153971608Y-110349731D01*
X154006241Y-110430722D01*
X154146498Y-110673654D01*
X154505103Y-111294775D01*
X154557723Y-111364992D01*
X154557930Y-111365268D01*
X154675048Y-111458354D01*
X154675052Y-111458357D01*
X154812946Y-111516397D01*
X154961385Y-111535080D01*
X155109361Y-111513023D01*
X155190356Y-111478388D01*
X155686346Y-111192028D01*
X155756838Y-111139202D01*
X155840090Y-111034458D01*
X158793960Y-111034458D01*
X158793960Y-111034463D01*
X158816634Y-111169303D01*
X158839673Y-111221383D01*
X159042492Y-111572676D01*
X159595046Y-112529727D01*
X159710164Y-112729116D01*
X159743747Y-112775109D01*
X159743748Y-112775110D01*
X159849186Y-112862167D01*
X159974880Y-112915992D01*
X160110646Y-112932225D01*
X160245486Y-112909551D01*
X160297572Y-112886509D01*
X161268073Y-112326187D01*
X161342570Y-112306227D01*
X161358817Y-112310580D01*
X161360979Y-112263837D01*
X161388071Y-112214139D01*
X161418735Y-112177000D01*
X161418734Y-112177000D01*
X161418736Y-112176999D01*
X161472561Y-112051305D01*
X161488794Y-111915539D01*
X161466120Y-111780698D01*
X161443078Y-111728612D01*
X161310455Y-111498904D01*
X161290494Y-111424405D01*
X161310456Y-111349905D01*
X161364994Y-111295367D01*
X161439494Y-111275405D01*
X161467195Y-111278003D01*
X161514943Y-111287037D01*
X161572676Y-111297961D01*
X161707627Y-111282756D01*
X161832099Y-111228449D01*
X161935035Y-111139865D01*
X161952723Y-111114937D01*
X162556989Y-110068317D01*
X162569734Y-110040535D01*
X162594981Y-109907098D01*
X162579777Y-109772148D01*
X162568138Y-109745472D01*
X162525469Y-109647675D01*
X162436888Y-109544742D01*
X162436886Y-109544740D01*
X162411957Y-109527052D01*
X162411952Y-109527049D01*
X162411951Y-109527048D01*
X161538538Y-109022783D01*
X161510761Y-109010041D01*
X161510754Y-109010039D01*
X161377325Y-108984793D01*
X161377324Y-108984793D01*
X161364916Y-108986191D01*
X161242372Y-108999997D01*
X161242371Y-108999998D01*
X161117901Y-109054304D01*
X161014964Y-109142889D01*
X160997277Y-109167816D01*
X160525778Y-109984476D01*
X160471240Y-110039014D01*
X160396740Y-110058976D01*
X160338088Y-110046946D01*
X160307874Y-110034008D01*
X160307873Y-110034007D01*
X160307872Y-110034007D01*
X160172110Y-110017775D01*
X160172105Y-110017775D01*
X160037266Y-110040449D01*
X159985186Y-110063488D01*
X158997070Y-110633979D01*
X158951077Y-110667560D01*
X158951069Y-110667568D01*
X158864018Y-110772999D01*
X158864017Y-110773001D01*
X158810193Y-110898694D01*
X158793960Y-111034458D01*
X155840090Y-111034458D01*
X155849928Y-111022080D01*
X155907967Y-110884186D01*
X155926650Y-110735746D01*
X155904594Y-110587770D01*
X155869959Y-110506775D01*
X155609070Y-110054903D01*
X155954904Y-110054903D01*
X156129317Y-110356996D01*
X156182092Y-110427417D01*
X156182092Y-110427418D01*
X156299105Y-110520422D01*
X156436872Y-110578408D01*
X156585177Y-110597074D01*
X156733018Y-110575037D01*
X156813937Y-110540435D01*
X156931993Y-110472275D01*
X156931993Y-110472274D01*
X156506994Y-109736154D01*
X155954904Y-110054903D01*
X155609070Y-110054903D01*
X155429424Y-109743747D01*
X155408563Y-109707614D01*
X155388601Y-109633114D01*
X155388601Y-109630114D01*
X155408563Y-109555614D01*
X155463101Y-109501076D01*
X155537601Y-109481114D01*
X155612101Y-109501076D01*
X155666639Y-109555614D01*
X155804903Y-109795095D01*
X156166803Y-109586153D01*
X156766803Y-109586153D01*
X157191801Y-110322273D01*
X157309862Y-110254112D01*
X157380283Y-110201340D01*
X157380288Y-110201335D01*
X157473291Y-110084323D01*
X157531277Y-109946557D01*
X157531277Y-109946555D01*
X157549943Y-109798251D01*
X157527905Y-109650410D01*
X157493304Y-109569490D01*
X157318893Y-109267403D01*
X156766803Y-109586153D01*
X156166803Y-109586153D01*
X156486899Y-109401346D01*
X157168892Y-109007596D01*
X157168892Y-109007595D01*
X156994480Y-108705503D01*
X156941705Y-108635082D01*
X156941705Y-108635081D01*
X156824692Y-108542078D01*
X156812226Y-108536831D01*
X156751305Y-108489531D01*
X156722195Y-108418107D01*
X156732698Y-108341697D01*
X156779998Y-108280776D01*
X156851422Y-108251666D01*
X156870029Y-108250500D01*
X160615203Y-108250500D01*
X160689703Y-108270462D01*
X160744240Y-108324999D01*
X160769480Y-108368716D01*
X160881284Y-108480520D01*
X161018216Y-108559577D01*
X161170943Y-108600500D01*
X161329057Y-108600500D01*
X161481784Y-108559577D01*
X161618716Y-108480520D01*
X161730520Y-108368716D01*
X161809577Y-108231784D01*
X161850500Y-108079057D01*
X161850500Y-107920943D01*
X161836420Y-107868395D01*
X161836420Y-107791267D01*
X161874984Y-107724472D01*
X161941778Y-107685908D01*
X161980343Y-107680831D01*
X162059388Y-107680831D01*
X162212115Y-107639908D01*
X162349047Y-107560851D01*
X162460851Y-107449047D01*
X162539908Y-107312115D01*
X162580831Y-107159388D01*
X162580831Y-107001274D01*
X162539908Y-106848547D01*
X162460851Y-106711615D01*
X162349047Y-106599811D01*
X162212115Y-106520754D01*
X162059388Y-106479831D01*
X162049954Y-106477303D01*
X162050372Y-106475742D01*
X161989380Y-106450475D01*
X161974732Y-106437629D01*
X161836208Y-106299105D01*
X161550412Y-106013309D01*
X161550409Y-106013307D01*
X161550405Y-106013304D01*
X161447688Y-105954000D01*
X161447686Y-105953999D01*
X161436343Y-105950960D01*
X161416693Y-105945695D01*
X161416692Y-105945694D01*
X161333107Y-105923298D01*
X161150486Y-105923298D01*
X161075986Y-105903336D01*
X161021448Y-105848798D01*
X161001486Y-105774298D01*
X161021448Y-105699798D01*
X161057776Y-105657654D01*
X161170085Y-105568389D01*
X161170090Y-105568384D01*
X161222862Y-105497963D01*
X161291024Y-105379903D01*
X160554903Y-104954904D01*
X160236153Y-105506994D01*
X160475635Y-105645260D01*
X160530173Y-105699798D01*
X160550135Y-105774298D01*
X160530173Y-105848798D01*
X160475635Y-105903336D01*
X160401135Y-105923298D01*
X160398136Y-105923298D01*
X160323636Y-105903336D01*
X160243570Y-105857110D01*
X159524475Y-105441940D01*
X159524468Y-105441937D01*
X159443481Y-105407305D01*
X159443473Y-105407303D01*
X159295505Y-105385249D01*
X159295504Y-105385249D01*
X159274132Y-105387938D01*
X159147066Y-105403931D01*
X159009169Y-105461971D01*
X158892048Y-105555060D01*
X158839222Y-105625552D01*
X158552860Y-106121546D01*
X158518228Y-106202534D01*
X158518227Y-106202538D01*
X158496170Y-106350514D01*
X158508752Y-106450475D01*
X158514853Y-106498952D01*
X158514853Y-106498954D01*
X158572893Y-106636847D01*
X158572895Y-106636850D01*
X158664809Y-106752494D01*
X158665983Y-106753970D01*
X158736475Y-106806796D01*
X159194890Y-107071462D01*
X159249428Y-107126000D01*
X159269390Y-107200500D01*
X159249428Y-107275000D01*
X159194890Y-107329538D01*
X159120390Y-107349500D01*
X156040691Y-107349500D01*
X155926110Y-107380202D01*
X155882695Y-107405267D01*
X155882696Y-107405268D01*
X155823389Y-107439508D01*
X154577609Y-108685288D01*
X154518302Y-108788010D01*
X154518303Y-108788010D01*
X154518302Y-108788012D01*
X154518302Y-108788013D01*
X154513131Y-108807310D01*
X154487601Y-108902588D01*
X154487601Y-109487542D01*
X154467639Y-109562042D01*
X154413102Y-109616579D01*
X154189859Y-109745469D01*
X154189857Y-109745471D01*
X154119363Y-109798298D01*
X154026274Y-109915419D01*
X153968234Y-110053316D01*
X153949552Y-110201755D01*
X150035347Y-110201755D01*
X151142963Y-109094141D01*
X151209758Y-109055577D01*
X151248322Y-109050500D01*
X153459306Y-109050500D01*
X153459309Y-109050500D01*
X153549673Y-109026286D01*
X153573887Y-109019799D01*
X153676614Y-108960489D01*
X154660489Y-107976614D01*
X154719799Y-107873887D01*
X154721270Y-107868396D01*
X154726285Y-107849679D01*
X154726286Y-107849675D01*
X154734734Y-107818144D01*
X154750500Y-107759309D01*
X154750500Y-106434106D01*
X156749500Y-106434106D01*
X156749500Y-106434108D01*
X156749500Y-106565892D01*
X156783608Y-106693186D01*
X156794248Y-106711615D01*
X156849497Y-106807310D01*
X156849498Y-106807311D01*
X156849500Y-106807314D01*
X156942686Y-106900500D01*
X157056814Y-106966392D01*
X157184108Y-107000500D01*
X157315892Y-107000500D01*
X157443186Y-106966392D01*
X157557314Y-106900500D01*
X157650500Y-106807314D01*
X157716392Y-106693186D01*
X157750500Y-106565892D01*
X157750500Y-106434108D01*
X157716392Y-106306814D01*
X157658210Y-106206040D01*
X157650502Y-106192689D01*
X157650501Y-106192688D01*
X157650500Y-106192686D01*
X157557314Y-106099500D01*
X157557311Y-106099498D01*
X157557310Y-106099497D01*
X157466941Y-106047323D01*
X157443186Y-106033608D01*
X157315892Y-105999500D01*
X157184108Y-105999500D01*
X157056814Y-106033608D01*
X157056812Y-106033608D01*
X157056812Y-106033609D01*
X156942689Y-106099497D01*
X156849497Y-106192689D01*
X156788059Y-106299105D01*
X156783608Y-106306814D01*
X156771899Y-106350513D01*
X156749500Y-106434106D01*
X154750500Y-106434106D01*
X154750500Y-105848321D01*
X154770462Y-105773821D01*
X154794141Y-105742962D01*
X155742963Y-104794141D01*
X155809758Y-104755577D01*
X155848322Y-104750500D01*
X157859306Y-104750500D01*
X157859309Y-104750500D01*
X157948050Y-104726721D01*
X159434175Y-104726721D01*
X159452841Y-104875025D01*
X159452841Y-104875027D01*
X159510827Y-105012793D01*
X159603831Y-105129806D01*
X159674253Y-105182581D01*
X159976345Y-105356992D01*
X160295094Y-104804903D01*
X160104901Y-104695095D01*
X160704904Y-104695095D01*
X161441024Y-105120094D01*
X161441025Y-105120094D01*
X161509185Y-105002038D01*
X161543787Y-104921119D01*
X161548522Y-104889351D01*
X163067775Y-104889351D01*
X163067775Y-104889356D01*
X163084007Y-105025118D01*
X163084008Y-105025120D01*
X163137831Y-105150812D01*
X163170478Y-105190352D01*
X163214890Y-105244141D01*
X163224892Y-105256254D01*
X163270875Y-105289830D01*
X163270897Y-105289845D01*
X164026532Y-105726110D01*
X164778612Y-106160323D01*
X164830698Y-106183366D01*
X164965539Y-106206040D01*
X165101305Y-106189807D01*
X165226999Y-106135982D01*
X165332437Y-106048926D01*
X165366024Y-106002928D01*
X165936507Y-105014819D01*
X165959551Y-104962732D01*
X165982225Y-104827892D01*
X165965992Y-104692126D01*
X165917498Y-104578880D01*
X165912168Y-104566433D01*
X165846752Y-104487206D01*
X165825110Y-104460994D01*
X165825108Y-104460993D01*
X165825107Y-104460991D01*
X165779117Y-104427410D01*
X165625001Y-104338430D01*
X165625000Y-104338430D01*
X165570462Y-104283892D01*
X165550500Y-104209392D01*
X165550500Y-104147838D01*
X165570462Y-104073338D01*
X165625000Y-104018800D01*
X165650288Y-104007199D01*
X165662882Y-104002793D01*
X165772150Y-103922150D01*
X165852793Y-103812882D01*
X165897646Y-103684699D01*
X165900500Y-103654266D01*
X165900500Y-102445734D01*
X165897646Y-102415301D01*
X165852793Y-102287118D01*
X165817565Y-102239386D01*
X165772151Y-102177851D01*
X165772148Y-102177848D01*
X165662883Y-102097207D01*
X165599381Y-102074987D01*
X165534699Y-102052354D01*
X165534697Y-102052353D01*
X165534695Y-102052353D01*
X165504275Y-102049500D01*
X165504266Y-102049500D01*
X164495734Y-102049500D01*
X164495724Y-102049500D01*
X164465304Y-102052353D01*
X164337116Y-102097207D01*
X164227851Y-102177848D01*
X164227848Y-102177851D01*
X164147207Y-102287116D01*
X164102353Y-102415304D01*
X164099500Y-102445724D01*
X164099500Y-103377161D01*
X164079538Y-103451661D01*
X164025000Y-103506199D01*
X163968194Y-103525107D01*
X163948694Y-103527439D01*
X163823001Y-103581263D01*
X163822999Y-103581264D01*
X163717565Y-103668317D01*
X163717563Y-103668319D01*
X163683984Y-103714305D01*
X163683970Y-103714327D01*
X163113497Y-104702419D01*
X163113494Y-104702423D01*
X163113493Y-104702427D01*
X163102745Y-104726721D01*
X163090450Y-104754511D01*
X163090448Y-104754515D01*
X163067775Y-104889351D01*
X161548522Y-104889351D01*
X161565824Y-104773278D01*
X161547158Y-104624974D01*
X161547158Y-104624972D01*
X161489172Y-104487206D01*
X161396168Y-104370193D01*
X161325746Y-104317418D01*
X161023653Y-104143005D01*
X160704904Y-104695095D01*
X160104901Y-104695095D01*
X159558973Y-104379904D01*
X159558972Y-104379904D01*
X159490822Y-104497945D01*
X159490814Y-104497963D01*
X159456212Y-104578880D01*
X159434175Y-104726721D01*
X157948050Y-104726721D01*
X157949673Y-104726286D01*
X157973887Y-104719799D01*
X158076614Y-104660489D01*
X158942962Y-103794141D01*
X159009757Y-103755577D01*
X159048321Y-103750500D01*
X159667782Y-103750500D01*
X159742282Y-103770462D01*
X159796820Y-103825000D01*
X159816782Y-103899500D01*
X159796820Y-103974000D01*
X159787017Y-103988853D01*
X159777133Y-104002042D01*
X159777131Y-104002044D01*
X159708974Y-104120095D01*
X160445095Y-104545094D01*
X160445096Y-104545094D01*
X160763846Y-103993003D01*
X160749125Y-103938064D01*
X160749125Y-103918447D01*
X160744048Y-103899500D01*
X160749125Y-103880552D01*
X160749125Y-103860936D01*
X160758932Y-103843948D01*
X160764010Y-103825000D01*
X160777881Y-103811128D01*
X160787689Y-103794141D01*
X160804676Y-103784333D01*
X160818548Y-103770462D01*
X160837496Y-103765384D01*
X160854484Y-103755577D01*
X160893048Y-103750500D01*
X160941583Y-103750500D01*
X161016083Y-103770462D01*
X161030182Y-103779883D01*
X161031282Y-103780518D01*
X161031284Y-103780520D01*
X161168216Y-103859577D01*
X161320943Y-103900500D01*
X161479057Y-103900500D01*
X161631784Y-103859577D01*
X161768716Y-103780520D01*
X161880520Y-103668716D01*
X161959577Y-103531784D01*
X162000500Y-103379057D01*
X162000500Y-103220943D01*
X161959577Y-103068216D01*
X161880520Y-102931284D01*
X161768716Y-102819480D01*
X161631784Y-102740423D01*
X161479057Y-102699500D01*
X161320943Y-102699500D01*
X161168216Y-102740423D01*
X161031284Y-102819480D01*
X161031283Y-102819480D01*
X161022827Y-102824363D01*
X161022018Y-102822962D01*
X160961033Y-102848225D01*
X160941583Y-102849500D01*
X158740691Y-102849500D01*
X158641371Y-102876113D01*
X158631696Y-102878705D01*
X158626113Y-102880201D01*
X158523386Y-102939510D01*
X157657038Y-103805859D01*
X157590243Y-103844423D01*
X157551679Y-103849500D01*
X156941954Y-103849500D01*
X156867454Y-103829538D01*
X156812916Y-103775000D01*
X156792954Y-103700500D01*
X156808637Y-103641968D01*
X156805839Y-103640809D01*
X156809575Y-103631788D01*
X156809575Y-103631787D01*
X156809577Y-103631784D01*
X156850500Y-103479057D01*
X156850500Y-103320943D01*
X156809577Y-103168216D01*
X156730520Y-103031284D01*
X156618716Y-102919480D01*
X156481784Y-102840423D01*
X156329057Y-102799500D01*
X156170943Y-102799500D01*
X156018216Y-102840423D01*
X156018213Y-102840424D01*
X156008784Y-102842951D01*
X156008318Y-102841215D01*
X155966665Y-102849500D01*
X154527524Y-102849500D01*
X154412948Y-102880201D01*
X154412947Y-102880200D01*
X154387515Y-102887015D01*
X154261984Y-102959490D01*
X152865616Y-104355859D01*
X152798821Y-104394423D01*
X152760257Y-104399500D01*
X145569032Y-104399500D01*
X145494532Y-104379538D01*
X145463673Y-104355859D01*
X143444141Y-102336327D01*
X143405577Y-102269532D01*
X143400500Y-102230968D01*
X143400500Y-101743060D01*
X143975000Y-101743060D01*
X143985613Y-101831443D01*
X144041079Y-101972096D01*
X144132433Y-102092562D01*
X144132437Y-102092566D01*
X144252904Y-102183920D01*
X144252903Y-102183920D01*
X144393556Y-102239386D01*
X144481939Y-102249999D01*
X144481941Y-102250000D01*
X144850000Y-102250000D01*
X145150000Y-102250000D01*
X145518059Y-102250000D01*
X145518060Y-102249999D01*
X145606443Y-102239386D01*
X145747096Y-102183920D01*
X145867562Y-102092566D01*
X145867566Y-102092562D01*
X145958920Y-101972096D01*
X146014386Y-101831443D01*
X146024999Y-101743060D01*
X146025000Y-101743058D01*
X146025000Y-101600000D01*
X145150000Y-101600000D01*
X145150000Y-102250000D01*
X144850000Y-102250000D01*
X144850000Y-101600000D01*
X143975000Y-101600000D01*
X143975000Y-101743060D01*
X143400500Y-101743060D01*
X143400500Y-101156939D01*
X143975000Y-101156939D01*
X143975000Y-101300000D01*
X144850000Y-101300000D01*
X145150000Y-101300000D01*
X146025000Y-101300000D01*
X146025000Y-101156939D01*
X146014386Y-101068556D01*
X145958920Y-100927903D01*
X145867566Y-100807437D01*
X145867562Y-100807433D01*
X145747095Y-100716079D01*
X145747096Y-100716079D01*
X145606443Y-100660613D01*
X145518060Y-100650000D01*
X145150000Y-100650000D01*
X145150000Y-101300000D01*
X144850000Y-101300000D01*
X144850000Y-100650000D01*
X144481939Y-100650000D01*
X144393556Y-100660613D01*
X144252903Y-100716079D01*
X144132437Y-100807433D01*
X144132433Y-100807437D01*
X144041079Y-100927903D01*
X143985613Y-101068556D01*
X143975000Y-101156939D01*
X143400500Y-101156939D01*
X143400500Y-100199500D01*
X143420462Y-100125000D01*
X143475000Y-100070462D01*
X143549500Y-100050500D01*
X143950069Y-100050500D01*
X144024569Y-100070462D01*
X144068793Y-100109469D01*
X144129141Y-100189050D01*
X144132078Y-100192922D01*
X144252658Y-100284361D01*
X144393436Y-100339877D01*
X144481898Y-100350500D01*
X144481899Y-100350500D01*
X145518101Y-100350500D01*
X145518102Y-100350500D01*
X145606564Y-100339877D01*
X145747342Y-100284361D01*
X145867922Y-100192922D01*
X145959361Y-100072342D01*
X146014877Y-99931564D01*
X146025500Y-99843102D01*
X146025500Y-99256898D01*
X146014877Y-99168436D01*
X145959361Y-99027658D01*
X145867922Y-98907078D01*
X145867920Y-98907076D01*
X145820982Y-98871482D01*
X145747342Y-98815639D01*
X145747341Y-98815638D01*
X145606563Y-98760122D01*
X145518105Y-98749500D01*
X145518102Y-98749500D01*
X144481898Y-98749500D01*
X144481894Y-98749500D01*
X144393436Y-98760122D01*
X144252658Y-98815638D01*
X144252658Y-98815639D01*
X144132079Y-98907076D01*
X144132076Y-98907079D01*
X144068793Y-98990531D01*
X144045460Y-99008646D01*
X144024569Y-99029538D01*
X144015381Y-99031999D01*
X144007871Y-99037831D01*
X143950069Y-99049500D01*
X143849500Y-99049500D01*
X143775000Y-99029538D01*
X143720462Y-98975000D01*
X143700500Y-98900500D01*
X143700500Y-98304500D01*
X143720462Y-98230000D01*
X143775000Y-98175462D01*
X143849500Y-98155500D01*
X143867233Y-98155500D01*
X143941733Y-98175462D01*
X143955712Y-98184615D01*
X143987116Y-98207792D01*
X143987117Y-98207792D01*
X143987118Y-98207793D01*
X144115301Y-98252646D01*
X144145734Y-98255500D01*
X144145741Y-98255500D01*
X145904259Y-98255500D01*
X145904266Y-98255500D01*
X145934699Y-98252646D01*
X146062882Y-98207793D01*
X146172150Y-98127150D01*
X146252793Y-98017882D01*
X146297646Y-97889699D01*
X146300500Y-97859266D01*
X146300500Y-97450734D01*
X146297646Y-97420301D01*
X146252793Y-97292118D01*
X146233934Y-97266565D01*
X146172151Y-97182851D01*
X146172149Y-97182849D01*
X146148518Y-97165409D01*
X146113934Y-97139885D01*
X146065846Y-97079585D01*
X146054350Y-97003319D01*
X146082527Y-96931522D01*
X146113933Y-96900115D01*
X146172150Y-96857150D01*
X146252793Y-96747882D01*
X146297646Y-96619699D01*
X146300500Y-96589266D01*
X146300500Y-96317322D01*
X146320462Y-96242822D01*
X146375000Y-96188284D01*
X146449500Y-96168322D01*
X146524000Y-96188284D01*
X146554859Y-96211963D01*
X146805859Y-96462963D01*
X146844423Y-96529758D01*
X146849500Y-96568322D01*
X146849500Y-99941582D01*
X146829538Y-100016082D01*
X146820111Y-100030190D01*
X146740424Y-100168214D01*
X146740423Y-100168216D01*
X146728557Y-100212500D01*
X146699500Y-100320941D01*
X146699500Y-100479058D01*
X146710465Y-100519981D01*
X146740423Y-100631784D01*
X146819480Y-100768716D01*
X146931284Y-100880520D01*
X147068216Y-100959577D01*
X147220943Y-101000500D01*
X147350500Y-101000500D01*
X147425000Y-101020462D01*
X147479538Y-101075000D01*
X147499500Y-101149500D01*
X147499500Y-101279058D01*
X147505112Y-101300000D01*
X147540423Y-101431784D01*
X147619480Y-101568716D01*
X147731284Y-101680520D01*
X147868216Y-101759577D01*
X148020943Y-101800500D01*
X148179057Y-101800500D01*
X148331784Y-101759577D01*
X148468716Y-101680520D01*
X148580520Y-101568716D01*
X148659577Y-101431784D01*
X148700500Y-101279057D01*
X148700500Y-101120943D01*
X148659577Y-100968216D01*
X148580520Y-100831284D01*
X148580519Y-100831283D01*
X148575637Y-100822827D01*
X148577035Y-100822019D01*
X148551774Y-100761022D01*
X148550500Y-100741582D01*
X148550500Y-100588636D01*
X160499500Y-100588636D01*
X160499500Y-101161362D01*
X160510002Y-101248821D01*
X160564888Y-101387998D01*
X160564889Y-101388000D01*
X160655287Y-101507209D01*
X160655290Y-101507212D01*
X160662596Y-101512752D01*
X160774500Y-101597611D01*
X160844089Y-101625054D01*
X160913678Y-101652497D01*
X160930095Y-101654468D01*
X161001140Y-101663000D01*
X161001141Y-101663000D01*
X161998859Y-101663000D01*
X161998860Y-101663000D01*
X162086321Y-101652497D01*
X162225500Y-101597611D01*
X162344711Y-101507211D01*
X162435111Y-101388000D01*
X162479756Y-101274788D01*
X162513003Y-101224099D01*
X163760489Y-99976614D01*
X163819799Y-99873887D01*
X163820858Y-99869933D01*
X163828765Y-99840425D01*
X163828765Y-99840424D01*
X163840762Y-99795651D01*
X163850500Y-99759309D01*
X163850500Y-98076067D01*
X163870462Y-98001567D01*
X163925000Y-97947029D01*
X163999500Y-97927067D01*
X164051571Y-97936462D01*
X164072881Y-97944410D01*
X164072886Y-97944412D01*
X164129515Y-97950500D01*
X165870484Y-97950499D01*
X165927114Y-97944412D01*
X166055226Y-97896628D01*
X166164687Y-97814687D01*
X166246628Y-97705226D01*
X166294412Y-97577114D01*
X166300500Y-97520485D01*
X166300499Y-96379516D01*
X166294412Y-96322886D01*
X166246628Y-96194774D01*
X166164687Y-96085313D01*
X166055226Y-96003372D01*
X166028233Y-95993304D01*
X165927113Y-95955587D01*
X165870499Y-95949501D01*
X165870490Y-95949500D01*
X165870485Y-95949500D01*
X165870478Y-95949500D01*
X165629692Y-95949500D01*
X165555192Y-95929538D01*
X165500654Y-95875000D01*
X165480692Y-95800500D01*
X165500654Y-95726000D01*
X165516754Y-95703309D01*
X165575470Y-95635080D01*
X165629778Y-95510607D01*
X165644982Y-95375657D01*
X165619735Y-95242220D01*
X165619734Y-95242219D01*
X165619734Y-95242216D01*
X165606995Y-95214448D01*
X165606992Y-95214444D01*
X165606990Y-95214438D01*
X165002724Y-94167818D01*
X164985036Y-94142890D01*
X164882099Y-94054305D01*
X164757629Y-93999999D01*
X164757628Y-93999998D01*
X164622678Y-93984794D01*
X164622672Y-93984794D01*
X164489246Y-94010040D01*
X164489239Y-94010042D01*
X164461462Y-94022784D01*
X163588049Y-94527049D01*
X163588048Y-94527050D01*
X163563114Y-94544741D01*
X163563112Y-94544743D01*
X163474531Y-94647676D01*
X163420223Y-94772148D01*
X163405020Y-94907095D01*
X163405020Y-94907099D01*
X163413726Y-94953111D01*
X163430267Y-95040539D01*
X163443008Y-95068310D01*
X163443009Y-95068313D01*
X163443012Y-95068318D01*
X163505183Y-95176002D01*
X163525145Y-95250500D01*
X163505183Y-95325000D01*
X163450645Y-95379538D01*
X163376145Y-95399500D01*
X163320943Y-95399500D01*
X163168216Y-95440423D01*
X163168214Y-95440423D01*
X163168214Y-95440424D01*
X163031283Y-95519480D01*
X162919480Y-95631283D01*
X162857859Y-95738015D01*
X162840423Y-95768216D01*
X162826844Y-95818893D01*
X162799500Y-95920941D01*
X162799500Y-95920943D01*
X162799500Y-96079057D01*
X162840423Y-96231784D01*
X162919480Y-96368716D01*
X162924363Y-96377173D01*
X162922962Y-96377981D01*
X162948225Y-96438967D01*
X162949500Y-96458417D01*
X162949500Y-99451678D01*
X162929538Y-99526178D01*
X162905859Y-99557037D01*
X162355570Y-100107325D01*
X162288775Y-100145889D01*
X162211647Y-100145889D01*
X162195549Y-100140577D01*
X162086321Y-100097502D01*
X161998863Y-100087000D01*
X161998860Y-100087000D01*
X161001140Y-100087000D01*
X161001136Y-100087000D01*
X160913678Y-100097502D01*
X160774501Y-100152388D01*
X160774499Y-100152389D01*
X160655290Y-100242787D01*
X160655287Y-100242790D01*
X160564889Y-100361999D01*
X160564888Y-100362001D01*
X160510002Y-100501178D01*
X160499500Y-100588636D01*
X148550500Y-100588636D01*
X148550500Y-99286318D01*
X160500000Y-99286318D01*
X160510493Y-99373697D01*
X160510494Y-99373699D01*
X160565328Y-99512751D01*
X160565328Y-99512752D01*
X160655644Y-99631852D01*
X160655647Y-99631855D01*
X160774748Y-99722171D01*
X160913800Y-99777005D01*
X160913802Y-99777006D01*
X161001181Y-99787499D01*
X161001183Y-99787500D01*
X161350000Y-99787500D01*
X161650000Y-99787500D01*
X161998817Y-99787500D01*
X161998818Y-99787499D01*
X162086197Y-99777006D01*
X162086199Y-99777005D01*
X162225251Y-99722171D01*
X162225252Y-99722171D01*
X162344352Y-99631855D01*
X162344355Y-99631852D01*
X162434671Y-99512752D01*
X162434671Y-99512751D01*
X162489505Y-99373699D01*
X162489506Y-99373697D01*
X162499999Y-99286318D01*
X162500000Y-99286316D01*
X162500000Y-99150000D01*
X161650000Y-99150000D01*
X161650000Y-99787500D01*
X161350000Y-99787500D01*
X161350000Y-99150000D01*
X160500000Y-99150000D01*
X160500000Y-99286318D01*
X148550500Y-99286318D01*
X148550500Y-98713681D01*
X160500000Y-98713681D01*
X160500000Y-98850000D01*
X161350000Y-98850000D01*
X161650000Y-98850000D01*
X162500000Y-98850000D01*
X162500000Y-98713683D01*
X162499999Y-98713681D01*
X162489506Y-98626302D01*
X162489505Y-98626300D01*
X162434671Y-98487248D01*
X162434671Y-98487247D01*
X162344355Y-98368147D01*
X162344352Y-98368144D01*
X162225251Y-98277828D01*
X162086199Y-98222994D01*
X162086197Y-98222993D01*
X161998818Y-98212500D01*
X161650000Y-98212500D01*
X161650000Y-98850000D01*
X161350000Y-98850000D01*
X161350000Y-98212500D01*
X161001181Y-98212500D01*
X160913802Y-98222993D01*
X160913800Y-98222994D01*
X160774748Y-98277828D01*
X160774747Y-98277828D01*
X160655647Y-98368144D01*
X160655644Y-98368147D01*
X160565328Y-98487247D01*
X160565328Y-98487248D01*
X160510494Y-98626300D01*
X160510493Y-98626302D01*
X160500000Y-98713681D01*
X148550500Y-98713681D01*
X148550500Y-98204159D01*
X148570462Y-98129659D01*
X148625000Y-98075121D01*
X148699500Y-98055159D01*
X148774000Y-98075121D01*
X148819387Y-98115683D01*
X148827848Y-98127148D01*
X148827851Y-98127151D01*
X148937116Y-98207792D01*
X148937117Y-98207792D01*
X148937118Y-98207793D01*
X149065301Y-98252646D01*
X149095734Y-98255500D01*
X149095741Y-98255500D01*
X150854259Y-98255500D01*
X150854266Y-98255500D01*
X150884699Y-98252646D01*
X151012882Y-98207793D01*
X151122150Y-98127150D01*
X151163576Y-98071019D01*
X151187407Y-98052014D01*
X151208960Y-98030462D01*
X151217203Y-98028253D01*
X151223875Y-98022933D01*
X151283460Y-98010500D01*
X151548811Y-98010500D01*
X151623311Y-98030462D01*
X151646772Y-98048464D01*
X151652233Y-98052205D01*
X151652234Y-98052205D01*
X151652235Y-98052206D01*
X151755009Y-98097585D01*
X151780135Y-98100500D01*
X152969864Y-98100499D01*
X152969866Y-98100499D01*
X152982427Y-98099042D01*
X152994991Y-98097585D01*
X153097765Y-98052206D01*
X153177206Y-97972765D01*
X153222585Y-97869991D01*
X153225500Y-97844865D01*
X153225500Y-97794794D01*
X156475001Y-97794794D01*
X156477909Y-97819874D01*
X156523212Y-97922477D01*
X156602521Y-98001786D01*
X156705128Y-98047091D01*
X156730204Y-98049999D01*
X157825000Y-98049999D01*
X158125000Y-98049999D01*
X159219795Y-98049999D01*
X159244874Y-98047090D01*
X159347477Y-98001787D01*
X159347478Y-98001787D01*
X159426786Y-97922478D01*
X159472091Y-97819871D01*
X159475000Y-97794795D01*
X159475000Y-97150000D01*
X158125000Y-97150000D01*
X158125000Y-98049999D01*
X157825000Y-98049999D01*
X157825000Y-97150000D01*
X156475001Y-97150000D01*
X156475001Y-97794794D01*
X153225500Y-97794794D01*
X153225499Y-97155136D01*
X153225425Y-97154500D01*
X153223002Y-97133604D01*
X153223001Y-97133603D01*
X153222585Y-97130009D01*
X153191339Y-97059243D01*
X153190968Y-97058372D01*
X153185687Y-97021100D01*
X153179923Y-96983968D01*
X153180251Y-96982740D01*
X153180148Y-96982007D01*
X153181045Y-96979777D01*
X153191751Y-96939822D01*
X153222585Y-96869991D01*
X153225500Y-96844865D01*
X153225499Y-96205204D01*
X156475000Y-96205204D01*
X156475000Y-96850000D01*
X157825000Y-96850000D01*
X158125000Y-96850000D01*
X159474999Y-96850000D01*
X159474999Y-96205205D01*
X159472090Y-96180125D01*
X159426787Y-96077522D01*
X159347478Y-95998213D01*
X159244871Y-95952908D01*
X159219796Y-95950000D01*
X158125000Y-95950000D01*
X158125000Y-96850000D01*
X157825000Y-96850000D01*
X157825000Y-95950000D01*
X156730205Y-95950000D01*
X156705125Y-95952909D01*
X156602522Y-95998212D01*
X156602522Y-95998213D01*
X156523213Y-96077521D01*
X156477908Y-96180128D01*
X156475000Y-96205204D01*
X153225499Y-96205204D01*
X153225499Y-96155136D01*
X153224938Y-96150301D01*
X153222585Y-96130010D01*
X153222584Y-96130007D01*
X153187455Y-96050448D01*
X153177206Y-96027235D01*
X153097765Y-95947794D01*
X153097764Y-95947793D01*
X152994994Y-95902416D01*
X152994991Y-95902415D01*
X152994982Y-95902414D01*
X152969865Y-95899500D01*
X152969859Y-95899500D01*
X151780133Y-95899500D01*
X151755010Y-95902414D01*
X151755007Y-95902415D01*
X151652235Y-95947793D01*
X151594170Y-96005859D01*
X151577182Y-96015666D01*
X151563311Y-96029538D01*
X151544362Y-96034615D01*
X151527375Y-96044423D01*
X151488811Y-96049500D01*
X151298220Y-96049500D01*
X151223720Y-96029538D01*
X151178336Y-95988979D01*
X151122150Y-95912850D01*
X151063934Y-95869885D01*
X151015846Y-95809585D01*
X151004350Y-95733319D01*
X151032527Y-95661522D01*
X151063933Y-95630115D01*
X151122150Y-95587150D01*
X151202793Y-95477882D01*
X151247646Y-95349699D01*
X151250500Y-95319266D01*
X151250500Y-94910734D01*
X151247646Y-94880301D01*
X151202793Y-94752118D01*
X151196613Y-94743745D01*
X151145081Y-94673921D01*
X151122150Y-94642850D01*
X151063511Y-94599572D01*
X151015425Y-94539274D01*
X151003929Y-94463007D01*
X151032106Y-94391210D01*
X151063513Y-94359804D01*
X151121790Y-94316793D01*
X151202346Y-94207645D01*
X151247149Y-94079602D01*
X151247568Y-94075142D01*
X151248237Y-94068004D01*
X158708974Y-94068004D01*
X158777134Y-94186060D01*
X158829909Y-94256485D01*
X158829914Y-94256490D01*
X158946926Y-94349493D01*
X159084693Y-94407479D01*
X159232998Y-94426145D01*
X159380839Y-94404107D01*
X159461759Y-94369506D01*
X159763845Y-94195096D01*
X159763845Y-94195095D01*
X159445095Y-93643005D01*
X158708974Y-94068004D01*
X151248237Y-94068004D01*
X151249999Y-94049195D01*
X151250000Y-94049194D01*
X151250000Y-93995000D01*
X148700001Y-93995000D01*
X148700001Y-94049219D01*
X148702850Y-94079604D01*
X148747653Y-94207645D01*
X148828208Y-94316791D01*
X148886487Y-94359804D01*
X148934575Y-94420106D01*
X148946070Y-94496373D01*
X148917892Y-94568169D01*
X148886486Y-94599574D01*
X148827851Y-94642848D01*
X148827848Y-94642851D01*
X148747207Y-94752116D01*
X148702353Y-94880304D01*
X148699500Y-94910724D01*
X148699500Y-95319275D01*
X148702353Y-95349695D01*
X148702353Y-95349697D01*
X148702354Y-95349699D01*
X148711438Y-95375660D01*
X148748369Y-95481204D01*
X148754132Y-95558117D01*
X148720667Y-95627606D01*
X148656941Y-95671054D01*
X148580028Y-95676817D01*
X148510539Y-95643352D01*
X148478692Y-95604914D01*
X148460490Y-95573387D01*
X148003905Y-95116802D01*
X146527889Y-93640787D01*
X148700000Y-93640787D01*
X148700000Y-93695000D01*
X149825000Y-93695000D01*
X150125000Y-93695000D01*
X151249999Y-93695000D01*
X151249999Y-93640801D01*
X151249998Y-93640777D01*
X151247149Y-93610395D01*
X151209254Y-93502095D01*
X151209253Y-93502092D01*
X151202347Y-93482356D01*
X151186865Y-93461379D01*
X158434175Y-93461379D01*
X158456212Y-93609220D01*
X158490814Y-93690137D01*
X158490818Y-93690147D01*
X158558974Y-93808195D01*
X159295094Y-93383196D01*
X158976345Y-92831106D01*
X158674253Y-93005519D01*
X158603832Y-93058294D01*
X158603831Y-93058294D01*
X158510827Y-93175307D01*
X158452841Y-93313073D01*
X158452841Y-93313075D01*
X158434175Y-93461379D01*
X151186865Y-93461379D01*
X151121791Y-93373208D01*
X151012645Y-93292653D01*
X150884602Y-93247850D01*
X150854212Y-93245000D01*
X150125000Y-93245000D01*
X150125000Y-93695000D01*
X149825000Y-93695000D01*
X149825000Y-93245000D01*
X149095801Y-93245000D01*
X149095780Y-93245001D01*
X149065395Y-93247850D01*
X148937354Y-93292653D01*
X148828208Y-93373208D01*
X148747653Y-93482354D01*
X148702850Y-93610397D01*
X148700000Y-93640787D01*
X146527889Y-93640787D01*
X146371613Y-93484511D01*
X146371610Y-93484509D01*
X146371606Y-93484506D01*
X146268888Y-93425201D01*
X146246816Y-93419287D01*
X146180024Y-93380724D01*
X146172148Y-93372848D01*
X146062883Y-93292207D01*
X145990378Y-93266837D01*
X145934699Y-93247354D01*
X145934697Y-93247353D01*
X145934695Y-93247353D01*
X145904275Y-93244500D01*
X145904266Y-93244500D01*
X144770348Y-93244500D01*
X144695848Y-93224538D01*
X144641310Y-93170000D01*
X144621348Y-93095500D01*
X144641310Y-93021000D01*
X144664989Y-92990141D01*
X144974025Y-92681105D01*
X159236153Y-92681105D01*
X159629904Y-93363101D01*
X160023653Y-94045094D01*
X160202672Y-93941739D01*
X160277172Y-93921777D01*
X160351672Y-93941739D01*
X160406210Y-93996277D01*
X160426172Y-94070777D01*
X160426172Y-94072508D01*
X160406210Y-94147008D01*
X160351672Y-94201546D01*
X159662269Y-94599575D01*
X159611475Y-94628901D01*
X159569208Y-94660575D01*
X159540981Y-94681728D01*
X159447895Y-94798846D01*
X159447893Y-94798849D01*
X159389853Y-94936742D01*
X159389853Y-94936744D01*
X159371170Y-95085183D01*
X159390436Y-95214438D01*
X159393227Y-95233158D01*
X159393228Y-95233162D01*
X159425176Y-95307874D01*
X159427862Y-95314154D01*
X159714222Y-95810144D01*
X159767048Y-95880636D01*
X159851543Y-95947794D01*
X159884169Y-95973725D01*
X159884170Y-95973726D01*
X160022064Y-96031765D01*
X160170504Y-96050448D01*
X160318480Y-96028392D01*
X160399475Y-95993757D01*
X161263525Y-95494897D01*
X161334017Y-95442071D01*
X161427107Y-95324948D01*
X161485147Y-95187054D01*
X161503830Y-95038615D01*
X161481773Y-94890639D01*
X161447138Y-94809644D01*
X161409091Y-94743745D01*
X161347134Y-94636430D01*
X161327172Y-94561931D01*
X161327172Y-93399249D01*
X161347134Y-93324749D01*
X161356555Y-93310649D01*
X161357188Y-93309551D01*
X161357192Y-93309548D01*
X161436249Y-93172616D01*
X161477172Y-93019889D01*
X161477172Y-92861775D01*
X161436249Y-92709048D01*
X161357192Y-92572116D01*
X161245388Y-92460312D01*
X161108456Y-92381255D01*
X160955729Y-92340332D01*
X160797615Y-92340332D01*
X160644888Y-92381255D01*
X160644886Y-92381255D01*
X160644886Y-92381256D01*
X160507955Y-92460312D01*
X160396150Y-92572117D01*
X160392632Y-92578211D01*
X160338092Y-92632746D01*
X160263591Y-92652705D01*
X160189092Y-92632739D01*
X160170888Y-92620349D01*
X160053073Y-92526709D01*
X159915306Y-92468722D01*
X159767001Y-92450056D01*
X159619160Y-92472094D01*
X159538240Y-92506695D01*
X159236153Y-92681105D01*
X144974025Y-92681105D01*
X146110989Y-91544141D01*
X146177784Y-91505577D01*
X146216348Y-91500500D01*
X150480968Y-91500500D01*
X150555468Y-91520462D01*
X150586327Y-91544141D01*
X151131611Y-92089425D01*
X151170175Y-92156219D01*
X151190423Y-92231784D01*
X151269480Y-92368716D01*
X151381284Y-92480520D01*
X151518216Y-92559577D01*
X151670943Y-92600500D01*
X151829057Y-92600500D01*
X151981784Y-92559577D01*
X152118716Y-92480520D01*
X152230520Y-92368716D01*
X152309577Y-92231784D01*
X152309577Y-92231783D01*
X152314460Y-92223326D01*
X152316018Y-92224225D01*
X152339607Y-92188916D01*
X153640510Y-90888014D01*
X153712984Y-90762485D01*
X153720149Y-90735746D01*
X153720150Y-90735744D01*
X155573350Y-90735744D01*
X155573350Y-90735746D01*
X155578729Y-90778489D01*
X155592032Y-90884183D01*
X155592032Y-90884185D01*
X155592033Y-90884186D01*
X155650072Y-91022080D01*
X155743162Y-91139202D01*
X155813654Y-91192028D01*
X156309644Y-91478388D01*
X156390639Y-91513023D01*
X156538615Y-91535080D01*
X156687054Y-91516397D01*
X156824948Y-91458357D01*
X156942071Y-91365267D01*
X156994897Y-91294775D01*
X157493757Y-90430725D01*
X157528392Y-90349730D01*
X157550448Y-90201754D01*
X157531765Y-90053314D01*
X157473726Y-89915420D01*
X157408920Y-89833884D01*
X157380638Y-89798300D01*
X157380636Y-89798299D01*
X157380636Y-89798298D01*
X157310144Y-89745472D01*
X157262500Y-89684823D01*
X157250500Y-89626239D01*
X157250500Y-88945917D01*
X157270462Y-88871417D01*
X157279883Y-88857317D01*
X157280516Y-88856219D01*
X157280520Y-88856216D01*
X157359577Y-88719284D01*
X157385464Y-88622672D01*
X158984794Y-88622672D01*
X158984794Y-88622678D01*
X158999998Y-88757628D01*
X158999999Y-88757629D01*
X159054305Y-88882099D01*
X159092487Y-88926467D01*
X159142890Y-88985036D01*
X159167818Y-89002724D01*
X159956075Y-89457824D01*
X159984474Y-89474220D01*
X160039012Y-89528758D01*
X160058974Y-89603258D01*
X160046945Y-89661908D01*
X160034008Y-89692120D01*
X160034006Y-89692126D01*
X160017774Y-89827888D01*
X160017774Y-89827893D01*
X160040448Y-89962732D01*
X160063487Y-90014812D01*
X160186486Y-90227852D01*
X160633976Y-91002925D01*
X160667562Y-91048925D01*
X160667567Y-91048929D01*
X160772998Y-91135980D01*
X160773000Y-91135981D01*
X160898694Y-91189806D01*
X161034460Y-91206039D01*
X161169301Y-91183365D01*
X161221387Y-91160323D01*
X162729110Y-90289838D01*
X162775109Y-90256251D01*
X162862166Y-90150813D01*
X162915991Y-90025119D01*
X162932224Y-89889353D01*
X162909550Y-89754513D01*
X162901428Y-89736154D01*
X162886510Y-89702431D01*
X162886508Y-89702427D01*
X162326187Y-88731926D01*
X162306226Y-88657428D01*
X162310579Y-88641180D01*
X162263835Y-88639019D01*
X162214139Y-88611929D01*
X162176996Y-88581261D01*
X162051304Y-88527438D01*
X162051302Y-88527437D01*
X161915540Y-88511205D01*
X161915535Y-88511205D01*
X161780695Y-88533879D01*
X161728610Y-88556920D01*
X161498905Y-88689540D01*
X161424405Y-88709502D01*
X161349905Y-88689539D01*
X161295368Y-88635001D01*
X161275406Y-88560501D01*
X161278003Y-88532806D01*
X161297962Y-88427325D01*
X161282757Y-88292374D01*
X161228450Y-88167902D01*
X161139866Y-88064966D01*
X161128374Y-88056812D01*
X161114938Y-88047278D01*
X160883747Y-87913800D01*
X160068318Y-87443012D01*
X160068315Y-87443010D01*
X160068307Y-87443006D01*
X160040539Y-87430267D01*
X159973817Y-87417643D01*
X159907099Y-87405020D01*
X159907097Y-87405020D01*
X159907096Y-87405020D01*
X159772148Y-87420223D01*
X159647676Y-87474531D01*
X159544743Y-87563112D01*
X159544741Y-87563114D01*
X159527050Y-87588048D01*
X159527049Y-87588049D01*
X159022784Y-88461462D01*
X159010042Y-88489239D01*
X159010040Y-88489246D01*
X158984794Y-88622672D01*
X157385464Y-88622672D01*
X157400500Y-88566557D01*
X157400500Y-88408443D01*
X157359577Y-88255716D01*
X157280520Y-88118784D01*
X157168716Y-88006980D01*
X157031784Y-87927923D01*
X156879057Y-87887000D01*
X156720943Y-87887000D01*
X156568216Y-87927923D01*
X156568214Y-87927923D01*
X156568214Y-87927924D01*
X156431283Y-88006980D01*
X156319480Y-88118783D01*
X156240424Y-88255714D01*
X156199500Y-88408441D01*
X156199500Y-88566558D01*
X156210465Y-88607481D01*
X156240423Y-88719284D01*
X156319480Y-88856216D01*
X156324363Y-88864673D01*
X156322962Y-88865481D01*
X156348225Y-88926467D01*
X156349500Y-88945917D01*
X156349500Y-89366981D01*
X156329538Y-89441481D01*
X156293210Y-89483625D01*
X156181728Y-89572231D01*
X156181727Y-89572233D01*
X156128901Y-89642725D01*
X156128898Y-89642729D01*
X156128898Y-89642730D01*
X155630039Y-90506777D01*
X155595406Y-90587768D01*
X155595404Y-90587776D01*
X155573350Y-90735744D01*
X153720150Y-90735744D01*
X153720994Y-90732595D01*
X153750499Y-90622478D01*
X153750500Y-90622474D01*
X153750500Y-90472274D01*
X154568005Y-90472274D01*
X154686066Y-90540436D01*
X154766981Y-90575037D01*
X154914822Y-90597074D01*
X154920124Y-90596407D01*
X154920125Y-90596407D01*
X155063126Y-90578408D01*
X155063128Y-90578408D01*
X155200894Y-90520422D01*
X155317907Y-90427418D01*
X155317907Y-90427417D01*
X155370682Y-90356996D01*
X155545094Y-90054903D01*
X154993004Y-89736154D01*
X154568005Y-90472274D01*
X153750500Y-90472274D01*
X153750500Y-90161927D01*
X153770462Y-90087427D01*
X153825000Y-90032889D01*
X153899500Y-90012927D01*
X153974000Y-90032889D01*
X154019026Y-90077409D01*
X154020367Y-90076344D01*
X154119711Y-90201335D01*
X154119716Y-90201340D01*
X154190141Y-90254115D01*
X154308196Y-90322274D01*
X154733195Y-89586153D01*
X154543002Y-89476345D01*
X155143005Y-89476345D01*
X155695095Y-89795095D01*
X155695096Y-89795095D01*
X155869506Y-89493009D01*
X155904107Y-89412089D01*
X155926145Y-89264248D01*
X155907479Y-89115944D01*
X155907479Y-89115942D01*
X155849493Y-88978176D01*
X155756490Y-88861164D01*
X155756485Y-88861159D01*
X155686060Y-88808384D01*
X155568004Y-88740224D01*
X155143005Y-89476345D01*
X154543002Y-89476345D01*
X154181105Y-89267403D01*
X154028538Y-89531658D01*
X153974000Y-89586196D01*
X153899500Y-89606158D01*
X153825000Y-89586196D01*
X153770462Y-89531658D01*
X153750500Y-89457158D01*
X153750500Y-89189743D01*
X153770462Y-89115243D01*
X153794141Y-89084384D01*
X153972934Y-88905591D01*
X154159440Y-88719084D01*
X154226233Y-88680522D01*
X154303361Y-88680522D01*
X154370156Y-88719086D01*
X154408720Y-88785881D01*
X154408720Y-88863009D01*
X154393835Y-88898945D01*
X154331106Y-89007595D01*
X154883196Y-89326344D01*
X155308195Y-88590224D01*
X155190147Y-88522068D01*
X155190137Y-88522064D01*
X155109220Y-88487462D01*
X154961379Y-88465425D01*
X154813075Y-88484091D01*
X154813074Y-88484091D01*
X154790987Y-88493388D01*
X154714578Y-88503889D01*
X154643154Y-88474779D01*
X154595854Y-88413857D01*
X154585353Y-88337448D01*
X154614463Y-88266024D01*
X154627820Y-88250704D01*
X155034384Y-87844141D01*
X155101179Y-87805577D01*
X155139743Y-87800500D01*
X156072475Y-87800500D01*
X156212485Y-87762984D01*
X156235840Y-87749500D01*
X156338015Y-87690510D01*
X157168531Y-86859992D01*
X157235324Y-86821430D01*
X157312452Y-86821430D01*
X157420943Y-86850500D01*
X157579057Y-86850500D01*
X157731784Y-86809577D01*
X157868716Y-86730520D01*
X157980520Y-86618716D01*
X158059577Y-86481784D01*
X158100500Y-86329057D01*
X158100500Y-86170943D01*
X158059577Y-86018216D01*
X157980520Y-85881284D01*
X157868716Y-85769480D01*
X157731784Y-85690423D01*
X157579057Y-85649500D01*
X157420943Y-85649500D01*
X157268216Y-85690423D01*
X157268213Y-85690424D01*
X157258784Y-85692951D01*
X157258318Y-85691215D01*
X157216665Y-85699500D01*
X156927525Y-85699500D01*
X156787514Y-85737016D01*
X156661985Y-85809490D01*
X155815616Y-86655859D01*
X155798628Y-86665666D01*
X155784757Y-86679538D01*
X155765808Y-86684615D01*
X155748821Y-86694423D01*
X155710257Y-86699500D01*
X155535564Y-86699500D01*
X155461064Y-86679538D01*
X155406526Y-86625000D01*
X155386564Y-86550500D01*
X155406526Y-86476000D01*
X155627995Y-86092402D01*
X154913525Y-85679903D01*
X154338525Y-86675831D01*
X154365064Y-86691154D01*
X154419602Y-86745692D01*
X154439564Y-86820192D01*
X154419602Y-86894692D01*
X154395923Y-86925551D01*
X153090714Y-88230760D01*
X153023919Y-88269324D01*
X152946791Y-88269324D01*
X152879996Y-88230760D01*
X152768716Y-88119480D01*
X152708064Y-88084463D01*
X152631784Y-88040423D01*
X152479057Y-87999500D01*
X152320943Y-87999500D01*
X152168216Y-88040423D01*
X152168213Y-88040424D01*
X152158784Y-88042951D01*
X152158318Y-88041215D01*
X152116665Y-88049500D01*
X151863485Y-88049500D01*
X151788985Y-88029538D01*
X151734447Y-87975000D01*
X151715548Y-87918267D01*
X151715522Y-87918053D01*
X151714997Y-87913679D01*
X151660111Y-87774500D01*
X151583756Y-87673810D01*
X151569712Y-87655290D01*
X151569709Y-87655287D01*
X151450500Y-87564889D01*
X151450498Y-87564888D01*
X151311321Y-87510002D01*
X151223863Y-87499500D01*
X151223860Y-87499500D01*
X150651140Y-87499500D01*
X150651136Y-87499500D01*
X150563678Y-87510002D01*
X150424501Y-87564888D01*
X150424499Y-87564889D01*
X150305290Y-87655287D01*
X150305287Y-87655290D01*
X150214889Y-87774499D01*
X150214888Y-87774501D01*
X150160002Y-87913678D01*
X150149500Y-88001136D01*
X150149500Y-88998863D01*
X150160002Y-89086321D01*
X150214888Y-89225498D01*
X150214889Y-89225500D01*
X150305287Y-89344709D01*
X150305290Y-89344712D01*
X150359881Y-89386109D01*
X150424500Y-89435111D01*
X150482095Y-89457824D01*
X150563678Y-89489997D01*
X150580095Y-89491968D01*
X150651140Y-89500500D01*
X150651141Y-89500500D01*
X151223859Y-89500500D01*
X151223860Y-89500500D01*
X151311321Y-89489997D01*
X151450500Y-89435111D01*
X151569711Y-89344711D01*
X151660111Y-89225500D01*
X151714997Y-89086321D01*
X151714998Y-89086311D01*
X151715687Y-89083590D01*
X151717004Y-89081230D01*
X151718502Y-89077434D01*
X151719012Y-89077635D01*
X151753295Y-89016252D01*
X151819534Y-88976740D01*
X151896654Y-88975641D01*
X151963992Y-89013249D01*
X151965504Y-89014740D01*
X152031284Y-89080520D01*
X152168216Y-89159577D01*
X152320943Y-89200500D01*
X152479054Y-89200500D01*
X152479057Y-89200500D01*
X152479059Y-89200499D01*
X152481043Y-89200238D01*
X152483034Y-89200500D01*
X152488823Y-89200500D01*
X152488823Y-89201261D01*
X152557512Y-89210301D01*
X152618704Y-89257250D01*
X152648224Y-89328505D01*
X152649500Y-89347962D01*
X152649500Y-90260256D01*
X152629538Y-90334756D01*
X152605859Y-90365615D01*
X151820002Y-91151471D01*
X151753207Y-91190035D01*
X151676079Y-91190035D01*
X151609286Y-91151472D01*
X151057314Y-90599500D01*
X151057311Y-90599498D01*
X151057310Y-90599497D01*
X150984059Y-90557206D01*
X150943186Y-90533608D01*
X150815892Y-90499500D01*
X145930540Y-90499500D01*
X145856040Y-90479538D01*
X145801502Y-90425000D01*
X145781540Y-90350500D01*
X145801502Y-90276000D01*
X145820515Y-90250023D01*
X145829966Y-90239672D01*
X145880636Y-90201702D01*
X145973726Y-90084580D01*
X145975542Y-90080264D01*
X145987990Y-90066634D01*
X146007974Y-90053854D01*
X146024929Y-90037267D01*
X146039925Y-90033423D01*
X146052969Y-90025083D01*
X146076664Y-90024008D01*
X146099642Y-90018120D01*
X146126190Y-90021762D01*
X146130018Y-90021589D01*
X146131850Y-90022539D01*
X146136580Y-90023188D01*
X146142383Y-90024743D01*
X146142387Y-90024745D01*
X146295114Y-90065668D01*
X146453228Y-90065668D01*
X146605955Y-90024745D01*
X146742887Y-89945688D01*
X146854691Y-89833884D01*
X146933748Y-89696952D01*
X146974671Y-89544225D01*
X146974671Y-89386111D01*
X146933748Y-89233384D01*
X146854691Y-89096452D01*
X146757057Y-88998818D01*
X148275000Y-88998818D01*
X148285493Y-89086197D01*
X148285494Y-89086199D01*
X148340328Y-89225251D01*
X148340328Y-89225252D01*
X148430644Y-89344352D01*
X148430647Y-89344355D01*
X148549748Y-89434671D01*
X148688800Y-89489505D01*
X148688802Y-89489506D01*
X148776181Y-89499999D01*
X148776183Y-89500000D01*
X148912500Y-89500000D01*
X149212500Y-89500000D01*
X149348817Y-89500000D01*
X149348818Y-89499999D01*
X149436197Y-89489506D01*
X149436199Y-89489505D01*
X149575251Y-89434671D01*
X149575252Y-89434671D01*
X149694352Y-89344355D01*
X149694355Y-89344352D01*
X149784671Y-89225252D01*
X149784671Y-89225251D01*
X149839505Y-89086199D01*
X149839506Y-89086197D01*
X149849999Y-88998818D01*
X149850000Y-88998816D01*
X149850000Y-88650000D01*
X149212500Y-88650000D01*
X149212500Y-89500000D01*
X148912500Y-89500000D01*
X148912500Y-88650000D01*
X148275000Y-88650000D01*
X148275000Y-88998818D01*
X146757057Y-88998818D01*
X146742887Y-88984648D01*
X146605955Y-88905591D01*
X146453228Y-88864668D01*
X146295114Y-88864668D01*
X146142387Y-88905591D01*
X146142385Y-88905591D01*
X146142385Y-88905592D01*
X146005454Y-88984648D01*
X145952994Y-89037109D01*
X145936006Y-89046916D01*
X145922135Y-89060788D01*
X145903186Y-89065865D01*
X145886199Y-89075673D01*
X145847635Y-89080750D01*
X145797732Y-89080750D01*
X145723232Y-89060788D01*
X145668694Y-89006250D01*
X145494897Y-88705225D01*
X145442071Y-88634733D01*
X145442069Y-88634732D01*
X145442069Y-88634731D01*
X145324951Y-88541645D01*
X145324948Y-88541643D01*
X145187054Y-88483603D01*
X145116946Y-88474779D01*
X145038615Y-88464920D01*
X145038614Y-88464920D01*
X144890639Y-88486977D01*
X144890635Y-88486978D01*
X144809647Y-88521610D01*
X144313653Y-88807972D01*
X144243161Y-88860798D01*
X144150072Y-88977919D01*
X144092032Y-89115816D01*
X144073350Y-89264255D01*
X144095404Y-89412223D01*
X144095406Y-89412231D01*
X144130039Y-89493222D01*
X144250824Y-89702427D01*
X144628901Y-90357275D01*
X144681727Y-90427767D01*
X144681728Y-90427768D01*
X144798846Y-90520854D01*
X144798850Y-90520857D01*
X144936744Y-90578897D01*
X145085183Y-90597580D01*
X145233159Y-90575523D01*
X145275994Y-90557205D01*
X145352341Y-90546268D01*
X145423930Y-90574969D01*
X145471577Y-90635620D01*
X145482515Y-90711968D01*
X145453814Y-90783557D01*
X145439937Y-90799564D01*
X144556537Y-91682964D01*
X144489742Y-91721528D01*
X144412614Y-91721528D01*
X144345819Y-91682964D01*
X144322140Y-91652104D01*
X144254576Y-91535079D01*
X144241827Y-91512996D01*
X144154974Y-91426143D01*
X144116410Y-91359348D01*
X144116410Y-91282220D01*
X144154974Y-91215425D01*
X144182502Y-91194303D01*
X144182346Y-91194067D01*
X144185668Y-91191874D01*
X144185841Y-91191742D01*
X144186062Y-91191614D01*
X144256485Y-91138840D01*
X144256490Y-91138835D01*
X144349493Y-91021823D01*
X144407479Y-90884057D01*
X144407479Y-90884055D01*
X144426145Y-90735751D01*
X144404107Y-90587910D01*
X144369506Y-90506990D01*
X144195095Y-90204903D01*
X143513101Y-90598654D01*
X142831106Y-90992403D01*
X142955414Y-91207712D01*
X142975376Y-91282212D01*
X142955414Y-91356712D01*
X142900876Y-91411250D01*
X142826376Y-91431212D01*
X141258975Y-91431212D01*
X141168614Y-91455424D01*
X141168614Y-91455425D01*
X141144401Y-91461913D01*
X141144399Y-91461913D01*
X141134968Y-91464441D01*
X141134112Y-91461248D01*
X141075055Y-91469007D01*
X141003806Y-91439471D01*
X140965507Y-91395787D01*
X140947887Y-91365268D01*
X140925189Y-91325953D01*
X140813385Y-91214149D01*
X140676453Y-91135092D01*
X140523726Y-91094169D01*
X140365612Y-91094169D01*
X140212885Y-91135092D01*
X140075953Y-91214149D01*
X140075952Y-91214149D01*
X140067496Y-91219032D01*
X140066687Y-91217631D01*
X140005702Y-91242894D01*
X139986252Y-91244169D01*
X139246022Y-91244169D01*
X139131445Y-91274870D01*
X139131444Y-91274870D01*
X139131441Y-91274871D01*
X139096968Y-91294774D01*
X139096969Y-91294775D01*
X139028716Y-91334180D01*
X138255598Y-92107298D01*
X138188803Y-92145862D01*
X138172171Y-92149170D01*
X138075070Y-92175189D01*
X138018216Y-92190423D01*
X138018214Y-92190423D01*
X138018214Y-92190424D01*
X137881283Y-92269480D01*
X137769480Y-92381283D01*
X137690424Y-92518214D01*
X137690423Y-92518216D01*
X137676124Y-92571582D01*
X137649500Y-92670941D01*
X134664115Y-92670941D01*
X134960227Y-92076265D01*
X134963405Y-92070235D01*
X135342223Y-91390126D01*
X135345705Y-91384204D01*
X135357430Y-91365268D01*
X135755492Y-90722375D01*
X135759214Y-90716662D01*
X136186498Y-90092903D01*
X137405019Y-90092903D01*
X137405019Y-90092905D01*
X137420222Y-90227852D01*
X137474530Y-90352324D01*
X137474531Y-90352325D01*
X137563114Y-90455260D01*
X137588043Y-90472948D01*
X137588047Y-90472950D01*
X137588048Y-90472951D01*
X137671022Y-90520856D01*
X138461457Y-90977214D01*
X138489240Y-90989959D01*
X138622676Y-91015207D01*
X138757627Y-91000002D01*
X138882099Y-90945695D01*
X138985035Y-90857111D01*
X139002723Y-90832183D01*
X139366703Y-90201748D01*
X142450056Y-90201748D01*
X142472094Y-90349589D01*
X142506695Y-90430509D01*
X142681105Y-90732595D01*
X143233195Y-90413845D01*
X142808196Y-89677724D01*
X142690145Y-89745881D01*
X142690142Y-89745883D01*
X142619716Y-89798659D01*
X142619711Y-89798664D01*
X142526708Y-89915676D01*
X142468722Y-90053442D01*
X142468722Y-90053444D01*
X142450056Y-90201748D01*
X139366703Y-90201748D01*
X139474221Y-90015521D01*
X139528758Y-89960985D01*
X139603258Y-89941023D01*
X139661912Y-89953053D01*
X139692126Y-89965992D01*
X139827892Y-89982225D01*
X139962732Y-89959551D01*
X140014818Y-89936509D01*
X140722856Y-89527722D01*
X143068005Y-89527722D01*
X143068005Y-89527723D01*
X143493004Y-90263844D01*
X144045094Y-89945095D01*
X143870682Y-89643003D01*
X143817907Y-89572582D01*
X143817907Y-89572581D01*
X143700894Y-89479577D01*
X143563127Y-89421591D01*
X143414822Y-89402925D01*
X143266981Y-89424962D01*
X143186064Y-89459564D01*
X143186046Y-89459572D01*
X143068005Y-89527722D01*
X140722856Y-89527722D01*
X141002926Y-89366023D01*
X141048926Y-89332437D01*
X141135982Y-89226999D01*
X141189807Y-89101305D01*
X141206040Y-88965539D01*
X141183366Y-88830698D01*
X141160324Y-88778612D01*
X140858430Y-88255716D01*
X140854461Y-88248842D01*
X140817086Y-88184106D01*
X146749500Y-88184106D01*
X146749500Y-88184108D01*
X146749500Y-88315892D01*
X146783608Y-88443186D01*
X146794160Y-88461462D01*
X146849497Y-88557310D01*
X146849498Y-88557311D01*
X146849500Y-88557314D01*
X146942686Y-88650500D01*
X146942688Y-88650501D01*
X146942689Y-88650502D01*
X146970157Y-88666360D01*
X147056814Y-88716392D01*
X147184108Y-88750500D01*
X147315892Y-88750500D01*
X147443186Y-88716392D01*
X147557314Y-88650500D01*
X147650500Y-88557314D01*
X147664653Y-88532800D01*
X147675633Y-88513783D01*
X147675633Y-88513782D01*
X147681345Y-88503889D01*
X147716392Y-88443186D01*
X147750500Y-88315892D01*
X147750500Y-88184108D01*
X147716392Y-88056814D01*
X147684272Y-88001181D01*
X148275000Y-88001181D01*
X148275000Y-88350000D01*
X148912500Y-88350000D01*
X149212500Y-88350000D01*
X149850000Y-88350000D01*
X149850000Y-88001183D01*
X149849999Y-88001181D01*
X149839506Y-87913802D01*
X149839505Y-87913800D01*
X149784671Y-87774748D01*
X149784671Y-87774747D01*
X149694355Y-87655647D01*
X149694352Y-87655644D01*
X149575251Y-87565328D01*
X149436199Y-87510494D01*
X149436197Y-87510493D01*
X149348818Y-87500000D01*
X149212500Y-87500000D01*
X149212500Y-88350000D01*
X148912500Y-88350000D01*
X148912500Y-87500000D01*
X148776181Y-87500000D01*
X148688802Y-87510493D01*
X148688800Y-87510494D01*
X148549748Y-87565328D01*
X148549747Y-87565328D01*
X148430647Y-87655644D01*
X148430644Y-87655647D01*
X148340328Y-87774747D01*
X148340328Y-87774748D01*
X148285494Y-87913800D01*
X148285493Y-87913802D01*
X148275000Y-88001181D01*
X147684272Y-88001181D01*
X147666360Y-87970157D01*
X147650502Y-87942689D01*
X147650501Y-87942688D01*
X147650500Y-87942686D01*
X147557314Y-87849500D01*
X147557311Y-87849498D01*
X147557310Y-87849497D01*
X147481237Y-87805577D01*
X147443186Y-87783608D01*
X147315892Y-87749500D01*
X147184108Y-87749500D01*
X147056814Y-87783608D01*
X147056812Y-87783608D01*
X147056812Y-87783609D01*
X146942689Y-87849497D01*
X146849497Y-87942689D01*
X146783609Y-88056812D01*
X146749500Y-88184106D01*
X140817086Y-88184106D01*
X140608601Y-87823000D01*
X140289839Y-87270889D01*
X140256252Y-87224890D01*
X140150814Y-87137833D01*
X140025120Y-87084008D01*
X140025118Y-87084007D01*
X139889356Y-87067775D01*
X139889351Y-87067775D01*
X139754512Y-87090449D01*
X139702432Y-87113488D01*
X138731929Y-87673810D01*
X138657429Y-87693772D01*
X138641181Y-87689418D01*
X138639020Y-87736162D01*
X138611931Y-87785857D01*
X138581264Y-87823000D01*
X138581263Y-87823001D01*
X138527439Y-87948694D01*
X138527439Y-87948695D01*
X138511206Y-88084458D01*
X138511206Y-88084463D01*
X138533880Y-88219303D01*
X138556919Y-88271383D01*
X138689543Y-88501094D01*
X138709505Y-88575594D01*
X138689543Y-88650094D01*
X138635005Y-88704632D01*
X138560505Y-88724594D01*
X138532805Y-88721997D01*
X138466766Y-88709502D01*
X138427324Y-88702039D01*
X138427322Y-88702039D01*
X138292372Y-88717243D01*
X138292371Y-88717244D01*
X138167901Y-88771550D01*
X138064964Y-88860135D01*
X138047277Y-88885062D01*
X137443005Y-89931693D01*
X137430266Y-89959461D01*
X137417844Y-90025117D01*
X137408513Y-90074438D01*
X137405019Y-90092903D01*
X136186498Y-90092903D01*
X136199155Y-90074426D01*
X136203167Y-90068851D01*
X136567683Y-89586153D01*
X136672290Y-89447630D01*
X136676532Y-89442274D01*
X137173862Y-88843362D01*
X137178340Y-88838217D01*
X137702797Y-88262916D01*
X137707508Y-88257982D01*
X138257982Y-87707508D01*
X138262916Y-87702797D01*
X138396654Y-87580879D01*
X138465156Y-87545443D01*
X138509153Y-87547477D01*
X138508429Y-87544772D01*
X138528391Y-87470272D01*
X138557045Y-87434663D01*
X138838217Y-87178340D01*
X138843362Y-87173862D01*
X139442274Y-86676532D01*
X139447640Y-86672283D01*
X139456403Y-86665666D01*
X139792368Y-86411957D01*
X140068851Y-86203167D01*
X140074426Y-86199155D01*
X140716662Y-85759214D01*
X140722375Y-85755492D01*
X141333140Y-85377322D01*
X143984793Y-85377322D01*
X143984793Y-85377328D01*
X144010039Y-85510754D01*
X144010041Y-85510761D01*
X144022783Y-85538538D01*
X144527048Y-86411951D01*
X144527049Y-86411952D01*
X144527052Y-86411957D01*
X144530836Y-86417290D01*
X144544740Y-86436886D01*
X144544742Y-86436888D01*
X144647675Y-86525469D01*
X144772147Y-86579777D01*
X144795112Y-86582364D01*
X144907098Y-86594981D01*
X145040535Y-86569734D01*
X145040536Y-86569733D01*
X145040538Y-86569733D01*
X145068306Y-86556994D01*
X145068305Y-86556994D01*
X145068317Y-86556989D01*
X145868936Y-86094750D01*
X145943433Y-86074790D01*
X146017933Y-86094752D01*
X146062713Y-86134497D01*
X146085313Y-86164687D01*
X146194774Y-86246628D01*
X146322886Y-86294412D01*
X146379515Y-86300500D01*
X147520484Y-86300499D01*
X147577114Y-86294412D01*
X147705226Y-86246628D01*
X147814687Y-86164687D01*
X147896628Y-86055226D01*
X147944412Y-85927114D01*
X147950500Y-85870485D01*
X147950499Y-84129516D01*
X147944412Y-84072886D01*
X147944077Y-84071989D01*
X147920857Y-84009733D01*
X147896628Y-83944774D01*
X147814687Y-83835313D01*
X147705226Y-83753372D01*
X147684793Y-83745751D01*
X147577113Y-83705587D01*
X147520499Y-83699501D01*
X147520490Y-83699500D01*
X147520485Y-83699500D01*
X147520478Y-83699500D01*
X146379519Y-83699500D01*
X146375268Y-83699957D01*
X146375263Y-83699958D01*
X146322886Y-83705588D01*
X146274333Y-83723697D01*
X146274327Y-83723699D01*
X146194774Y-83753372D01*
X146194772Y-83753373D01*
X146085313Y-83835313D01*
X146003373Y-83944772D01*
X146003371Y-83944776D01*
X145955587Y-84072886D01*
X145949501Y-84129500D01*
X145949500Y-84129521D01*
X145949500Y-84370309D01*
X145929538Y-84444809D01*
X145875000Y-84499347D01*
X145800500Y-84519309D01*
X145726000Y-84499347D01*
X145703310Y-84483247D01*
X145635082Y-84424533D01*
X145635078Y-84424530D01*
X145510606Y-84370222D01*
X145375659Y-84355019D01*
X145375657Y-84355019D01*
X145375656Y-84355019D01*
X145348968Y-84360068D01*
X145242215Y-84380266D01*
X145214447Y-84393005D01*
X144167816Y-84997277D01*
X144142889Y-85014964D01*
X144054304Y-85117901D01*
X143999998Y-85242371D01*
X143999997Y-85242372D01*
X143984793Y-85377322D01*
X141333140Y-85377322D01*
X141384215Y-85345698D01*
X141390126Y-85342223D01*
X142070235Y-84963405D01*
X142076265Y-84960227D01*
X142773105Y-84613242D01*
X142779331Y-84610320D01*
X143491454Y-84295886D01*
X143497751Y-84293278D01*
X144223668Y-84012056D01*
X144230063Y-84009747D01*
X144968218Y-83762343D01*
X144974717Y-83760330D01*
X145723501Y-83547283D01*
X145730088Y-83545572D01*
X146487873Y-83367343D01*
X146494571Y-83365929D01*
X147259798Y-83222883D01*
X147266538Y-83221784D01*
X148037566Y-83114230D01*
X148044310Y-83113448D01*
X148819460Y-83041619D01*
X148826294Y-83041145D01*
X149603908Y-83005194D01*
X149610789Y-83005035D01*
X150389211Y-83005035D01*
X150396092Y-83005194D01*
G37*
%TD.AperFunction*%
%TD*%
M02*
