%TF.GenerationSoftware,KiCad,Pcbnew,9.0.0*%
%TF.CreationDate,2025-03-16T18:04:45+02:00*%
%TF.ProjectId,LumiTimeV2,4c756d69-5469-46d6-9556-322e6b696361,rev?*%
%TF.SameCoordinates,Original*%
%TF.FileFunction,Soldermask,Bot*%
%TF.FilePolarity,Negative*%
%FSLAX46Y46*%
G04 Gerber Fmt 4.6, Leading zero omitted, Abs format (unit mm)*
G04 Created by KiCad (PCBNEW 9.0.0) date 2025-03-16 18:04:45*
%MOMM*%
%LPD*%
G01*
G04 APERTURE LIST*
G04 Aperture macros list*
%AMRoundRect*
0 Rectangle with rounded corners*
0 $1 Rounding radius*
0 $2 $3 $4 $5 $6 $7 $8 $9 X,Y pos of 4 corners*
0 Add a 4 corners polygon primitive as box body*
4,1,4,$2,$3,$4,$5,$6,$7,$8,$9,$2,$3,0*
0 Add four circle primitives for the rounded corners*
1,1,$1+$1,$2,$3*
1,1,$1+$1,$4,$5*
1,1,$1+$1,$6,$7*
1,1,$1+$1,$8,$9*
0 Add four rect primitives between the rounded corners*
20,1,$1+$1,$2,$3,$4,$5,0*
20,1,$1+$1,$4,$5,$6,$7,0*
20,1,$1+$1,$6,$7,$8,$9,0*
20,1,$1+$1,$8,$9,$2,$3,0*%
G04 Aperture macros list end*
%ADD10RoundRect,0.250000X0.250000X0.475000X-0.250000X0.475000X-0.250000X-0.475000X0.250000X-0.475000X0*%
%ADD11RoundRect,0.250000X0.262500X0.450000X-0.262500X0.450000X-0.262500X-0.450000X0.262500X-0.450000X0*%
%ADD12C,0.500000*%
%ADD13RoundRect,0.250000X0.450000X-0.262500X0.450000X0.262500X-0.450000X0.262500X-0.450000X-0.262500X0*%
%ADD14RoundRect,0.250000X-0.262500X-0.450000X0.262500X-0.450000X0.262500X0.450000X-0.262500X0.450000X0*%
%ADD15R,1.750000X0.600000*%
%ADD16RoundRect,0.250000X-0.450000X0.262500X-0.450000X-0.262500X0.450000X-0.262500X0.450000X0.262500X0*%
%ADD17R,0.550000X1.600000*%
%ADD18R,1.600000X0.550000*%
%ADD19RoundRect,0.250000X0.400000X0.600000X-0.400000X0.600000X-0.400000X-0.600000X0.400000X-0.600000X0*%
%ADD20R,1.600000X2.180000*%
%ADD21RoundRect,0.250000X-0.400000X-0.600000X0.400000X-0.600000X0.400000X0.600000X-0.400000X0.600000X0*%
G04 APERTURE END LIST*
D10*
%TO.C,C4*%
X142150000Y-96900000D03*
X140250000Y-96900000D03*
%TD*%
D11*
%TO.C,R10*%
X146512500Y-92000000D03*
X144687500Y-92000000D03*
%TD*%
%TO.C,R3*%
X161412500Y-94200000D03*
X159587500Y-94200000D03*
%TD*%
D12*
%TO.C,FID1*%
X155250000Y-93750000D03*
%TD*%
D10*
%TO.C,C2*%
X151950000Y-107000000D03*
X150050000Y-107000000D03*
%TD*%
D13*
%TO.C,R1*%
X156800000Y-90312500D03*
X156800000Y-88487500D03*
%TD*%
D14*
%TO.C,R13*%
X140287500Y-94700000D03*
X142112500Y-94700000D03*
%TD*%
D10*
%TO.C,C3*%
X150350000Y-93000000D03*
X148450000Y-93000000D03*
%TD*%
D15*
%TO.C,J1*%
X156700000Y-104500000D03*
X158450000Y-105500000D03*
X156700000Y-106500000D03*
X158450000Y-107500000D03*
X156700000Y-108500000D03*
X158450000Y-109500000D03*
%TD*%
D11*
%TO.C,R9*%
X142412500Y-105000000D03*
X140587500Y-105000000D03*
%TD*%
D16*
%TO.C,R8*%
X144900000Y-107687500D03*
X144900000Y-109512500D03*
%TD*%
D10*
%TO.C,C1*%
X151950000Y-109000000D03*
X150050000Y-109000000D03*
%TD*%
D16*
%TO.C,R11*%
X141800000Y-88187500D03*
X141800000Y-90012500D03*
%TD*%
D11*
%TO.C,R5*%
X161412500Y-99200000D03*
X159587500Y-99200000D03*
%TD*%
D12*
%TO.C,FID2*%
X135000000Y-101750000D03*
%TD*%
D17*
%TO.C,U1*%
X147200000Y-95750000D03*
X148000000Y-95750000D03*
X148800000Y-95750000D03*
X149600000Y-95750000D03*
X150400000Y-95750000D03*
X151200000Y-95750000D03*
X152000000Y-95750000D03*
X152800000Y-95750000D03*
D18*
X154250000Y-97200000D03*
X154250000Y-98000000D03*
X154250000Y-98800000D03*
X154250000Y-99600000D03*
X154250000Y-100400000D03*
X154250000Y-101200000D03*
X154250000Y-102000000D03*
X154250000Y-102800000D03*
D17*
X152800000Y-104250000D03*
X152000000Y-104250000D03*
X151200000Y-104250000D03*
X150400000Y-104250000D03*
X149600000Y-104250000D03*
X148800000Y-104250000D03*
X148000000Y-104250000D03*
X147200000Y-104250000D03*
D18*
X145750000Y-102800000D03*
X145750000Y-102000000D03*
X145750000Y-101200000D03*
X145750000Y-100400000D03*
X145750000Y-99600000D03*
X145750000Y-98800000D03*
X145750000Y-98000000D03*
X145750000Y-97200000D03*
%TD*%
D13*
%TO.C,R12*%
X154100000Y-90325000D03*
X154100000Y-88500000D03*
%TD*%
D11*
%TO.C,R14*%
X142412500Y-99900000D03*
X140587500Y-99900000D03*
%TD*%
%TO.C,R4*%
X161412500Y-96700000D03*
X159587500Y-96700000D03*
%TD*%
D19*
%TO.C,D13*%
X155250000Y-85100000D03*
X151750000Y-85100000D03*
%TD*%
D13*
%TO.C,R7*%
X147600000Y-109512500D03*
X147600000Y-107687500D03*
%TD*%
D11*
%TO.C,R16*%
X150112500Y-90600000D03*
X148287500Y-90600000D03*
%TD*%
D19*
%TO.C,ZD1*%
X148250000Y-84900000D03*
X144750000Y-84900000D03*
%TD*%
D12*
%TO.C,FID3*%
X155250000Y-112500000D03*
%TD*%
D11*
%TO.C,R6*%
X161412500Y-101700000D03*
X159587500Y-101700000D03*
%TD*%
%TO.C,R15*%
X142412500Y-102000000D03*
X140587500Y-102000000D03*
%TD*%
D20*
%TO.C,Button1*%
X165000000Y-95410000D03*
X165000000Y-104590000D03*
%TD*%
D21*
%TO.C,D14*%
X144750000Y-87300000D03*
X148250000Y-87300000D03*
%TD*%
D11*
%TO.C,R2*%
X161412500Y-91700000D03*
X159587500Y-91700000D03*
%TD*%
M02*
