%TF.GenerationSoftware,KiCad,Pcbnew,8.0.8*%
%TF.CreationDate,2025-01-19T18:25:21+02:00*%
%TF.ProjectId,LumiTimeV2,4c756d69-5469-46d6-9556-322e6b696361,rev?*%
%TF.SameCoordinates,Original*%
%TF.FileFunction,Legend,Top*%
%TF.FilePolarity,Positive*%
%FSLAX46Y46*%
G04 Gerber Fmt 4.6, Leading zero omitted, Abs format (unit mm)*
G04 Created by KiCad (PCBNEW 8.0.8) date 2025-01-19 18:25:21*
%MOMM*%
%LPD*%
G01*
G04 APERTURE LIST*
%ADD10C,0.300000*%
%ADD11C,0.150000*%
%ADD12C,0.120000*%
%ADD13C,0.000000*%
G04 APERTURE END LIST*
D10*
X154999999Y-93668704D02*
X154999999Y-91108704D01*
X145774285Y-90358704D02*
X146620952Y-92918704D01*
X146620952Y-90358704D02*
X145774285Y-92918704D01*
X147104761Y-92918704D02*
X147104761Y-90358704D01*
X154826667Y-106108704D02*
X155250000Y-108668704D01*
X155250000Y-108668704D02*
X155673334Y-106108704D01*
X143971905Y-106108704D02*
X144395238Y-108668704D01*
X144395238Y-108668704D02*
X144818572Y-106108704D01*
X145241904Y-108668704D02*
X145241904Y-106108704D01*
X145846666Y-108668704D02*
X145846666Y-106108704D01*
X157197618Y-95668704D02*
X157197618Y-93108704D01*
X157802380Y-95668704D02*
X157802380Y-93108704D01*
X158645237Y-101418704D02*
X158645237Y-98858704D01*
X159249999Y-101418704D02*
X159249999Y-98858704D01*
X159854761Y-101418704D02*
X159854761Y-98858704D01*
X141826666Y-93858704D02*
X142673333Y-96418704D01*
X142673333Y-93858704D02*
X141826666Y-96418704D01*
X140919524Y-102858704D02*
X141342857Y-105418704D01*
X141342857Y-105418704D02*
X141766191Y-102858704D01*
X142189523Y-105418704D02*
X142189523Y-102858704D01*
X142794285Y-105418704D02*
X142794285Y-102858704D01*
X143399047Y-105418704D02*
X143399047Y-102858704D01*
X149524286Y-107608704D02*
X149947619Y-110168704D01*
X149947619Y-110168704D02*
X150370953Y-107608704D01*
X150794285Y-110168704D02*
X150794285Y-107608704D01*
X140145237Y-101418704D02*
X140145237Y-98858704D01*
X140629047Y-98858704D02*
X141475714Y-101418704D01*
X141475714Y-98858704D02*
X140629047Y-101418704D01*
X148971904Y-89858704D02*
X149818571Y-92418704D01*
X149818571Y-89858704D02*
X148971904Y-92418704D01*
X150302380Y-92418704D02*
X150302380Y-89858704D01*
X150907142Y-92418704D02*
X150907142Y-89858704D01*
X156842856Y-105168704D02*
X156842856Y-102608704D01*
X157447618Y-105168704D02*
X157447618Y-102608704D01*
X158052380Y-105168704D02*
X158052380Y-102608704D01*
X158657142Y-105168704D02*
X158657142Y-102608704D01*
D11*
X148357143Y-85454819D02*
X148357143Y-84454819D01*
X148357143Y-84454819D02*
X148738095Y-84454819D01*
X148738095Y-84454819D02*
X148833333Y-84502438D01*
X148833333Y-84502438D02*
X148880952Y-84550057D01*
X148880952Y-84550057D02*
X148928571Y-84645295D01*
X148928571Y-84645295D02*
X148928571Y-84788152D01*
X148928571Y-84788152D02*
X148880952Y-84883390D01*
X148880952Y-84883390D02*
X148833333Y-84931009D01*
X148833333Y-84931009D02*
X148738095Y-84978628D01*
X148738095Y-84978628D02*
X148357143Y-84978628D01*
X149214286Y-84454819D02*
X149547619Y-85454819D01*
X149547619Y-85454819D02*
X149880952Y-84454819D01*
X150738095Y-85454819D02*
X150166667Y-85454819D01*
X150452381Y-85454819D02*
X150452381Y-84454819D01*
X150452381Y-84454819D02*
X150357143Y-84597676D01*
X150357143Y-84597676D02*
X150261905Y-84692914D01*
X150261905Y-84692914D02*
X150166667Y-84740533D01*
X151119048Y-84550057D02*
X151166667Y-84502438D01*
X151166667Y-84502438D02*
X151261905Y-84454819D01*
X151261905Y-84454819D02*
X151500000Y-84454819D01*
X151500000Y-84454819D02*
X151595238Y-84502438D01*
X151595238Y-84502438D02*
X151642857Y-84550057D01*
X151642857Y-84550057D02*
X151690476Y-84645295D01*
X151690476Y-84645295D02*
X151690476Y-84740533D01*
X151690476Y-84740533D02*
X151642857Y-84883390D01*
X151642857Y-84883390D02*
X151071429Y-85454819D01*
X151071429Y-85454819D02*
X151690476Y-85454819D01*
X146738095Y-98799819D02*
X146738095Y-99609342D01*
X146738095Y-99609342D02*
X146785714Y-99704580D01*
X146785714Y-99704580D02*
X146833333Y-99752200D01*
X146833333Y-99752200D02*
X146928571Y-99799819D01*
X146928571Y-99799819D02*
X147119047Y-99799819D01*
X147119047Y-99799819D02*
X147214285Y-99752200D01*
X147214285Y-99752200D02*
X147261904Y-99704580D01*
X147261904Y-99704580D02*
X147309523Y-99609342D01*
X147309523Y-99609342D02*
X147309523Y-98799819D01*
X147738095Y-98895057D02*
X147785714Y-98847438D01*
X147785714Y-98847438D02*
X147880952Y-98799819D01*
X147880952Y-98799819D02*
X148119047Y-98799819D01*
X148119047Y-98799819D02*
X148214285Y-98847438D01*
X148214285Y-98847438D02*
X148261904Y-98895057D01*
X148261904Y-98895057D02*
X148309523Y-98990295D01*
X148309523Y-98990295D02*
X148309523Y-99085533D01*
X148309523Y-99085533D02*
X148261904Y-99228390D01*
X148261904Y-99228390D02*
X147690476Y-99799819D01*
X147690476Y-99799819D02*
X148309523Y-99799819D01*
X156012227Y-87060551D02*
X156512227Y-86194526D01*
X156512227Y-86194526D02*
X156842141Y-86385002D01*
X156842141Y-86385002D02*
X156900810Y-86473860D01*
X156900810Y-86473860D02*
X156918240Y-86538909D01*
X156918240Y-86538909D02*
X156911860Y-86645197D01*
X156911860Y-86645197D02*
X156840432Y-86768915D01*
X156840432Y-86768915D02*
X156751574Y-86827584D01*
X156751574Y-86827584D02*
X156686525Y-86845014D01*
X156686525Y-86845014D02*
X156580237Y-86838634D01*
X156580237Y-86838634D02*
X156250322Y-86648158D01*
X157254534Y-86623097D02*
X157043210Y-87655789D01*
X157043210Y-87655789D02*
X157831885Y-86956430D01*
X158074192Y-88251027D02*
X157579321Y-87965313D01*
X157826756Y-88108170D02*
X158326756Y-87242145D01*
X158326756Y-87242145D02*
X158172849Y-87318244D01*
X158172849Y-87318244D02*
X158042752Y-87353103D01*
X158042752Y-87353103D02*
X157936463Y-87346723D01*
X136022781Y-106717046D02*
X136888807Y-106217046D01*
X136888807Y-106217046D02*
X137079283Y-106546960D01*
X137079283Y-106546960D02*
X137085663Y-106653249D01*
X137085663Y-106653249D02*
X137068233Y-106718297D01*
X137068233Y-106718297D02*
X137009564Y-106807156D01*
X137009564Y-106807156D02*
X136885846Y-106878584D01*
X136885846Y-106878584D02*
X136779558Y-106884964D01*
X136779558Y-106884964D02*
X136714509Y-106867534D01*
X136714509Y-106867534D02*
X136625651Y-106808865D01*
X136625651Y-106808865D02*
X136435174Y-106478951D01*
X137317378Y-106959353D02*
X136618019Y-107748029D01*
X136618019Y-107748029D02*
X137650711Y-107536704D01*
X137517653Y-108163383D02*
X137511273Y-108057094D01*
X137511273Y-108057094D02*
X137528703Y-107992046D01*
X137528703Y-107992046D02*
X137587372Y-107903187D01*
X137587372Y-107903187D02*
X137628611Y-107879378D01*
X137628611Y-107879378D02*
X137734900Y-107872998D01*
X137734900Y-107872998D02*
X137799948Y-107890428D01*
X137799948Y-107890428D02*
X137888807Y-107949097D01*
X137888807Y-107949097D02*
X137984045Y-108114054D01*
X137984045Y-108114054D02*
X137990425Y-108220342D01*
X137990425Y-108220342D02*
X137972995Y-108285391D01*
X137972995Y-108285391D02*
X137914326Y-108374249D01*
X137914326Y-108374249D02*
X137873086Y-108398059D01*
X137873086Y-108398059D02*
X137766798Y-108404439D01*
X137766798Y-108404439D02*
X137701749Y-108387009D01*
X137701749Y-108387009D02*
X137612891Y-108328340D01*
X137612891Y-108328340D02*
X137517653Y-108163383D01*
X137517653Y-108163383D02*
X137428795Y-108104714D01*
X137428795Y-108104714D02*
X137363746Y-108087284D01*
X137363746Y-108087284D02*
X137257458Y-108093663D01*
X137257458Y-108093663D02*
X137092500Y-108188902D01*
X137092500Y-108188902D02*
X137033831Y-108277760D01*
X137033831Y-108277760D02*
X137016402Y-108342809D01*
X137016402Y-108342809D02*
X137022781Y-108449097D01*
X137022781Y-108449097D02*
X137118019Y-108614054D01*
X137118019Y-108614054D02*
X137206878Y-108672723D01*
X137206878Y-108672723D02*
X137271927Y-108690153D01*
X137271927Y-108690153D02*
X137378215Y-108683773D01*
X137378215Y-108683773D02*
X137543172Y-108588535D01*
X137543172Y-108588535D02*
X137601841Y-108499677D01*
X137601841Y-108499677D02*
X137619271Y-108434628D01*
X137619271Y-108434628D02*
X137612891Y-108328340D01*
X141262227Y-112810551D02*
X141762227Y-111944526D01*
X141762227Y-111944526D02*
X142092141Y-112135002D01*
X142092141Y-112135002D02*
X142150810Y-112223860D01*
X142150810Y-112223860D02*
X142168240Y-112288909D01*
X142168240Y-112288909D02*
X142161860Y-112395197D01*
X142161860Y-112395197D02*
X142090432Y-112518915D01*
X142090432Y-112518915D02*
X142001574Y-112577584D01*
X142001574Y-112577584D02*
X141936525Y-112595014D01*
X141936525Y-112595014D02*
X141830237Y-112588634D01*
X141830237Y-112588634D02*
X141500322Y-112398158D01*
X142504534Y-112373097D02*
X142293210Y-113405789D01*
X142293210Y-113405789D02*
X143081885Y-112706430D01*
X143288081Y-112825478D02*
X143865432Y-113158811D01*
X143865432Y-113158811D02*
X142994278Y-113810551D01*
X163833333Y-100454819D02*
X163833333Y-99454819D01*
X163833333Y-99454819D02*
X164214285Y-99454819D01*
X164214285Y-99454819D02*
X164309523Y-99502438D01*
X164309523Y-99502438D02*
X164357142Y-99550057D01*
X164357142Y-99550057D02*
X164404761Y-99645295D01*
X164404761Y-99645295D02*
X164404761Y-99788152D01*
X164404761Y-99788152D02*
X164357142Y-99883390D01*
X164357142Y-99883390D02*
X164309523Y-99931009D01*
X164309523Y-99931009D02*
X164214285Y-99978628D01*
X164214285Y-99978628D02*
X163833333Y-99978628D01*
X164690476Y-99454819D02*
X165023809Y-100454819D01*
X165023809Y-100454819D02*
X165357142Y-99454819D01*
X165595238Y-99454819D02*
X166214285Y-99454819D01*
X166214285Y-99454819D02*
X165880952Y-99835771D01*
X165880952Y-99835771D02*
X166023809Y-99835771D01*
X166023809Y-99835771D02*
X166119047Y-99883390D01*
X166119047Y-99883390D02*
X166166666Y-99931009D01*
X166166666Y-99931009D02*
X166214285Y-100026247D01*
X166214285Y-100026247D02*
X166214285Y-100264342D01*
X166214285Y-100264342D02*
X166166666Y-100359580D01*
X166166666Y-100359580D02*
X166119047Y-100407200D01*
X166119047Y-100407200D02*
X166023809Y-100454819D01*
X166023809Y-100454819D02*
X165738095Y-100454819D01*
X165738095Y-100454819D02*
X165642857Y-100407200D01*
X165642857Y-100407200D02*
X165595238Y-100359580D01*
X161522781Y-91967046D02*
X162388807Y-91467046D01*
X162388807Y-91467046D02*
X162579283Y-91796960D01*
X162579283Y-91796960D02*
X162585663Y-91903249D01*
X162585663Y-91903249D02*
X162568233Y-91968297D01*
X162568233Y-91968297D02*
X162509564Y-92057156D01*
X162509564Y-92057156D02*
X162385846Y-92128584D01*
X162385846Y-92128584D02*
X162279558Y-92134964D01*
X162279558Y-92134964D02*
X162214509Y-92117534D01*
X162214509Y-92117534D02*
X162125651Y-92058865D01*
X162125651Y-92058865D02*
X161935174Y-91728951D01*
X162817378Y-92209353D02*
X162118019Y-92998029D01*
X162118019Y-92998029D02*
X163150711Y-92786704D01*
X163211090Y-93081759D02*
X163276139Y-93099189D01*
X163276139Y-93099189D02*
X163364997Y-93157858D01*
X163364997Y-93157858D02*
X163484045Y-93364054D01*
X163484045Y-93364054D02*
X163490425Y-93470342D01*
X163490425Y-93470342D02*
X163472995Y-93535391D01*
X163472995Y-93535391D02*
X163414326Y-93624249D01*
X163414326Y-93624249D02*
X163331847Y-93671868D01*
X163331847Y-93671868D02*
X163184320Y-93702058D01*
X163184320Y-93702058D02*
X162403734Y-93492900D01*
X162403734Y-93492900D02*
X162713258Y-94029011D01*
X154773809Y-96978628D02*
X154773809Y-97454819D01*
X154440476Y-96454819D02*
X154773809Y-96978628D01*
X154773809Y-96978628D02*
X155107142Y-96454819D01*
X155964285Y-97454819D02*
X155392857Y-97454819D01*
X155678571Y-97454819D02*
X155678571Y-96454819D01*
X155678571Y-96454819D02*
X155583333Y-96597676D01*
X155583333Y-96597676D02*
X155488095Y-96692914D01*
X155488095Y-96692914D02*
X155392857Y-96740533D01*
X143859580Y-100666666D02*
X143907200Y-100714285D01*
X143907200Y-100714285D02*
X143954819Y-100857142D01*
X143954819Y-100857142D02*
X143954819Y-100952380D01*
X143954819Y-100952380D02*
X143907200Y-101095237D01*
X143907200Y-101095237D02*
X143811961Y-101190475D01*
X143811961Y-101190475D02*
X143716723Y-101238094D01*
X143716723Y-101238094D02*
X143526247Y-101285713D01*
X143526247Y-101285713D02*
X143383390Y-101285713D01*
X143383390Y-101285713D02*
X143192914Y-101238094D01*
X143192914Y-101238094D02*
X143097676Y-101190475D01*
X143097676Y-101190475D02*
X143002438Y-101095237D01*
X143002438Y-101095237D02*
X142954819Y-100952380D01*
X142954819Y-100952380D02*
X142954819Y-100857142D01*
X142954819Y-100857142D02*
X143002438Y-100714285D01*
X143002438Y-100714285D02*
X143050057Y-100666666D01*
X142954819Y-99761904D02*
X142954819Y-100238094D01*
X142954819Y-100238094D02*
X143431009Y-100285713D01*
X143431009Y-100285713D02*
X143383390Y-100238094D01*
X143383390Y-100238094D02*
X143335771Y-100142856D01*
X143335771Y-100142856D02*
X143335771Y-99904761D01*
X143335771Y-99904761D02*
X143383390Y-99809523D01*
X143383390Y-99809523D02*
X143431009Y-99761904D01*
X143431009Y-99761904D02*
X143526247Y-99714285D01*
X143526247Y-99714285D02*
X143764342Y-99714285D01*
X143764342Y-99714285D02*
X143859580Y-99761904D01*
X143859580Y-99761904D02*
X143907200Y-99809523D01*
X143907200Y-99809523D02*
X143954819Y-99904761D01*
X143954819Y-99904761D02*
X143954819Y-100142856D01*
X143954819Y-100142856D02*
X143907200Y-100238094D01*
X143907200Y-100238094D02*
X143859580Y-100285713D01*
X136572456Y-94150165D02*
X135706431Y-93650165D01*
X135706431Y-93650165D02*
X135896907Y-93320250D01*
X135896907Y-93320250D02*
X135985765Y-93261581D01*
X135985765Y-93261581D02*
X136050814Y-93244151D01*
X136050814Y-93244151D02*
X136157102Y-93250531D01*
X136157102Y-93250531D02*
X136280820Y-93321960D01*
X136280820Y-93321960D02*
X136339489Y-93410818D01*
X136339489Y-93410818D02*
X136356919Y-93475867D01*
X136356919Y-93475867D02*
X136350539Y-93582155D01*
X136350539Y-93582155D02*
X136160063Y-93912069D01*
X136135002Y-92907857D02*
X137167694Y-93119182D01*
X137167694Y-93119182D02*
X136468335Y-92330507D01*
X137762932Y-92088199D02*
X137477218Y-92583071D01*
X137620075Y-92335635D02*
X136754050Y-91835635D01*
X136754050Y-91835635D02*
X136830149Y-91989542D01*
X136830149Y-91989542D02*
X136865008Y-92119640D01*
X136865008Y-92119640D02*
X136858628Y-92225928D01*
X137206431Y-91052088D02*
X137254050Y-90969610D01*
X137254050Y-90969610D02*
X137342908Y-90910941D01*
X137342908Y-90910941D02*
X137407957Y-90893511D01*
X137407957Y-90893511D02*
X137514245Y-90899891D01*
X137514245Y-90899891D02*
X137703012Y-90953889D01*
X137703012Y-90953889D02*
X137909208Y-91072937D01*
X137909208Y-91072937D02*
X138050356Y-91209414D01*
X138050356Y-91209414D02*
X138109025Y-91298273D01*
X138109025Y-91298273D02*
X138126455Y-91363322D01*
X138126455Y-91363322D02*
X138120075Y-91469610D01*
X138120075Y-91469610D02*
X138072456Y-91552088D01*
X138072456Y-91552088D02*
X137983598Y-91610757D01*
X137983598Y-91610757D02*
X137918549Y-91628187D01*
X137918549Y-91628187D02*
X137812261Y-91621807D01*
X137812261Y-91621807D02*
X137623494Y-91567809D01*
X137623494Y-91567809D02*
X137417297Y-91448761D01*
X137417297Y-91448761D02*
X137276150Y-91312284D01*
X137276150Y-91312284D02*
X137217481Y-91223425D01*
X137217481Y-91223425D02*
X137200051Y-91158376D01*
X137200051Y-91158376D02*
X137206431Y-91052088D01*
X162810551Y-108737772D02*
X161944526Y-108237772D01*
X161944526Y-108237772D02*
X162135002Y-107907858D01*
X162135002Y-107907858D02*
X162223860Y-107849189D01*
X162223860Y-107849189D02*
X162288909Y-107831759D01*
X162288909Y-107831759D02*
X162395197Y-107838139D01*
X162395197Y-107838139D02*
X162518915Y-107909567D01*
X162518915Y-107909567D02*
X162577584Y-107998425D01*
X162577584Y-107998425D02*
X162595014Y-108063474D01*
X162595014Y-108063474D02*
X162588634Y-108169762D01*
X162588634Y-108169762D02*
X162398158Y-108499677D01*
X162373097Y-107495465D02*
X163405789Y-107706789D01*
X163405789Y-107706789D02*
X162706430Y-106918114D01*
X163376058Y-106424952D02*
X163953408Y-106758285D01*
X162927096Y-106440672D02*
X163426638Y-107004012D01*
X163426638Y-107004012D02*
X163736162Y-106467901D01*
X156717046Y-113977218D02*
X156217046Y-113111192D01*
X156217046Y-113111192D02*
X156546960Y-112920716D01*
X156546960Y-112920716D02*
X156653249Y-112914336D01*
X156653249Y-112914336D02*
X156718297Y-112931766D01*
X156718297Y-112931766D02*
X156807156Y-112990435D01*
X156807156Y-112990435D02*
X156878584Y-113114153D01*
X156878584Y-113114153D02*
X156884964Y-113220441D01*
X156884964Y-113220441D02*
X156867534Y-113285490D01*
X156867534Y-113285490D02*
X156808865Y-113374348D01*
X156808865Y-113374348D02*
X156478951Y-113564825D01*
X156959353Y-112682621D02*
X157748029Y-113381980D01*
X157748029Y-113381980D02*
X157536704Y-112349288D01*
X158237772Y-111944526D02*
X157825379Y-112182621D01*
X157825379Y-112182621D02*
X158022235Y-112618823D01*
X158022235Y-112618823D02*
X158039665Y-112553775D01*
X158039665Y-112553775D02*
X158098334Y-112464916D01*
X158098334Y-112464916D02*
X158304530Y-112345869D01*
X158304530Y-112345869D02*
X158410818Y-112339489D01*
X158410818Y-112339489D02*
X158475867Y-112356919D01*
X158475867Y-112356919D02*
X158564726Y-112415588D01*
X158564726Y-112415588D02*
X158683773Y-112621784D01*
X158683773Y-112621784D02*
X158690153Y-112728072D01*
X158690153Y-112728072D02*
X158672723Y-112793121D01*
X158672723Y-112793121D02*
X158614054Y-112881980D01*
X158614054Y-112881980D02*
X158407858Y-113001027D01*
X158407858Y-113001027D02*
X158301569Y-113007407D01*
X158301569Y-113007407D02*
X158236521Y-112989977D01*
X141554653Y-88465313D02*
X141054653Y-87599287D01*
X141054653Y-87599287D02*
X141384568Y-87408811D01*
X141384568Y-87408811D02*
X141490856Y-87402431D01*
X141490856Y-87402431D02*
X141555905Y-87419861D01*
X141555905Y-87419861D02*
X141644763Y-87478530D01*
X141644763Y-87478530D02*
X141716192Y-87602248D01*
X141716192Y-87602248D02*
X141722571Y-87708536D01*
X141722571Y-87708536D02*
X141705142Y-87773585D01*
X141705142Y-87773585D02*
X141646473Y-87862443D01*
X141646473Y-87862443D02*
X141316558Y-88052920D01*
X141796961Y-87170716D02*
X142585636Y-87870075D01*
X142585636Y-87870075D02*
X142374311Y-86837383D01*
X143616619Y-87274836D02*
X143121747Y-87560551D01*
X143369183Y-87417694D02*
X142869183Y-86551668D01*
X142869183Y-86551668D02*
X142858133Y-86723005D01*
X142858133Y-86723005D02*
X142823273Y-86853103D01*
X142823273Y-86853103D02*
X142764604Y-86941961D01*
X144441405Y-86798646D02*
X143946533Y-87084360D01*
X144193969Y-86941503D02*
X143693969Y-86075478D01*
X143693969Y-86075478D02*
X143682919Y-86246815D01*
X143682919Y-86246815D02*
X143648059Y-86376912D01*
X143648059Y-86376912D02*
X143589390Y-86465771D01*
X133833333Y-100454819D02*
X133833333Y-99454819D01*
X133833333Y-99454819D02*
X134214285Y-99454819D01*
X134214285Y-99454819D02*
X134309523Y-99502438D01*
X134309523Y-99502438D02*
X134357142Y-99550057D01*
X134357142Y-99550057D02*
X134404761Y-99645295D01*
X134404761Y-99645295D02*
X134404761Y-99788152D01*
X134404761Y-99788152D02*
X134357142Y-99883390D01*
X134357142Y-99883390D02*
X134309523Y-99931009D01*
X134309523Y-99931009D02*
X134214285Y-99978628D01*
X134214285Y-99978628D02*
X133833333Y-99978628D01*
X134690476Y-99454819D02*
X135023809Y-100454819D01*
X135023809Y-100454819D02*
X135357142Y-99454819D01*
X135738095Y-100454819D02*
X135928571Y-100454819D01*
X135928571Y-100454819D02*
X136023809Y-100407200D01*
X136023809Y-100407200D02*
X136071428Y-100359580D01*
X136071428Y-100359580D02*
X136166666Y-100216723D01*
X136166666Y-100216723D02*
X136214285Y-100026247D01*
X136214285Y-100026247D02*
X136214285Y-99645295D01*
X136214285Y-99645295D02*
X136166666Y-99550057D01*
X136166666Y-99550057D02*
X136119047Y-99502438D01*
X136119047Y-99502438D02*
X136023809Y-99454819D01*
X136023809Y-99454819D02*
X135833333Y-99454819D01*
X135833333Y-99454819D02*
X135738095Y-99502438D01*
X135738095Y-99502438D02*
X135690476Y-99550057D01*
X135690476Y-99550057D02*
X135642857Y-99645295D01*
X135642857Y-99645295D02*
X135642857Y-99883390D01*
X135642857Y-99883390D02*
X135690476Y-99978628D01*
X135690476Y-99978628D02*
X135738095Y-100026247D01*
X135738095Y-100026247D02*
X135833333Y-100073866D01*
X135833333Y-100073866D02*
X136023809Y-100073866D01*
X136023809Y-100073866D02*
X136119047Y-100026247D01*
X136119047Y-100026247D02*
X136166666Y-99978628D01*
X136166666Y-99978628D02*
X136214285Y-99883390D01*
X148833333Y-115454819D02*
X148833333Y-114454819D01*
X148833333Y-114454819D02*
X149214285Y-114454819D01*
X149214285Y-114454819D02*
X149309523Y-114502438D01*
X149309523Y-114502438D02*
X149357142Y-114550057D01*
X149357142Y-114550057D02*
X149404761Y-114645295D01*
X149404761Y-114645295D02*
X149404761Y-114788152D01*
X149404761Y-114788152D02*
X149357142Y-114883390D01*
X149357142Y-114883390D02*
X149309523Y-114931009D01*
X149309523Y-114931009D02*
X149214285Y-114978628D01*
X149214285Y-114978628D02*
X148833333Y-114978628D01*
X149690476Y-114454819D02*
X150023809Y-115454819D01*
X150023809Y-115454819D02*
X150357142Y-114454819D01*
X151119047Y-114454819D02*
X150928571Y-114454819D01*
X150928571Y-114454819D02*
X150833333Y-114502438D01*
X150833333Y-114502438D02*
X150785714Y-114550057D01*
X150785714Y-114550057D02*
X150690476Y-114692914D01*
X150690476Y-114692914D02*
X150642857Y-114883390D01*
X150642857Y-114883390D02*
X150642857Y-115264342D01*
X150642857Y-115264342D02*
X150690476Y-115359580D01*
X150690476Y-115359580D02*
X150738095Y-115407200D01*
X150738095Y-115407200D02*
X150833333Y-115454819D01*
X150833333Y-115454819D02*
X151023809Y-115454819D01*
X151023809Y-115454819D02*
X151119047Y-115407200D01*
X151119047Y-115407200D02*
X151166666Y-115359580D01*
X151166666Y-115359580D02*
X151214285Y-115264342D01*
X151214285Y-115264342D02*
X151214285Y-115026247D01*
X151214285Y-115026247D02*
X151166666Y-114931009D01*
X151166666Y-114931009D02*
X151119047Y-114883390D01*
X151119047Y-114883390D02*
X151023809Y-114835771D01*
X151023809Y-114835771D02*
X150833333Y-114835771D01*
X150833333Y-114835771D02*
X150738095Y-114883390D01*
X150738095Y-114883390D02*
X150690476Y-114931009D01*
X150690476Y-114931009D02*
X150642857Y-115026247D01*
D12*
%TO.C,PV12*%
X146410000Y-86310000D02*
X147600000Y-86310000D01*
X147590000Y-83600000D02*
X146410000Y-83600000D01*
X147600000Y-82800000D02*
X147600000Y-83600000D01*
X147600000Y-86310000D02*
X147600000Y-87200000D01*
X147600000Y-87200000D02*
X152400000Y-87200000D01*
X152400000Y-82800000D02*
X147600000Y-82800000D01*
X152400000Y-83600000D02*
X152400000Y-82800000D01*
X152400000Y-87200000D02*
X152400000Y-86310000D01*
%TO.C,D2*%
X158294866Y-93270747D02*
X159637366Y-95596025D01*
X159957634Y-92310747D02*
X158294866Y-93270747D01*
X161300134Y-94636025D02*
X159957634Y-92310747D01*
%TO.C,U2*%
X147500000Y-93190000D02*
X145550000Y-93190000D01*
X147500000Y-93190000D02*
X149450000Y-93190000D01*
X147500000Y-98310000D02*
X145550000Y-98310000D01*
X147500000Y-98310000D02*
X149450000Y-98310000D01*
X150440000Y-98545000D02*
X149960000Y-98545000D01*
X150200000Y-98215000D01*
X150440000Y-98545000D01*
G36*
X150440000Y-98545000D02*
G01*
X149960000Y-98545000D01*
X150200000Y-98215000D01*
X150440000Y-98545000D01*
G37*
%TO.C,D5*%
X155363975Y-111331384D02*
X157689253Y-109988884D01*
X156729253Y-108326116D02*
X154403975Y-109668616D01*
X157689253Y-109988884D02*
X156729253Y-108326116D01*
%TO.C,D1*%
X153810747Y-89988884D02*
X156136025Y-91331384D01*
X154770747Y-88326116D02*
X153810747Y-89988884D01*
X157096025Y-89668616D02*
X154770747Y-88326116D01*
%TO.C,PV1*%
X153735969Y-86339493D02*
X154766539Y-86934493D01*
X154321540Y-87705255D02*
X158478461Y-90105256D01*
X154766539Y-86934493D02*
X154321540Y-87705255D01*
X156112879Y-84582564D02*
X155090969Y-83992564D01*
X156521539Y-83894744D02*
X156121539Y-84587564D01*
X158478461Y-90105256D02*
X158923460Y-89334494D01*
X160278460Y-86987565D02*
X160678460Y-86294745D01*
X160678460Y-86294745D02*
X156521539Y-83894744D01*
%TO.C,PV8*%
X133894744Y-106521540D02*
X136294745Y-110678462D01*
X134587565Y-106121538D02*
X133894744Y-106521540D01*
X136294745Y-110678462D02*
X136987564Y-110278461D01*
X136992564Y-110287120D02*
X137582566Y-111309032D01*
X137705255Y-104321538D02*
X136934494Y-104766538D01*
X139334493Y-108923461D02*
X140105256Y-108478460D01*
X139929495Y-109954032D02*
X139334493Y-108923461D01*
X140105256Y-108478460D02*
X137705255Y-104321538D01*
%TO.C,PV7*%
X139321539Y-113705254D02*
X143478461Y-116105256D01*
X139721539Y-113012436D02*
X139321539Y-113705254D01*
X141521539Y-109894744D02*
X141076539Y-110665505D01*
X143478461Y-116105256D02*
X143878462Y-115412434D01*
X143887122Y-115417435D02*
X144909031Y-116007436D01*
X145233460Y-113065505D02*
X145678461Y-112294746D01*
X145678461Y-112294746D02*
X141521539Y-109894744D01*
X146264032Y-113660508D02*
X145233460Y-113065505D01*
%TO.C,D3*%
X160540000Y-98252500D02*
X160540000Y-100937500D01*
X162460000Y-98252500D02*
X160540000Y-98252500D01*
X162460000Y-100937500D02*
X162460000Y-98252500D01*
%TO.C,D10*%
X138326116Y-95229253D02*
X139988884Y-96189253D01*
X139668616Y-92903975D02*
X138326116Y-95229253D01*
X139988884Y-96189253D02*
X141331384Y-93863975D01*
%TO.C,D8*%
X138668616Y-105363975D02*
X140011116Y-107689253D01*
X140011116Y-107689253D02*
X141673884Y-106729253D01*
X141673884Y-106729253D02*
X140331384Y-104403975D01*
%TO.C,PV3*%
X162800000Y-97600000D02*
X162800000Y-102400000D01*
X162800000Y-102400000D02*
X163690000Y-102400000D01*
X163690000Y-96410000D02*
X163690000Y-97600000D01*
X163690000Y-97600000D02*
X162800000Y-97600000D01*
X166400000Y-97590000D02*
X166400000Y-96410000D01*
X166400000Y-102400000D02*
X167200000Y-102400000D01*
X167200000Y-97600000D02*
X166400000Y-97600000D01*
X167200000Y-102400000D02*
X167200000Y-97600000D01*
%TO.C,D4*%
X160042366Y-103622646D02*
X158699866Y-105947924D01*
X160362634Y-106907924D02*
X161705134Y-104582646D01*
X161705134Y-104582646D02*
X160042366Y-103622646D01*
%TO.C,D7*%
X142903975Y-110331384D02*
X145229253Y-111673884D01*
X145229253Y-111673884D02*
X146189253Y-110011116D01*
X146189253Y-110011116D02*
X143863975Y-108668616D01*
%TO.C,PV2*%
X159894742Y-91521539D02*
X162294744Y-95678461D01*
X160070507Y-90045969D02*
X160665507Y-91076536D01*
X160665507Y-91076536D02*
X159894742Y-91521539D01*
X162294744Y-95678461D02*
X163065506Y-95233460D01*
X163007434Y-89712880D02*
X162417437Y-88690969D01*
X163705256Y-89321539D02*
X163012434Y-89721538D01*
X165412435Y-93878460D02*
X166105258Y-93478461D01*
X166105258Y-93478461D02*
X163705256Y-89321539D01*
%TO.C,Y1*%
X153125000Y-96500000D02*
X153125000Y-96500000D01*
X153125000Y-97500000D02*
X153125000Y-97500000D01*
X153375000Y-96050000D02*
X156575000Y-96050000D01*
X153375000Y-96650000D02*
X153125000Y-96500000D01*
X153375000Y-97350000D02*
X153125000Y-97500000D01*
X153375000Y-97950000D02*
X153375000Y-96050000D01*
X156575000Y-97950000D02*
X153375000Y-97950000D01*
%TO.C,C5*%
X144265000Y-100238748D02*
X144265000Y-100761252D01*
X145735000Y-100238748D02*
X145735000Y-100761252D01*
%TO.C,D12*%
X148315000Y-87540000D02*
X148315000Y-89460000D01*
X148315000Y-89460000D02*
X151000000Y-89460000D01*
X151000000Y-87540000D02*
X148315000Y-87540000D01*
D13*
%TO.C,OSHW*%
G36*
X152390223Y-99522587D02*
G01*
X152549322Y-99529981D01*
X152676108Y-99543022D01*
X152752726Y-99561709D01*
X152764987Y-99570310D01*
X152785952Y-99624799D01*
X152814552Y-99736090D01*
X152846702Y-99886870D01*
X152872501Y-100025838D01*
X152904668Y-100196150D01*
X152936786Y-100341221D01*
X152964711Y-100443635D01*
X152981354Y-100483288D01*
X153032711Y-100519601D01*
X153134509Y-100571566D01*
X153266690Y-100629137D01*
X153295631Y-100640686D01*
X153572133Y-100749264D01*
X153981901Y-100471051D01*
X154391669Y-100192838D01*
X154712367Y-100505318D01*
X154841728Y-100634034D01*
X154952891Y-100749604D01*
X155033545Y-100838904D01*
X155070516Y-100887122D01*
X155079291Y-100928771D01*
X155063360Y-100989532D01*
X155017371Y-101080554D01*
X154935975Y-101212982D01*
X154854562Y-101337044D01*
X154756819Y-101486901D01*
X154676735Y-101615499D01*
X154622440Y-101709369D01*
X154602060Y-101755043D01*
X154602056Y-101755461D01*
X154616300Y-101805575D01*
X154653398Y-101905636D01*
X154706245Y-102036797D01*
X154724660Y-102080698D01*
X154846365Y-102368116D01*
X155283412Y-102449441D01*
X155502684Y-102494985D01*
X155660503Y-102538178D01*
X155751296Y-102577389D01*
X155767356Y-102591276D01*
X155789650Y-102658514D01*
X155805107Y-102780668D01*
X155813727Y-102937930D01*
X155815509Y-103110492D01*
X155810454Y-103278546D01*
X155798562Y-103422284D01*
X155779832Y-103521898D01*
X155767356Y-103549730D01*
X155700823Y-103591512D01*
X155560075Y-103637405D01*
X155345812Y-103687192D01*
X155294209Y-103697595D01*
X154867961Y-103781758D01*
X154737185Y-104109289D01*
X154606410Y-104436820D01*
X154857654Y-104808224D01*
X154966519Y-104972717D01*
X155036125Y-105088507D01*
X155072005Y-105167093D01*
X155079695Y-105219973D01*
X155070213Y-105249822D01*
X155029123Y-105303009D01*
X154946309Y-105395164D01*
X154834000Y-105513102D01*
X154710899Y-105637239D01*
X154390270Y-105954463D01*
X154010879Y-105695357D01*
X153631488Y-105436251D01*
X153467314Y-105523345D01*
X153362301Y-105570556D01*
X153279487Y-105592869D01*
X153253912Y-105591547D01*
X153227547Y-105553485D01*
X153178881Y-105457797D01*
X153113070Y-105316688D01*
X153035269Y-105142367D01*
X152950630Y-104947039D01*
X152864310Y-104742913D01*
X152781463Y-104542195D01*
X152707243Y-104357093D01*
X152646805Y-104199812D01*
X152605303Y-104082561D01*
X152587892Y-104017546D01*
X152587666Y-104013744D01*
X152615508Y-103960282D01*
X152685980Y-103887298D01*
X152728360Y-103852554D01*
X152918542Y-103689188D01*
X153045836Y-103529415D01*
X153119524Y-103356287D01*
X153148888Y-103152855D01*
X153150443Y-103081879D01*
X153131030Y-102859646D01*
X153065499Y-102673840D01*
X152942913Y-102496255D01*
X152907833Y-102456188D01*
X152722394Y-102303332D01*
X152505515Y-102209405D01*
X152272212Y-102174407D01*
X152037500Y-102198338D01*
X151816392Y-102281198D01*
X151623903Y-102422987D01*
X151592166Y-102456188D01*
X151456329Y-102634790D01*
X151379498Y-102815597D01*
X151350593Y-103027412D01*
X151349557Y-103086870D01*
X151375934Y-103330837D01*
X151459733Y-103536206D01*
X151607955Y-103716922D01*
X151709100Y-103802922D01*
X151811579Y-103889420D01*
X151884611Y-103965254D01*
X151912334Y-104013853D01*
X151898179Y-104072685D01*
X151859169Y-104185071D01*
X151800481Y-104338802D01*
X151727296Y-104521668D01*
X151644792Y-104721462D01*
X151558149Y-104925973D01*
X151472546Y-105122993D01*
X151393162Y-105300313D01*
X151325177Y-105445722D01*
X151273769Y-105547013D01*
X151244119Y-105591976D01*
X151242473Y-105592934D01*
X151180687Y-105587945D01*
X151083229Y-105552399D01*
X151027580Y-105524690D01*
X150865532Y-105436167D01*
X150529330Y-105668761D01*
X150387223Y-105765672D01*
X150264560Y-105846739D01*
X150176435Y-105902138D01*
X150141411Y-105921202D01*
X150093930Y-105903199D01*
X150004256Y-105834862D01*
X149879656Y-105722289D01*
X149739866Y-105584324D01*
X149579844Y-105415961D01*
X149474278Y-105292262D01*
X149420258Y-105209517D01*
X149413025Y-105167698D01*
X149442922Y-105113205D01*
X149505733Y-105012823D01*
X149591452Y-104882207D01*
X149665166Y-104773221D01*
X149894321Y-104438646D01*
X149763180Y-104110202D01*
X149632039Y-103781758D01*
X149205790Y-103697595D01*
X148976910Y-103647056D01*
X148821407Y-103600367D01*
X148739978Y-103557745D01*
X148732644Y-103549730D01*
X148710349Y-103480975D01*
X148694892Y-103357769D01*
X148686273Y-103199920D01*
X148684490Y-103027236D01*
X148689545Y-102859526D01*
X148701438Y-102716597D01*
X148720168Y-102618259D01*
X148732644Y-102591276D01*
X148795730Y-102554066D01*
X148928020Y-102512234D01*
X149123941Y-102467414D01*
X149216588Y-102449441D01*
X149653634Y-102368116D01*
X149775339Y-102080698D01*
X149831617Y-101943738D01*
X149874342Y-101832050D01*
X149896409Y-101764484D01*
X149897944Y-101755461D01*
X149878541Y-101711200D01*
X149825014Y-101618398D01*
X149745490Y-101490522D01*
X149648098Y-101341041D01*
X149645438Y-101337044D01*
X149535912Y-101168787D01*
X149465560Y-101049784D01*
X149429030Y-100968886D01*
X149420973Y-100914946D01*
X149429484Y-100887122D01*
X149470309Y-100834411D01*
X149553196Y-100743114D01*
X149665835Y-100626356D01*
X149787632Y-100505318D01*
X150108330Y-100192838D01*
X150518099Y-100471051D01*
X150927867Y-100749264D01*
X151204369Y-100640686D01*
X151340290Y-100583204D01*
X151449929Y-100529277D01*
X151513226Y-100488948D01*
X151518646Y-100483288D01*
X151540169Y-100427968D01*
X151569229Y-100315943D01*
X151601680Y-100164629D01*
X151627499Y-100025838D01*
X151659531Y-99855786D01*
X151691318Y-99711220D01*
X151718774Y-99609453D01*
X151735013Y-99570310D01*
X151787831Y-99549473D01*
X151897617Y-99534282D01*
X152046515Y-99524737D01*
X152216669Y-99520839D01*
X152390223Y-99522587D01*
G37*
D12*
%TO.C,D11*%
X142310747Y-90011116D02*
X143270747Y-91673884D01*
X143270747Y-91673884D02*
X145596025Y-90331384D01*
X144636025Y-88668616D02*
X142310747Y-90011116D01*
%TO.C,PV10*%
X133894744Y-93478461D02*
X134587565Y-93878461D01*
X134582564Y-93887121D02*
X133992564Y-94909031D01*
X136294744Y-89321539D02*
X133894744Y-93478461D01*
X136339495Y-96264031D02*
X136934493Y-95233461D01*
X136934493Y-95233461D02*
X137705256Y-95678461D01*
X136987564Y-89721539D02*
X136294744Y-89321539D01*
X137705256Y-95678461D02*
X140105256Y-91521539D01*
X140105256Y-91521539D02*
X139334494Y-91076540D01*
%TO.C,PV4*%
X159894744Y-108478461D02*
X160665507Y-108923461D01*
X162294743Y-104321539D02*
X159894744Y-108478461D01*
X163012436Y-110278461D02*
X163705257Y-110678461D01*
X163065504Y-104766539D02*
X162294743Y-104321539D01*
X163660505Y-103735969D02*
X163065504Y-104766539D01*
X163705257Y-110678461D02*
X166105256Y-106521539D01*
X165417436Y-106112880D02*
X166007435Y-105090968D01*
X166105256Y-106521539D02*
X165412436Y-106121540D01*
%TO.C,PV5*%
X154321540Y-112294745D02*
X154766539Y-113065508D01*
X156121540Y-115412436D02*
X156521539Y-116105257D01*
X156521539Y-116105257D02*
X160678460Y-113705255D01*
X158478461Y-109894743D02*
X154321540Y-112294745D01*
X158923460Y-110665506D02*
X158478461Y-109894743D01*
X159954031Y-110070507D02*
X158923460Y-110665506D01*
X160287121Y-113007436D02*
X161309031Y-112417436D01*
X160678460Y-113705255D02*
X160278461Y-113012436D01*
%TO.C,PV11*%
X139321540Y-86294745D02*
X139721539Y-86987564D01*
X139712878Y-86992566D02*
X138690969Y-87582564D01*
X140045969Y-89929493D02*
X141076540Y-89334494D01*
X141076540Y-89334494D02*
X141521539Y-90105256D01*
X141521539Y-90105256D02*
X145678460Y-87705255D01*
X143478461Y-83894744D02*
X139321540Y-86294745D01*
X143878461Y-84587565D02*
X143478461Y-83894744D01*
X145678460Y-87705255D02*
X145233461Y-86934493D01*
%TO.C,PV9*%
X132800000Y-97600000D02*
X132800000Y-102400000D01*
X132800000Y-102400000D02*
X133600000Y-102400000D01*
X133600000Y-97600000D02*
X132800000Y-97600000D01*
X133600000Y-102410000D02*
X133600000Y-103590000D01*
X136310000Y-102400000D02*
X137200000Y-102400000D01*
X136310000Y-103590000D02*
X136310000Y-102400000D01*
X137200000Y-97600000D02*
X136310000Y-97600000D01*
X137200000Y-102400000D02*
X137200000Y-97600000D01*
%TO.C,PV6*%
X147600000Y-112800000D02*
X147600000Y-113690000D01*
X147600000Y-116400000D02*
X147600000Y-117200000D01*
X147600000Y-117200000D02*
X152400000Y-117200000D01*
X152400000Y-112800000D02*
X147600000Y-112800000D01*
X152400000Y-113690000D02*
X152400000Y-112800000D01*
X152400000Y-117200000D02*
X152400000Y-116400000D01*
X152410000Y-116400000D02*
X153590000Y-116400000D01*
X153590000Y-113690000D02*
X152400000Y-113690000D01*
%TO.C,D6*%
X149187500Y-112460000D02*
X151872500Y-112460000D01*
X151872500Y-110540000D02*
X149187500Y-110540000D01*
X151872500Y-112460000D02*
X151872500Y-110540000D01*
%TO.C,D9*%
X137540000Y-99062500D02*
X137540000Y-101747500D01*
X137540000Y-101747500D02*
X139460000Y-101747500D01*
X139460000Y-101747500D02*
X139460000Y-99062500D01*
%TD*%
M02*
