%TF.GenerationSoftware,KiCad,Pcbnew,8.0.8*%
%TF.CreationDate,2025-01-19T21:47:12+02:00*%
%TF.ProjectId,LumiTimeV2,4c756d69-5469-46d6-9556-322e6b696361,rev?*%
%TF.SameCoordinates,Original*%
%TF.FileFunction,Copper,L1,Top*%
%TF.FilePolarity,Positive*%
%FSLAX46Y46*%
G04 Gerber Fmt 4.6, Leading zero omitted, Abs format (unit mm)*
G04 Created by KiCad (PCBNEW 8.0.8) date 2025-01-19 21:47:12*
%MOMM*%
%LPD*%
G01*
G04 APERTURE LIST*
G04 Aperture macros list*
%AMRoundRect*
0 Rectangle with rounded corners*
0 $1 Rounding radius*
0 $2 $3 $4 $5 $6 $7 $8 $9 X,Y pos of 4 corners*
0 Add a 4 corners polygon primitive as box body*
4,1,4,$2,$3,$4,$5,$6,$7,$8,$9,$2,$3,0*
0 Add four circle primitives for the rounded corners*
1,1,$1+$1,$2,$3*
1,1,$1+$1,$4,$5*
1,1,$1+$1,$6,$7*
1,1,$1+$1,$8,$9*
0 Add four rect primitives between the rounded corners*
20,1,$1+$1,$2,$3,$4,$5,0*
20,1,$1+$1,$4,$5,$6,$7,0*
20,1,$1+$1,$6,$7,$8,$9,0*
20,1,$1+$1,$8,$9,$2,$3,0*%
G04 Aperture macros list end*
%TA.AperFunction,SMDPad,CuDef*%
%ADD10RoundRect,0.175000X0.525000X0.825000X-0.525000X0.825000X-0.525000X-0.825000X0.525000X-0.825000X0*%
%TD*%
%TA.AperFunction,SMDPad,CuDef*%
%ADD11RoundRect,0.150000X0.525000X0.450000X-0.525000X0.450000X-0.525000X-0.450000X0.525000X-0.450000X0*%
%TD*%
%TA.AperFunction,SMDPad,CuDef*%
%ADD12RoundRect,0.243750X-0.516999X-0.017031X-0.273249X-0.439219X0.516999X0.017031X0.273249X0.439219X0*%
%TD*%
%TA.AperFunction,SMDPad,CuDef*%
%ADD13RoundRect,0.150000X0.825000X0.150000X-0.825000X0.150000X-0.825000X-0.150000X0.825000X-0.150000X0*%
%TD*%
%TA.AperFunction,SMDPad,CuDef*%
%ADD14RoundRect,0.243750X-0.017031X0.516999X-0.439219X0.273249X0.017031X-0.516999X0.439219X-0.273249X0*%
%TD*%
%TA.AperFunction,SMDPad,CuDef*%
%ADD15RoundRect,0.243750X-0.439219X-0.273249X-0.017031X-0.516999X0.439219X0.273249X0.017031X0.516999X0*%
%TD*%
%TA.AperFunction,SMDPad,CuDef*%
%ADD16RoundRect,0.168750X0.854050X0.466759X-0.022800X0.973009X-0.854050X-0.466759X0.022800X-0.973009X0*%
%TD*%
%TA.AperFunction,SMDPad,CuDef*%
%ADD17RoundRect,0.150000X0.701314X0.114711X-0.251314X0.664711X-0.701314X-0.114711X0.251314X-0.664711X0*%
%TD*%
%TA.AperFunction,SMDPad,CuDef*%
%ADD18RoundRect,0.175000X-0.976971X0.042163X-0.451971X-0.867163X0.976971X-0.042163X0.451971X0.867163X0*%
%TD*%
%TA.AperFunction,SMDPad,CuDef*%
%ADD19RoundRect,0.150000X-0.664711X0.251314X-0.114711X-0.701314X0.664711X-0.251314X0.114711X0.701314X0*%
%TD*%
%TA.AperFunction,SMDPad,CuDef*%
%ADD20RoundRect,0.175000X-0.867163X-0.451971X0.042163X-0.976971X0.867163X0.451971X-0.042163X0.976971X0*%
%TD*%
%TA.AperFunction,SMDPad,CuDef*%
%ADD21RoundRect,0.150000X-0.701314X-0.114711X0.251314X-0.664711X0.701314X0.114711X-0.251314X0.664711X0*%
%TD*%
%TA.AperFunction,SMDPad,CuDef*%
%ADD22RoundRect,0.243750X-0.456250X0.243750X-0.456250X-0.243750X0.456250X-0.243750X0.456250X0.243750X0*%
%TD*%
%TA.AperFunction,SMDPad,CuDef*%
%ADD23RoundRect,0.243750X0.273249X-0.439219X0.516999X-0.017031X-0.273249X0.439219X-0.516999X0.017031X0*%
%TD*%
%TA.AperFunction,SMDPad,CuDef*%
%ADD24RoundRect,0.243750X0.516999X0.017031X0.273249X0.439219X-0.516999X-0.017031X-0.273249X-0.439219X0*%
%TD*%
%TA.AperFunction,SMDPad,CuDef*%
%ADD25RoundRect,0.175000X0.825000X-0.525000X0.825000X0.525000X-0.825000X0.525000X-0.825000X-0.525000X0*%
%TD*%
%TA.AperFunction,SMDPad,CuDef*%
%ADD26RoundRect,0.150000X0.450000X-0.550000X0.450000X0.550000X-0.450000X0.550000X-0.450000X-0.550000X0*%
%TD*%
%TA.AperFunction,SMDPad,CuDef*%
%ADD27RoundRect,0.243750X-0.273249X0.439219X-0.516999X0.017031X0.273249X-0.439219X0.516999X-0.017031X0*%
%TD*%
%TA.AperFunction,SMDPad,CuDef*%
%ADD28RoundRect,0.243750X0.439219X0.273249X0.017031X0.516999X-0.439219X-0.273249X-0.017031X-0.516999X0*%
%TD*%
%TA.AperFunction,SMDPad,CuDef*%
%ADD29RoundRect,0.175000X0.976971X-0.042163X0.451971X0.867163X-0.976971X0.042163X-0.451971X-0.867163X0*%
%TD*%
%TA.AperFunction,SMDPad,CuDef*%
%ADD30RoundRect,0.150000X0.664711X-0.251314X0.114711X0.701314X-0.664711X0.251314X-0.114711X-0.701314X0*%
%TD*%
%TA.AperFunction,SMDPad,CuDef*%
%ADD31R,1.100000X0.600000*%
%TD*%
%TA.AperFunction,SMDPad,CuDef*%
%ADD32R,2.400000X1.500000*%
%TD*%
%TA.AperFunction,SMDPad,CuDef*%
%ADD33RoundRect,0.250000X-0.475000X0.250000X-0.475000X-0.250000X0.475000X-0.250000X0.475000X0.250000X0*%
%TD*%
%TA.AperFunction,SMDPad,CuDef*%
%ADD34RoundRect,0.243750X-0.243750X-0.456250X0.243750X-0.456250X0.243750X0.456250X-0.243750X0.456250X0*%
%TD*%
%TA.AperFunction,SMDPad,CuDef*%
%ADD35RoundRect,0.243750X0.017031X-0.516999X0.439219X-0.273249X-0.017031X0.516999X-0.439219X0.273249X0*%
%TD*%
%TA.AperFunction,SMDPad,CuDef*%
%ADD36RoundRect,0.175000X-0.451971X0.867163X-0.976971X-0.042163X0.451971X-0.867163X0.976971X0.042163X0*%
%TD*%
%TA.AperFunction,SMDPad,CuDef*%
%ADD37RoundRect,0.150000X-0.114711X0.701314X-0.664711X-0.251314X0.114711X-0.701314X0.664711X0.251314X0*%
%TD*%
%TA.AperFunction,SMDPad,CuDef*%
%ADD38RoundRect,0.175000X0.451971X-0.867163X0.976971X0.042163X-0.451971X0.867163X-0.976971X-0.042163X0*%
%TD*%
%TA.AperFunction,SMDPad,CuDef*%
%ADD39RoundRect,0.150000X0.114711X-0.701314X0.664711X0.251314X-0.114711X0.701314X-0.664711X-0.251314X0*%
%TD*%
%TA.AperFunction,SMDPad,CuDef*%
%ADD40RoundRect,0.175000X-0.042163X-0.976971X0.867163X-0.451971X0.042163X0.976971X-0.867163X0.451971X0*%
%TD*%
%TA.AperFunction,SMDPad,CuDef*%
%ADD41RoundRect,0.150000X-0.251314X-0.664711X0.701314X-0.114711X0.251314X0.664711X-0.701314X0.114711X0*%
%TD*%
%TA.AperFunction,SMDPad,CuDef*%
%ADD42RoundRect,0.175000X0.042163X0.976971X-0.867163X0.451971X-0.042163X-0.976971X0.867163X-0.451971X0*%
%TD*%
%TA.AperFunction,SMDPad,CuDef*%
%ADD43RoundRect,0.150000X0.251314X0.664711X-0.701314X0.114711X-0.251314X-0.664711X0.701314X-0.114711X0*%
%TD*%
%TA.AperFunction,SMDPad,CuDef*%
%ADD44RoundRect,0.175000X-0.825000X0.525000X-0.825000X-0.525000X0.825000X-0.525000X0.825000X0.525000X0*%
%TD*%
%TA.AperFunction,SMDPad,CuDef*%
%ADD45RoundRect,0.150000X-0.450000X0.550000X-0.450000X-0.550000X0.450000X-0.550000X0.450000X0.550000X0*%
%TD*%
%TA.AperFunction,SMDPad,CuDef*%
%ADD46RoundRect,0.175000X-0.525000X-0.825000X0.525000X-0.825000X0.525000X0.825000X-0.525000X0.825000X0*%
%TD*%
%TA.AperFunction,SMDPad,CuDef*%
%ADD47RoundRect,0.150000X-0.550000X-0.450000X0.550000X-0.450000X0.550000X0.450000X-0.550000X0.450000X0*%
%TD*%
%TA.AperFunction,SMDPad,CuDef*%
%ADD48RoundRect,0.243750X0.243750X0.456250X-0.243750X0.456250X-0.243750X-0.456250X0.243750X-0.456250X0*%
%TD*%
%TA.AperFunction,SMDPad,CuDef*%
%ADD49RoundRect,0.243750X0.456250X-0.243750X0.456250X0.243750X-0.456250X0.243750X-0.456250X-0.243750X0*%
%TD*%
%TA.AperFunction,ViaPad*%
%ADD50C,0.600000*%
%TD*%
%TA.AperFunction,Conductor*%
%ADD51C,0.300000*%
%TD*%
%TA.AperFunction,Conductor*%
%ADD52C,0.500000*%
%TD*%
%TA.AperFunction,Conductor*%
%ADD53C,0.400000*%
%TD*%
G04 APERTURE END LIST*
D10*
%TO.P,PV12,1,K*%
%TO.N,Net-(PV11-A)*%
X146950000Y-85000000D03*
D11*
%TO.P,PV12,2,A*%
%TO.N,Net-(D13-A)*%
X153050000Y-85000000D03*
%TD*%
D12*
%TO.P,D2,1,K*%
%TO.N,GND*%
X159500000Y-93438101D03*
%TO.P,D2,2,A*%
%TO.N,Net-(D2-A)*%
X160437500Y-95061899D03*
%TD*%
D13*
%TO.P,U2,1,OSCI*%
%TO.N,Net-(U2-OSCI)*%
X149975000Y-97655000D03*
%TO.P,U2,2,OSCO*%
%TO.N,Net-(U2-OSCO)*%
X149975000Y-96385000D03*
%TO.P,U2,3,~{INT}*%
%TO.N,unconnected-(U2-~{INT}-Pad3)*%
X149975000Y-95115000D03*
%TO.P,U2,4,VSS*%
%TO.N,GND*%
X149975000Y-93845000D03*
%TO.P,U2,5,SDA*%
%TO.N,/SDA*%
X145025000Y-93845000D03*
%TO.P,U2,6,SCL*%
%TO.N,/SCL*%
X145025000Y-95115000D03*
%TO.P,U2,7,CLKO*%
%TO.N,unconnected-(U2-CLKO-Pad7)*%
X145025000Y-96385000D03*
%TO.P,U2,8,VDD*%
%TO.N,+3V7*%
X145025000Y-97655000D03*
%TD*%
D14*
%TO.P,D5,1,K*%
%TO.N,GND*%
X156561899Y-109531250D03*
%TO.P,D5,2,A*%
%TO.N,Net-(D5-A)*%
X154938101Y-110468750D03*
%TD*%
D15*
%TO.P,D1,1,K*%
%TO.N,GND*%
X154938101Y-89531250D03*
%TO.P,D1,2,A*%
%TO.N,Net-(D1-A)*%
X156561899Y-90468750D03*
%TD*%
D16*
%TO.P,PV1,1,K*%
%TO.N,GND*%
X154858622Y-85474999D03*
D17*
%TO.P,PV1,2,A*%
%TO.N,Net-(PV1-A)*%
X160141378Y-88525001D03*
%TD*%
D18*
%TO.P,PV8,1,K*%
%TO.N,Net-(PV7-A)*%
X138524999Y-110141377D03*
D19*
%TO.P,PV8,2,A*%
%TO.N,Net-(PV8-A)*%
X135475001Y-104858623D03*
%TD*%
D20*
%TO.P,PV7,1,K*%
%TO.N,Net-(PV6-A)*%
X145141377Y-114525000D03*
D21*
%TO.P,PV7,2,A*%
%TO.N,Net-(PV7-A)*%
X139858623Y-111475000D03*
%TD*%
D22*
%TO.P,D3,1,K*%
%TO.N,GND*%
X161500000Y-99000000D03*
%TO.P,D3,2,A*%
%TO.N,Net-(D3-A)*%
X161500000Y-100875000D03*
%TD*%
D23*
%TO.P,D10,1,K*%
%TO.N,GND*%
X139531250Y-95061899D03*
%TO.P,D10,2,A*%
%TO.N,Net-(D10-A)*%
X140468750Y-93438101D03*
%TD*%
D24*
%TO.P,D8,1,K*%
%TO.N,GND*%
X140468750Y-106561899D03*
%TO.P,D8,2,A*%
%TO.N,Net-(D8-A)*%
X139531250Y-104938101D03*
%TD*%
D25*
%TO.P,PV3,1,K*%
%TO.N,Net-(PV2-A)*%
X165000000Y-96950000D03*
D26*
%TO.P,PV3,2,A*%
%TO.N,Net-(PV3-A)*%
X165000000Y-103050000D03*
%TD*%
D27*
%TO.P,D4,1,K*%
%TO.N,GND*%
X160500000Y-104750000D03*
%TO.P,D4,2,A*%
%TO.N,Net-(D4-A)*%
X159562500Y-106373798D03*
%TD*%
D28*
%TO.P,D7,1,K*%
%TO.N,GND*%
X145061899Y-110468750D03*
%TO.P,D7,2,A*%
%TO.N,Net-(D7-A)*%
X143438101Y-109531250D03*
%TD*%
D29*
%TO.P,PV2,1,K*%
%TO.N,Net-(PV1-A)*%
X161474999Y-89858622D03*
D30*
%TO.P,PV2,2,A*%
%TO.N,Net-(PV2-A)*%
X164525001Y-95141378D03*
%TD*%
D31*
%TO.P,Y1,1,1*%
%TO.N,Net-(U2-OSCI)*%
X152375000Y-97500000D03*
%TO.P,Y1,2,2*%
%TO.N,Net-(U2-OSCO)*%
X152375000Y-96500000D03*
D32*
%TO.P,Y1,3,3*%
%TO.N,GND*%
X157975000Y-97000000D03*
%TD*%
D33*
%TO.P,C5,1*%
%TO.N,+3V7*%
X145000000Y-99550000D03*
%TO.P,C5,2*%
%TO.N,GND*%
X145000000Y-101450000D03*
%TD*%
D34*
%TO.P,D12,1,K*%
%TO.N,GND*%
X149062500Y-88500000D03*
%TO.P,D12,2,A*%
%TO.N,Net-(D12-A)*%
X150937500Y-88500000D03*
%TD*%
D35*
%TO.P,D11,1,K*%
%TO.N,GND*%
X143438101Y-90468750D03*
%TO.P,D11,2,A*%
%TO.N,Net-(D11-A)*%
X145061899Y-89531250D03*
%TD*%
D36*
%TO.P,PV10,1,K*%
%TO.N,Net-(PV10-K)*%
X135475000Y-95141377D03*
D37*
%TO.P,PV10,2,A*%
%TO.N,Net-(PV10-A)*%
X138525000Y-89858623D03*
%TD*%
D38*
%TO.P,PV4,1,K*%
%TO.N,Net-(PV3-A)*%
X164525000Y-104858623D03*
D39*
%TO.P,PV4,2,A*%
%TO.N,Net-(PV4-A)*%
X161475000Y-110141377D03*
%TD*%
D40*
%TO.P,PV5,1,K*%
%TO.N,Net-(PV4-A)*%
X160141377Y-111475000D03*
D41*
%TO.P,PV5,2,A*%
%TO.N,Net-(PV5-A)*%
X154858623Y-114525000D03*
%TD*%
D42*
%TO.P,PV11,1,K*%
%TO.N,Net-(PV10-A)*%
X139858623Y-88525000D03*
D43*
%TO.P,PV11,2,A*%
%TO.N,Net-(PV11-A)*%
X145141377Y-85475000D03*
%TD*%
D44*
%TO.P,PV9,1,K*%
%TO.N,Net-(PV8-A)*%
X135000000Y-103050000D03*
D45*
%TO.P,PV9,2,A*%
%TO.N,Net-(PV10-K)*%
X135000000Y-96950000D03*
%TD*%
D46*
%TO.P,PV6,1,K*%
%TO.N,Net-(PV5-A)*%
X153050000Y-115000000D03*
D47*
%TO.P,PV6,2,A*%
%TO.N,Net-(PV6-A)*%
X146950000Y-115000000D03*
%TD*%
D48*
%TO.P,D6,1,K*%
%TO.N,GND*%
X151125000Y-111500000D03*
%TO.P,D6,2,A*%
%TO.N,Net-(D6-A)*%
X149250000Y-111500000D03*
%TD*%
D49*
%TO.P,D9,1,K*%
%TO.N,GND*%
X138500000Y-101000000D03*
%TO.P,D9,2,A*%
%TO.N,Net-(D9-A)*%
X138500000Y-99125000D03*
%TD*%
D50*
%TO.N,GND*%
X138000000Y-102300000D03*
X138400000Y-96200000D03*
X152500000Y-99000000D03*
X151500000Y-86700000D03*
X163800000Y-92700000D03*
X148800000Y-106100000D03*
X149200000Y-102000000D03*
X153250000Y-110250000D03*
X147750000Y-92000000D03*
X143000000Y-85000000D03*
X158500000Y-108500000D03*
%TO.N,Net-(D1-A)*%
X156800000Y-88487500D03*
%TO.N,Net-(D2-A)*%
X160876672Y-92940832D03*
%TO.N,Net-(D3-A)*%
X163400000Y-96000000D03*
%TO.N,Net-(D4-A)*%
X161980331Y-107080331D03*
%TO.N,Net-(D5-A)*%
X161250000Y-108000000D03*
%TO.N,Net-(D6-A)*%
X161400000Y-103300000D03*
%TO.N,Net-(D7-A)*%
X146300000Y-108800000D03*
%TO.N,Net-(D8-A)*%
X142400000Y-106400000D03*
%TO.N,Net-(D9-A)*%
X139488685Y-103600000D03*
%TO.N,Net-(D10-A)*%
X143761307Y-91881712D03*
%TO.N,Net-(D11-A)*%
X146374171Y-89465168D03*
%TO.N,Net-(D12-A)*%
X152400000Y-88600000D03*
%TO.N,Net-(D13-A)*%
X153250000Y-84000000D03*
%TO.N,+3V7*%
X157500000Y-86250000D03*
X151750000Y-92000000D03*
X156250000Y-103400000D03*
X153100000Y-107000000D03*
X143150000Y-95700000D03*
%TO.N,/But0*%
X138250000Y-92750000D03*
X140444669Y-91694669D03*
%TO.N,/SDA*%
X148100000Y-101200000D03*
%TO.N,/SCL*%
X147300000Y-100400000D03*
%TD*%
D51*
%TO.N,Net-(D1-A)*%
X156800000Y-90230649D02*
X156561899Y-90468750D01*
X156800000Y-88487500D02*
X156800000Y-90230649D01*
%TO.N,Net-(D2-A)*%
X160437500Y-95061899D02*
X160876672Y-94622727D01*
X160876672Y-94622727D02*
X160876672Y-92940832D01*
%TO.N,Net-(D3-A)*%
X163400000Y-99700000D02*
X163400000Y-96000000D01*
X161500000Y-100875000D02*
X162225000Y-100875000D01*
X162225000Y-100875000D02*
X163400000Y-99700000D01*
%TO.N,Net-(D4-A)*%
X161980331Y-107080331D02*
X161273798Y-106373798D01*
X161273798Y-106373798D02*
X159562500Y-106373798D01*
%TO.N,Net-(D5-A)*%
X161250000Y-108000000D02*
X161050000Y-107800000D01*
X161050000Y-107800000D02*
X156100000Y-107800000D01*
X154938101Y-108961899D02*
X154938101Y-110468750D01*
X156100000Y-107800000D02*
X154938101Y-108961899D01*
%TO.N,Net-(D6-A)*%
X154300000Y-105600000D02*
X154300000Y-107700000D01*
X149250000Y-110350000D02*
X149250000Y-111500000D01*
X161400000Y-103300000D02*
X158800000Y-103300000D01*
X153400000Y-108600000D02*
X151000000Y-108600000D01*
X151000000Y-108600000D02*
X149250000Y-110350000D01*
X155600000Y-104300000D02*
X154300000Y-105600000D01*
X157800000Y-104300000D02*
X155600000Y-104300000D01*
X158800000Y-103300000D02*
X157800000Y-104300000D01*
X154300000Y-107700000D02*
X153400000Y-108600000D01*
%TO.N,Net-(D7-A)*%
X144169351Y-108800000D02*
X143438101Y-109531250D01*
X146300000Y-108800000D02*
X144169351Y-108800000D01*
%TO.N,Net-(D8-A)*%
X142400000Y-105900000D02*
X141250000Y-104750000D01*
X142400000Y-106400000D02*
X142400000Y-105900000D01*
X139719351Y-104750000D02*
X139531250Y-104938101D01*
X139300000Y-104706851D02*
X139531250Y-104938101D01*
X141250000Y-104750000D02*
X139719351Y-104750000D01*
%TO.N,Net-(D9-A)*%
X140800000Y-102288685D02*
X140800000Y-100550000D01*
X139488685Y-103600000D02*
X140800000Y-102288685D01*
X140800000Y-100550000D02*
X139375000Y-99125000D01*
X139375000Y-99125000D02*
X138500000Y-99125000D01*
%TO.N,Net-(D10-A)*%
X140468750Y-92731250D02*
X140468750Y-93438101D01*
X141318288Y-91881712D02*
X140468750Y-92731250D01*
X143761307Y-91881712D02*
X141318288Y-91881712D01*
%TO.N,Net-(D11-A)*%
X146308089Y-89531250D02*
X145061899Y-89531250D01*
X146374171Y-89465168D02*
X146308089Y-89531250D01*
%TO.N,Net-(D12-A)*%
X150937500Y-88500000D02*
X152300000Y-88500000D01*
X152300000Y-88500000D02*
X152400000Y-88600000D01*
D52*
%TO.N,Net-(D13-A)*%
X153250000Y-84000000D02*
X153250000Y-84800000D01*
D51*
X153250000Y-84800000D02*
X153050000Y-85000000D01*
D52*
%TO.N,+3V7*%
X156250000Y-103400000D02*
X154600000Y-103400000D01*
X156000000Y-87250000D02*
X154850000Y-87250000D01*
D53*
X150750000Y-91000000D02*
X151750000Y-92000000D01*
X143200000Y-99550000D02*
X142900000Y-99850000D01*
D52*
X157500000Y-86250000D02*
X157000000Y-86250000D01*
D53*
X144750000Y-99250000D02*
X145000000Y-99250000D01*
D52*
X153100000Y-104900000D02*
X153100000Y-107000000D01*
X154850000Y-87250000D02*
X153200000Y-88900000D01*
D53*
X145947316Y-91000000D02*
X150750000Y-91000000D01*
X143200000Y-97700000D02*
X143200000Y-99000000D01*
D52*
X153200000Y-90550000D02*
X151750000Y-92000000D01*
D53*
X142900000Y-101800000D02*
X142900000Y-102500000D01*
D52*
X157000000Y-86250000D02*
X156000000Y-87250000D01*
D53*
X145300000Y-104900000D02*
X153100000Y-104900000D01*
X143200000Y-98350000D02*
X143200000Y-99550000D01*
X143200000Y-95750000D02*
X143150000Y-95700000D01*
X143150000Y-95700000D02*
X143200000Y-95650000D01*
X142900000Y-99850000D02*
X142900000Y-101750000D01*
X145000000Y-99550000D02*
X143200000Y-99550000D01*
X143200000Y-95650000D02*
X143200000Y-93747316D01*
X142900000Y-102500000D02*
X145300000Y-104900000D01*
D52*
X153200000Y-88900000D02*
X153200000Y-90550000D01*
X154600000Y-103400000D02*
X153100000Y-104900000D01*
D53*
X143200000Y-97700000D02*
X143200000Y-95750000D01*
X143200000Y-93747316D02*
X145947316Y-91000000D01*
X143200000Y-97700000D02*
X143245000Y-97655000D01*
X143245000Y-97655000D02*
X145025000Y-97655000D01*
D52*
%TO.N,Net-(PV1-A)*%
X160141378Y-88525001D02*
X161474999Y-89858622D01*
D51*
%TO.N,Net-(PV2-A)*%
X164525001Y-96475001D02*
X165000000Y-96950000D01*
D52*
X164525001Y-95141378D02*
X164525001Y-96475001D01*
%TO.N,Net-(PV3-A)*%
X165000000Y-103050000D02*
X165000000Y-104383623D01*
D51*
X165000000Y-104383623D02*
X164525000Y-104858623D01*
D52*
%TO.N,Net-(PV4-A)*%
X161475000Y-110141377D02*
X160141377Y-111475000D01*
%TO.N,Net-(PV5-A)*%
X154858623Y-114525000D02*
X153525000Y-114525000D01*
D51*
X153525000Y-114525000D02*
X153050000Y-115000000D01*
%TO.N,Net-(PV6-A)*%
X145616377Y-115000000D02*
X145141377Y-114525000D01*
D52*
X146950000Y-115000000D02*
X145616377Y-115000000D01*
%TO.N,Net-(PV7-A)*%
X139858622Y-111475000D02*
X138524999Y-110141377D01*
D51*
X139858623Y-111475000D02*
X139858622Y-111475000D01*
%TO.N,Net-(PV8-A)*%
X135475001Y-103525001D02*
X135000000Y-103050000D01*
D52*
X135475001Y-104858623D02*
X135475001Y-103525001D01*
%TO.N,Net-(PV10-K)*%
X135000000Y-96950000D02*
X135000000Y-95616377D01*
D51*
X135000000Y-95616377D02*
X135475000Y-95141377D01*
D52*
%TO.N,Net-(PV10-A)*%
X138525000Y-89858623D02*
X139858623Y-88525000D01*
D51*
%TO.N,Net-(PV11-A)*%
X146475000Y-85475000D02*
X146950000Y-85000000D01*
D52*
X145141377Y-85475000D02*
X146475000Y-85475000D01*
D51*
%TO.N,/But0*%
X139305331Y-91694669D02*
X140444669Y-91694669D01*
X138250000Y-92750000D02*
X139305331Y-91694669D01*
%TO.N,/SDA*%
X148100000Y-101200000D02*
X148100000Y-95850001D01*
X148100000Y-95850001D02*
X146094999Y-93845000D01*
X145120000Y-93845000D02*
X145025000Y-93750000D01*
X146094999Y-93845000D02*
X145120000Y-93845000D01*
%TO.N,/SCL*%
X147300000Y-96320001D02*
X147300000Y-100400000D01*
X145120000Y-95115000D02*
X146094999Y-95115000D01*
X145025000Y-95020000D02*
X145120000Y-95115000D01*
X146094999Y-95115000D02*
X147300000Y-96320001D01*
%TO.N,Net-(U2-OSCI)*%
X152315000Y-97560000D02*
X152375000Y-97500000D01*
X149975000Y-97560000D02*
X152315000Y-97560000D01*
%TO.N,Net-(U2-OSCO)*%
X149975000Y-96290000D02*
X150185000Y-96500000D01*
X150185000Y-96500000D02*
X152375000Y-96500000D01*
%TD*%
%TA.AperFunction,Conductor*%
%TO.N,GND*%
G36*
X150414369Y-83005638D02*
G01*
X151227782Y-83044982D01*
X151234934Y-83045502D01*
X152045498Y-83124099D01*
X152052605Y-83124962D01*
X152838934Y-83239782D01*
X152909766Y-83270299D01*
X152955851Y-83332144D01*
X152964839Y-83408747D01*
X152934322Y-83479581D01*
X152908109Y-83505427D01*
X152821720Y-83571715D01*
X152821717Y-83571718D01*
X152725463Y-83697159D01*
X152664954Y-83843242D01*
X152648274Y-83969948D01*
X152618759Y-84041205D01*
X152557569Y-84088158D01*
X152500549Y-84099500D01*
X152470724Y-84099500D01*
X152440304Y-84102353D01*
X152312116Y-84147207D01*
X152202851Y-84227848D01*
X152202848Y-84227851D01*
X152122207Y-84337116D01*
X152077353Y-84465304D01*
X152074500Y-84495724D01*
X152074500Y-85504275D01*
X152077353Y-85534695D01*
X152077353Y-85534697D01*
X152077354Y-85534699D01*
X152101268Y-85603042D01*
X152122207Y-85662883D01*
X152202848Y-85772148D01*
X152202851Y-85772151D01*
X152312116Y-85852792D01*
X152312117Y-85852792D01*
X152312118Y-85852793D01*
X152440301Y-85897646D01*
X152470734Y-85900500D01*
X152470741Y-85900500D01*
X153395053Y-85900500D01*
X153469553Y-85920462D01*
X153524091Y-85975000D01*
X153543116Y-86032818D01*
X153546679Y-86064447D01*
X153546680Y-86064449D01*
X153603186Y-86193965D01*
X153603188Y-86193967D01*
X153695356Y-86301069D01*
X153695355Y-86301069D01*
X153721288Y-86319469D01*
X154078717Y-86525830D01*
X154717116Y-85420094D01*
X155063526Y-85420094D01*
X155777996Y-85832594D01*
X156146858Y-85193707D01*
X156160115Y-85164807D01*
X156186384Y-85025965D01*
X156186384Y-85025963D01*
X156170564Y-84885551D01*
X156170563Y-84885548D01*
X156114057Y-84756032D01*
X156114055Y-84756030D01*
X156021887Y-84648928D01*
X156021888Y-84648928D01*
X155995955Y-84630528D01*
X155638525Y-84424166D01*
X155063526Y-85420094D01*
X154717116Y-85420094D01*
X154728718Y-85399999D01*
X155378717Y-84274165D01*
X155029495Y-84072542D01*
X154980903Y-84023950D01*
X154960062Y-84035213D01*
X154897872Y-84036663D01*
X154853546Y-84028277D01*
X154713130Y-84044098D01*
X154583614Y-84100606D01*
X154476509Y-84192775D01*
X154458107Y-84218711D01*
X154295557Y-84500254D01*
X154241019Y-84554791D01*
X154166519Y-84574753D01*
X154092019Y-84554790D01*
X154037482Y-84500252D01*
X154027078Y-84473354D01*
X154025640Y-84473858D01*
X154022646Y-84465301D01*
X153977793Y-84337118D01*
X153897150Y-84227850D01*
X153889255Y-84219955D01*
X153891421Y-84217788D01*
X153854638Y-84171656D01*
X153843149Y-84095388D01*
X153843486Y-84092635D01*
X153844076Y-84088158D01*
X153855682Y-84000000D01*
X153848412Y-83944776D01*
X153835045Y-83843242D01*
X153835044Y-83843240D01*
X153835044Y-83843238D01*
X153774536Y-83697159D01*
X153774534Y-83697156D01*
X153769654Y-83688703D01*
X153771938Y-83687383D01*
X153748176Y-83630014D01*
X153758243Y-83553546D01*
X153805196Y-83492356D01*
X153876453Y-83462841D01*
X153931556Y-83465895D01*
X154462396Y-83596735D01*
X154469317Y-83598619D01*
X154968178Y-83747482D01*
X155033857Y-83787913D01*
X155045838Y-83810086D01*
X155103995Y-83794504D01*
X155146600Y-83800725D01*
X155177971Y-83810086D01*
X155249703Y-83831491D01*
X155256530Y-83833710D01*
X156024717Y-84103999D01*
X156031431Y-84106544D01*
X156785663Y-84413633D01*
X156792261Y-84416507D01*
X157530782Y-84759678D01*
X157537199Y-84762850D01*
X157932352Y-84970243D01*
X158258296Y-85141312D01*
X158264589Y-85144812D01*
X158698476Y-85399999D01*
X158934038Y-85538543D01*
X158966507Y-85557639D01*
X158972622Y-85561436D01*
X159639419Y-85998288D01*
X159653798Y-86007708D01*
X159659722Y-86011796D01*
X160318570Y-86490478D01*
X160324258Y-86494825D01*
X160552684Y-86678282D01*
X160959189Y-87004762D01*
X160964692Y-87009405D01*
X161109658Y-87137833D01*
X161553086Y-87530676D01*
X161574234Y-87549411D01*
X161579497Y-87554306D01*
X162162258Y-88123150D01*
X162167266Y-88128281D01*
X162361793Y-88337448D01*
X162408312Y-88387468D01*
X162444430Y-88455616D01*
X162442471Y-88509639D01*
X162454123Y-88506517D01*
X162528623Y-88526479D01*
X162563231Y-88554046D01*
X162721856Y-88724610D01*
X162726631Y-88730000D01*
X163251749Y-89352410D01*
X163256258Y-89358024D01*
X163662262Y-89889350D01*
X163738945Y-89989704D01*
X163750688Y-90005071D01*
X163754920Y-90010896D01*
X164217533Y-90681105D01*
X164221473Y-90687119D01*
X164591110Y-91282212D01*
X164651153Y-91378877D01*
X164654801Y-91385081D01*
X164843690Y-91724768D01*
X165050554Y-92096780D01*
X165053901Y-92103157D01*
X165414821Y-92833177D01*
X165417855Y-92839707D01*
X165729065Y-93554130D01*
X165743070Y-93586279D01*
X165745782Y-93592941D01*
X165763924Y-93640777D01*
X166034550Y-94354361D01*
X166036940Y-94361153D01*
X166288588Y-95135645D01*
X166290647Y-95142546D01*
X166504574Y-95928261D01*
X166506298Y-95935252D01*
X166564395Y-96198148D01*
X166561134Y-96271683D01*
X166569245Y-96278218D01*
X166594404Y-96333938D01*
X166682026Y-96730435D01*
X166683409Y-96737502D01*
X166820505Y-97540195D01*
X166821546Y-97547320D01*
X166919705Y-98355736D01*
X166920400Y-98362903D01*
X166979388Y-99175123D01*
X166979735Y-99182316D01*
X166999412Y-99996400D01*
X166999412Y-100003600D01*
X166979735Y-100817683D01*
X166979388Y-100824876D01*
X166920400Y-101637096D01*
X166919705Y-101644263D01*
X166821546Y-102452679D01*
X166820505Y-102459804D01*
X166683409Y-103262497D01*
X166682026Y-103269564D01*
X166506298Y-104064747D01*
X166504574Y-104071738D01*
X166290647Y-104857453D01*
X166288588Y-104864353D01*
X166263812Y-104940606D01*
X166221806Y-105005291D01*
X166169644Y-105031869D01*
X166179214Y-105041439D01*
X166199176Y-105115939D01*
X166191883Y-105161983D01*
X166036940Y-105638846D01*
X166034550Y-105645638D01*
X165745785Y-106407051D01*
X165743070Y-106413720D01*
X165417855Y-107160292D01*
X165414821Y-107166822D01*
X165053901Y-107896842D01*
X165050554Y-107903219D01*
X164654803Y-108614916D01*
X164651153Y-108621122D01*
X164221480Y-109312870D01*
X164217533Y-109318894D01*
X163754920Y-109989103D01*
X163750688Y-109994928D01*
X163256258Y-110641975D01*
X163251749Y-110647589D01*
X162726631Y-111269999D01*
X162721856Y-111275389D01*
X162167277Y-111871707D01*
X162162247Y-111876860D01*
X161593543Y-112431983D01*
X161526287Y-112469737D01*
X161491999Y-112469322D01*
X161476584Y-112526855D01*
X161446351Y-112563883D01*
X160964692Y-112990594D01*
X160959189Y-112995237D01*
X160324275Y-113505161D01*
X160318553Y-113509534D01*
X159659724Y-113988201D01*
X159653798Y-113992291D01*
X158972624Y-114438561D01*
X158966507Y-114442360D01*
X158264589Y-114855187D01*
X158258296Y-114858687D01*
X157537218Y-115237139D01*
X157530763Y-115240330D01*
X156792265Y-115583490D01*
X156785663Y-115586366D01*
X156031450Y-115893447D01*
X156024717Y-115896000D01*
X155256530Y-116166289D01*
X155249682Y-116168515D01*
X154469330Y-116401376D01*
X154462382Y-116403267D01*
X153792445Y-116568392D01*
X153753499Y-116567607D01*
X153706223Y-116589643D01*
X153671705Y-116598151D01*
X153664692Y-116599701D01*
X152865514Y-116756160D01*
X152858416Y-116757372D01*
X152052628Y-116875034D01*
X152045479Y-116875902D01*
X151234947Y-116954496D01*
X151227766Y-116955018D01*
X150414369Y-116994362D01*
X150407170Y-116994536D01*
X149592830Y-116994536D01*
X149585631Y-116994362D01*
X148772233Y-116955018D01*
X148765052Y-116954496D01*
X147954520Y-116875902D01*
X147947371Y-116875034D01*
X147141583Y-116757372D01*
X147134485Y-116756160D01*
X146335307Y-116599701D01*
X146328276Y-116598147D01*
X145537617Y-116403267D01*
X145530669Y-116401376D01*
X145086737Y-116268904D01*
X145021056Y-116228472D01*
X144987319Y-116166036D01*
X144968439Y-116184917D01*
X144893939Y-116204879D01*
X144851334Y-116198658D01*
X144750318Y-116168515D01*
X144743469Y-116166289D01*
X143975282Y-115896000D01*
X143968549Y-115893447D01*
X143214336Y-115586366D01*
X143207734Y-115583490D01*
X142469236Y-115240330D01*
X142462781Y-115237139D01*
X141945286Y-114965536D01*
X143793960Y-114965536D01*
X143793960Y-114965541D01*
X143810192Y-115101303D01*
X143810193Y-115101305D01*
X143864017Y-115226998D01*
X143864018Y-115227000D01*
X143951071Y-115332434D01*
X143951073Y-115332436D01*
X143997059Y-115366015D01*
X143997064Y-115366018D01*
X143997072Y-115366024D01*
X144968439Y-115926841D01*
X145022977Y-115981379D01*
X145032018Y-116015123D01*
X145094852Y-115981172D01*
X145154048Y-115979188D01*
X145172108Y-115982225D01*
X145307874Y-115965992D01*
X145433568Y-115912167D01*
X145539006Y-115825110D01*
X145572593Y-115779112D01*
X145639698Y-115662883D01*
X145661570Y-115625000D01*
X145716108Y-115570462D01*
X145790608Y-115550500D01*
X145852161Y-115550500D01*
X145926661Y-115570462D01*
X145981199Y-115625000D01*
X145992799Y-115650286D01*
X145997207Y-115662882D01*
X146077848Y-115772148D01*
X146077851Y-115772151D01*
X146187116Y-115852792D01*
X146187117Y-115852792D01*
X146187118Y-115852793D01*
X146315301Y-115897646D01*
X146345734Y-115900500D01*
X146345741Y-115900500D01*
X147554259Y-115900500D01*
X147554266Y-115900500D01*
X147584699Y-115897646D01*
X147712882Y-115852793D01*
X147822150Y-115772150D01*
X147902793Y-115662882D01*
X147947646Y-115534699D01*
X147950500Y-115504266D01*
X147950500Y-114495734D01*
X147947646Y-114465301D01*
X147902793Y-114337118D01*
X147822150Y-114227850D01*
X147822148Y-114227848D01*
X147712883Y-114147207D01*
X147662339Y-114129521D01*
X152049500Y-114129521D01*
X152049500Y-115870479D01*
X152051969Y-115893447D01*
X152055588Y-115927114D01*
X152055588Y-115927116D01*
X152055589Y-115927117D01*
X152055589Y-115927119D01*
X152088414Y-116015123D01*
X152103372Y-116055226D01*
X152185313Y-116164687D01*
X152294774Y-116246628D01*
X152422886Y-116294412D01*
X152479515Y-116300500D01*
X153620484Y-116300499D01*
X153654641Y-116296827D01*
X153678558Y-116300557D01*
X153704716Y-116284117D01*
X153717519Y-116279341D01*
X153805226Y-116246628D01*
X153914687Y-116164687D01*
X153996628Y-116055226D01*
X154044412Y-115927114D01*
X154050500Y-115870485D01*
X154050499Y-115629687D01*
X154070461Y-115555190D01*
X154124998Y-115500652D01*
X154199498Y-115480689D01*
X154273998Y-115500651D01*
X154296690Y-115516752D01*
X154364917Y-115575466D01*
X154364921Y-115575469D01*
X154489393Y-115629777D01*
X154512358Y-115632364D01*
X154624344Y-115644981D01*
X154757781Y-115619734D01*
X154757782Y-115619733D01*
X154757784Y-115619733D01*
X154785552Y-115606994D01*
X154785551Y-115606994D01*
X154785563Y-115606989D01*
X155832183Y-115002723D01*
X155857111Y-114985035D01*
X155945695Y-114882099D01*
X156000002Y-114757627D01*
X156015207Y-114622676D01*
X155989959Y-114489240D01*
X155978979Y-114465304D01*
X155977216Y-114461461D01*
X155965131Y-114440530D01*
X155472948Y-113588043D01*
X155455260Y-113563114D01*
X155352325Y-113474531D01*
X155352324Y-113474530D01*
X155227852Y-113420222D01*
X155092905Y-113405019D01*
X155092903Y-113405019D01*
X155092902Y-113405019D01*
X155066214Y-113410068D01*
X154959461Y-113430266D01*
X154931693Y-113443005D01*
X154131066Y-113905247D01*
X154056566Y-113925209D01*
X153982066Y-113905247D01*
X153937286Y-113865502D01*
X153914688Y-113835315D01*
X153914687Y-113835313D01*
X153805226Y-113753372D01*
X153784793Y-113745751D01*
X153677113Y-113705587D01*
X153620499Y-113699501D01*
X153620490Y-113699500D01*
X153620485Y-113699500D01*
X153620478Y-113699500D01*
X152479520Y-113699500D01*
X152451201Y-113702544D01*
X152422886Y-113705588D01*
X152422883Y-113705588D01*
X152422882Y-113705589D01*
X152422880Y-113705589D01*
X152294776Y-113753371D01*
X152294772Y-113753373D01*
X152185313Y-113835313D01*
X152103373Y-113944772D01*
X152103371Y-113944776D01*
X152055587Y-114072886D01*
X152049501Y-114129500D01*
X152049500Y-114129521D01*
X147662339Y-114129521D01*
X147653042Y-114126268D01*
X147584699Y-114102354D01*
X147584697Y-114102353D01*
X147584695Y-114102353D01*
X147554275Y-114099500D01*
X147554266Y-114099500D01*
X146622838Y-114099500D01*
X146548338Y-114079538D01*
X146493800Y-114025000D01*
X146474892Y-113968189D01*
X146472561Y-113948696D01*
X146472561Y-113948695D01*
X146418736Y-113823001D01*
X146418735Y-113822999D01*
X146331682Y-113717565D01*
X146331680Y-113717563D01*
X146285694Y-113683984D01*
X146285685Y-113683978D01*
X146285682Y-113683976D01*
X146285672Y-113683970D01*
X145297579Y-113113496D01*
X145297571Y-113113492D01*
X145245488Y-113090450D01*
X145245484Y-113090448D01*
X145137902Y-113072358D01*
X145110646Y-113067775D01*
X145110645Y-113067775D01*
X144974881Y-113084007D01*
X144974879Y-113084008D01*
X144849187Y-113137831D01*
X144743745Y-113224892D01*
X144710169Y-113270875D01*
X144710154Y-113270897D01*
X143839679Y-114778608D01*
X143816633Y-114830700D01*
X143793960Y-114965536D01*
X141945286Y-114965536D01*
X141741703Y-114858687D01*
X141735410Y-114855187D01*
X141033492Y-114442360D01*
X141027375Y-114438561D01*
X140346201Y-113992291D01*
X140340275Y-113988201D01*
X140017062Y-113753373D01*
X139681435Y-113509526D01*
X139675735Y-113505169D01*
X139218358Y-113137833D01*
X139040810Y-112995237D01*
X139035307Y-112990594D01*
X138511853Y-112526855D01*
X138425757Y-112450581D01*
X138420492Y-112445684D01*
X138411479Y-112436886D01*
X137837740Y-111876848D01*
X137832734Y-111871719D01*
X137647312Y-111672343D01*
X137591690Y-111612534D01*
X137555572Y-111544385D01*
X137557531Y-111490353D01*
X137545872Y-111493478D01*
X137471372Y-111473516D01*
X137436766Y-111445950D01*
X137299134Y-111297960D01*
X137278143Y-111275389D01*
X137273368Y-111269999D01*
X136748250Y-110647589D01*
X136743741Y-110641975D01*
X136407037Y-110201340D01*
X136337733Y-110110643D01*
X137067774Y-110110643D01*
X137067774Y-110110648D01*
X137090448Y-110245487D01*
X137113487Y-110297567D01*
X137674910Y-111269978D01*
X137694872Y-111344478D01*
X137688940Y-111366615D01*
X137744553Y-111368632D01*
X137795663Y-111396164D01*
X137823000Y-111418736D01*
X137948694Y-111472561D01*
X138084460Y-111488794D01*
X138219301Y-111466120D01*
X138271387Y-111443078D01*
X138501094Y-111310456D01*
X138575594Y-111290493D01*
X138650094Y-111310455D01*
X138704632Y-111364992D01*
X138724595Y-111439492D01*
X138721997Y-111467194D01*
X138702039Y-111572671D01*
X138702039Y-111572677D01*
X138717243Y-111707627D01*
X138717244Y-111707628D01*
X138771550Y-111832098D01*
X138771551Y-111832099D01*
X138860135Y-111935035D01*
X138885063Y-111952723D01*
X139931683Y-112556989D01*
X139931689Y-112556991D01*
X139931693Y-112556994D01*
X139959461Y-112569733D01*
X139959464Y-112569733D01*
X139959465Y-112569734D01*
X140092902Y-112594981D01*
X140227852Y-112579777D01*
X140352325Y-112525469D01*
X140455260Y-112436886D01*
X140472948Y-112411957D01*
X140977214Y-111538543D01*
X140989959Y-111510760D01*
X141009067Y-111409774D01*
X144691803Y-111409774D01*
X144809864Y-111477936D01*
X144890779Y-111512537D01*
X145038620Y-111534574D01*
X145186924Y-111515908D01*
X145186926Y-111515908D01*
X145324692Y-111457922D01*
X145441705Y-111364918D01*
X145441705Y-111364917D01*
X145494480Y-111294496D01*
X145668892Y-110992403D01*
X145116802Y-110673654D01*
X144691803Y-111409774D01*
X141009067Y-111409774D01*
X141015207Y-111377324D01*
X141000002Y-111242373D01*
X140945695Y-111117901D01*
X140857111Y-111014965D01*
X140832183Y-110997277D01*
X140379207Y-110735751D01*
X144073854Y-110735751D01*
X144092520Y-110884055D01*
X144092520Y-110884057D01*
X144150506Y-111021823D01*
X144243509Y-111138835D01*
X144243514Y-111138840D01*
X144313939Y-111191615D01*
X144431994Y-111259774D01*
X144856993Y-110523653D01*
X144666800Y-110413845D01*
X145266803Y-110413845D01*
X145818893Y-110732595D01*
X145818894Y-110732595D01*
X145993304Y-110430509D01*
X146027905Y-110349589D01*
X146049943Y-110201748D01*
X146031277Y-110053444D01*
X146031277Y-110053442D01*
X145973291Y-109915676D01*
X145880288Y-109798664D01*
X145880283Y-109798659D01*
X145809858Y-109745884D01*
X145691802Y-109677724D01*
X145266803Y-110413845D01*
X144666800Y-110413845D01*
X144304903Y-110204903D01*
X144130493Y-110506990D01*
X144095892Y-110587910D01*
X144073854Y-110735751D01*
X140379207Y-110735751D01*
X140015522Y-110525777D01*
X139960985Y-110471240D01*
X139941023Y-110396740D01*
X139953052Y-110338088D01*
X139965991Y-110307874D01*
X139982224Y-110172108D01*
X139959550Y-110037268D01*
X139950927Y-110017775D01*
X139936510Y-109985186D01*
X139936100Y-109984476D01*
X139828579Y-109798244D01*
X142449552Y-109798244D01*
X142468234Y-109946683D01*
X142468234Y-109946685D01*
X142468235Y-109946686D01*
X142521563Y-110073388D01*
X142526274Y-110084580D01*
X142599025Y-110176113D01*
X142619364Y-110201702D01*
X142689856Y-110254528D01*
X143185846Y-110540888D01*
X143266841Y-110575523D01*
X143414817Y-110597580D01*
X143563256Y-110578897D01*
X143701150Y-110520857D01*
X143818273Y-110427767D01*
X143871099Y-110357275D01*
X144369959Y-109493225D01*
X144404594Y-109412230D01*
X144406491Y-109399501D01*
X144409766Y-109377534D01*
X144440493Y-109306791D01*
X144502476Y-109260889D01*
X144557138Y-109250500D01*
X144660390Y-109250500D01*
X144734890Y-109270462D01*
X144789428Y-109325000D01*
X144809390Y-109399500D01*
X144789428Y-109474000D01*
X144753100Y-109516144D01*
X144682092Y-109572581D01*
X144682092Y-109572582D01*
X144629317Y-109643003D01*
X144454904Y-109945095D01*
X145006994Y-110263844D01*
X145431993Y-109527724D01*
X145431775Y-109526909D01*
X145378866Y-109474001D01*
X145358903Y-109399501D01*
X145378865Y-109325001D01*
X145433402Y-109270463D01*
X145507902Y-109250500D01*
X145850095Y-109250500D01*
X145924595Y-109270462D01*
X145940795Y-109281287D01*
X145997159Y-109324536D01*
X146143238Y-109385044D01*
X146143241Y-109385044D01*
X146143243Y-109385045D01*
X146143240Y-109385045D01*
X146299997Y-109405682D01*
X146300000Y-109405682D01*
X146300003Y-109405682D01*
X146456757Y-109385045D01*
X146456758Y-109385044D01*
X146456762Y-109385044D01*
X146602841Y-109324536D01*
X146728282Y-109228282D01*
X146824536Y-109102841D01*
X146885044Y-108956762D01*
X146885793Y-108951077D01*
X146905682Y-108800002D01*
X146905682Y-108799997D01*
X146885045Y-108643242D01*
X146885044Y-108643240D01*
X146885044Y-108643238D01*
X146824536Y-108497159D01*
X146728282Y-108371718D01*
X146697666Y-108348225D01*
X146602840Y-108275463D01*
X146522944Y-108242369D01*
X146456762Y-108214956D01*
X146456760Y-108214955D01*
X146456756Y-108214954D01*
X146456759Y-108214954D01*
X146300003Y-108194318D01*
X146299997Y-108194318D01*
X146143242Y-108214954D01*
X145997159Y-108275463D01*
X145961482Y-108302840D01*
X145940798Y-108318710D01*
X145869543Y-108348225D01*
X145850095Y-108349500D01*
X144110042Y-108349500D01*
X144027124Y-108371718D01*
X144027122Y-108371718D01*
X143995468Y-108380199D01*
X143995465Y-108380200D01*
X143892735Y-108439511D01*
X143845876Y-108486370D01*
X143779081Y-108524933D01*
X143701953Y-108524933D01*
X143681935Y-108518010D01*
X143609367Y-108486979D01*
X143609363Y-108486977D01*
X143609361Y-108486977D01*
X143461385Y-108464920D01*
X143312946Y-108483603D01*
X143312944Y-108483603D01*
X143175051Y-108541643D01*
X143175048Y-108541645D01*
X143057930Y-108634731D01*
X143057929Y-108634733D01*
X143005103Y-108705225D01*
X143005100Y-108705229D01*
X143005100Y-108705230D01*
X142506241Y-109569277D01*
X142471608Y-109650268D01*
X142471606Y-109650276D01*
X142449552Y-109798244D01*
X139828579Y-109798244D01*
X139366022Y-108997074D01*
X139332436Y-108951074D01*
X139273715Y-108902590D01*
X139226999Y-108864018D01*
X139226997Y-108864017D01*
X139101304Y-108810193D01*
X139101302Y-108810192D01*
X138965540Y-108793960D01*
X138965535Y-108793960D01*
X138830695Y-108816634D01*
X138778615Y-108839673D01*
X137270882Y-109710164D01*
X137224889Y-109743747D01*
X137137831Y-109849187D01*
X137084007Y-109974879D01*
X137084006Y-109974881D01*
X137067774Y-110110643D01*
X136337733Y-110110643D01*
X136249304Y-109994918D01*
X136245079Y-109989103D01*
X135782466Y-109318894D01*
X135778532Y-109312891D01*
X135348837Y-108621108D01*
X135345205Y-108614931D01*
X134949436Y-107903202D01*
X134946098Y-107896842D01*
X134597528Y-107191802D01*
X139677724Y-107191802D01*
X139745884Y-107309858D01*
X139798659Y-107380283D01*
X139798664Y-107380288D01*
X139915676Y-107473291D01*
X140053443Y-107531277D01*
X140201748Y-107549943D01*
X140349589Y-107527905D01*
X140430509Y-107493304D01*
X140732595Y-107318894D01*
X140732595Y-107318893D01*
X140413845Y-106766803D01*
X139677724Y-107191802D01*
X134597528Y-107191802D01*
X134585178Y-107166822D01*
X134582152Y-107160309D01*
X134331618Y-106585177D01*
X139402925Y-106585177D01*
X139424962Y-106733018D01*
X139459564Y-106813935D01*
X139459568Y-106813945D01*
X139527724Y-106931993D01*
X140073651Y-106616802D01*
X140673654Y-106616802D01*
X140992403Y-107168892D01*
X141294496Y-106994480D01*
X141364917Y-106941705D01*
X141364918Y-106941705D01*
X141457922Y-106824692D01*
X141515908Y-106686926D01*
X141515908Y-106686923D01*
X141527924Y-106591457D01*
X141557033Y-106520033D01*
X141611909Y-106477425D01*
X141561448Y-106456524D01*
X141515153Y-106396897D01*
X141477936Y-106309863D01*
X141409774Y-106191803D01*
X140673654Y-106616802D01*
X140073651Y-106616802D01*
X140263844Y-106506994D01*
X139945095Y-105954904D01*
X139643003Y-106129317D01*
X139572582Y-106182092D01*
X139572581Y-106182092D01*
X139479577Y-106299105D01*
X139421591Y-106436871D01*
X139421591Y-106436873D01*
X139402925Y-106585177D01*
X134331618Y-106585177D01*
X134256917Y-106413692D01*
X134254225Y-106407079D01*
X133965448Y-105645635D01*
X133963059Y-105638846D01*
X133958740Y-105625552D01*
X133711408Y-104864345D01*
X133709352Y-104857453D01*
X133495420Y-104071718D01*
X133493706Y-104064767D01*
X133435604Y-103801850D01*
X133438864Y-103728295D01*
X133430701Y-103721709D01*
X133407108Y-103669415D01*
X133691202Y-103669415D01*
X133720699Y-103717628D01*
X133724673Y-103728282D01*
X133753372Y-103805226D01*
X133835313Y-103914687D01*
X133944774Y-103996628D01*
X134072886Y-104044412D01*
X134129515Y-104050500D01*
X134370312Y-104050499D01*
X134444810Y-104070461D01*
X134499348Y-104124998D01*
X134519311Y-104199498D01*
X134499349Y-104273998D01*
X134483249Y-104296689D01*
X134424534Y-104364917D01*
X134424531Y-104364921D01*
X134370223Y-104489393D01*
X134355020Y-104624340D01*
X134355020Y-104624344D01*
X134361859Y-104660489D01*
X134380267Y-104757784D01*
X134393006Y-104785552D01*
X134393010Y-104785560D01*
X134393012Y-104785563D01*
X134997278Y-105832183D01*
X135014966Y-105857111D01*
X135117902Y-105945695D01*
X135219355Y-105989959D01*
X135242372Y-106000001D01*
X135242373Y-106000002D01*
X135248329Y-106000673D01*
X135377325Y-106015207D01*
X135510761Y-105989959D01*
X135538544Y-105977214D01*
X136411958Y-105472948D01*
X136436887Y-105455260D01*
X136525470Y-105352325D01*
X136579778Y-105227852D01*
X136594982Y-105092902D01*
X136569735Y-104959465D01*
X136569734Y-104959464D01*
X136569734Y-104959461D01*
X136556995Y-104931693D01*
X136556992Y-104931689D01*
X136556990Y-104931683D01*
X136094752Y-104131063D01*
X136074791Y-104056565D01*
X136094753Y-103982065D01*
X136134495Y-103937287D01*
X136164687Y-103914687D01*
X136246628Y-103805226D01*
X136294412Y-103677114D01*
X136300500Y-103620485D01*
X136300499Y-102479516D01*
X136294412Y-102422886D01*
X136246628Y-102294774D01*
X136164687Y-102185313D01*
X136055226Y-102103372D01*
X136034793Y-102095751D01*
X135927113Y-102055587D01*
X135870499Y-102049501D01*
X135870490Y-102049500D01*
X135870485Y-102049500D01*
X135870478Y-102049500D01*
X134129520Y-102049500D01*
X134102973Y-102052354D01*
X134072886Y-102055588D01*
X134072883Y-102055588D01*
X134072882Y-102055589D01*
X134072880Y-102055589D01*
X133944776Y-102103371D01*
X133944772Y-102103373D01*
X133835313Y-102185313D01*
X133753373Y-102294772D01*
X133753371Y-102294776D01*
X133705587Y-102422886D01*
X133699501Y-102479500D01*
X133699500Y-102479521D01*
X133699500Y-103620492D01*
X133699714Y-103624467D01*
X133698225Y-103624546D01*
X133691202Y-103669415D01*
X133407108Y-103669415D01*
X133405596Y-103666064D01*
X133317966Y-103269532D01*
X133316596Y-103262529D01*
X133179491Y-102459788D01*
X133178453Y-102452679D01*
X133174835Y-102422886D01*
X133080293Y-101644259D01*
X133079599Y-101637096D01*
X133054124Y-101286318D01*
X137500000Y-101286318D01*
X137510493Y-101373697D01*
X137510494Y-101373699D01*
X137565328Y-101512751D01*
X137565328Y-101512752D01*
X137655644Y-101631852D01*
X137655647Y-101631855D01*
X137774748Y-101722171D01*
X137913800Y-101777005D01*
X137913802Y-101777006D01*
X138001181Y-101787499D01*
X138001183Y-101787500D01*
X138350000Y-101787500D01*
X138650000Y-101787500D01*
X138998817Y-101787500D01*
X138998818Y-101787499D01*
X139086197Y-101777006D01*
X139086199Y-101777005D01*
X139225251Y-101722171D01*
X139225252Y-101722171D01*
X139344352Y-101631855D01*
X139344355Y-101631852D01*
X139434671Y-101512752D01*
X139434671Y-101512751D01*
X139489505Y-101373699D01*
X139489506Y-101373697D01*
X139499999Y-101286318D01*
X139500000Y-101286316D01*
X139500000Y-101150000D01*
X138650000Y-101150000D01*
X138650000Y-101787500D01*
X138350000Y-101787500D01*
X138350000Y-101150000D01*
X137500000Y-101150000D01*
X137500000Y-101286318D01*
X133054124Y-101286318D01*
X133020610Y-100824855D01*
X133020264Y-100817683D01*
X133020016Y-100807437D01*
X133017750Y-100713681D01*
X137500000Y-100713681D01*
X137500000Y-100850000D01*
X138350000Y-100850000D01*
X138650000Y-100850000D01*
X139500000Y-100850000D01*
X139500000Y-100713683D01*
X139499999Y-100713681D01*
X139489506Y-100626302D01*
X139489505Y-100626300D01*
X139434671Y-100487248D01*
X139434671Y-100487247D01*
X139344355Y-100368147D01*
X139344352Y-100368144D01*
X139225251Y-100277828D01*
X139086199Y-100222994D01*
X139086197Y-100222993D01*
X138998818Y-100212500D01*
X138650000Y-100212500D01*
X138650000Y-100850000D01*
X138350000Y-100850000D01*
X138350000Y-100212500D01*
X138001181Y-100212500D01*
X137913802Y-100222993D01*
X137913800Y-100222994D01*
X137774748Y-100277828D01*
X137774747Y-100277828D01*
X137655647Y-100368144D01*
X137655644Y-100368147D01*
X137565328Y-100487247D01*
X137565328Y-100487248D01*
X137510494Y-100626300D01*
X137510493Y-100626302D01*
X137500000Y-100713681D01*
X133017750Y-100713681D01*
X133000587Y-100003599D01*
X133000587Y-99996400D01*
X133004736Y-99824761D01*
X133020265Y-99182294D01*
X133020609Y-99175146D01*
X133045048Y-98838636D01*
X137499500Y-98838636D01*
X137499500Y-99411363D01*
X137510002Y-99498821D01*
X137564888Y-99637998D01*
X137564889Y-99638000D01*
X137655287Y-99757209D01*
X137655290Y-99757212D01*
X137705980Y-99795651D01*
X137774500Y-99847611D01*
X137841130Y-99873887D01*
X137913678Y-99902497D01*
X137930095Y-99904468D01*
X138001140Y-99913000D01*
X138001141Y-99913000D01*
X138998859Y-99913000D01*
X138998860Y-99913000D01*
X139086321Y-99902497D01*
X139225500Y-99847611D01*
X139255635Y-99824758D01*
X139327054Y-99795651D01*
X139403463Y-99806152D01*
X139451022Y-99838125D01*
X140305859Y-100692962D01*
X140344423Y-100759757D01*
X140349500Y-100798321D01*
X140349500Y-102040363D01*
X140329538Y-102114863D01*
X140305859Y-102145722D01*
X139488263Y-102963317D01*
X139421468Y-103001881D01*
X139402354Y-103005683D01*
X139331922Y-103014956D01*
X139185844Y-103075463D01*
X139060403Y-103171717D01*
X139060402Y-103171718D01*
X138964148Y-103297159D01*
X138903639Y-103443242D01*
X138883003Y-103599997D01*
X138883003Y-103600002D01*
X138903639Y-103756757D01*
X138964148Y-103902840D01*
X139060402Y-104028281D01*
X139060403Y-104028282D01*
X139085588Y-104047607D01*
X139132541Y-104108796D01*
X139142608Y-104185264D01*
X139113093Y-104256522D01*
X139069383Y-104294855D01*
X138717623Y-104497945D01*
X138705225Y-104505103D01*
X138662958Y-104536777D01*
X138634731Y-104557930D01*
X138541645Y-104675048D01*
X138541643Y-104675051D01*
X138483603Y-104812944D01*
X138483603Y-104812946D01*
X138464920Y-104961385D01*
X138486977Y-105109360D01*
X138486978Y-105109364D01*
X138495719Y-105129806D01*
X138521612Y-105190356D01*
X138807972Y-105686346D01*
X138860798Y-105756838D01*
X138976498Y-105848798D01*
X138977919Y-105849927D01*
X138977920Y-105849928D01*
X139115814Y-105907967D01*
X139264254Y-105926650D01*
X139412230Y-105904594D01*
X139493225Y-105869959D01*
X139605905Y-105804903D01*
X140204903Y-105804903D01*
X140523653Y-106356993D01*
X141259774Y-105931994D01*
X141191615Y-105813939D01*
X141138840Y-105743514D01*
X141138835Y-105743509D01*
X141021823Y-105650506D01*
X140884056Y-105592520D01*
X140735751Y-105573854D01*
X140587910Y-105595892D01*
X140506990Y-105630493D01*
X140204903Y-105804903D01*
X139605905Y-105804903D01*
X140357275Y-105371099D01*
X140427767Y-105318273D01*
X140476633Y-105256790D01*
X140538615Y-105210889D01*
X140593278Y-105200500D01*
X141001679Y-105200500D01*
X141076179Y-105220462D01*
X141107038Y-105244141D01*
X141829841Y-105966945D01*
X141868405Y-106033740D01*
X141868405Y-106110868D01*
X141862141Y-106129323D01*
X141830365Y-106206039D01*
X141814954Y-106243244D01*
X141799878Y-106357762D01*
X141770363Y-106429019D01*
X141715733Y-106470938D01*
X141765788Y-106491338D01*
X141813089Y-106552259D01*
X141813416Y-106553043D01*
X141875463Y-106702840D01*
X141940212Y-106787222D01*
X141971718Y-106828282D01*
X142097159Y-106924536D01*
X142243238Y-106985044D01*
X142243241Y-106985044D01*
X142243243Y-106985045D01*
X142243240Y-106985045D01*
X142399997Y-107005682D01*
X142400000Y-107005682D01*
X142400003Y-107005682D01*
X142556757Y-106985045D01*
X142556758Y-106985044D01*
X142556762Y-106985044D01*
X142702841Y-106924536D01*
X142828282Y-106828282D01*
X142924536Y-106702841D01*
X142985044Y-106556762D01*
X142985172Y-106555795D01*
X143005682Y-106400002D01*
X143005682Y-106399997D01*
X142985045Y-106243242D01*
X142985044Y-106243240D01*
X142985044Y-106243238D01*
X142924536Y-106097159D01*
X142887809Y-106049295D01*
X142881290Y-106040799D01*
X142851775Y-105969541D01*
X142850500Y-105950094D01*
X142850500Y-105840691D01*
X142819799Y-105726114D01*
X142819797Y-105726110D01*
X142796839Y-105686345D01*
X142796838Y-105686344D01*
X142761741Y-105625553D01*
X142760490Y-105623386D01*
X141526614Y-104389511D01*
X141526611Y-104389509D01*
X141526607Y-104389506D01*
X141423890Y-104330202D01*
X141423887Y-104330201D01*
X141399673Y-104323713D01*
X141309309Y-104299500D01*
X140403856Y-104299500D01*
X140329356Y-104279538D01*
X140274818Y-104225000D01*
X140274818Y-104224999D01*
X140254530Y-104189860D01*
X140254528Y-104189856D01*
X140201702Y-104119364D01*
X140141781Y-104071738D01*
X140080363Y-104022922D01*
X140034462Y-103960940D01*
X140025701Y-103884311D01*
X140035413Y-103849264D01*
X140073729Y-103756762D01*
X140083001Y-103686328D01*
X140112515Y-103615074D01*
X140125359Y-103600427D01*
X141160489Y-102565299D01*
X141198478Y-102499500D01*
X141210014Y-102479520D01*
X141219797Y-102462575D01*
X141219797Y-102462573D01*
X141219799Y-102462571D01*
X141250500Y-102347994D01*
X141250500Y-100490691D01*
X141219799Y-100376114D01*
X141219797Y-100376110D01*
X141166826Y-100284362D01*
X141166823Y-100284356D01*
X141160492Y-100273389D01*
X141160490Y-100273387D01*
X140413281Y-99526178D01*
X139651614Y-98764511D01*
X139651611Y-98764509D01*
X139651607Y-98764506D01*
X139548888Y-98705201D01*
X139548890Y-98705201D01*
X139535270Y-98701552D01*
X139468476Y-98662986D01*
X139440657Y-98620573D01*
X139440106Y-98620884D01*
X139435568Y-98612814D01*
X139435226Y-98612292D01*
X139435111Y-98612000D01*
X139435110Y-98611999D01*
X139344712Y-98492790D01*
X139344709Y-98492787D01*
X139225500Y-98402389D01*
X139225498Y-98402388D01*
X139086321Y-98347502D01*
X138998863Y-98337000D01*
X138998860Y-98337000D01*
X138001140Y-98337000D01*
X138001136Y-98337000D01*
X137913678Y-98347502D01*
X137774501Y-98402388D01*
X137774499Y-98402389D01*
X137655290Y-98492787D01*
X137655287Y-98492790D01*
X137564889Y-98611999D01*
X137564888Y-98612001D01*
X137510002Y-98751178D01*
X137499500Y-98838636D01*
X133045048Y-98838636D01*
X133079599Y-98362894D01*
X133080294Y-98355736D01*
X133092465Y-98255499D01*
X133178455Y-97547299D01*
X133179490Y-97540217D01*
X133316597Y-96737463D01*
X133317965Y-96730475D01*
X133493708Y-95935222D01*
X133495417Y-95928290D01*
X133709357Y-95142526D01*
X133711411Y-95135646D01*
X133736187Y-95059391D01*
X133761359Y-95020630D01*
X133996211Y-95020630D01*
X134023638Y-95074457D01*
X134024831Y-95130143D01*
X134017775Y-95172103D01*
X134017775Y-95172110D01*
X134034007Y-95307872D01*
X134034008Y-95307874D01*
X134087831Y-95433566D01*
X134174892Y-95539008D01*
X134220875Y-95572584D01*
X134220880Y-95572587D01*
X134220888Y-95572593D01*
X134220901Y-95572600D01*
X134220905Y-95572603D01*
X134374999Y-95661569D01*
X134429537Y-95716106D01*
X134449500Y-95790606D01*
X134449500Y-95852161D01*
X134429538Y-95926661D01*
X134375000Y-95981199D01*
X134349717Y-95992798D01*
X134337120Y-95997206D01*
X134337112Y-95997210D01*
X134227851Y-96077848D01*
X134227848Y-96077851D01*
X134147207Y-96187116D01*
X134102353Y-96315304D01*
X134099500Y-96345724D01*
X134099500Y-97554275D01*
X134102353Y-97584695D01*
X134147207Y-97712883D01*
X134227848Y-97822148D01*
X134227851Y-97822151D01*
X134337116Y-97902792D01*
X134337117Y-97902792D01*
X134337118Y-97902793D01*
X134465301Y-97947646D01*
X134495734Y-97950500D01*
X134495741Y-97950500D01*
X135504259Y-97950500D01*
X135504266Y-97950500D01*
X135534699Y-97947646D01*
X135662882Y-97902793D01*
X135772150Y-97822150D01*
X135852793Y-97712882D01*
X135897646Y-97584699D01*
X135900500Y-97554266D01*
X135900500Y-96622837D01*
X135920462Y-96548337D01*
X135975000Y-96493799D01*
X136031810Y-96474891D01*
X136051305Y-96472561D01*
X136176999Y-96418736D01*
X136282437Y-96331680D01*
X136316024Y-96285682D01*
X136585524Y-95818893D01*
X139267403Y-95818893D01*
X139569490Y-95993304D01*
X139650410Y-96027905D01*
X139798251Y-96049943D01*
X139946555Y-96031277D01*
X139946557Y-96031277D01*
X140084323Y-95973291D01*
X140201335Y-95880288D01*
X140201340Y-95880283D01*
X140254112Y-95809862D01*
X140322274Y-95691802D01*
X139586153Y-95266803D01*
X139267403Y-95818893D01*
X136585524Y-95818893D01*
X136886507Y-95297573D01*
X136909551Y-95245486D01*
X136932225Y-95110646D01*
X136923613Y-95038620D01*
X138465425Y-95038620D01*
X138484091Y-95186924D01*
X138484091Y-95186926D01*
X138542077Y-95324692D01*
X138635081Y-95441705D01*
X138705503Y-95494480D01*
X139007595Y-95668891D01*
X139326344Y-95116802D01*
X139136151Y-95006994D01*
X139736154Y-95006994D01*
X140472274Y-95431993D01*
X140472275Y-95431993D01*
X140540435Y-95313937D01*
X140575037Y-95233018D01*
X140597074Y-95085177D01*
X140578408Y-94936873D01*
X140578408Y-94936871D01*
X140520422Y-94799105D01*
X140427418Y-94682092D01*
X140356996Y-94629317D01*
X140054903Y-94454904D01*
X139736154Y-95006994D01*
X139136151Y-95006994D01*
X138590223Y-94691803D01*
X138590222Y-94691803D01*
X138522072Y-94809844D01*
X138522064Y-94809862D01*
X138487462Y-94890779D01*
X138465425Y-95038620D01*
X136923613Y-95038620D01*
X136915992Y-94974880D01*
X136879918Y-94890639D01*
X136862168Y-94849187D01*
X136829518Y-94809644D01*
X136775110Y-94743748D01*
X136775108Y-94743747D01*
X136775107Y-94743745D01*
X136729124Y-94710169D01*
X136729102Y-94710154D01*
X136247314Y-94431994D01*
X138740224Y-94431994D01*
X139476345Y-94856993D01*
X139795095Y-94304903D01*
X139493009Y-94130493D01*
X139412089Y-94095892D01*
X139264248Y-94073854D01*
X139115944Y-94092520D01*
X139115942Y-94092520D01*
X138978176Y-94150506D01*
X138861164Y-94243509D01*
X138861159Y-94243514D01*
X138808383Y-94313940D01*
X138808381Y-94313943D01*
X138740224Y-94431994D01*
X136247314Y-94431994D01*
X135398165Y-93941739D01*
X135221388Y-93839677D01*
X135169302Y-93816634D01*
X135169300Y-93816633D01*
X135169299Y-93816633D01*
X135068622Y-93799704D01*
X135034461Y-93793960D01*
X135034460Y-93793960D01*
X134898696Y-93810192D01*
X134898694Y-93810193D01*
X134773001Y-93864017D01*
X134772999Y-93864018D01*
X134667565Y-93951071D01*
X134667563Y-93951073D01*
X134633984Y-93997059D01*
X134633969Y-93997081D01*
X134078861Y-94958560D01*
X134024323Y-95013098D01*
X133996211Y-95020630D01*
X133761359Y-95020630D01*
X133778193Y-94994708D01*
X133830354Y-94968129D01*
X133820785Y-94958560D01*
X133800823Y-94884060D01*
X133808114Y-94838022D01*
X133963064Y-94361136D01*
X133965449Y-94354361D01*
X134254231Y-93592906D01*
X134256911Y-93586321D01*
X134582159Y-92839674D01*
X134585178Y-92833177D01*
X134599719Y-92803766D01*
X134626302Y-92749997D01*
X137644318Y-92749997D01*
X137644318Y-92750002D01*
X137664954Y-92906757D01*
X137725463Y-93052840D01*
X137819240Y-93175052D01*
X137821718Y-93178282D01*
X137947159Y-93274536D01*
X138093238Y-93335044D01*
X138093241Y-93335044D01*
X138093243Y-93335045D01*
X138093240Y-93335045D01*
X138249997Y-93355682D01*
X138250000Y-93355682D01*
X138250003Y-93355682D01*
X138406757Y-93335045D01*
X138406758Y-93335044D01*
X138406762Y-93335044D01*
X138552841Y-93274536D01*
X138678282Y-93178282D01*
X138774536Y-93052841D01*
X138835044Y-92906762D01*
X138844316Y-92836328D01*
X138873830Y-92765074D01*
X138886674Y-92750427D01*
X139448293Y-92188810D01*
X139515088Y-92150246D01*
X139553652Y-92145169D01*
X139994764Y-92145169D01*
X140069264Y-92165131D01*
X140085458Y-92175951D01*
X140120469Y-92202816D01*
X140167420Y-92264004D01*
X140177487Y-92340473D01*
X140147972Y-92411730D01*
X140086782Y-92458682D01*
X140062989Y-92464985D01*
X140063154Y-92465599D01*
X140053307Y-92468237D01*
X139915424Y-92526271D01*
X139915419Y-92526274D01*
X139798298Y-92619363D01*
X139745472Y-92689855D01*
X139459110Y-93185849D01*
X139424478Y-93266837D01*
X139424477Y-93266841D01*
X139408676Y-93372850D01*
X139402420Y-93414817D01*
X139410921Y-93482354D01*
X139421103Y-93563255D01*
X139421103Y-93563257D01*
X139479143Y-93701150D01*
X139479145Y-93701153D01*
X139570929Y-93816633D01*
X139572233Y-93818273D01*
X139642725Y-93871099D01*
X140506775Y-94369959D01*
X140587770Y-94404594D01*
X140587774Y-94404594D01*
X140587776Y-94404595D01*
X140607126Y-94407479D01*
X140735746Y-94426650D01*
X140884186Y-94407967D01*
X141022080Y-94349928D01*
X141139202Y-94256838D01*
X141192028Y-94186346D01*
X141478388Y-93690356D01*
X141513023Y-93609361D01*
X141535080Y-93461385D01*
X141516397Y-93312946D01*
X141458357Y-93175052D01*
X141365267Y-93057929D01*
X141294775Y-93005103D01*
X141183455Y-92940832D01*
X141169552Y-92932805D01*
X141115014Y-92878267D01*
X141095052Y-92803766D01*
X141115014Y-92729267D01*
X141138688Y-92698413D01*
X141461250Y-92375853D01*
X141528045Y-92337289D01*
X141566609Y-92332212D01*
X143311402Y-92332212D01*
X143385902Y-92352174D01*
X143402102Y-92362999D01*
X143458466Y-92406248D01*
X143511658Y-92428281D01*
X143517460Y-92430684D01*
X143578649Y-92477636D01*
X143608165Y-92548893D01*
X143598098Y-92625362D01*
X143565799Y-92673701D01*
X142892686Y-93346816D01*
X142892685Y-93346815D01*
X142799502Y-93439999D01*
X142799497Y-93440005D01*
X142733609Y-93554128D01*
X142733608Y-93554130D01*
X142723207Y-93592948D01*
X142699500Y-93681422D01*
X142699500Y-95250094D01*
X142679538Y-95324594D01*
X142668710Y-95340799D01*
X142625463Y-95397159D01*
X142564954Y-95543242D01*
X142544318Y-95699997D01*
X142544318Y-95700002D01*
X142564954Y-95856759D01*
X142625462Y-96002840D01*
X142625463Y-96002841D01*
X142668708Y-96059197D01*
X142698225Y-96130453D01*
X142699500Y-96149904D01*
X142699500Y-99280968D01*
X142679538Y-99355468D01*
X142655859Y-99386327D01*
X142592686Y-99449500D01*
X142592685Y-99449499D01*
X142499502Y-99542683D01*
X142499497Y-99542689D01*
X142433609Y-99656812D01*
X142399500Y-99784106D01*
X142399500Y-99784108D01*
X142399500Y-101734108D01*
X142399500Y-102434108D01*
X142399500Y-102565892D01*
X142433608Y-102693186D01*
X142433609Y-102693187D01*
X142499497Y-102807310D01*
X142499498Y-102807311D01*
X142499500Y-102807314D01*
X144899500Y-105207314D01*
X144899499Y-105207314D01*
X144948438Y-105256252D01*
X144992686Y-105300500D01*
X145106814Y-105366392D01*
X145234108Y-105400500D01*
X145365893Y-105400500D01*
X152400500Y-105400500D01*
X152475000Y-105420462D01*
X152529538Y-105475000D01*
X152549500Y-105549500D01*
X152549500Y-106730203D01*
X152538159Y-106787219D01*
X152521151Y-106828282D01*
X152514954Y-106843244D01*
X152494318Y-106999997D01*
X152494318Y-107000002D01*
X152514954Y-107156757D01*
X152575463Y-107302840D01*
X152661493Y-107414956D01*
X152671718Y-107428282D01*
X152797159Y-107524536D01*
X152943238Y-107585044D01*
X152943241Y-107585044D01*
X152943243Y-107585045D01*
X152943240Y-107585045D01*
X153099997Y-107605682D01*
X153100000Y-107605682D01*
X153100003Y-107605682D01*
X153256757Y-107585045D01*
X153256758Y-107585044D01*
X153256762Y-107585044D01*
X153402841Y-107524536D01*
X153471120Y-107472143D01*
X153542376Y-107442628D01*
X153618844Y-107452695D01*
X153680034Y-107499647D01*
X153709550Y-107570904D01*
X153699483Y-107647372D01*
X153667184Y-107695712D01*
X153257038Y-108105859D01*
X153190243Y-108144423D01*
X153151679Y-108149500D01*
X150940687Y-108149500D01*
X150850326Y-108173712D01*
X150850326Y-108173713D01*
X150838219Y-108176957D01*
X150826112Y-108180201D01*
X150723385Y-108239510D01*
X148889509Y-110073388D01*
X148889508Y-110073389D01*
X148830201Y-110176111D01*
X148830202Y-110176111D01*
X148830201Y-110176113D01*
X148830201Y-110176114D01*
X148822487Y-110204903D01*
X148799500Y-110290689D01*
X148799500Y-110443487D01*
X148779538Y-110517987D01*
X148740531Y-110562211D01*
X148617790Y-110655287D01*
X148617787Y-110655290D01*
X148527389Y-110774499D01*
X148527388Y-110774501D01*
X148472502Y-110913678D01*
X148462000Y-111001136D01*
X148462000Y-111998863D01*
X148472502Y-112086321D01*
X148527388Y-112225498D01*
X148527389Y-112225500D01*
X148617516Y-112344352D01*
X148617789Y-112344711D01*
X148737000Y-112435111D01*
X148806589Y-112462554D01*
X148876178Y-112489997D01*
X148892595Y-112491968D01*
X148963640Y-112500500D01*
X148963641Y-112500500D01*
X149536359Y-112500500D01*
X149536360Y-112500500D01*
X149623821Y-112489997D01*
X149763000Y-112435111D01*
X149882211Y-112344711D01*
X149972611Y-112225500D01*
X150027497Y-112086321D01*
X150038000Y-111998860D01*
X150038000Y-111998818D01*
X150337500Y-111998818D01*
X150347993Y-112086197D01*
X150347994Y-112086199D01*
X150402828Y-112225251D01*
X150402828Y-112225252D01*
X150493144Y-112344352D01*
X150493147Y-112344355D01*
X150612248Y-112434671D01*
X150751300Y-112489505D01*
X150751302Y-112489506D01*
X150838681Y-112499999D01*
X150838683Y-112500000D01*
X150975000Y-112500000D01*
X151275000Y-112500000D01*
X151411317Y-112500000D01*
X151411318Y-112499999D01*
X151498697Y-112489506D01*
X151498699Y-112489505D01*
X151637751Y-112434671D01*
X151637752Y-112434671D01*
X151756852Y-112344355D01*
X151756855Y-112344352D01*
X151847171Y-112225252D01*
X151847171Y-112225251D01*
X151902005Y-112086199D01*
X151902006Y-112086197D01*
X151912499Y-111998818D01*
X151912500Y-111998816D01*
X151912500Y-111650000D01*
X151275000Y-111650000D01*
X151275000Y-112500000D01*
X150975000Y-112500000D01*
X150975000Y-111650000D01*
X150337500Y-111650000D01*
X150337500Y-111998818D01*
X150038000Y-111998818D01*
X150038000Y-111001181D01*
X150337500Y-111001181D01*
X150337500Y-111350000D01*
X150975000Y-111350000D01*
X151275000Y-111350000D01*
X151912500Y-111350000D01*
X151912500Y-111001183D01*
X151912499Y-111001181D01*
X151902006Y-110913802D01*
X151902005Y-110913800D01*
X151847171Y-110774748D01*
X151847171Y-110774747D01*
X151756855Y-110655647D01*
X151756852Y-110655644D01*
X151637751Y-110565328D01*
X151498699Y-110510494D01*
X151498697Y-110510493D01*
X151411318Y-110500000D01*
X151275000Y-110500000D01*
X151275000Y-111350000D01*
X150975000Y-111350000D01*
X150975000Y-110500000D01*
X150838681Y-110500000D01*
X150751302Y-110510493D01*
X150751300Y-110510494D01*
X150612248Y-110565328D01*
X150612247Y-110565328D01*
X150493147Y-110655644D01*
X150493144Y-110655647D01*
X150402828Y-110774747D01*
X150402828Y-110774748D01*
X150347994Y-110913800D01*
X150347993Y-110913802D01*
X150337500Y-111001181D01*
X150038000Y-111001181D01*
X150038000Y-111001140D01*
X150027497Y-110913679D01*
X150015866Y-110884186D01*
X150000054Y-110844089D01*
X149972611Y-110774500D01*
X149896138Y-110673654D01*
X149882212Y-110655290D01*
X149882211Y-110655289D01*
X149868425Y-110644835D01*
X149847525Y-110628986D01*
X149800226Y-110568067D01*
X149789723Y-110491657D01*
X149818832Y-110420233D01*
X149832190Y-110404912D01*
X150035347Y-110201755D01*
X153949552Y-110201755D01*
X153971606Y-110349723D01*
X153971608Y-110349731D01*
X154006241Y-110430722D01*
X154146498Y-110673654D01*
X154505103Y-111294775D01*
X154557723Y-111364992D01*
X154557930Y-111365268D01*
X154675048Y-111458354D01*
X154675052Y-111458357D01*
X154812946Y-111516397D01*
X154961385Y-111535080D01*
X155109361Y-111513023D01*
X155190356Y-111478388D01*
X155686346Y-111192028D01*
X155756838Y-111139202D01*
X155840090Y-111034458D01*
X158793960Y-111034458D01*
X158793960Y-111034463D01*
X158816634Y-111169303D01*
X158839673Y-111221383D01*
X159042492Y-111572676D01*
X159614766Y-112563883D01*
X159710164Y-112729116D01*
X159743747Y-112775109D01*
X159743748Y-112775110D01*
X159849186Y-112862167D01*
X159974880Y-112915992D01*
X160110646Y-112932225D01*
X160245486Y-112909551D01*
X160297572Y-112886509D01*
X161273046Y-112323316D01*
X161345792Y-112303824D01*
X161346019Y-112285059D01*
X161374566Y-112230495D01*
X161418736Y-112176999D01*
X161472561Y-112051305D01*
X161488794Y-111915539D01*
X161466120Y-111780698D01*
X161443078Y-111728612D01*
X161310455Y-111498904D01*
X161290494Y-111424405D01*
X161310456Y-111349905D01*
X161364994Y-111295367D01*
X161439494Y-111275405D01*
X161467195Y-111278003D01*
X161514943Y-111287037D01*
X161572676Y-111297961D01*
X161707627Y-111282756D01*
X161832099Y-111228449D01*
X161935035Y-111139865D01*
X161952723Y-111114937D01*
X162556989Y-110068317D01*
X162569734Y-110040535D01*
X162594981Y-109907098D01*
X162579777Y-109772148D01*
X162568138Y-109745472D01*
X162525469Y-109647675D01*
X162436888Y-109544742D01*
X162436886Y-109544740D01*
X162411957Y-109527052D01*
X162411952Y-109527049D01*
X162411951Y-109527048D01*
X161538538Y-109022783D01*
X161510761Y-109010041D01*
X161510754Y-109010039D01*
X161377325Y-108984793D01*
X161377324Y-108984793D01*
X161364916Y-108986191D01*
X161242372Y-108999997D01*
X161242371Y-108999998D01*
X161117901Y-109054304D01*
X161014964Y-109142889D01*
X160997277Y-109167816D01*
X160525778Y-109984476D01*
X160471240Y-110039014D01*
X160396740Y-110058976D01*
X160338088Y-110046946D01*
X160307874Y-110034008D01*
X160307873Y-110034007D01*
X160307872Y-110034007D01*
X160172110Y-110017775D01*
X160172105Y-110017775D01*
X160037266Y-110040449D01*
X159985186Y-110063488D01*
X158997070Y-110633979D01*
X158951077Y-110667560D01*
X158951069Y-110667568D01*
X158864018Y-110772999D01*
X158864017Y-110773001D01*
X158810193Y-110898694D01*
X158793960Y-111034458D01*
X155840090Y-111034458D01*
X155849928Y-111022080D01*
X155907967Y-110884186D01*
X155926650Y-110735746D01*
X155904594Y-110587770D01*
X155869959Y-110506775D01*
X155609070Y-110054903D01*
X155954904Y-110054903D01*
X156129317Y-110356996D01*
X156182092Y-110427417D01*
X156182092Y-110427418D01*
X156299105Y-110520422D01*
X156436872Y-110578408D01*
X156585177Y-110597074D01*
X156733018Y-110575037D01*
X156813937Y-110540435D01*
X156931993Y-110472275D01*
X156931993Y-110472274D01*
X156506994Y-109736154D01*
X155954904Y-110054903D01*
X155609070Y-110054903D01*
X155429424Y-109743747D01*
X155408563Y-109707614D01*
X155388601Y-109633114D01*
X155388601Y-109630114D01*
X155408563Y-109555614D01*
X155463101Y-109501076D01*
X155537601Y-109481114D01*
X155612101Y-109501076D01*
X155666639Y-109555614D01*
X155804903Y-109795095D01*
X156166803Y-109586153D01*
X156766803Y-109586153D01*
X157191801Y-110322273D01*
X157309862Y-110254112D01*
X157380283Y-110201340D01*
X157380288Y-110201335D01*
X157473291Y-110084323D01*
X157531277Y-109946557D01*
X157531277Y-109946555D01*
X157549943Y-109798251D01*
X157527905Y-109650410D01*
X157493304Y-109569490D01*
X157318893Y-109267403D01*
X156766803Y-109586153D01*
X156166803Y-109586153D01*
X156486899Y-109401346D01*
X157168892Y-109007596D01*
X157168892Y-109007595D01*
X156994480Y-108705503D01*
X156941705Y-108635082D01*
X156941705Y-108635081D01*
X156824692Y-108542078D01*
X156812226Y-108536831D01*
X156751305Y-108489531D01*
X156722195Y-108418107D01*
X156732698Y-108341697D01*
X156779998Y-108280776D01*
X156851422Y-108251666D01*
X156870029Y-108250500D01*
X160611823Y-108250500D01*
X160686323Y-108270462D01*
X160730031Y-108308794D01*
X160821718Y-108428282D01*
X160947159Y-108524536D01*
X161093238Y-108585044D01*
X161093241Y-108585044D01*
X161093243Y-108585045D01*
X161093240Y-108585045D01*
X161249997Y-108605682D01*
X161250000Y-108605682D01*
X161250003Y-108605682D01*
X161406757Y-108585045D01*
X161406758Y-108585044D01*
X161406762Y-108585044D01*
X161552841Y-108524536D01*
X161678282Y-108428282D01*
X161774536Y-108302841D01*
X161835044Y-108156762D01*
X161836669Y-108144423D01*
X161855682Y-108000002D01*
X161855682Y-107999997D01*
X161836522Y-107854461D01*
X161846589Y-107777993D01*
X161893542Y-107716803D01*
X161964799Y-107687288D01*
X161976452Y-107686524D01*
X162137088Y-107665376D01*
X162137089Y-107665375D01*
X162137093Y-107665375D01*
X162283172Y-107604867D01*
X162408613Y-107508613D01*
X162504867Y-107383172D01*
X162565375Y-107237093D01*
X162574627Y-107166822D01*
X162586013Y-107080333D01*
X162586013Y-107080328D01*
X162565376Y-106923573D01*
X162565375Y-106923571D01*
X162565375Y-106923569D01*
X162504867Y-106777490D01*
X162408613Y-106652049D01*
X162388806Y-106636850D01*
X162283171Y-106555794D01*
X162165356Y-106506994D01*
X162137093Y-106495287D01*
X162066659Y-106486013D01*
X161995403Y-106456498D01*
X161980751Y-106443648D01*
X161780341Y-106243238D01*
X161550412Y-106013309D01*
X161550409Y-106013307D01*
X161550405Y-106013304D01*
X161447688Y-105954000D01*
X161447686Y-105953999D01*
X161433111Y-105950094D01*
X161416693Y-105945695D01*
X161416692Y-105945694D01*
X161333107Y-105923298D01*
X161150486Y-105923298D01*
X161075986Y-105903336D01*
X161021448Y-105848798D01*
X161001486Y-105774298D01*
X161021448Y-105699798D01*
X161057776Y-105657654D01*
X161170085Y-105568389D01*
X161170090Y-105568384D01*
X161222862Y-105497963D01*
X161291024Y-105379903D01*
X160554903Y-104954904D01*
X160236153Y-105506994D01*
X160475635Y-105645260D01*
X160530173Y-105699798D01*
X160550135Y-105774298D01*
X160530173Y-105848798D01*
X160475635Y-105903336D01*
X160401135Y-105923298D01*
X160398136Y-105923298D01*
X160323636Y-105903336D01*
X160243570Y-105857110D01*
X159524475Y-105441940D01*
X159524468Y-105441937D01*
X159443481Y-105407305D01*
X159443473Y-105407303D01*
X159295505Y-105385249D01*
X159295504Y-105385249D01*
X159274132Y-105387938D01*
X159147066Y-105403931D01*
X159009169Y-105461971D01*
X158892048Y-105555060D01*
X158839222Y-105625552D01*
X158552860Y-106121546D01*
X158518228Y-106202534D01*
X158518227Y-106202538D01*
X158496170Y-106350514D01*
X158513225Y-106486014D01*
X158514853Y-106498952D01*
X158514853Y-106498954D01*
X158572893Y-106636847D01*
X158572895Y-106636850D01*
X158647092Y-106730203D01*
X158665983Y-106753970D01*
X158736475Y-106806796D01*
X159194890Y-107071462D01*
X159249428Y-107126000D01*
X159269390Y-107200500D01*
X159249428Y-107275000D01*
X159194890Y-107329538D01*
X159120390Y-107349500D01*
X156040691Y-107349500D01*
X155926115Y-107380200D01*
X155920968Y-107383172D01*
X155901663Y-107394318D01*
X155901661Y-107394318D01*
X155823385Y-107439511D01*
X154577610Y-108685287D01*
X154577609Y-108685288D01*
X154518302Y-108788010D01*
X154518303Y-108788010D01*
X154518302Y-108788012D01*
X154518302Y-108788013D01*
X154515091Y-108799997D01*
X154487601Y-108902588D01*
X154487601Y-109487542D01*
X154467639Y-109562042D01*
X154413102Y-109616579D01*
X154189859Y-109745469D01*
X154189857Y-109745471D01*
X154119363Y-109798298D01*
X154026274Y-109915419D01*
X153968234Y-110053316D01*
X153949552Y-110201755D01*
X150035347Y-110201755D01*
X151142963Y-109094141D01*
X151209758Y-109055577D01*
X151248322Y-109050500D01*
X153459306Y-109050500D01*
X153459309Y-109050500D01*
X153549673Y-109026286D01*
X153573887Y-109019799D01*
X153676614Y-108960489D01*
X154660489Y-107976614D01*
X154719799Y-107873887D01*
X154732600Y-107826113D01*
X154750500Y-107759309D01*
X154750500Y-105848321D01*
X154770462Y-105773821D01*
X154794141Y-105742962D01*
X155742963Y-104794141D01*
X155809758Y-104755577D01*
X155848322Y-104750500D01*
X157859306Y-104750500D01*
X157859309Y-104750500D01*
X157948050Y-104726721D01*
X159434175Y-104726721D01*
X159452841Y-104875025D01*
X159452841Y-104875027D01*
X159510827Y-105012793D01*
X159603831Y-105129806D01*
X159674253Y-105182581D01*
X159976345Y-105356992D01*
X160295094Y-104804903D01*
X160104901Y-104695095D01*
X160704904Y-104695095D01*
X161441024Y-105120094D01*
X161441025Y-105120094D01*
X161509185Y-105002038D01*
X161543787Y-104921119D01*
X161548522Y-104889351D01*
X163067775Y-104889351D01*
X163067775Y-104889356D01*
X163084007Y-105025118D01*
X163084008Y-105025120D01*
X163137831Y-105150812D01*
X163170478Y-105190352D01*
X163214890Y-105244141D01*
X163224892Y-105256254D01*
X163270875Y-105289830D01*
X163270897Y-105289845D01*
X164026532Y-105726110D01*
X164778612Y-106160323D01*
X164830698Y-106183366D01*
X164965539Y-106206040D01*
X165101305Y-106189807D01*
X165226999Y-106135982D01*
X165332437Y-106048926D01*
X165366024Y-106002928D01*
X165921138Y-105041439D01*
X165975676Y-104986901D01*
X166003787Y-104979368D01*
X165976361Y-104925542D01*
X165975168Y-104869858D01*
X165982225Y-104827892D01*
X165965992Y-104692126D01*
X165917498Y-104578880D01*
X165912168Y-104566433D01*
X165846752Y-104487206D01*
X165825110Y-104460994D01*
X165825108Y-104460993D01*
X165825107Y-104460991D01*
X165779117Y-104427410D01*
X165624999Y-104338429D01*
X165570462Y-104283891D01*
X165550500Y-104209392D01*
X165550500Y-104147838D01*
X165570462Y-104073338D01*
X165625000Y-104018800D01*
X165650288Y-104007199D01*
X165662882Y-104002793D01*
X165772150Y-103922150D01*
X165852793Y-103812882D01*
X165897646Y-103684699D01*
X165900500Y-103654266D01*
X165900500Y-102445734D01*
X165897646Y-102415301D01*
X165852793Y-102287118D01*
X165817565Y-102239386D01*
X165772151Y-102177851D01*
X165772148Y-102177848D01*
X165662883Y-102097207D01*
X165603042Y-102076268D01*
X165534699Y-102052354D01*
X165534697Y-102052353D01*
X165534695Y-102052353D01*
X165504275Y-102049500D01*
X165504266Y-102049500D01*
X164495734Y-102049500D01*
X164495724Y-102049500D01*
X164465304Y-102052353D01*
X164337116Y-102097207D01*
X164227851Y-102177848D01*
X164227848Y-102177851D01*
X164147207Y-102287116D01*
X164102353Y-102415304D01*
X164099500Y-102445724D01*
X164099500Y-103377161D01*
X164079538Y-103451661D01*
X164025000Y-103506199D01*
X163968194Y-103525107D01*
X163948694Y-103527439D01*
X163823001Y-103581263D01*
X163822999Y-103581264D01*
X163717565Y-103668317D01*
X163717563Y-103668319D01*
X163683984Y-103714305D01*
X163683970Y-103714327D01*
X163113497Y-104702419D01*
X163113494Y-104702423D01*
X163113493Y-104702427D01*
X163102937Y-104726287D01*
X163090450Y-104754511D01*
X163090448Y-104754515D01*
X163067775Y-104889351D01*
X161548522Y-104889351D01*
X161565824Y-104773278D01*
X161547158Y-104624974D01*
X161547158Y-104624972D01*
X161489172Y-104487206D01*
X161396168Y-104370193D01*
X161325746Y-104317418D01*
X161023653Y-104143005D01*
X160704904Y-104695095D01*
X160104901Y-104695095D01*
X159558973Y-104379904D01*
X159558972Y-104379904D01*
X159490822Y-104497945D01*
X159490814Y-104497963D01*
X159456212Y-104578880D01*
X159434175Y-104726721D01*
X157948050Y-104726721D01*
X157949673Y-104726286D01*
X157973887Y-104719799D01*
X158076614Y-104660489D01*
X158942962Y-103794141D01*
X159009757Y-103755577D01*
X159048321Y-103750500D01*
X159667782Y-103750500D01*
X159742282Y-103770462D01*
X159796820Y-103825000D01*
X159816782Y-103899500D01*
X159796820Y-103974000D01*
X159787017Y-103988853D01*
X159777133Y-104002042D01*
X159777131Y-104002044D01*
X159708974Y-104120095D01*
X160445095Y-104545094D01*
X160763846Y-103993003D01*
X160749125Y-103938064D01*
X160749125Y-103860936D01*
X160787689Y-103794141D01*
X160854484Y-103755577D01*
X160893048Y-103750500D01*
X160950095Y-103750500D01*
X161024595Y-103770462D01*
X161040795Y-103781287D01*
X161097159Y-103824536D01*
X161243238Y-103885044D01*
X161243241Y-103885044D01*
X161243243Y-103885045D01*
X161243240Y-103885045D01*
X161399997Y-103905682D01*
X161400000Y-103905682D01*
X161400003Y-103905682D01*
X161556757Y-103885045D01*
X161556758Y-103885044D01*
X161556762Y-103885044D01*
X161702841Y-103824536D01*
X161828282Y-103728282D01*
X161924536Y-103602841D01*
X161985044Y-103456762D01*
X161986825Y-103443238D01*
X162005682Y-103300002D01*
X162005682Y-103299997D01*
X161985045Y-103143242D01*
X161985044Y-103143240D01*
X161985044Y-103143238D01*
X161924536Y-102997159D01*
X161828282Y-102871718D01*
X161797666Y-102848225D01*
X161702840Y-102775463D01*
X161622944Y-102742369D01*
X161556762Y-102714956D01*
X161556760Y-102714955D01*
X161556756Y-102714954D01*
X161556759Y-102714954D01*
X161400003Y-102694318D01*
X161399997Y-102694318D01*
X161243242Y-102714954D01*
X161097159Y-102775463D01*
X161056913Y-102806345D01*
X161040798Y-102818710D01*
X160969543Y-102848225D01*
X160950095Y-102849500D01*
X158740691Y-102849500D01*
X158643793Y-102875464D01*
X158640054Y-102876465D01*
X158626115Y-102880200D01*
X158523386Y-102939510D01*
X157657038Y-103805859D01*
X157590243Y-103844423D01*
X157551679Y-103849500D01*
X156936782Y-103849500D01*
X156862282Y-103829538D01*
X156807744Y-103775000D01*
X156787782Y-103700500D01*
X156799124Y-103643480D01*
X156806967Y-103624546D01*
X156835044Y-103556762D01*
X156838905Y-103527439D01*
X156855682Y-103400002D01*
X156855682Y-103399997D01*
X156835045Y-103243242D01*
X156835044Y-103243240D01*
X156835044Y-103243238D01*
X156774536Y-103097159D01*
X156678282Y-102971718D01*
X156559015Y-102880201D01*
X156552840Y-102875463D01*
X156462776Y-102838158D01*
X156406762Y-102814956D01*
X156406760Y-102814955D01*
X156406756Y-102814954D01*
X156406759Y-102814954D01*
X156250003Y-102794318D01*
X156249997Y-102794318D01*
X156093240Y-102814954D01*
X156037223Y-102838158D01*
X155980204Y-102849500D01*
X154527524Y-102849500D01*
X154412948Y-102880201D01*
X154412947Y-102880200D01*
X154387515Y-102887015D01*
X154261984Y-102959490D01*
X152865616Y-104355859D01*
X152798821Y-104394423D01*
X152760257Y-104399500D01*
X145569032Y-104399500D01*
X145494532Y-104379538D01*
X145463673Y-104355859D01*
X143444141Y-102336327D01*
X143405577Y-102269532D01*
X143400500Y-102230968D01*
X143400500Y-101743060D01*
X143975000Y-101743060D01*
X143985613Y-101831443D01*
X144041079Y-101972096D01*
X144132433Y-102092562D01*
X144132437Y-102092566D01*
X144252904Y-102183920D01*
X144252903Y-102183920D01*
X144393556Y-102239386D01*
X144481939Y-102249999D01*
X144481941Y-102250000D01*
X144850000Y-102250000D01*
X145150000Y-102250000D01*
X145518059Y-102250000D01*
X145518060Y-102249999D01*
X145606443Y-102239386D01*
X145747096Y-102183920D01*
X145867562Y-102092566D01*
X145867566Y-102092562D01*
X145958920Y-101972096D01*
X146014386Y-101831443D01*
X146024999Y-101743060D01*
X146025000Y-101743058D01*
X146025000Y-101600000D01*
X145150000Y-101600000D01*
X145150000Y-102250000D01*
X144850000Y-102250000D01*
X144850000Y-101600000D01*
X143975000Y-101600000D01*
X143975000Y-101743060D01*
X143400500Y-101743060D01*
X143400500Y-101156939D01*
X143975000Y-101156939D01*
X143975000Y-101300000D01*
X144850000Y-101300000D01*
X145150000Y-101300000D01*
X146025000Y-101300000D01*
X146025000Y-101156939D01*
X146014386Y-101068556D01*
X145958920Y-100927903D01*
X145867566Y-100807437D01*
X145867562Y-100807433D01*
X145747095Y-100716079D01*
X145747096Y-100716079D01*
X145606443Y-100660613D01*
X145518060Y-100650000D01*
X145150000Y-100650000D01*
X145150000Y-101300000D01*
X144850000Y-101300000D01*
X144850000Y-100650000D01*
X144481939Y-100650000D01*
X144393556Y-100660613D01*
X144252903Y-100716079D01*
X144132437Y-100807433D01*
X144132433Y-100807437D01*
X144041079Y-100927903D01*
X143985613Y-101068556D01*
X143975000Y-101156939D01*
X143400500Y-101156939D01*
X143400500Y-100199500D01*
X143420462Y-100125000D01*
X143475000Y-100070462D01*
X143549500Y-100050500D01*
X143950069Y-100050500D01*
X144024569Y-100070462D01*
X144068793Y-100109469D01*
X144129141Y-100189050D01*
X144132078Y-100192922D01*
X144252658Y-100284361D01*
X144393436Y-100339877D01*
X144481898Y-100350500D01*
X144481899Y-100350500D01*
X145518101Y-100350500D01*
X145518102Y-100350500D01*
X145606564Y-100339877D01*
X145747342Y-100284361D01*
X145867922Y-100192922D01*
X145959361Y-100072342D01*
X146014877Y-99931564D01*
X146025500Y-99843102D01*
X146025500Y-99256898D01*
X146014877Y-99168436D01*
X145959361Y-99027658D01*
X145867922Y-98907078D01*
X145867920Y-98907076D01*
X145820982Y-98871482D01*
X145747342Y-98815639D01*
X145747341Y-98815638D01*
X145606563Y-98760122D01*
X145518105Y-98749500D01*
X145518102Y-98749500D01*
X144481898Y-98749500D01*
X144481894Y-98749500D01*
X144393436Y-98760122D01*
X144252658Y-98815638D01*
X144252658Y-98815639D01*
X144132079Y-98907076D01*
X144132076Y-98907079D01*
X144068793Y-98990531D01*
X144007871Y-99037831D01*
X143950069Y-99049500D01*
X143849500Y-99049500D01*
X143775000Y-99029538D01*
X143720462Y-98975000D01*
X143700500Y-98900500D01*
X143700500Y-98304500D01*
X143720462Y-98230000D01*
X143775000Y-98175462D01*
X143849500Y-98155500D01*
X143867233Y-98155500D01*
X143941733Y-98175462D01*
X143955712Y-98184615D01*
X143987116Y-98207792D01*
X143987117Y-98207792D01*
X143987118Y-98207793D01*
X144115301Y-98252646D01*
X144145734Y-98255500D01*
X144145741Y-98255500D01*
X145904259Y-98255500D01*
X145904266Y-98255500D01*
X145934699Y-98252646D01*
X146062882Y-98207793D01*
X146172150Y-98127150D01*
X146252793Y-98017882D01*
X146297646Y-97889699D01*
X146300500Y-97859266D01*
X146300500Y-97450734D01*
X146297646Y-97420301D01*
X146252793Y-97292118D01*
X146172150Y-97182850D01*
X146113934Y-97139885D01*
X146065846Y-97079585D01*
X146054350Y-97003319D01*
X146082527Y-96931522D01*
X146113933Y-96900115D01*
X146172150Y-96857150D01*
X146252793Y-96747882D01*
X146297646Y-96619699D01*
X146300500Y-96589266D01*
X146300500Y-96317322D01*
X146320462Y-96242822D01*
X146375000Y-96188284D01*
X146449500Y-96168322D01*
X146524000Y-96188284D01*
X146554859Y-96211963D01*
X146805859Y-96462963D01*
X146844423Y-96529758D01*
X146849500Y-96568322D01*
X146849500Y-99950094D01*
X146829538Y-100024594D01*
X146818710Y-100040799D01*
X146775463Y-100097159D01*
X146714954Y-100243242D01*
X146694318Y-100399997D01*
X146694318Y-100400002D01*
X146714954Y-100556757D01*
X146775463Y-100702840D01*
X146826645Y-100769541D01*
X146871718Y-100828282D01*
X146997159Y-100924536D01*
X147143238Y-100985044D01*
X147143241Y-100985044D01*
X147143243Y-100985045D01*
X147143240Y-100985045D01*
X147299997Y-101005682D01*
X147300000Y-101005682D01*
X147300003Y-101005682D01*
X147331259Y-101001567D01*
X147407727Y-101011634D01*
X147468917Y-101058587D01*
X147498432Y-101129844D01*
X147498433Y-101168736D01*
X147494318Y-101199999D01*
X147494318Y-101200002D01*
X147514954Y-101356757D01*
X147575463Y-101502840D01*
X147650017Y-101600000D01*
X147671718Y-101628282D01*
X147797159Y-101724536D01*
X147943238Y-101785044D01*
X147943241Y-101785044D01*
X147943243Y-101785045D01*
X147943240Y-101785045D01*
X148099997Y-101805682D01*
X148100000Y-101805682D01*
X148100003Y-101805682D01*
X148256757Y-101785045D01*
X148256758Y-101785044D01*
X148256762Y-101785044D01*
X148402841Y-101724536D01*
X148528282Y-101628282D01*
X148624536Y-101502841D01*
X148685044Y-101356762D01*
X148694319Y-101286316D01*
X148705682Y-101200002D01*
X148705682Y-101199997D01*
X148685045Y-101043242D01*
X148685044Y-101043240D01*
X148685044Y-101043238D01*
X148624536Y-100897159D01*
X148581290Y-100840799D01*
X148551775Y-100769541D01*
X148550500Y-100750094D01*
X148550500Y-100588636D01*
X160499500Y-100588636D01*
X160499500Y-101161362D01*
X160510002Y-101248821D01*
X160564888Y-101387998D01*
X160564889Y-101388000D01*
X160655287Y-101507209D01*
X160655290Y-101507212D01*
X160662596Y-101512752D01*
X160774500Y-101597611D01*
X160844089Y-101625054D01*
X160913678Y-101652497D01*
X160930095Y-101654468D01*
X161001140Y-101663000D01*
X161001141Y-101663000D01*
X161998859Y-101663000D01*
X161998860Y-101663000D01*
X162086321Y-101652497D01*
X162225500Y-101597611D01*
X162344711Y-101507211D01*
X162435111Y-101388000D01*
X162479756Y-101274788D01*
X162513003Y-101224099D01*
X163760489Y-99976614D01*
X163819799Y-99873887D01*
X163841119Y-99794318D01*
X163850500Y-99759309D01*
X163850500Y-98076067D01*
X163870462Y-98001567D01*
X163925000Y-97947029D01*
X163999500Y-97927067D01*
X164051571Y-97936462D01*
X164072881Y-97944410D01*
X164072886Y-97944412D01*
X164129515Y-97950500D01*
X165870484Y-97950499D01*
X165927114Y-97944412D01*
X166055226Y-97896628D01*
X166164687Y-97814687D01*
X166246628Y-97705226D01*
X166294412Y-97577114D01*
X166300500Y-97520485D01*
X166300499Y-96379516D01*
X166300499Y-96379507D01*
X166300286Y-96375533D01*
X166301792Y-96375452D01*
X166308789Y-96330572D01*
X166279300Y-96282370D01*
X166246629Y-96194777D01*
X166246628Y-96194774D01*
X166164687Y-96085313D01*
X166055226Y-96003372D01*
X166028233Y-95993304D01*
X165927113Y-95955587D01*
X165870499Y-95949501D01*
X165870490Y-95949500D01*
X165870485Y-95949500D01*
X165870478Y-95949500D01*
X165629692Y-95949500D01*
X165555192Y-95929538D01*
X165500654Y-95875000D01*
X165480692Y-95800500D01*
X165500654Y-95726000D01*
X165516754Y-95703309D01*
X165519604Y-95699997D01*
X165575470Y-95635080D01*
X165629778Y-95510607D01*
X165644982Y-95375657D01*
X165619735Y-95242220D01*
X165619734Y-95242219D01*
X165619734Y-95242216D01*
X165606995Y-95214448D01*
X165606992Y-95214444D01*
X165606990Y-95214438D01*
X165002724Y-94167818D01*
X164985036Y-94142890D01*
X164882099Y-94054305D01*
X164757629Y-93999999D01*
X164757628Y-93999998D01*
X164622678Y-93984794D01*
X164622672Y-93984794D01*
X164489246Y-94010040D01*
X164489239Y-94010042D01*
X164461462Y-94022784D01*
X163588049Y-94527049D01*
X163588048Y-94527050D01*
X163563114Y-94544741D01*
X163563112Y-94544743D01*
X163474531Y-94647676D01*
X163420223Y-94772148D01*
X163405020Y-94907095D01*
X163405020Y-94907099D01*
X163414757Y-94958560D01*
X163430267Y-95040539D01*
X163443006Y-95068307D01*
X163443010Y-95068315D01*
X163443012Y-95068318D01*
X163503397Y-95172908D01*
X163523359Y-95247407D01*
X163503397Y-95321907D01*
X163448859Y-95376445D01*
X163393808Y-95395132D01*
X163243241Y-95414954D01*
X163097159Y-95475463D01*
X162971718Y-95571717D01*
X162971717Y-95571718D01*
X162875463Y-95697159D01*
X162814954Y-95843242D01*
X162794318Y-95999997D01*
X162794318Y-96000002D01*
X162814954Y-96156759D01*
X162875462Y-96302840D01*
X162875463Y-96302841D01*
X162918708Y-96359197D01*
X162948225Y-96430453D01*
X162949500Y-96449904D01*
X162949500Y-99451678D01*
X162929538Y-99526178D01*
X162905859Y-99557037D01*
X162355570Y-100107325D01*
X162288775Y-100145889D01*
X162211647Y-100145889D01*
X162195549Y-100140577D01*
X162086321Y-100097502D01*
X161998863Y-100087000D01*
X161998860Y-100087000D01*
X161001140Y-100087000D01*
X161001136Y-100087000D01*
X160913678Y-100097502D01*
X160774501Y-100152388D01*
X160774499Y-100152389D01*
X160655290Y-100242787D01*
X160655287Y-100242790D01*
X160564889Y-100361999D01*
X160564888Y-100362001D01*
X160510002Y-100501178D01*
X160499500Y-100588636D01*
X148550500Y-100588636D01*
X148550500Y-99286318D01*
X160500000Y-99286318D01*
X160510493Y-99373697D01*
X160510494Y-99373699D01*
X160565328Y-99512751D01*
X160565328Y-99512752D01*
X160655644Y-99631852D01*
X160655647Y-99631855D01*
X160774748Y-99722171D01*
X160913800Y-99777005D01*
X160913802Y-99777006D01*
X161001181Y-99787499D01*
X161001183Y-99787500D01*
X161350000Y-99787500D01*
X161650000Y-99787500D01*
X161998817Y-99787500D01*
X161998818Y-99787499D01*
X162086197Y-99777006D01*
X162086199Y-99777005D01*
X162225251Y-99722171D01*
X162225252Y-99722171D01*
X162344352Y-99631855D01*
X162344355Y-99631852D01*
X162434671Y-99512752D01*
X162434671Y-99512751D01*
X162489505Y-99373699D01*
X162489506Y-99373697D01*
X162499999Y-99286318D01*
X162500000Y-99286316D01*
X162500000Y-99150000D01*
X161650000Y-99150000D01*
X161650000Y-99787500D01*
X161350000Y-99787500D01*
X161350000Y-99150000D01*
X160500000Y-99150000D01*
X160500000Y-99286318D01*
X148550500Y-99286318D01*
X148550500Y-98713681D01*
X160500000Y-98713681D01*
X160500000Y-98850000D01*
X161350000Y-98850000D01*
X161650000Y-98850000D01*
X162500000Y-98850000D01*
X162500000Y-98713683D01*
X162499999Y-98713681D01*
X162489506Y-98626302D01*
X162489505Y-98626300D01*
X162434671Y-98487248D01*
X162434671Y-98487247D01*
X162344355Y-98368147D01*
X162344352Y-98368144D01*
X162225251Y-98277828D01*
X162086199Y-98222994D01*
X162086197Y-98222993D01*
X161998818Y-98212500D01*
X161650000Y-98212500D01*
X161650000Y-98850000D01*
X161350000Y-98850000D01*
X161350000Y-98212500D01*
X161001181Y-98212500D01*
X160913802Y-98222993D01*
X160913800Y-98222994D01*
X160774748Y-98277828D01*
X160774747Y-98277828D01*
X160655647Y-98368144D01*
X160655644Y-98368147D01*
X160565328Y-98487247D01*
X160565328Y-98487248D01*
X160510494Y-98626300D01*
X160510493Y-98626302D01*
X160500000Y-98713681D01*
X148550500Y-98713681D01*
X148550500Y-98204159D01*
X148570462Y-98129659D01*
X148625000Y-98075121D01*
X148699500Y-98055159D01*
X148774000Y-98075121D01*
X148819387Y-98115683D01*
X148827848Y-98127148D01*
X148827851Y-98127151D01*
X148937116Y-98207792D01*
X148937117Y-98207792D01*
X148937118Y-98207793D01*
X149065301Y-98252646D01*
X149095734Y-98255500D01*
X149095741Y-98255500D01*
X150854259Y-98255500D01*
X150854266Y-98255500D01*
X150884699Y-98252646D01*
X151012882Y-98207793D01*
X151122150Y-98127150D01*
X151163576Y-98071019D01*
X151223875Y-98022933D01*
X151283460Y-98010500D01*
X151548811Y-98010500D01*
X151623311Y-98030462D01*
X151646772Y-98048464D01*
X151652233Y-98052205D01*
X151652234Y-98052205D01*
X151652235Y-98052206D01*
X151755009Y-98097585D01*
X151780135Y-98100500D01*
X152969864Y-98100499D01*
X152969866Y-98100499D01*
X152982427Y-98099042D01*
X152994991Y-98097585D01*
X153097765Y-98052206D01*
X153177206Y-97972765D01*
X153222585Y-97869991D01*
X153225500Y-97844865D01*
X153225500Y-97794794D01*
X156475001Y-97794794D01*
X156477909Y-97819874D01*
X156523212Y-97922477D01*
X156602521Y-98001786D01*
X156705128Y-98047091D01*
X156730204Y-98049999D01*
X157825000Y-98049999D01*
X158125000Y-98049999D01*
X159219795Y-98049999D01*
X159244874Y-98047090D01*
X159347477Y-98001787D01*
X159347478Y-98001787D01*
X159426786Y-97922478D01*
X159472091Y-97819871D01*
X159475000Y-97794795D01*
X159475000Y-97150000D01*
X158125000Y-97150000D01*
X158125000Y-98049999D01*
X157825000Y-98049999D01*
X157825000Y-97150000D01*
X156475001Y-97150000D01*
X156475001Y-97794794D01*
X153225500Y-97794794D01*
X153225499Y-97155136D01*
X153225425Y-97154500D01*
X153222585Y-97130010D01*
X153222585Y-97130009D01*
X153210309Y-97102207D01*
X153191753Y-97060182D01*
X153179923Y-96983968D01*
X153191751Y-96939822D01*
X153222585Y-96869991D01*
X153225500Y-96844865D01*
X153225499Y-96205204D01*
X156475000Y-96205204D01*
X156475000Y-96850000D01*
X157825000Y-96850000D01*
X158125000Y-96850000D01*
X159474999Y-96850000D01*
X159474999Y-96205205D01*
X159472090Y-96180125D01*
X159426787Y-96077522D01*
X159347478Y-95998213D01*
X159244871Y-95952908D01*
X159219796Y-95950000D01*
X158125000Y-95950000D01*
X158125000Y-96850000D01*
X157825000Y-96850000D01*
X157825000Y-95950000D01*
X156730205Y-95950000D01*
X156705125Y-95952909D01*
X156602522Y-95998212D01*
X156602522Y-95998213D01*
X156523213Y-96077521D01*
X156477908Y-96180128D01*
X156475000Y-96205204D01*
X153225499Y-96205204D01*
X153225499Y-96155136D01*
X153224938Y-96150301D01*
X153222585Y-96130010D01*
X153222584Y-96130007D01*
X153187455Y-96050448D01*
X153177206Y-96027235D01*
X153097765Y-95947794D01*
X153097764Y-95947793D01*
X152994994Y-95902416D01*
X152994991Y-95902415D01*
X152994982Y-95902414D01*
X152969865Y-95899500D01*
X152969859Y-95899500D01*
X151780133Y-95899500D01*
X151755010Y-95902414D01*
X151755007Y-95902415D01*
X151652235Y-95947793D01*
X151594170Y-96005859D01*
X151527375Y-96044423D01*
X151488811Y-96049500D01*
X151298220Y-96049500D01*
X151223720Y-96029538D01*
X151178336Y-95988979D01*
X151122150Y-95912850D01*
X151063934Y-95869885D01*
X151015846Y-95809585D01*
X151004350Y-95733319D01*
X151032527Y-95661522D01*
X151063933Y-95630115D01*
X151122150Y-95587150D01*
X151202793Y-95477882D01*
X151247646Y-95349699D01*
X151250500Y-95319266D01*
X151250500Y-94910734D01*
X151247646Y-94880301D01*
X151202793Y-94752118D01*
X151196613Y-94743745D01*
X151146465Y-94675796D01*
X151122150Y-94642850D01*
X151063511Y-94599572D01*
X151015425Y-94539274D01*
X151003929Y-94463007D01*
X151032106Y-94391210D01*
X151063513Y-94359804D01*
X151121790Y-94316793D01*
X151202346Y-94207645D01*
X151247149Y-94079602D01*
X151248237Y-94068004D01*
X158708974Y-94068004D01*
X158777134Y-94186060D01*
X158829909Y-94256485D01*
X158829914Y-94256490D01*
X158946926Y-94349493D01*
X159084693Y-94407479D01*
X159232998Y-94426145D01*
X159380839Y-94404107D01*
X159461759Y-94369506D01*
X159763845Y-94195096D01*
X159763845Y-94195095D01*
X159445095Y-93643005D01*
X158708974Y-94068004D01*
X151248237Y-94068004D01*
X151249999Y-94049212D01*
X151250000Y-94049194D01*
X151250000Y-93995000D01*
X148700001Y-93995000D01*
X148700001Y-94049219D01*
X148702850Y-94079604D01*
X148747653Y-94207645D01*
X148828208Y-94316791D01*
X148886487Y-94359804D01*
X148934575Y-94420106D01*
X148946070Y-94496373D01*
X148917892Y-94568169D01*
X148886486Y-94599574D01*
X148827851Y-94642848D01*
X148827848Y-94642851D01*
X148747207Y-94752116D01*
X148702353Y-94880304D01*
X148699500Y-94910724D01*
X148699500Y-95319275D01*
X148702353Y-95349695D01*
X148702353Y-95349697D01*
X148702354Y-95349699D01*
X148711438Y-95375660D01*
X148748369Y-95481203D01*
X148754132Y-95558115D01*
X148720668Y-95627605D01*
X148656941Y-95671053D01*
X148580029Y-95676816D01*
X148510539Y-95643352D01*
X148478693Y-95604915D01*
X148460490Y-95573387D01*
X147946496Y-95059393D01*
X146527889Y-93640787D01*
X148700000Y-93640787D01*
X148700000Y-93695000D01*
X149825000Y-93695000D01*
X150125000Y-93695000D01*
X151249999Y-93695000D01*
X151249999Y-93640801D01*
X151249998Y-93640777D01*
X151247149Y-93610395D01*
X151202346Y-93482354D01*
X151186865Y-93461379D01*
X158434175Y-93461379D01*
X158456212Y-93609220D01*
X158490814Y-93690137D01*
X158490818Y-93690147D01*
X158558974Y-93808195D01*
X159295094Y-93383196D01*
X158976345Y-92831106D01*
X158674253Y-93005519D01*
X158603832Y-93058294D01*
X158603831Y-93058294D01*
X158510827Y-93175307D01*
X158452841Y-93313073D01*
X158452841Y-93313075D01*
X158434175Y-93461379D01*
X151186865Y-93461379D01*
X151121791Y-93373208D01*
X151012645Y-93292653D01*
X150884602Y-93247850D01*
X150854212Y-93245000D01*
X150125000Y-93245000D01*
X150125000Y-93695000D01*
X149825000Y-93695000D01*
X149825000Y-93245000D01*
X149095801Y-93245000D01*
X149095780Y-93245001D01*
X149065395Y-93247850D01*
X148937354Y-93292653D01*
X148828208Y-93373208D01*
X148747653Y-93482354D01*
X148702850Y-93610397D01*
X148700000Y-93640787D01*
X146527889Y-93640787D01*
X146371613Y-93484511D01*
X146371610Y-93484509D01*
X146371606Y-93484506D01*
X146268888Y-93425201D01*
X146246816Y-93419287D01*
X146180024Y-93380724D01*
X146172148Y-93372848D01*
X146062883Y-93292207D01*
X145990378Y-93266837D01*
X145934699Y-93247354D01*
X145934697Y-93247353D01*
X145934695Y-93247353D01*
X145904275Y-93244500D01*
X145904266Y-93244500D01*
X144770348Y-93244500D01*
X144695848Y-93224538D01*
X144641310Y-93170000D01*
X144621348Y-93095500D01*
X144641310Y-93021000D01*
X144664989Y-92990141D01*
X144974025Y-92681105D01*
X159236153Y-92681105D01*
X159629904Y-93363101D01*
X160023653Y-94045094D01*
X160202672Y-93941739D01*
X160277172Y-93921777D01*
X160351672Y-93941739D01*
X160406210Y-93996277D01*
X160426172Y-94070777D01*
X160426172Y-94072508D01*
X160406210Y-94147008D01*
X160351672Y-94201546D01*
X159662269Y-94599575D01*
X159611475Y-94628901D01*
X159569208Y-94660575D01*
X159540981Y-94681728D01*
X159447895Y-94798846D01*
X159447893Y-94798849D01*
X159389853Y-94936742D01*
X159389853Y-94936744D01*
X159371170Y-95085183D01*
X159390436Y-95214438D01*
X159393227Y-95233158D01*
X159393228Y-95233162D01*
X159425176Y-95307874D01*
X159427862Y-95314154D01*
X159714222Y-95810144D01*
X159767048Y-95880636D01*
X159851543Y-95947794D01*
X159884169Y-95973725D01*
X159884170Y-95973726D01*
X160022064Y-96031765D01*
X160170504Y-96050448D01*
X160318480Y-96028392D01*
X160399475Y-95993757D01*
X161263525Y-95494897D01*
X161334017Y-95442071D01*
X161427107Y-95324948D01*
X161485147Y-95187054D01*
X161503830Y-95038615D01*
X161481773Y-94890639D01*
X161447138Y-94809644D01*
X161409091Y-94743745D01*
X161347134Y-94636430D01*
X161327172Y-94561931D01*
X161327172Y-93390736D01*
X161347134Y-93316236D01*
X161357964Y-93300029D01*
X161383434Y-93266837D01*
X161401208Y-93243673D01*
X161401209Y-93243672D01*
X161461717Y-93097591D01*
X161482354Y-92940834D01*
X161482354Y-92940829D01*
X161461717Y-92784074D01*
X161461716Y-92784072D01*
X161461716Y-92784070D01*
X161401208Y-92637991D01*
X161304954Y-92512550D01*
X161270775Y-92486323D01*
X161179512Y-92416295D01*
X161081875Y-92375853D01*
X161033434Y-92355788D01*
X161033432Y-92355787D01*
X161033428Y-92355786D01*
X161033431Y-92355786D01*
X160876675Y-92335150D01*
X160876669Y-92335150D01*
X160719914Y-92355786D01*
X160573831Y-92416295D01*
X160448390Y-92512549D01*
X160448387Y-92512552D01*
X160384147Y-92596271D01*
X160322957Y-92643223D01*
X160246488Y-92653290D01*
X160175232Y-92623774D01*
X160173228Y-92622209D01*
X160053073Y-92526708D01*
X159915306Y-92468722D01*
X159767001Y-92450056D01*
X159619160Y-92472094D01*
X159538240Y-92506695D01*
X159236153Y-92681105D01*
X144974025Y-92681105D01*
X146110989Y-91544141D01*
X146177784Y-91505577D01*
X146216348Y-91500500D01*
X150480968Y-91500500D01*
X150555468Y-91520462D01*
X150586327Y-91544141D01*
X151124283Y-92082097D01*
X151162846Y-92148889D01*
X151164955Y-92156760D01*
X151225463Y-92302840D01*
X151266092Y-92355788D01*
X151321718Y-92428282D01*
X151447159Y-92524536D01*
X151593238Y-92585044D01*
X151593241Y-92585044D01*
X151593243Y-92585045D01*
X151593240Y-92585045D01*
X151749997Y-92605682D01*
X151750000Y-92605682D01*
X151750003Y-92605682D01*
X151906757Y-92585045D01*
X151906758Y-92585044D01*
X151906762Y-92585044D01*
X152052841Y-92524536D01*
X152178282Y-92428282D01*
X152274536Y-92302841D01*
X152297737Y-92246826D01*
X152330032Y-92198491D01*
X153640510Y-90888014D01*
X153712984Y-90762485D01*
X153720149Y-90735744D01*
X155573350Y-90735744D01*
X155573350Y-90735746D01*
X155576716Y-90762486D01*
X155592032Y-90884183D01*
X155592032Y-90884185D01*
X155592033Y-90884186D01*
X155642010Y-91002925D01*
X155650072Y-91022080D01*
X155703250Y-91088987D01*
X155743162Y-91139202D01*
X155813654Y-91192028D01*
X156309644Y-91478388D01*
X156390639Y-91513023D01*
X156538615Y-91535080D01*
X156687054Y-91516397D01*
X156824948Y-91458357D01*
X156942071Y-91365267D01*
X156994897Y-91294775D01*
X157493757Y-90430725D01*
X157528392Y-90349730D01*
X157550448Y-90201754D01*
X157531765Y-90053314D01*
X157473726Y-89915420D01*
X157442696Y-89876379D01*
X157380638Y-89798300D01*
X157380636Y-89798299D01*
X157380636Y-89798298D01*
X157310144Y-89745472D01*
X157262500Y-89684823D01*
X157250500Y-89626239D01*
X157250500Y-88937404D01*
X157270462Y-88862904D01*
X157281292Y-88846697D01*
X157324536Y-88790341D01*
X157324537Y-88790340D01*
X157385045Y-88644259D01*
X157387887Y-88622672D01*
X158984794Y-88622672D01*
X158984794Y-88622678D01*
X158999998Y-88757628D01*
X158999999Y-88757629D01*
X159054305Y-88882099D01*
X159054306Y-88882100D01*
X159142890Y-88985036D01*
X159167818Y-89002724D01*
X159956075Y-89457824D01*
X159984474Y-89474220D01*
X160039012Y-89528758D01*
X160058974Y-89603258D01*
X160046945Y-89661908D01*
X160034008Y-89692120D01*
X160034006Y-89692126D01*
X160017774Y-89827888D01*
X160017774Y-89827893D01*
X160040448Y-89962732D01*
X160063487Y-90014812D01*
X160186486Y-90227852D01*
X160633976Y-91002925D01*
X160667562Y-91048925D01*
X160667567Y-91048929D01*
X160772998Y-91135980D01*
X160773000Y-91135981D01*
X160898694Y-91189806D01*
X161034460Y-91206039D01*
X161169301Y-91183365D01*
X161221387Y-91160323D01*
X162729110Y-90289838D01*
X162775109Y-90256251D01*
X162862166Y-90150813D01*
X162915991Y-90025119D01*
X162932224Y-89889353D01*
X162909550Y-89754513D01*
X162901428Y-89736154D01*
X162886510Y-89702431D01*
X162880560Y-89692126D01*
X162325084Y-88730016D01*
X162305123Y-88655517D01*
X162311052Y-88633386D01*
X162255449Y-88631370D01*
X162204338Y-88603836D01*
X162176999Y-88581263D01*
X162176997Y-88581262D01*
X162051304Y-88527438D01*
X162051302Y-88527437D01*
X161915540Y-88511205D01*
X161915535Y-88511205D01*
X161780695Y-88533879D01*
X161728610Y-88556920D01*
X161498905Y-88689540D01*
X161424405Y-88709502D01*
X161349905Y-88689539D01*
X161295368Y-88635001D01*
X161275406Y-88560501D01*
X161278003Y-88532806D01*
X161297962Y-88427325D01*
X161282757Y-88292374D01*
X161228450Y-88167902D01*
X161139866Y-88064966D01*
X161131765Y-88059218D01*
X161114938Y-88047278D01*
X161035018Y-88001136D01*
X160068318Y-87443012D01*
X160068315Y-87443010D01*
X160068307Y-87443006D01*
X160040539Y-87430267D01*
X159973817Y-87417643D01*
X159907099Y-87405020D01*
X159907097Y-87405020D01*
X159907096Y-87405020D01*
X159772148Y-87420223D01*
X159647676Y-87474531D01*
X159544743Y-87563112D01*
X159544741Y-87563114D01*
X159527050Y-87588048D01*
X159527049Y-87588049D01*
X159022784Y-88461462D01*
X159010042Y-88489239D01*
X159010040Y-88489246D01*
X158984794Y-88622672D01*
X157387887Y-88622672D01*
X157405682Y-88487502D01*
X157405682Y-88487497D01*
X157385045Y-88330742D01*
X157385044Y-88330740D01*
X157385044Y-88330738D01*
X157324536Y-88184659D01*
X157228282Y-88059218D01*
X157215618Y-88049500D01*
X157102840Y-87962963D01*
X156994933Y-87918267D01*
X156956762Y-87902456D01*
X156956760Y-87902455D01*
X156956756Y-87902454D01*
X156956759Y-87902454D01*
X156800003Y-87881818D01*
X156799997Y-87881818D01*
X156643242Y-87902454D01*
X156497159Y-87962963D01*
X156371718Y-88059217D01*
X156371717Y-88059218D01*
X156275463Y-88184659D01*
X156214954Y-88330742D01*
X156194318Y-88487497D01*
X156194318Y-88487502D01*
X156214954Y-88644259D01*
X156275462Y-88790340D01*
X156275463Y-88790341D01*
X156318708Y-88846697D01*
X156348225Y-88917953D01*
X156349500Y-88937404D01*
X156349500Y-89366981D01*
X156329538Y-89441481D01*
X156293210Y-89483625D01*
X156181728Y-89572231D01*
X156181727Y-89572233D01*
X156128901Y-89642725D01*
X156128898Y-89642729D01*
X156128898Y-89642730D01*
X155630039Y-90506777D01*
X155595406Y-90587768D01*
X155595404Y-90587776D01*
X155573350Y-90735744D01*
X153720149Y-90735744D01*
X153734778Y-90681149D01*
X153750500Y-90622475D01*
X153750500Y-90472274D01*
X154568005Y-90472274D01*
X154686066Y-90540436D01*
X154766981Y-90575037D01*
X154914822Y-90597074D01*
X155063126Y-90578408D01*
X155063128Y-90578408D01*
X155200894Y-90520422D01*
X155317907Y-90427418D01*
X155317907Y-90427417D01*
X155370682Y-90356996D01*
X155545094Y-90054903D01*
X154993004Y-89736154D01*
X154568005Y-90472274D01*
X153750500Y-90472274D01*
X153750500Y-90161927D01*
X153770462Y-90087427D01*
X153825000Y-90032889D01*
X153899500Y-90012927D01*
X153974000Y-90032889D01*
X154019026Y-90077409D01*
X154020367Y-90076344D01*
X154119711Y-90201335D01*
X154119716Y-90201340D01*
X154190141Y-90254115D01*
X154308196Y-90322274D01*
X154733195Y-89586153D01*
X154543002Y-89476345D01*
X155143005Y-89476345D01*
X155695095Y-89795095D01*
X155695096Y-89795095D01*
X155869506Y-89493009D01*
X155904107Y-89412089D01*
X155926145Y-89264248D01*
X155907479Y-89115944D01*
X155907479Y-89115942D01*
X155849493Y-88978176D01*
X155756490Y-88861164D01*
X155756485Y-88861159D01*
X155686060Y-88808384D01*
X155568004Y-88740224D01*
X155143005Y-89476345D01*
X154543002Y-89476345D01*
X154181105Y-89267403D01*
X154028538Y-89531658D01*
X153974000Y-89586196D01*
X153899500Y-89606158D01*
X153825000Y-89586196D01*
X153770462Y-89531658D01*
X153750500Y-89457158D01*
X153750500Y-89189743D01*
X153770462Y-89115243D01*
X153794141Y-89084384D01*
X153960572Y-88917953D01*
X154159440Y-88719084D01*
X154226233Y-88680522D01*
X154303361Y-88680522D01*
X154370156Y-88719086D01*
X154408720Y-88785881D01*
X154408720Y-88863009D01*
X154393835Y-88898945D01*
X154331106Y-89007595D01*
X154883196Y-89326344D01*
X155308195Y-88590224D01*
X155190147Y-88522068D01*
X155190137Y-88522064D01*
X155109220Y-88487462D01*
X154961379Y-88465425D01*
X154813075Y-88484091D01*
X154813074Y-88484091D01*
X154790987Y-88493388D01*
X154714578Y-88503889D01*
X154643154Y-88474779D01*
X154595854Y-88413857D01*
X154585353Y-88337448D01*
X154614463Y-88266024D01*
X154627820Y-88250704D01*
X155034384Y-87844141D01*
X155101179Y-87805577D01*
X155139743Y-87800500D01*
X156072475Y-87800500D01*
X156212485Y-87762984D01*
X156338015Y-87690510D01*
X157166946Y-86861577D01*
X157233739Y-86823015D01*
X157310867Y-86823015D01*
X157329311Y-86829275D01*
X157343238Y-86835044D01*
X157343243Y-86835044D01*
X157343244Y-86835045D01*
X157499997Y-86855682D01*
X157500000Y-86855682D01*
X157500003Y-86855682D01*
X157656757Y-86835045D01*
X157656758Y-86835044D01*
X157656762Y-86835044D01*
X157802841Y-86774536D01*
X157928282Y-86678282D01*
X158024536Y-86552841D01*
X158085044Y-86406762D01*
X158096537Y-86319469D01*
X158105682Y-86250002D01*
X158105682Y-86249997D01*
X158085045Y-86093242D01*
X158085044Y-86093240D01*
X158085044Y-86093238D01*
X158024536Y-85947159D01*
X157928282Y-85821718D01*
X157802841Y-85725464D01*
X157802840Y-85725463D01*
X157692847Y-85679903D01*
X157656762Y-85664956D01*
X157656760Y-85664955D01*
X157656756Y-85664954D01*
X157656759Y-85664954D01*
X157500003Y-85644318D01*
X157499997Y-85644318D01*
X157343240Y-85664954D01*
X157287223Y-85688158D01*
X157230204Y-85699500D01*
X156927525Y-85699500D01*
X156830627Y-85725464D01*
X156809071Y-85731240D01*
X156787514Y-85737016D01*
X156661985Y-85809490D01*
X155815616Y-86655859D01*
X155748821Y-86694423D01*
X155710257Y-86699500D01*
X155535564Y-86699500D01*
X155461064Y-86679538D01*
X155406526Y-86625000D01*
X155386564Y-86550500D01*
X155406526Y-86476000D01*
X155627995Y-86092402D01*
X154913525Y-85679903D01*
X154338525Y-86675831D01*
X154365064Y-86691154D01*
X154419602Y-86745692D01*
X154439564Y-86820192D01*
X154419602Y-86894692D01*
X154395923Y-86925551D01*
X153087996Y-88233477D01*
X153021201Y-88272041D01*
X152944073Y-88272041D01*
X152877278Y-88233477D01*
X152864427Y-88218823D01*
X152828282Y-88171718D01*
X152828281Y-88171717D01*
X152702840Y-88075463D01*
X152612776Y-88038158D01*
X152556762Y-88014956D01*
X152556760Y-88014955D01*
X152556756Y-88014954D01*
X152556759Y-88014954D01*
X152400003Y-87994318D01*
X152399997Y-87994318D01*
X152243240Y-88014954D01*
X152187223Y-88038158D01*
X152130204Y-88049500D01*
X151863485Y-88049500D01*
X151788985Y-88029538D01*
X151734447Y-87975000D01*
X151715548Y-87918267D01*
X151715522Y-87918053D01*
X151714997Y-87913679D01*
X151660111Y-87774500D01*
X151585934Y-87676682D01*
X151569712Y-87655290D01*
X151569709Y-87655287D01*
X151450500Y-87564889D01*
X151450498Y-87564888D01*
X151311321Y-87510002D01*
X151223863Y-87499500D01*
X151223860Y-87499500D01*
X150651140Y-87499500D01*
X150651136Y-87499500D01*
X150563678Y-87510002D01*
X150424501Y-87564888D01*
X150424499Y-87564889D01*
X150305290Y-87655287D01*
X150305287Y-87655290D01*
X150214889Y-87774499D01*
X150214888Y-87774501D01*
X150160002Y-87913678D01*
X150149500Y-88001136D01*
X150149500Y-88998863D01*
X150160002Y-89086321D01*
X150214888Y-89225498D01*
X150214889Y-89225500D01*
X150305287Y-89344709D01*
X150305290Y-89344712D01*
X150364894Y-89389911D01*
X150424500Y-89435111D01*
X150482095Y-89457824D01*
X150563678Y-89489997D01*
X150580095Y-89491968D01*
X150651140Y-89500500D01*
X150651141Y-89500500D01*
X151223859Y-89500500D01*
X151223860Y-89500500D01*
X151311321Y-89489997D01*
X151450500Y-89435111D01*
X151569711Y-89344711D01*
X151660111Y-89225500D01*
X151703316Y-89115942D01*
X151718502Y-89077434D01*
X151720433Y-89078195D01*
X151751862Y-89021923D01*
X151818100Y-88982410D01*
X151895220Y-88981311D01*
X151962558Y-89018919D01*
X151964775Y-89021412D01*
X151964812Y-89021376D01*
X151971718Y-89028282D01*
X152097159Y-89124536D01*
X152243238Y-89185044D01*
X152243241Y-89185044D01*
X152243243Y-89185045D01*
X152243240Y-89185045D01*
X152399997Y-89205682D01*
X152400000Y-89205682D01*
X152400001Y-89205682D01*
X152417174Y-89203420D01*
X152481052Y-89195011D01*
X152557519Y-89205078D01*
X152618709Y-89252030D01*
X152648225Y-89323287D01*
X152649500Y-89342736D01*
X152649500Y-90260256D01*
X152629538Y-90334756D01*
X152605859Y-90365615D01*
X151820002Y-91151471D01*
X151753207Y-91190035D01*
X151676079Y-91190035D01*
X151609286Y-91151472D01*
X151057314Y-90599500D01*
X151057311Y-90599498D01*
X151057310Y-90599497D01*
X150984059Y-90557206D01*
X150943186Y-90533608D01*
X150815892Y-90499500D01*
X145930540Y-90499500D01*
X145856040Y-90479538D01*
X145801502Y-90425000D01*
X145781540Y-90350500D01*
X145801502Y-90276000D01*
X145841184Y-90231266D01*
X145880636Y-90201702D01*
X145921085Y-90150811D01*
X145980068Y-90076602D01*
X145981665Y-90077872D01*
X146027381Y-90033170D01*
X146102100Y-90014043D01*
X146157448Y-90025375D01*
X146217409Y-90050212D01*
X146217412Y-90050212D01*
X146217414Y-90050213D01*
X146217411Y-90050213D01*
X146374168Y-90070850D01*
X146374171Y-90070850D01*
X146374174Y-90070850D01*
X146530928Y-90050213D01*
X146530929Y-90050212D01*
X146530933Y-90050212D01*
X146677012Y-89989704D01*
X146802453Y-89893450D01*
X146898707Y-89768009D01*
X146959215Y-89621930D01*
X146961292Y-89606158D01*
X146979853Y-89465170D01*
X146979853Y-89465165D01*
X146959216Y-89308410D01*
X146959215Y-89308408D01*
X146959215Y-89308406D01*
X146898707Y-89162327D01*
X146802453Y-89036886D01*
X146762528Y-89006250D01*
X146752842Y-88998818D01*
X148275000Y-88998818D01*
X148285493Y-89086197D01*
X148285494Y-89086199D01*
X148340328Y-89225251D01*
X148340328Y-89225252D01*
X148430644Y-89344352D01*
X148430647Y-89344355D01*
X148549748Y-89434671D01*
X148688800Y-89489505D01*
X148688802Y-89489506D01*
X148776181Y-89499999D01*
X148776183Y-89500000D01*
X148912500Y-89500000D01*
X149212500Y-89500000D01*
X149348817Y-89500000D01*
X149348818Y-89499999D01*
X149436197Y-89489506D01*
X149436199Y-89489505D01*
X149575251Y-89434671D01*
X149575252Y-89434671D01*
X149694352Y-89344355D01*
X149694355Y-89344352D01*
X149784671Y-89225252D01*
X149784671Y-89225251D01*
X149839505Y-89086199D01*
X149839506Y-89086197D01*
X149849999Y-88998818D01*
X149850000Y-88998816D01*
X149850000Y-88650000D01*
X149212500Y-88650000D01*
X149212500Y-89500000D01*
X148912500Y-89500000D01*
X148912500Y-88650000D01*
X148275000Y-88650000D01*
X148275000Y-88998818D01*
X146752842Y-88998818D01*
X146677011Y-88940631D01*
X146597115Y-88907537D01*
X146530933Y-88880124D01*
X146530931Y-88880123D01*
X146530927Y-88880122D01*
X146530930Y-88880122D01*
X146374174Y-88859486D01*
X146374168Y-88859486D01*
X146217413Y-88880122D01*
X146071330Y-88940631D01*
X145945889Y-89036885D01*
X145945666Y-89037109D01*
X145945391Y-89037267D01*
X145938141Y-89042831D01*
X145937408Y-89041876D01*
X145878871Y-89075673D01*
X145840307Y-89080750D01*
X145797732Y-89080750D01*
X145723232Y-89060788D01*
X145668694Y-89006250D01*
X145494897Y-88705225D01*
X145442071Y-88634733D01*
X145442069Y-88634732D01*
X145442069Y-88634731D01*
X145324951Y-88541645D01*
X145324948Y-88541643D01*
X145187054Y-88483603D01*
X145116946Y-88474779D01*
X145038615Y-88464920D01*
X145038614Y-88464920D01*
X144890639Y-88486977D01*
X144890635Y-88486978D01*
X144809647Y-88521610D01*
X144313653Y-88807972D01*
X144243161Y-88860798D01*
X144150072Y-88977919D01*
X144092032Y-89115816D01*
X144073350Y-89264255D01*
X144095404Y-89412223D01*
X144095406Y-89412231D01*
X144130039Y-89493222D01*
X144195243Y-89606158D01*
X144628901Y-90357275D01*
X144681727Y-90427767D01*
X144681728Y-90427768D01*
X144798846Y-90520854D01*
X144798850Y-90520857D01*
X144936744Y-90578897D01*
X145085183Y-90597580D01*
X145233159Y-90575523D01*
X145275994Y-90557205D01*
X145352341Y-90546268D01*
X145423930Y-90574969D01*
X145471577Y-90635620D01*
X145482515Y-90711968D01*
X145453814Y-90783557D01*
X145439937Y-90799564D01*
X144553296Y-91686204D01*
X144486501Y-91724768D01*
X144409373Y-91724768D01*
X144342578Y-91686204D01*
X144310279Y-91637865D01*
X144285843Y-91578871D01*
X144189589Y-91453430D01*
X144189588Y-91453429D01*
X144170283Y-91438616D01*
X144123330Y-91377427D01*
X144113263Y-91300959D01*
X144142778Y-91229701D01*
X144182736Y-91194659D01*
X144182346Y-91194067D01*
X144186059Y-91191616D01*
X144256485Y-91138840D01*
X144256490Y-91138835D01*
X144349493Y-91021823D01*
X144407479Y-90884057D01*
X144407479Y-90884055D01*
X144426145Y-90735751D01*
X144404107Y-90587910D01*
X144369506Y-90506990D01*
X144195095Y-90204903D01*
X143513101Y-90598654D01*
X142831106Y-90992403D01*
X142955414Y-91207712D01*
X142975376Y-91282212D01*
X142955414Y-91356712D01*
X142900876Y-91411250D01*
X142826376Y-91431212D01*
X141258979Y-91431212D01*
X141176061Y-91453430D01*
X141176058Y-91453430D01*
X141176057Y-91453431D01*
X141138150Y-91463587D01*
X141061022Y-91463585D01*
X140994228Y-91425019D01*
X140970548Y-91394156D01*
X140969209Y-91391838D01*
X140969205Y-91391828D01*
X140872951Y-91266387D01*
X140842335Y-91242894D01*
X140747509Y-91170132D01*
X140665057Y-91135980D01*
X140601431Y-91109625D01*
X140601429Y-91109624D01*
X140601425Y-91109623D01*
X140601428Y-91109623D01*
X140444672Y-91088987D01*
X140444666Y-91088987D01*
X140287911Y-91109623D01*
X140141828Y-91170132D01*
X140110636Y-91194067D01*
X140085467Y-91213379D01*
X140014212Y-91242894D01*
X139994764Y-91244169D01*
X139246022Y-91244169D01*
X139131445Y-91274870D01*
X139131444Y-91274870D01*
X139131439Y-91274872D01*
X139121407Y-91280664D01*
X139121408Y-91280665D01*
X139028716Y-91334180D01*
X138249578Y-92113317D01*
X138182783Y-92151881D01*
X138163669Y-92155683D01*
X138093237Y-92164956D01*
X137947159Y-92225463D01*
X137821718Y-92321717D01*
X137821717Y-92321718D01*
X137725463Y-92447159D01*
X137664954Y-92593242D01*
X137644318Y-92749997D01*
X134626302Y-92749997D01*
X134946107Y-92103139D01*
X134949427Y-92096813D01*
X135345215Y-91385050D01*
X135348826Y-91378909D01*
X135778544Y-90687089D01*
X135782466Y-90681105D01*
X135822936Y-90622475D01*
X136188473Y-90092903D01*
X137405019Y-90092903D01*
X137405019Y-90092905D01*
X137420222Y-90227852D01*
X137474530Y-90352324D01*
X137474531Y-90352325D01*
X137563114Y-90455260D01*
X137588043Y-90472948D01*
X137588047Y-90472950D01*
X137588048Y-90472951D01*
X137671022Y-90520856D01*
X138461457Y-90977214D01*
X138489240Y-90989959D01*
X138622676Y-91015207D01*
X138757627Y-91000002D01*
X138882099Y-90945695D01*
X138985035Y-90857111D01*
X139002723Y-90832183D01*
X139366703Y-90201748D01*
X142450056Y-90201748D01*
X142472094Y-90349589D01*
X142506695Y-90430509D01*
X142681105Y-90732595D01*
X143233195Y-90413845D01*
X142808196Y-89677724D01*
X142690145Y-89745881D01*
X142690142Y-89745883D01*
X142619716Y-89798659D01*
X142619711Y-89798664D01*
X142526708Y-89915676D01*
X142468722Y-90053442D01*
X142468722Y-90053444D01*
X142450056Y-90201748D01*
X139366703Y-90201748D01*
X139474221Y-90015521D01*
X139528758Y-89960985D01*
X139603258Y-89941023D01*
X139661912Y-89953053D01*
X139692126Y-89965992D01*
X139827892Y-89982225D01*
X139962732Y-89959551D01*
X140014818Y-89936509D01*
X140722856Y-89527722D01*
X143068005Y-89527722D01*
X143068005Y-89527723D01*
X143493004Y-90263844D01*
X144045094Y-89945095D01*
X143870682Y-89643003D01*
X143817907Y-89572582D01*
X143817907Y-89572581D01*
X143700894Y-89479577D01*
X143563127Y-89421591D01*
X143414822Y-89402925D01*
X143266981Y-89424962D01*
X143186064Y-89459564D01*
X143186046Y-89459572D01*
X143068005Y-89527722D01*
X140722856Y-89527722D01*
X141002926Y-89366023D01*
X141048926Y-89332437D01*
X141135982Y-89226999D01*
X141189807Y-89101305D01*
X141206040Y-88965539D01*
X141183366Y-88830698D01*
X141160324Y-88778612D01*
X140711474Y-88001181D01*
X148275000Y-88001181D01*
X148275000Y-88350000D01*
X148912500Y-88350000D01*
X149212500Y-88350000D01*
X149850000Y-88350000D01*
X149850000Y-88001183D01*
X149849999Y-88001181D01*
X149839506Y-87913802D01*
X149839505Y-87913800D01*
X149784671Y-87774748D01*
X149784671Y-87774747D01*
X149694355Y-87655647D01*
X149694352Y-87655644D01*
X149575251Y-87565328D01*
X149436199Y-87510494D01*
X149436197Y-87510493D01*
X149348818Y-87500000D01*
X149212500Y-87500000D01*
X149212500Y-88350000D01*
X148912500Y-88350000D01*
X148912500Y-87500000D01*
X148776181Y-87500000D01*
X148688802Y-87510493D01*
X148688800Y-87510494D01*
X148549748Y-87565328D01*
X148549747Y-87565328D01*
X148430647Y-87655644D01*
X148430644Y-87655647D01*
X148340328Y-87774747D01*
X148340328Y-87774748D01*
X148285494Y-87913800D01*
X148285493Y-87913802D01*
X148275000Y-88001181D01*
X140711474Y-88001181D01*
X140289839Y-87270889D01*
X140256252Y-87224890D01*
X140150814Y-87137833D01*
X140025120Y-87084008D01*
X140025118Y-87084007D01*
X139889356Y-87067775D01*
X139889351Y-87067775D01*
X139754512Y-87090449D01*
X139702432Y-87113488D01*
X138726953Y-87676682D01*
X138654206Y-87696174D01*
X138653980Y-87714940D01*
X138625432Y-87769505D01*
X138581264Y-87822999D01*
X138581263Y-87823001D01*
X138527439Y-87948694D01*
X138527439Y-87948695D01*
X138511206Y-88084458D01*
X138511206Y-88084463D01*
X138533880Y-88219303D01*
X138556919Y-88271383D01*
X138689543Y-88501094D01*
X138709505Y-88575594D01*
X138689543Y-88650094D01*
X138635005Y-88704632D01*
X138560505Y-88724594D01*
X138532805Y-88721997D01*
X138466766Y-88709502D01*
X138427324Y-88702039D01*
X138427322Y-88702039D01*
X138292372Y-88717243D01*
X138292371Y-88717244D01*
X138167901Y-88771550D01*
X138064964Y-88860135D01*
X138047277Y-88885062D01*
X137443005Y-89931693D01*
X137430266Y-89959461D01*
X137405019Y-90092903D01*
X136188473Y-90092903D01*
X136245080Y-90010894D01*
X136249289Y-90005100D01*
X136743748Y-89358015D01*
X136748250Y-89352410D01*
X136754746Y-89344711D01*
X137273378Y-88729988D01*
X137278143Y-88724610D01*
X137278158Y-88724594D01*
X137832753Y-88128259D01*
X137837720Y-88123171D01*
X138406458Y-87568014D01*
X138473712Y-87530262D01*
X138507999Y-87530676D01*
X138523415Y-87473144D01*
X138553642Y-87436122D01*
X139035312Y-87009400D01*
X139040810Y-87004762D01*
X139177860Y-86894692D01*
X139675760Y-86494809D01*
X139681409Y-86490493D01*
X140340296Y-86011783D01*
X140346179Y-86007723D01*
X141027396Y-85561424D01*
X141033470Y-85557652D01*
X141340079Y-85377322D01*
X143984793Y-85377322D01*
X143984793Y-85377328D01*
X144010039Y-85510754D01*
X144010041Y-85510761D01*
X144022783Y-85538538D01*
X144527048Y-86411951D01*
X144527049Y-86411952D01*
X144527052Y-86411957D01*
X144544740Y-86436886D01*
X144544742Y-86436888D01*
X144647675Y-86525469D01*
X144772147Y-86579777D01*
X144795112Y-86582364D01*
X144907098Y-86594981D01*
X145040535Y-86569734D01*
X145040536Y-86569733D01*
X145040538Y-86569733D01*
X145068306Y-86556994D01*
X145068305Y-86556994D01*
X145068317Y-86556989D01*
X145868936Y-86094750D01*
X145943433Y-86074790D01*
X146017933Y-86094752D01*
X146062713Y-86134497D01*
X146085313Y-86164687D01*
X146194774Y-86246628D01*
X146322886Y-86294412D01*
X146379515Y-86300500D01*
X147520484Y-86300499D01*
X147577114Y-86294412D01*
X147705226Y-86246628D01*
X147814687Y-86164687D01*
X147896628Y-86055226D01*
X147944412Y-85927114D01*
X147950500Y-85870485D01*
X147950499Y-84129516D01*
X147944412Y-84072886D01*
X147896628Y-83944774D01*
X147814687Y-83835313D01*
X147705226Y-83753372D01*
X147684793Y-83745751D01*
X147577113Y-83705587D01*
X147520499Y-83699501D01*
X147520490Y-83699500D01*
X147520485Y-83699500D01*
X147520478Y-83699500D01*
X146379515Y-83699500D01*
X146345356Y-83703172D01*
X146321441Y-83699441D01*
X146295285Y-83715882D01*
X146219219Y-83744254D01*
X146194774Y-83753372D01*
X146194773Y-83753372D01*
X146194772Y-83753373D01*
X146085313Y-83835313D01*
X146003373Y-83944772D01*
X146003371Y-83944776D01*
X145955587Y-84072886D01*
X145949501Y-84129500D01*
X145949500Y-84129521D01*
X145949500Y-84370309D01*
X145929538Y-84444809D01*
X145875000Y-84499347D01*
X145800500Y-84519309D01*
X145726000Y-84499347D01*
X145703310Y-84483247D01*
X145635082Y-84424533D01*
X145635078Y-84424530D01*
X145510606Y-84370222D01*
X145375659Y-84355019D01*
X145375657Y-84355019D01*
X145375656Y-84355019D01*
X145348968Y-84360068D01*
X145242215Y-84380266D01*
X145214447Y-84393005D01*
X144167816Y-84997277D01*
X144142889Y-85014964D01*
X144054304Y-85117901D01*
X143999998Y-85242371D01*
X143999997Y-85242372D01*
X143984793Y-85377322D01*
X141340079Y-85377322D01*
X141735411Y-85144810D01*
X141741703Y-85141312D01*
X141961482Y-85025963D01*
X142462816Y-84762842D01*
X142469200Y-84759686D01*
X143207753Y-84416500D01*
X143214316Y-84413641D01*
X143968582Y-84106539D01*
X143975282Y-84103999D01*
X144427815Y-83944774D01*
X144743478Y-83833707D01*
X144750271Y-83831498D01*
X145530692Y-83598616D01*
X145537592Y-83596738D01*
X146207558Y-83431607D01*
X146246497Y-83432391D01*
X146293769Y-83410358D01*
X146328342Y-83401836D01*
X146335270Y-83400306D01*
X147134520Y-83243832D01*
X147141548Y-83242632D01*
X147947399Y-83124961D01*
X147954496Y-83124099D01*
X148765068Y-83045501D01*
X148772214Y-83044982D01*
X149585631Y-83005638D01*
X149592830Y-83005464D01*
X150407170Y-83005464D01*
X150414369Y-83005638D01*
G37*
%TD.AperFunction*%
%TD*%
M02*
