%TF.GenerationSoftware,KiCad,Pcbnew,9.0.0*%
%TF.CreationDate,2025-03-16T18:04:45+02:00*%
%TF.ProjectId,LumiTimeV2,4c756d69-5469-46d6-9556-322e6b696361,rev?*%
%TF.SameCoordinates,Original*%
%TF.FileFunction,Copper,L2,Bot*%
%TF.FilePolarity,Positive*%
%FSLAX46Y46*%
G04 Gerber Fmt 4.6, Leading zero omitted, Abs format (unit mm)*
G04 Created by KiCad (PCBNEW 9.0.0) date 2025-03-16 18:04:45*
%MOMM*%
%LPD*%
G01*
G04 APERTURE LIST*
G04 Aperture macros list*
%AMRoundRect*
0 Rectangle with rounded corners*
0 $1 Rounding radius*
0 $2 $3 $4 $5 $6 $7 $8 $9 X,Y pos of 4 corners*
0 Add a 4 corners polygon primitive as box body*
4,1,4,$2,$3,$4,$5,$6,$7,$8,$9,$2,$3,0*
0 Add four circle primitives for the rounded corners*
1,1,$1+$1,$2,$3*
1,1,$1+$1,$4,$5*
1,1,$1+$1,$6,$7*
1,1,$1+$1,$8,$9*
0 Add four rect primitives between the rounded corners*
20,1,$1+$1,$2,$3,$4,$5,0*
20,1,$1+$1,$4,$5,$6,$7,0*
20,1,$1+$1,$6,$7,$8,$9,0*
20,1,$1+$1,$8,$9,$2,$3,0*%
G04 Aperture macros list end*
%TA.AperFunction,SMDPad,CuDef*%
%ADD10RoundRect,0.250000X0.250000X0.475000X-0.250000X0.475000X-0.250000X-0.475000X0.250000X-0.475000X0*%
%TD*%
%TA.AperFunction,SMDPad,CuDef*%
%ADD11RoundRect,0.250000X0.262500X0.450000X-0.262500X0.450000X-0.262500X-0.450000X0.262500X-0.450000X0*%
%TD*%
%TA.AperFunction,SMDPad,CuDef*%
%ADD12C,0.500000*%
%TD*%
%TA.AperFunction,SMDPad,CuDef*%
%ADD13RoundRect,0.250000X0.450000X-0.262500X0.450000X0.262500X-0.450000X0.262500X-0.450000X-0.262500X0*%
%TD*%
%TA.AperFunction,SMDPad,CuDef*%
%ADD14RoundRect,0.250000X-0.262500X-0.450000X0.262500X-0.450000X0.262500X0.450000X-0.262500X0.450000X0*%
%TD*%
%TA.AperFunction,SMDPad,CuDef*%
%ADD15R,1.750000X0.600000*%
%TD*%
%TA.AperFunction,SMDPad,CuDef*%
%ADD16RoundRect,0.250000X-0.450000X0.262500X-0.450000X-0.262500X0.450000X-0.262500X0.450000X0.262500X0*%
%TD*%
%TA.AperFunction,SMDPad,CuDef*%
%ADD17R,0.550000X1.600000*%
%TD*%
%TA.AperFunction,SMDPad,CuDef*%
%ADD18R,1.600000X0.550000*%
%TD*%
%TA.AperFunction,SMDPad,CuDef*%
%ADD19RoundRect,0.250000X0.400000X0.600000X-0.400000X0.600000X-0.400000X-0.600000X0.400000X-0.600000X0*%
%TD*%
%TA.AperFunction,SMDPad,CuDef*%
%ADD20R,1.600000X2.180000*%
%TD*%
%TA.AperFunction,SMDPad,CuDef*%
%ADD21RoundRect,0.250000X-0.400000X-0.600000X0.400000X-0.600000X0.400000X0.600000X-0.400000X0.600000X0*%
%TD*%
%TA.AperFunction,ViaPad*%
%ADD22C,0.600000*%
%TD*%
%TA.AperFunction,Conductor*%
%ADD23C,0.300000*%
%TD*%
%TA.AperFunction,Conductor*%
%ADD24C,0.200000*%
%TD*%
%TA.AperFunction,Conductor*%
%ADD25C,0.500000*%
%TD*%
%TA.AperFunction,Conductor*%
%ADD26C,0.400000*%
%TD*%
G04 APERTURE END LIST*
D10*
%TO.P,C4,1*%
%TO.N,/Res*%
X142150000Y-96900000D03*
%TO.P,C4,2*%
%TO.N,GND*%
X140250000Y-96900000D03*
%TD*%
D11*
%TO.P,R10,1*%
%TO.N,/LED X*%
X146512500Y-92000000D03*
%TO.P,R10,2*%
%TO.N,Net-(D10-A)*%
X144687500Y-92000000D03*
%TD*%
%TO.P,R3,1*%
%TO.N,Net-(D3-A)*%
X161412500Y-94200000D03*
%TO.P,R3,2*%
%TO.N,/LED III*%
X159587500Y-94200000D03*
%TD*%
D12*
%TO.P,FID1,*%
%TO.N,*%
X155250000Y-93750000D03*
%TD*%
D10*
%TO.P,C2,1*%
%TO.N,+3V7*%
X151950000Y-107000000D03*
%TO.P,C2,2*%
%TO.N,GND*%
X150050000Y-107000000D03*
%TD*%
D13*
%TO.P,R1,1*%
%TO.N,/LED I*%
X156800000Y-90312500D03*
%TO.P,R1,2*%
%TO.N,Net-(D1-A)*%
X156800000Y-88487500D03*
%TD*%
D14*
%TO.P,R13,1*%
%TO.N,+3V7*%
X140287500Y-94700000D03*
%TO.P,R13,2*%
%TO.N,/Res*%
X142112500Y-94700000D03*
%TD*%
D10*
%TO.P,C3,1*%
%TO.N,+3V7*%
X150350000Y-93000000D03*
%TO.P,C3,2*%
%TO.N,GND*%
X148450000Y-93000000D03*
%TD*%
D15*
%TO.P,J1,1,Pin_1*%
%TO.N,+3V7*%
X156700000Y-104500000D03*
%TO.P,J1,2,Pin_2*%
%TO.N,/MOSI*%
X158450000Y-105500000D03*
%TO.P,J1,3,Pin_3*%
%TO.N,/MISO*%
X156700000Y-106500000D03*
%TO.P,J1,4,Pin_4*%
%TO.N,/SCK*%
X158450000Y-107500000D03*
%TO.P,J1,5,Pin_5*%
%TO.N,/Res*%
X156700000Y-108500000D03*
%TO.P,J1,6,Pin_6*%
%TO.N,GND*%
X158450000Y-109500000D03*
%TD*%
D11*
%TO.P,R9,1*%
%TO.N,/LED IX*%
X142412500Y-105000000D03*
%TO.P,R9,2*%
%TO.N,Net-(D9-A)*%
X140587500Y-105000000D03*
%TD*%
D16*
%TO.P,R8,1*%
%TO.N,/LED VIII*%
X144900000Y-107687500D03*
%TO.P,R8,2*%
%TO.N,Net-(D8-A)*%
X144900000Y-109512500D03*
%TD*%
D10*
%TO.P,C1,1*%
%TO.N,Net-(U1-AREF)*%
X151950000Y-109000000D03*
%TO.P,C1,2*%
%TO.N,GND*%
X150050000Y-109000000D03*
%TD*%
D16*
%TO.P,R11,1*%
%TO.N,/LED XI*%
X141800000Y-88187500D03*
%TO.P,R11,2*%
%TO.N,Net-(D11-A)*%
X141800000Y-90012500D03*
%TD*%
D11*
%TO.P,R5,1*%
%TO.N,Net-(D5-A)*%
X161412500Y-99200000D03*
%TO.P,R5,2*%
%TO.N,/LED V*%
X159587500Y-99200000D03*
%TD*%
D12*
%TO.P,FID2,*%
%TO.N,*%
X135000000Y-101750000D03*
%TD*%
D17*
%TO.P,U1,1,PD3*%
%TO.N,unconnected-(U1-PD3-Pad1)*%
X147200000Y-95750000D03*
%TO.P,U1,2,PD4*%
%TO.N,/LED X*%
X148000000Y-95750000D03*
%TO.P,U1,3,GND*%
%TO.N,GND*%
X148800000Y-95750000D03*
%TO.P,U1,4,VCC*%
%TO.N,+3V7*%
X149600000Y-95750000D03*
%TO.P,U1,5,GND*%
%TO.N,GND*%
X150400000Y-95750000D03*
%TO.P,U1,6,VCC*%
%TO.N,+3V7*%
X151200000Y-95750000D03*
%TO.P,U1,7,XTAL1/PB6*%
%TO.N,/LED XI*%
X152000000Y-95750000D03*
%TO.P,U1,8,XTAL2/PB7*%
%TO.N,/LED XII*%
X152800000Y-95750000D03*
D18*
%TO.P,U1,9,PD5*%
%TO.N,/LED I*%
X154250000Y-97200000D03*
%TO.P,U1,10,PD6*%
%TO.N,/LED II*%
X154250000Y-98000000D03*
%TO.P,U1,11,PD7*%
%TO.N,/LED III*%
X154250000Y-98800000D03*
%TO.P,U1,12,PB0*%
%TO.N,/LED IIII*%
X154250000Y-99600000D03*
%TO.P,U1,13,PB1*%
%TO.N,/LED V*%
X154250000Y-100400000D03*
%TO.P,U1,14,PB2*%
%TO.N,/LED VI*%
X154250000Y-101200000D03*
%TO.P,U1,15,PB3*%
%TO.N,/MOSI*%
X154250000Y-102000000D03*
%TO.P,U1,16,PB4*%
%TO.N,/MISO*%
X154250000Y-102800000D03*
D17*
%TO.P,U1,17,PB5*%
%TO.N,/SCK*%
X152800000Y-104250000D03*
%TO.P,U1,18,AVCC*%
%TO.N,+3V7*%
X152000000Y-104250000D03*
%TO.P,U1,19,ADC6*%
%TO.N,unconnected-(U1-ADC6-Pad19)*%
X151200000Y-104250000D03*
%TO.P,U1,20,AREF*%
%TO.N,Net-(U1-AREF)*%
X150400000Y-104250000D03*
%TO.P,U1,21,GND*%
%TO.N,GND*%
X149600000Y-104250000D03*
%TO.P,U1,22,ADC7*%
%TO.N,unconnected-(U1-ADC7-Pad22)*%
X148800000Y-104250000D03*
%TO.P,U1,23,PC0*%
%TO.N,/LED VII*%
X148000000Y-104250000D03*
%TO.P,U1,24,PC1*%
%TO.N,/LED VIII*%
X147200000Y-104250000D03*
D18*
%TO.P,U1,25,PC2*%
%TO.N,/LED IX*%
X145750000Y-102800000D03*
%TO.P,U1,26,PC3*%
%TO.N,/Pullup*%
X145750000Y-102000000D03*
%TO.P,U1,27,PC4*%
%TO.N,/SDA*%
X145750000Y-101200000D03*
%TO.P,U1,28,PC5*%
%TO.N,/SCL*%
X145750000Y-100400000D03*
%TO.P,U1,29,~{RESET}/PC6*%
%TO.N,/Res*%
X145750000Y-99600000D03*
%TO.P,U1,30,PD0*%
%TO.N,/RXD*%
X145750000Y-98800000D03*
%TO.P,U1,31,PD1*%
%TO.N,/TXD*%
X145750000Y-98000000D03*
%TO.P,U1,32,PD2*%
%TO.N,/But0*%
X145750000Y-97200000D03*
%TD*%
D13*
%TO.P,R12,1*%
%TO.N,/LED XII*%
X154100000Y-90325000D03*
%TO.P,R12,2*%
%TO.N,Net-(D12-A)*%
X154100000Y-88500000D03*
%TD*%
D11*
%TO.P,R14,1*%
%TO.N,/SCL*%
X142412500Y-99900000D03*
%TO.P,R14,2*%
%TO.N,/Pullup*%
X140587500Y-99900000D03*
%TD*%
%TO.P,R4,1*%
%TO.N,Net-(D4-A)*%
X161412500Y-96700000D03*
%TO.P,R4,2*%
%TO.N,/LED IIII*%
X159587500Y-96700000D03*
%TD*%
D19*
%TO.P,D13,1,K*%
%TO.N,+3V7*%
X155250000Y-85100000D03*
%TO.P,D13,2,A*%
%TO.N,Net-(D13-A)*%
X151750000Y-85100000D03*
%TD*%
D13*
%TO.P,R7,1*%
%TO.N,Net-(D7-A)*%
X147600000Y-109512500D03*
%TO.P,R7,2*%
%TO.N,/LED VII*%
X147600000Y-107687500D03*
%TD*%
D11*
%TO.P,R16,1*%
%TO.N,+3V7*%
X150112500Y-90600000D03*
%TO.P,R16,2*%
%TO.N,/But0*%
X148287500Y-90600000D03*
%TD*%
D19*
%TO.P,ZD1,1,K*%
%TO.N,Net-(D13-A)*%
X148250000Y-84900000D03*
%TO.P,ZD1,2,A*%
%TO.N,GND*%
X144750000Y-84900000D03*
%TD*%
D12*
%TO.P,FID3,*%
%TO.N,*%
X155250000Y-112500000D03*
%TD*%
D11*
%TO.P,R6,1*%
%TO.N,Net-(D6-A)*%
X161412500Y-101700000D03*
%TO.P,R6,2*%
%TO.N,/LED VI*%
X159587500Y-101700000D03*
%TD*%
%TO.P,R15,1*%
%TO.N,/SDA*%
X142412500Y-102000000D03*
%TO.P,R15,2*%
%TO.N,/Pullup*%
X140587500Y-102000000D03*
%TD*%
D20*
%TO.P,Button1,1,1*%
%TO.N,GND*%
X165000000Y-95410000D03*
%TO.P,Button1,2,2*%
%TO.N,/But0*%
X165000000Y-104590000D03*
%TD*%
D21*
%TO.P,D14,1,K*%
%TO.N,/RXD*%
X144750000Y-87300000D03*
%TO.P,D14,2,A*%
%TO.N,Net-(D13-A)*%
X148250000Y-87300000D03*
%TD*%
D11*
%TO.P,R2,1*%
%TO.N,Net-(D2-A)*%
X161412500Y-91700000D03*
%TO.P,R2,2*%
%TO.N,/LED II*%
X159587500Y-91700000D03*
%TD*%
D22*
%TO.N,GND*%
X138000000Y-102300000D03*
X138400000Y-96200000D03*
X152500000Y-99000000D03*
X151500000Y-86700000D03*
X163800000Y-92700000D03*
X148800000Y-106100000D03*
X149200000Y-102000000D03*
X153250000Y-110250000D03*
X147750000Y-92000000D03*
X143000000Y-85000000D03*
X158500000Y-108500000D03*
%TO.N,Net-(D1-A)*%
X156800000Y-88487500D03*
%TO.N,Net-(D2-A)*%
X160876672Y-92940832D03*
%TO.N,Net-(D3-A)*%
X163400000Y-96000000D03*
%TO.N,Net-(D4-A)*%
X161980331Y-107080331D03*
%TO.N,Net-(D5-A)*%
X161250000Y-108000000D03*
%TO.N,Net-(D6-A)*%
X161400000Y-103300000D03*
%TO.N,Net-(D7-A)*%
X146300000Y-108800000D03*
%TO.N,Net-(D8-A)*%
X142400000Y-106400000D03*
%TO.N,Net-(D9-A)*%
X139488685Y-103600000D03*
%TO.N,Net-(D10-A)*%
X143761307Y-91881712D03*
%TO.N,Net-(D11-A)*%
X146374171Y-89465168D03*
%TO.N,Net-(D12-A)*%
X152400000Y-88600000D03*
%TO.N,Net-(D13-A)*%
X153250000Y-84000000D03*
%TO.N,+3V7*%
X157500000Y-86250000D03*
X151750000Y-92000000D03*
X156250000Y-103400000D03*
X153100000Y-107000000D03*
X143150000Y-95700000D03*
%TO.N,/But0*%
X138250000Y-92750000D03*
X140444669Y-91694669D03*
%TO.N,/SDA*%
X148100000Y-101200000D03*
%TO.N,/SCL*%
X147300000Y-100400000D03*
%TD*%
D23*
%TO.N,GND*%
X148800000Y-95750000D02*
X148800000Y-97050000D01*
X150400000Y-97100000D02*
X150400000Y-95750000D01*
X147750000Y-92000000D02*
X148150000Y-92000000D01*
X148450000Y-92300000D02*
X148450000Y-93000000D01*
X150000000Y-97500000D02*
X150400000Y-97100000D01*
X148800000Y-97050000D02*
X149250000Y-97500000D01*
X148150000Y-92000000D02*
X148450000Y-92300000D01*
X148800000Y-95750000D02*
X148800000Y-93350000D01*
X149250000Y-97500000D02*
X150000000Y-97500000D01*
D24*
X148800000Y-93350000D02*
X148450000Y-93000000D01*
D23*
%TO.N,Net-(D2-A)*%
X160876672Y-92940832D02*
X161159168Y-92940832D01*
X161412500Y-92687500D02*
X161412500Y-91700000D01*
X161159168Y-92940832D02*
X161412500Y-92687500D01*
%TO.N,Net-(D3-A)*%
X161600000Y-94200000D02*
X163400000Y-96000000D01*
X161412500Y-94200000D02*
X161600000Y-94200000D01*
%TO.N,Net-(D4-A)*%
X162200000Y-96700000D02*
X161412500Y-96700000D01*
X162000000Y-104800000D02*
X163250000Y-103550000D01*
X161980331Y-107080331D02*
X162000000Y-107060662D01*
X162000000Y-107060662D02*
X162000000Y-104800000D01*
X163250000Y-97750000D02*
X162200000Y-96700000D01*
X163250000Y-103550000D02*
X163250000Y-97750000D01*
%TO.N,Net-(D5-A)*%
X162500000Y-99750000D02*
X161950000Y-99200000D01*
X161250000Y-104701472D02*
X162500000Y-103451472D01*
X162500000Y-103451472D02*
X162500000Y-99750000D01*
X161950000Y-99200000D02*
X161412500Y-99200000D01*
X161250000Y-108000000D02*
X161250000Y-104701472D01*
%TO.N,Net-(D6-A)*%
X161400000Y-103300000D02*
X161400000Y-101712500D01*
X161400000Y-101712500D02*
X161412500Y-101700000D01*
%TO.N,Net-(D7-A)*%
X146300000Y-109300000D02*
X146512500Y-109512500D01*
X146512500Y-109512500D02*
X147600000Y-109512500D01*
X146300000Y-108800000D02*
X146300000Y-109300000D01*
%TO.N,Net-(D8-A)*%
X142400000Y-106400000D02*
X142400000Y-108200000D01*
X142400000Y-108200000D02*
X143712500Y-109512500D01*
X143712500Y-109512500D02*
X144900000Y-109512500D01*
%TO.N,Net-(D9-A)*%
X139488685Y-104488685D02*
X140000000Y-105000000D01*
X139488685Y-103600000D02*
X139488685Y-104488685D01*
X140000000Y-105000000D02*
X140587500Y-105000000D01*
%TO.N,Net-(D10-A)*%
X144169212Y-91881712D02*
X144587500Y-92300000D01*
X143761307Y-91881712D02*
X144169212Y-91881712D01*
%TO.N,Net-(D11-A)*%
X146374171Y-89465168D02*
X143034832Y-89465168D01*
X143034832Y-89465168D02*
X142187500Y-90312500D01*
X142187500Y-90312500D02*
X141800000Y-90312500D01*
%TO.N,Net-(D12-A)*%
X154000000Y-88600000D02*
X154100000Y-88500000D01*
X152400000Y-88600000D02*
X154000000Y-88600000D01*
D25*
%TO.N,Net-(D13-A)*%
X151750000Y-84500000D02*
X151250000Y-85000000D01*
X151250000Y-85000000D02*
X148750000Y-85000000D01*
X148750000Y-85000000D02*
X148250000Y-84500000D01*
D23*
X148250000Y-87100000D02*
X148250000Y-84600000D01*
D25*
X152750000Y-84500000D02*
X151750000Y-84500000D01*
D23*
X153150000Y-84100000D02*
X153250000Y-84000000D01*
D25*
X153250000Y-84000000D02*
X152750000Y-84500000D01*
%TO.N,+3V7*%
X158600000Y-104200000D02*
X158300000Y-104500000D01*
X158300000Y-103400000D02*
X158600000Y-103700000D01*
D26*
X150112500Y-90400000D02*
X149812500Y-90700000D01*
D23*
X140287500Y-94012500D02*
X140287500Y-94700000D01*
D25*
X153100000Y-107000000D02*
X151950000Y-107000000D01*
D26*
X151750000Y-92000000D02*
X151200000Y-92550000D01*
D25*
X156250000Y-85000000D02*
X157500000Y-86250000D01*
D23*
X140750000Y-93550000D02*
X140287500Y-94012500D01*
D26*
X151200000Y-93100000D02*
X151200000Y-93300000D01*
X149600000Y-95750000D02*
X149600000Y-94750000D01*
D25*
X156250000Y-103400000D02*
X158300000Y-103400000D01*
D26*
X150356250Y-90600000D02*
X150112500Y-90600000D01*
D23*
X152000000Y-106950000D02*
X151950000Y-107000000D01*
D26*
X151750000Y-92000000D02*
X151750000Y-91993750D01*
X150100000Y-94250000D02*
X151200000Y-94250000D01*
X149600000Y-94750000D02*
X150100000Y-94250000D01*
D23*
X143150000Y-95700000D02*
X143150000Y-94028122D01*
D26*
X151200000Y-95750000D02*
X151200000Y-94250000D01*
X151200000Y-93100000D02*
X151100000Y-93000000D01*
X151200000Y-97000000D02*
X151200000Y-95750000D01*
D25*
X158600000Y-103700000D02*
X158600000Y-104200000D01*
D23*
X151950000Y-104300000D02*
X152000000Y-104250000D01*
D26*
X152000000Y-104250000D02*
X152000000Y-106950000D01*
X152000000Y-104250000D02*
X152000000Y-102412500D01*
X151750000Y-91993750D02*
X150356250Y-90600000D01*
X151200000Y-94250000D02*
X151200000Y-93300000D01*
X151100000Y-93000000D02*
X150350000Y-93000000D01*
X151200000Y-101612500D02*
X151200000Y-97000000D01*
D25*
X155250000Y-85000000D02*
X156250000Y-85000000D01*
D26*
X151200000Y-92550000D02*
X151200000Y-93100000D01*
X152000000Y-102412500D02*
X151200000Y-101612500D01*
D23*
X142671878Y-93550000D02*
X140750000Y-93550000D01*
D25*
X158300000Y-104500000D02*
X156700000Y-104500000D01*
D23*
X143150000Y-94028122D02*
X142671878Y-93550000D01*
%TO.N,/But0*%
X145000000Y-95900000D02*
X144200000Y-96700000D01*
X143000000Y-114100000D02*
X157350000Y-114100000D01*
X164010000Y-104590000D02*
X165500000Y-104590000D01*
X138250000Y-94450000D02*
X137100000Y-95600000D01*
X144400000Y-97200000D02*
X145750000Y-97200000D01*
X163600000Y-105000000D02*
X164010000Y-104590000D01*
X142500000Y-91250000D02*
X143011307Y-91761307D01*
X140444669Y-91694669D02*
X140889338Y-91250000D01*
X144200000Y-97000000D02*
X144400000Y-97200000D01*
X143011307Y-92192373D02*
X145000000Y-94181066D01*
X148187500Y-90700000D02*
X148287500Y-90600000D01*
X143050000Y-90700000D02*
X148187500Y-90700000D01*
X138250000Y-92750000D02*
X138250000Y-94450000D01*
X145000000Y-94181066D02*
X145000000Y-95900000D01*
X137100000Y-95600000D02*
X137100000Y-108200000D01*
X140889338Y-91250000D02*
X142500000Y-91250000D01*
X144200000Y-96700000D02*
X144200000Y-97000000D01*
X137100000Y-108200000D02*
X143000000Y-114100000D01*
X143011307Y-91761307D02*
X143011307Y-92192373D01*
X163600000Y-107850000D02*
X163600000Y-105000000D01*
X142500000Y-91250000D02*
X143050000Y-90700000D01*
X157350000Y-114100000D02*
X163600000Y-107850000D01*
%TO.N,Net-(U1-AREF)*%
X150400000Y-105400000D02*
X150400000Y-104250000D01*
X151000000Y-106000000D02*
X150400000Y-105400000D01*
X151000000Y-108050000D02*
X151000000Y-106000000D01*
X151950000Y-109000000D02*
X151000000Y-108050000D01*
%TO.N,/SDA*%
X143112500Y-101200000D02*
X145750000Y-101200000D01*
X142412500Y-101900000D02*
X143112500Y-101200000D01*
X148100000Y-101200000D02*
X145750000Y-101200000D01*
%TO.N,/Res*%
X139000000Y-102500000D02*
X138500000Y-103000000D01*
X142400000Y-95112500D02*
X142400000Y-96750000D01*
X138500000Y-106000000D02*
X143750000Y-111250000D01*
X139000000Y-99375000D02*
X139000000Y-102500000D01*
X142150000Y-97450000D02*
X142150000Y-96900000D01*
X142250000Y-98250000D02*
X140125000Y-98250000D01*
X142150000Y-97450000D02*
X142600000Y-97900000D01*
X154700000Y-109100000D02*
X155300000Y-108500000D01*
X142600000Y-97900000D02*
X142250000Y-98250000D01*
X143750000Y-111250000D02*
X153500000Y-111250000D01*
X153500000Y-111250000D02*
X154700000Y-110050000D01*
X145750000Y-99600000D02*
X144300000Y-99600000D01*
X138500000Y-103000000D02*
X138500000Y-106000000D01*
X154700000Y-110050000D02*
X154700000Y-109100000D01*
X144300000Y-99600000D02*
X142150000Y-97450000D01*
X155300000Y-108500000D02*
X156700000Y-108500000D01*
X140125000Y-98250000D02*
X139000000Y-99375000D01*
%TO.N,/RXD*%
X140800000Y-87100000D02*
X144750000Y-87100000D01*
X143250000Y-96660661D02*
X144000000Y-95910661D01*
X142870406Y-92900000D02*
X140450000Y-92900000D01*
X143250000Y-97550000D02*
X143250000Y-96660661D01*
X140450000Y-92900000D02*
X139350000Y-91800000D01*
X144000000Y-95910661D02*
X144000000Y-94029594D01*
X145750000Y-98800000D02*
X144500000Y-98800000D01*
X139350000Y-91800000D02*
X139350000Y-88550000D01*
X144500000Y-98800000D02*
X143250000Y-97550000D01*
X139350000Y-88550000D02*
X140800000Y-87100000D01*
X144000000Y-94029594D02*
X142870406Y-92900000D01*
%TO.N,/SCK*%
X152800000Y-105400000D02*
X152800000Y-104250000D01*
X154900000Y-107500000D02*
X152800000Y-105400000D01*
X154900000Y-107500000D02*
X158450000Y-107500000D01*
%TO.N,/MOSI*%
X157900000Y-102000000D02*
X160100000Y-104200000D01*
X160100000Y-104900000D02*
X159500000Y-105500000D01*
X154050000Y-102000000D02*
X157900000Y-102000000D01*
X160100000Y-104200000D02*
X160100000Y-104900000D01*
X159500000Y-105500000D02*
X158450000Y-105500000D01*
%TO.N,/MISO*%
X155375000Y-103125000D02*
X155050000Y-102800000D01*
X156700000Y-106500000D02*
X155800000Y-106500000D01*
X155800000Y-106500000D02*
X155375000Y-106075000D01*
X155050000Y-102800000D02*
X154250000Y-102800000D01*
X155375000Y-106075000D02*
X155375000Y-103125000D01*
%TO.N,/LED V*%
X159887500Y-99200000D02*
X157800000Y-99200000D01*
X156600000Y-100400000D02*
X154250000Y-100400000D01*
X157800000Y-99200000D02*
X156600000Y-100400000D01*
%TO.N,/LED III*%
X158400000Y-94600000D02*
X158400000Y-96300000D01*
X158800000Y-94200000D02*
X158400000Y-94600000D01*
X158400000Y-96300000D02*
X155900000Y-98800000D01*
X155900000Y-98800000D02*
X154250000Y-98800000D01*
X159887500Y-94200000D02*
X158800000Y-94200000D01*
%TO.N,/LED VIII*%
X145800000Y-105600000D02*
X144900000Y-106500000D01*
X147200000Y-104250000D02*
X147200000Y-105400000D01*
X147000000Y-105600000D02*
X145800000Y-105600000D01*
X147200000Y-105400000D02*
X147000000Y-105600000D01*
X144900000Y-106500000D02*
X144900000Y-107687500D01*
%TO.N,/LED II*%
X158200000Y-91700000D02*
X159887500Y-91700000D01*
X155700000Y-98000000D02*
X157600000Y-96100000D01*
X157600000Y-96100000D02*
X157600000Y-92300000D01*
X154250000Y-98000000D02*
X155700000Y-98000000D01*
X157600000Y-92300000D02*
X158200000Y-91700000D01*
%TO.N,/LED XI*%
X152000000Y-95750000D02*
X152000000Y-92996446D01*
X150200000Y-88700000D02*
X143300000Y-88700000D01*
X152500000Y-92496446D02*
X152500000Y-91000000D01*
X143300000Y-88700000D02*
X142987500Y-88387500D01*
X152050000Y-95750000D02*
X152075000Y-95725000D01*
X142987500Y-88387500D02*
X141300000Y-88387500D01*
X152000000Y-95750000D02*
X152050000Y-95750000D01*
X152500000Y-91000000D02*
X150200000Y-88700000D01*
X152000000Y-92996446D02*
X152500000Y-92496446D01*
%TO.N,/LED XII*%
X152800000Y-93400000D02*
X154100000Y-92100000D01*
X152800000Y-95750000D02*
X152800000Y-93400000D01*
X154100000Y-92100000D02*
X154100000Y-90325000D01*
%TO.N,/LED VI*%
X159387500Y-101200000D02*
X154250000Y-101200000D01*
X159587500Y-101700000D02*
X159087500Y-101200000D01*
%TO.N,/LED VII*%
X148000000Y-107287500D02*
X148000000Y-104250000D01*
X147600000Y-107687500D02*
X148000000Y-107287500D01*
%TO.N,/LED IIII*%
X156100000Y-99600000D02*
X158900000Y-96800000D01*
X154250000Y-99600000D02*
X156100000Y-99600000D01*
X158900000Y-96800000D02*
X159887500Y-96800000D01*
%TO.N,/LED I*%
X156800000Y-96000000D02*
X155600000Y-97200000D01*
X156800000Y-90312500D02*
X156800000Y-96000000D01*
X155600000Y-97200000D02*
X154250000Y-97200000D01*
%TO.N,/LED X*%
X148000000Y-95750000D02*
X148000000Y-94400000D01*
X146512500Y-92912500D02*
X146512500Y-92000000D01*
X148000000Y-94400000D02*
X146512500Y-92912500D01*
%TO.N,/SCL*%
X143012500Y-100400000D02*
X145750000Y-100400000D01*
X147300000Y-100400000D02*
X145750000Y-100400000D01*
X142412500Y-99800000D02*
X143012500Y-100400000D01*
%TO.N,/LED IX*%
X142412500Y-105000000D02*
X142548528Y-105000000D01*
X144748528Y-102800000D02*
X145750000Y-102800000D01*
X142548528Y-105000000D02*
X144748528Y-102800000D01*
%TO.N,/Pullup*%
X144500000Y-102000000D02*
X142900000Y-103600000D01*
X140587500Y-102887500D02*
X140587500Y-102100000D01*
X145750000Y-102000000D02*
X144500000Y-102000000D01*
X141300000Y-103600000D02*
X140587500Y-102887500D01*
X140587500Y-102100000D02*
X140587500Y-99500000D01*
X142900000Y-103600000D02*
X141300000Y-103600000D01*
%TD*%
%TA.AperFunction,Conductor*%
%TO.N,GND*%
G36*
X150396092Y-83005194D02*
G01*
X151173702Y-83041144D01*
X151180542Y-83041620D01*
X151955684Y-83113447D01*
X151962438Y-83114231D01*
X152733454Y-83221783D01*
X152740208Y-83222884D01*
X152838785Y-83241312D01*
X152908346Y-83274623D01*
X152951934Y-83338253D01*
X152957867Y-83415153D01*
X152924555Y-83484716D01*
X152885911Y-83516808D01*
X152881284Y-83519479D01*
X152769479Y-83631284D01*
X152685541Y-83776672D01*
X152683988Y-83775775D01*
X152660391Y-83811082D01*
X152565617Y-83905858D01*
X152498823Y-83944423D01*
X152460257Y-83949500D01*
X151306894Y-83949500D01*
X151218436Y-83960122D01*
X151077658Y-84015638D01*
X151077658Y-84015639D01*
X150957079Y-84107076D01*
X150957076Y-84107079D01*
X150865639Y-84227658D01*
X150865638Y-84227659D01*
X150815357Y-84355162D01*
X150769456Y-84417144D01*
X150698713Y-84447872D01*
X150676746Y-84449500D01*
X149349500Y-84449500D01*
X149275000Y-84429538D01*
X149220462Y-84375000D01*
X149200500Y-84300500D01*
X149200500Y-84256899D01*
X149200500Y-84256898D01*
X149189877Y-84168436D01*
X149134361Y-84027658D01*
X149121596Y-84010825D01*
X149042923Y-83907079D01*
X149042920Y-83907076D01*
X148935965Y-83825970D01*
X148922342Y-83815639D01*
X148922341Y-83815638D01*
X148781563Y-83760122D01*
X148693105Y-83749500D01*
X148693102Y-83749500D01*
X147806898Y-83749500D01*
X147806894Y-83749500D01*
X147718436Y-83760122D01*
X147577658Y-83815638D01*
X147577658Y-83815639D01*
X147457079Y-83907076D01*
X147457076Y-83907079D01*
X147365639Y-84027658D01*
X147365638Y-84027658D01*
X147310122Y-84168436D01*
X147299500Y-84256894D01*
X147299500Y-85543105D01*
X147310122Y-85631563D01*
X147365638Y-85772341D01*
X147457076Y-85892920D01*
X147457079Y-85892923D01*
X147573590Y-85981276D01*
X147620890Y-86042198D01*
X147631393Y-86118607D01*
X147602283Y-86190031D01*
X147573590Y-86218724D01*
X147457079Y-86307076D01*
X147457076Y-86307079D01*
X147365639Y-86427658D01*
X147365638Y-86427658D01*
X147310122Y-86568436D01*
X147299500Y-86656894D01*
X147299500Y-87943105D01*
X147310122Y-88031563D01*
X147315752Y-88045838D01*
X147324513Y-88122467D01*
X147293785Y-88193210D01*
X147231803Y-88239111D01*
X147177141Y-88249500D01*
X145822859Y-88249500D01*
X145748359Y-88229538D01*
X145693821Y-88175000D01*
X145673859Y-88100500D01*
X145684248Y-88045838D01*
X145689877Y-88031563D01*
X145693727Y-87999500D01*
X145700500Y-87943102D01*
X145700500Y-86656898D01*
X145689877Y-86568436D01*
X145634361Y-86427658D01*
X145559589Y-86329057D01*
X145542923Y-86307079D01*
X145542920Y-86307076D01*
X145425996Y-86218410D01*
X145378696Y-86157488D01*
X145368193Y-86081079D01*
X145397303Y-86009655D01*
X145425995Y-85980962D01*
X145542566Y-85892562D01*
X145633920Y-85772096D01*
X145689386Y-85631443D01*
X145699999Y-85543060D01*
X145700000Y-85543058D01*
X145700000Y-85050000D01*
X143800000Y-85050000D01*
X143800000Y-85543060D01*
X143810613Y-85631443D01*
X143866079Y-85772096D01*
X143957433Y-85892562D01*
X143957437Y-85892566D01*
X144074004Y-85980963D01*
X144121304Y-86041885D01*
X144131805Y-86118294D01*
X144102695Y-86189718D01*
X144074004Y-86218410D01*
X143957076Y-86307079D01*
X143865639Y-86427658D01*
X143865638Y-86427659D01*
X143815357Y-86555162D01*
X143769456Y-86617144D01*
X143698713Y-86647872D01*
X143676746Y-86649500D01*
X140740691Y-86649500D01*
X140664935Y-86669799D01*
X140664933Y-86669799D01*
X140626117Y-86680199D01*
X140626114Y-86680200D01*
X140523385Y-86739510D01*
X140089054Y-87173842D01*
X138989511Y-88273386D01*
X138989510Y-88273387D01*
X138989508Y-88273389D01*
X138930201Y-88376111D01*
X138930202Y-88376111D01*
X138930201Y-88376115D01*
X138899500Y-88490689D01*
X138899500Y-91859310D01*
X138910245Y-91899410D01*
X138917491Y-91926454D01*
X138920990Y-91939510D01*
X138930202Y-91973891D01*
X138989506Y-92076607D01*
X138989509Y-92076611D01*
X138989511Y-92076614D01*
X140173386Y-93260489D01*
X140173388Y-93260490D01*
X140180292Y-93267394D01*
X140179985Y-93267700D01*
X140182833Y-93269344D01*
X140197401Y-93294576D01*
X140215135Y-93317691D01*
X140216430Y-93327537D01*
X140221397Y-93336139D01*
X140221397Y-93365276D01*
X140225198Y-93394160D01*
X140221397Y-93403335D01*
X140221397Y-93413267D01*
X140206830Y-93438497D01*
X140195679Y-93465415D01*
X140182833Y-93480062D01*
X139997305Y-93665589D01*
X139930510Y-93704153D01*
X139909719Y-93708166D01*
X139893442Y-93710121D01*
X139893432Y-93710124D01*
X139752658Y-93765638D01*
X139752658Y-93765639D01*
X139632079Y-93857076D01*
X139632076Y-93857079D01*
X139540639Y-93977658D01*
X139540638Y-93977658D01*
X139485122Y-94118436D01*
X139474500Y-94206894D01*
X139474500Y-95193105D01*
X139485122Y-95281563D01*
X139540638Y-95422341D01*
X139630384Y-95540689D01*
X139632078Y-95542922D01*
X139752658Y-95634361D01*
X139777679Y-95644228D01*
X139839661Y-95690129D01*
X139870389Y-95760872D01*
X139861628Y-95837501D01*
X139815727Y-95899483D01*
X139777678Y-95921451D01*
X139727904Y-95941079D01*
X139607437Y-96032433D01*
X139607433Y-96032437D01*
X139516079Y-96152903D01*
X139460613Y-96293556D01*
X139450000Y-96381939D01*
X139450000Y-96750000D01*
X141050000Y-96750000D01*
X141050000Y-96381941D01*
X141049999Y-96381939D01*
X141039386Y-96293556D01*
X140983920Y-96152903D01*
X140892566Y-96032437D01*
X140892562Y-96032433D01*
X140772095Y-95941079D01*
X140772096Y-95941079D01*
X140759822Y-95936239D01*
X140697839Y-95890338D01*
X140667111Y-95819595D01*
X140675871Y-95742966D01*
X140721772Y-95680983D01*
X140759822Y-95659016D01*
X140772787Y-95653902D01*
X140822342Y-95634361D01*
X140942922Y-95542922D01*
X141034361Y-95422342D01*
X141061390Y-95353800D01*
X141107289Y-95291821D01*
X141178032Y-95261093D01*
X141254661Y-95269853D01*
X141316644Y-95315754D01*
X141338608Y-95353798D01*
X141365639Y-95422342D01*
X141365640Y-95422343D01*
X141457076Y-95542920D01*
X141457079Y-95542923D01*
X141479599Y-95560000D01*
X141577658Y-95634361D01*
X141639500Y-95658748D01*
X141701479Y-95704647D01*
X141732208Y-95775390D01*
X141723448Y-95852019D01*
X141677547Y-95914001D01*
X141639503Y-95935967D01*
X141627661Y-95940637D01*
X141627658Y-95940639D01*
X141507079Y-96032076D01*
X141507076Y-96032079D01*
X141415639Y-96152658D01*
X141415638Y-96152658D01*
X141360122Y-96293436D01*
X141349500Y-96381894D01*
X141349500Y-97418105D01*
X141360122Y-97506561D01*
X141360122Y-97506563D01*
X141360123Y-97506564D01*
X141390651Y-97583978D01*
X141395329Y-97595839D01*
X141398497Y-97623556D01*
X141405717Y-97650500D01*
X141402815Y-97661328D01*
X141404089Y-97672468D01*
X141392974Y-97698056D01*
X141385755Y-97725000D01*
X141377827Y-97732927D01*
X141373361Y-97743211D01*
X141350941Y-97759813D01*
X141331217Y-97779538D01*
X141320388Y-97782439D01*
X141311378Y-97789112D01*
X141256717Y-97799500D01*
X141142746Y-97799500D01*
X141068246Y-97779538D01*
X141013708Y-97725000D01*
X140993746Y-97650500D01*
X141004134Y-97595840D01*
X141039385Y-97506444D01*
X141049999Y-97418060D01*
X141050000Y-97418058D01*
X141050000Y-97050000D01*
X139450000Y-97050000D01*
X139450000Y-97418060D01*
X139460613Y-97506443D01*
X139516079Y-97647096D01*
X139607433Y-97767562D01*
X139607437Y-97767566D01*
X139677664Y-97820822D01*
X139724964Y-97881744D01*
X139735465Y-97958154D01*
X139706355Y-98029577D01*
X139692991Y-98044904D01*
X138639509Y-99098388D01*
X138639508Y-99098389D01*
X138580201Y-99201111D01*
X138580202Y-99201111D01*
X138580201Y-99201115D01*
X138549500Y-99315689D01*
X138549500Y-102251678D01*
X138529538Y-102326178D01*
X138505859Y-102357037D01*
X138139509Y-102723388D01*
X138139508Y-102723389D01*
X138080200Y-102826113D01*
X138077962Y-102834469D01*
X138049500Y-102940687D01*
X138049500Y-106059310D01*
X138056925Y-106087019D01*
X138064350Y-106114730D01*
X138069095Y-106132437D01*
X138080202Y-106173891D01*
X138139506Y-106276607D01*
X138139509Y-106276611D01*
X138139511Y-106276614D01*
X143473386Y-111610489D01*
X143473388Y-111610490D01*
X143473389Y-111610491D01*
X143576115Y-111669800D01*
X143590424Y-111673633D01*
X143600317Y-111676283D01*
X143600324Y-111676287D01*
X143600325Y-111676286D01*
X143624539Y-111682774D01*
X143690691Y-111700500D01*
X143690694Y-111700500D01*
X153559306Y-111700500D01*
X153559309Y-111700500D01*
X153649673Y-111676286D01*
X153673887Y-111669799D01*
X153776614Y-111610489D01*
X155060489Y-110326614D01*
X155119798Y-110223887D01*
X155119799Y-110223886D01*
X155150500Y-110109309D01*
X155150500Y-109844794D01*
X157275001Y-109844794D01*
X157277909Y-109869874D01*
X157323212Y-109972477D01*
X157402521Y-110051786D01*
X157505128Y-110097091D01*
X157530204Y-110099999D01*
X158300000Y-110099999D01*
X158600000Y-110099999D01*
X159369795Y-110099999D01*
X159394874Y-110097090D01*
X159497477Y-110051787D01*
X159497478Y-110051787D01*
X159576786Y-109972478D01*
X159622091Y-109869871D01*
X159625000Y-109844795D01*
X159625000Y-109650000D01*
X158600000Y-109650000D01*
X158600000Y-110099999D01*
X158300000Y-110099999D01*
X158300000Y-109650000D01*
X157275001Y-109650000D01*
X157275001Y-109844794D01*
X155150500Y-109844794D01*
X155150500Y-109348321D01*
X155170462Y-109273821D01*
X155194141Y-109242962D01*
X155413207Y-109023896D01*
X155480002Y-108985332D01*
X155557130Y-108985332D01*
X155623925Y-109023896D01*
X155652235Y-109052206D01*
X155755009Y-109097585D01*
X155780135Y-109100500D01*
X157126001Y-109100499D01*
X157200500Y-109120461D01*
X157255038Y-109174999D01*
X157275000Y-109249499D01*
X157275000Y-109350000D01*
X158300000Y-109350000D01*
X158600000Y-109350000D01*
X159624999Y-109350000D01*
X159624999Y-109155205D01*
X159622090Y-109130125D01*
X159576787Y-109027522D01*
X159497478Y-108948213D01*
X159394871Y-108902908D01*
X159369796Y-108900000D01*
X158600000Y-108900000D01*
X158600000Y-109350000D01*
X158300000Y-109350000D01*
X158300000Y-108900000D01*
X158024500Y-108900000D01*
X157950000Y-108880038D01*
X157895462Y-108825500D01*
X157875500Y-108751000D01*
X157875499Y-108249499D01*
X157895461Y-108174999D01*
X157949999Y-108120461D01*
X158024499Y-108100499D01*
X159369867Y-108100499D01*
X159384940Y-108098750D01*
X159394991Y-108097585D01*
X159497765Y-108052206D01*
X159577206Y-107972765D01*
X159622585Y-107869991D01*
X159625500Y-107844865D01*
X159625499Y-107155136D01*
X159624903Y-107150000D01*
X159622585Y-107130010D01*
X159622584Y-107130007D01*
X159579343Y-107032076D01*
X159577206Y-107027235D01*
X159497765Y-106947794D01*
X159497764Y-106947793D01*
X159394994Y-106902416D01*
X159394991Y-106902415D01*
X159369865Y-106899500D01*
X159369859Y-106899500D01*
X158024500Y-106899500D01*
X157950000Y-106879538D01*
X157895462Y-106825000D01*
X157875500Y-106750500D01*
X157875499Y-106249499D01*
X157895461Y-106174999D01*
X157949999Y-106120461D01*
X158024499Y-106100499D01*
X159369867Y-106100499D01*
X159384940Y-106098750D01*
X159394991Y-106097585D01*
X159497765Y-106052206D01*
X159577206Y-105972765D01*
X159577207Y-105972761D01*
X159585938Y-105964031D01*
X159652730Y-105925466D01*
X159673887Y-105919799D01*
X159776614Y-105860489D01*
X160460489Y-105176614D01*
X160507691Y-105094859D01*
X160521462Y-105071007D01*
X160576000Y-105016469D01*
X160650501Y-104996507D01*
X160725000Y-105016469D01*
X160779538Y-105071007D01*
X160799500Y-105145507D01*
X160799500Y-107541582D01*
X160779538Y-107616082D01*
X160770111Y-107630190D01*
X160690424Y-107768214D01*
X160649500Y-107920941D01*
X160649500Y-108079058D01*
X160654978Y-108099500D01*
X160690423Y-108231784D01*
X160769480Y-108368716D01*
X160881284Y-108480520D01*
X161018216Y-108559577D01*
X161170943Y-108600500D01*
X161329057Y-108600500D01*
X161481784Y-108559577D01*
X161618716Y-108480520D01*
X161730520Y-108368716D01*
X161809577Y-108231784D01*
X161850500Y-108079057D01*
X161850500Y-107920943D01*
X161836420Y-107868395D01*
X161836420Y-107791267D01*
X161874984Y-107724472D01*
X161941778Y-107685908D01*
X161980343Y-107680831D01*
X162059388Y-107680831D01*
X162212115Y-107639908D01*
X162349047Y-107560851D01*
X162460851Y-107449047D01*
X162539908Y-107312115D01*
X162580831Y-107159388D01*
X162580831Y-107001274D01*
X162539908Y-106848547D01*
X162539906Y-106848543D01*
X162470462Y-106728261D01*
X162450500Y-106653762D01*
X162450500Y-105048320D01*
X162470462Y-104973820D01*
X162494137Y-104942965D01*
X163610489Y-103826614D01*
X163613557Y-103821300D01*
X163621462Y-103807609D01*
X163621462Y-103807608D01*
X163676000Y-103753070D01*
X163730537Y-103738457D01*
X163750499Y-103733108D01*
X163750500Y-103733108D01*
X163825000Y-103753070D01*
X163879538Y-103807608D01*
X163886897Y-103835073D01*
X163899500Y-103882107D01*
X163899500Y-104047579D01*
X163879538Y-104122079D01*
X163825000Y-104176617D01*
X163824998Y-104176617D01*
X163733387Y-104229509D01*
X163239509Y-104723388D01*
X163239508Y-104723389D01*
X163180201Y-104826111D01*
X163180202Y-104826111D01*
X163180201Y-104826115D01*
X163149500Y-104940689D01*
X163149500Y-107601678D01*
X163129538Y-107676178D01*
X163105859Y-107707037D01*
X157207038Y-113605859D01*
X157140243Y-113644423D01*
X157101679Y-113649500D01*
X143248321Y-113649500D01*
X143173821Y-113629538D01*
X143142962Y-113605859D01*
X141971209Y-112434106D01*
X154749500Y-112434106D01*
X154749500Y-112434108D01*
X154749500Y-112565892D01*
X154783608Y-112693186D01*
X154783609Y-112693187D01*
X154849497Y-112807310D01*
X154849498Y-112807311D01*
X154849500Y-112807314D01*
X154942686Y-112900500D01*
X155056814Y-112966392D01*
X155184108Y-113000500D01*
X155315892Y-113000500D01*
X155443186Y-112966392D01*
X155557314Y-112900500D01*
X155650500Y-112807314D01*
X155716392Y-112693186D01*
X155750500Y-112565892D01*
X155750500Y-112434108D01*
X155716392Y-112306814D01*
X155650500Y-112192686D01*
X155557314Y-112099500D01*
X155557311Y-112099498D01*
X155557310Y-112099497D01*
X155486514Y-112058623D01*
X155443186Y-112033608D01*
X155315892Y-111999500D01*
X155184108Y-111999500D01*
X155056814Y-112033608D01*
X155056812Y-112033608D01*
X155056812Y-112033609D01*
X154942689Y-112099497D01*
X154849497Y-112192689D01*
X154783609Y-112306812D01*
X154749500Y-112434106D01*
X141971209Y-112434106D01*
X137594141Y-108057038D01*
X137555577Y-107990243D01*
X137550500Y-107951679D01*
X137550500Y-95848321D01*
X137570462Y-95773821D01*
X137594141Y-95742962D01*
X138077103Y-95260000D01*
X138610490Y-94726614D01*
X138669799Y-94623886D01*
X138686786Y-94560489D01*
X138700500Y-94509309D01*
X138700500Y-93208417D01*
X138720462Y-93133917D01*
X138729883Y-93119817D01*
X138730516Y-93118719D01*
X138730520Y-93118716D01*
X138809577Y-92981784D01*
X138850500Y-92829057D01*
X138850500Y-92670943D01*
X138809577Y-92518216D01*
X138730520Y-92381284D01*
X138618716Y-92269480D01*
X138481784Y-92190423D01*
X138329057Y-92149500D01*
X138170943Y-92149500D01*
X138018216Y-92190423D01*
X138018214Y-92190423D01*
X138018214Y-92190424D01*
X137881283Y-92269480D01*
X137769480Y-92381283D01*
X137690424Y-92518214D01*
X137690423Y-92518216D01*
X137678934Y-92561093D01*
X137649500Y-92670941D01*
X137649500Y-92829058D01*
X137658163Y-92861387D01*
X137690423Y-92981784D01*
X137769480Y-93118716D01*
X137774363Y-93127173D01*
X137772962Y-93127981D01*
X137798225Y-93188967D01*
X137799500Y-93208417D01*
X137799500Y-94201678D01*
X137779538Y-94276178D01*
X137755859Y-94307037D01*
X136739509Y-95323388D01*
X136739506Y-95323392D01*
X136680201Y-95426111D01*
X136674232Y-95448386D01*
X136674233Y-95448387D01*
X136649500Y-95540689D01*
X136649500Y-95540691D01*
X136649500Y-108259309D01*
X136671904Y-108342922D01*
X136678448Y-108367346D01*
X136680202Y-108373891D01*
X136739506Y-108476607D01*
X136739509Y-108476611D01*
X136739511Y-108476614D01*
X142723386Y-114460489D01*
X142723388Y-114460490D01*
X142723389Y-114460491D01*
X142826115Y-114519800D01*
X142840424Y-114523633D01*
X142850317Y-114526283D01*
X142850324Y-114526287D01*
X142850325Y-114526286D01*
X142874539Y-114532774D01*
X142940691Y-114550500D01*
X142940694Y-114550500D01*
X157409306Y-114550500D01*
X157409309Y-114550500D01*
X157499673Y-114526286D01*
X157523887Y-114519799D01*
X157626614Y-114460489D01*
X163960490Y-108126614D01*
X164019799Y-108023887D01*
X164028694Y-107990691D01*
X164050500Y-107909309D01*
X164050500Y-106129499D01*
X164070462Y-106054999D01*
X164125000Y-106000461D01*
X164199496Y-105980499D01*
X165691335Y-105980499D01*
X165765835Y-106000461D01*
X165820373Y-106054999D01*
X165840335Y-106129499D01*
X165830273Y-106183324D01*
X165706733Y-106502217D01*
X165704099Y-106508576D01*
X165389679Y-107220668D01*
X165386754Y-107226899D01*
X165039787Y-107923704D01*
X165036578Y-107929793D01*
X164657782Y-108609861D01*
X164654294Y-108615795D01*
X164244524Y-109277597D01*
X164240767Y-109283364D01*
X163800852Y-109925561D01*
X163796832Y-109931148D01*
X163327716Y-110552359D01*
X163323442Y-110557755D01*
X162826157Y-111156612D01*
X162821638Y-111161805D01*
X162297222Y-111737061D01*
X162292469Y-111742039D01*
X161742039Y-112292469D01*
X161737061Y-112297222D01*
X161161805Y-112821638D01*
X161156612Y-112826157D01*
X160557755Y-113323442D01*
X160552359Y-113327716D01*
X159931148Y-113796832D01*
X159925561Y-113800852D01*
X159283364Y-114240767D01*
X159277597Y-114244524D01*
X158615795Y-114654294D01*
X158609861Y-114657782D01*
X157929793Y-115036578D01*
X157923704Y-115039787D01*
X157226899Y-115386754D01*
X157220668Y-115389679D01*
X156508576Y-115704099D01*
X156502217Y-115706733D01*
X155776370Y-115987928D01*
X155769896Y-115990266D01*
X155031819Y-116237644D01*
X155025244Y-116239680D01*
X154276535Y-116452706D01*
X154269873Y-116454436D01*
X153512140Y-116632653D01*
X153505405Y-116634074D01*
X152740228Y-116777111D01*
X152733434Y-116778219D01*
X151962480Y-116885763D01*
X151955643Y-116886556D01*
X151180555Y-116958378D01*
X151173688Y-116958855D01*
X150396092Y-116994806D01*
X150389211Y-116994965D01*
X149610789Y-116994965D01*
X149603908Y-116994806D01*
X148826311Y-116958855D01*
X148819444Y-116958378D01*
X148124680Y-116893999D01*
X148044352Y-116886555D01*
X148037523Y-116885763D01*
X147853389Y-116860077D01*
X147266565Y-116778219D01*
X147259771Y-116777111D01*
X146494594Y-116634074D01*
X146487859Y-116632653D01*
X145730126Y-116454436D01*
X145723464Y-116452706D01*
X144974755Y-116239680D01*
X144968180Y-116237644D01*
X144230103Y-115990266D01*
X144223629Y-115987928D01*
X143497782Y-115706733D01*
X143491423Y-115704099D01*
X142779331Y-115389679D01*
X142773100Y-115386754D01*
X142076295Y-115039787D01*
X142070206Y-115036578D01*
X141390138Y-114657782D01*
X141384204Y-114654294D01*
X140722402Y-114244524D01*
X140716635Y-114240767D01*
X140074438Y-113800852D01*
X140068851Y-113796832D01*
X139447640Y-113327716D01*
X139442244Y-113323442D01*
X138843387Y-112826157D01*
X138838194Y-112821638D01*
X138262938Y-112297222D01*
X138257960Y-112292469D01*
X137707530Y-111742039D01*
X137702777Y-111737061D01*
X137641460Y-111669800D01*
X137178359Y-111161803D01*
X137173842Y-111156612D01*
X136873084Y-110794423D01*
X136676549Y-110557745D01*
X136672283Y-110552359D01*
X136203167Y-109931148D01*
X136199147Y-109925561D01*
X135759232Y-109283364D01*
X135755475Y-109277597D01*
X135738077Y-109249499D01*
X135521677Y-108900000D01*
X135345705Y-108615795D01*
X135342217Y-108609861D01*
X135126370Y-108222342D01*
X134963415Y-107929782D01*
X134960212Y-107923704D01*
X134958837Y-107920943D01*
X134739533Y-107480520D01*
X134613245Y-107226899D01*
X134610320Y-107220668D01*
X134462162Y-106885122D01*
X134295893Y-106508560D01*
X134293266Y-106502217D01*
X134012061Y-105776344D01*
X134009742Y-105769922D01*
X133762347Y-105031793D01*
X133760327Y-105025270D01*
X133547286Y-104276509D01*
X133545570Y-104269900D01*
X133367343Y-103512126D01*
X133365925Y-103505405D01*
X133356528Y-103455135D01*
X133222884Y-102740208D01*
X133221780Y-102733434D01*
X133220379Y-102723388D01*
X133114231Y-101962438D01*
X133113447Y-101955684D01*
X133088282Y-101684106D01*
X134499500Y-101684106D01*
X134499500Y-101684108D01*
X134499500Y-101815892D01*
X134533608Y-101943186D01*
X134558623Y-101986514D01*
X134599497Y-102057310D01*
X134599498Y-102057311D01*
X134599500Y-102057314D01*
X134692686Y-102150500D01*
X134806814Y-102216392D01*
X134934108Y-102250500D01*
X135065892Y-102250500D01*
X135193186Y-102216392D01*
X135307314Y-102150500D01*
X135400500Y-102057314D01*
X135466392Y-101943186D01*
X135500500Y-101815892D01*
X135500500Y-101684108D01*
X135466392Y-101556814D01*
X135400500Y-101442686D01*
X135307314Y-101349500D01*
X135307311Y-101349498D01*
X135307310Y-101349497D01*
X135236514Y-101308623D01*
X135193186Y-101283608D01*
X135065892Y-101249500D01*
X134934108Y-101249500D01*
X134806814Y-101283608D01*
X134806812Y-101283608D01*
X134806812Y-101283609D01*
X134692689Y-101349497D01*
X134599497Y-101442689D01*
X134540434Y-101544991D01*
X134533608Y-101556814D01*
X134517778Y-101615890D01*
X134499500Y-101684106D01*
X133088282Y-101684106D01*
X133041620Y-101180542D01*
X133041144Y-101173688D01*
X133038705Y-101120943D01*
X133005194Y-100396092D01*
X133005035Y-100389211D01*
X133005035Y-99610788D01*
X133005194Y-99603907D01*
X133007741Y-99548820D01*
X133041145Y-98826294D01*
X133041621Y-98819444D01*
X133113448Y-98044310D01*
X133114230Y-98037566D01*
X133221784Y-97266538D01*
X133222883Y-97259798D01*
X133365929Y-96494571D01*
X133367341Y-96487882D01*
X133545572Y-95730088D01*
X133547283Y-95723501D01*
X133760330Y-94974717D01*
X133762343Y-94968218D01*
X134009747Y-94230063D01*
X134012056Y-94223668D01*
X134293278Y-93497751D01*
X134295886Y-93491454D01*
X134610322Y-92779326D01*
X134613245Y-92773100D01*
X134960227Y-92076265D01*
X134963405Y-92070235D01*
X135342223Y-91390126D01*
X135345705Y-91384204D01*
X135755492Y-90722375D01*
X135759214Y-90716662D01*
X136199155Y-90074426D01*
X136203167Y-90068851D01*
X136504683Y-89669579D01*
X136672290Y-89447630D01*
X136676532Y-89442274D01*
X137173862Y-88843362D01*
X137178340Y-88838217D01*
X137702797Y-88262916D01*
X137707508Y-88257982D01*
X138257982Y-87707508D01*
X138262916Y-87702797D01*
X138838217Y-87178340D01*
X138843362Y-87173862D01*
X139442274Y-86676532D01*
X139447640Y-86672283D01*
X139450930Y-86669799D01*
X139931253Y-86307076D01*
X140068851Y-86203167D01*
X140074426Y-86199155D01*
X140716662Y-85759214D01*
X140722375Y-85755492D01*
X141384215Y-85345698D01*
X141390126Y-85342223D01*
X142070235Y-84963405D01*
X142076265Y-84960227D01*
X142773105Y-84613242D01*
X142779331Y-84610320D01*
X142826235Y-84589610D01*
X143491454Y-84295886D01*
X143497751Y-84293278D01*
X143597177Y-84254760D01*
X143673855Y-84246462D01*
X143744412Y-84277616D01*
X143789938Y-84339874D01*
X143800000Y-84393699D01*
X143800000Y-84750000D01*
X145700000Y-84750000D01*
X145700000Y-84256941D01*
X145699999Y-84256939D01*
X145689386Y-84168556D01*
X145633920Y-84027903D01*
X145542566Y-83907437D01*
X145542560Y-83907431D01*
X145484406Y-83863330D01*
X145478760Y-83856058D01*
X145470715Y-83851577D01*
X145455400Y-83825970D01*
X145437107Y-83802408D01*
X145435853Y-83793286D01*
X145431127Y-83785384D01*
X145430667Y-83755550D01*
X145426606Y-83725998D01*
X145430080Y-83717472D01*
X145429939Y-83708265D01*
X145444458Y-83682197D01*
X145455717Y-83654575D01*
X145462988Y-83648929D01*
X145467470Y-83640884D01*
X145493076Y-83625569D01*
X145516639Y-83607276D01*
X145533648Y-83601300D01*
X145723501Y-83547283D01*
X145730088Y-83545572D01*
X146487882Y-83367341D01*
X146494571Y-83365929D01*
X147259798Y-83222883D01*
X147266538Y-83221784D01*
X148037566Y-83114230D01*
X148044310Y-83113448D01*
X148819460Y-83041619D01*
X148826294Y-83041145D01*
X149603908Y-83005194D01*
X149610789Y-83005035D01*
X150389211Y-83005035D01*
X150396092Y-83005194D01*
G37*
%TD.AperFunction*%
%TA.AperFunction,Conductor*%
G36*
X149254661Y-91169853D02*
G01*
X149316644Y-91215754D01*
X149338608Y-91253798D01*
X149365639Y-91322342D01*
X149378659Y-91339511D01*
X149455182Y-91440423D01*
X149457078Y-91442922D01*
X149577658Y-91534361D01*
X149718436Y-91589877D01*
X149806898Y-91600500D01*
X149806899Y-91600500D01*
X150418101Y-91600500D01*
X150418102Y-91600500D01*
X150506564Y-91589877D01*
X150510127Y-91588471D01*
X150513777Y-91588053D01*
X150515827Y-91587536D01*
X150515896Y-91587811D01*
X150518730Y-91587487D01*
X150526233Y-91583156D01*
X150556589Y-91583156D01*
X150586752Y-91579705D01*
X150594699Y-91583156D01*
X150603361Y-91583156D01*
X150629649Y-91598333D01*
X150657498Y-91610427D01*
X150670156Y-91621720D01*
X150770105Y-91721669D01*
X150808669Y-91788464D01*
X150808669Y-91865592D01*
X150770105Y-91932387D01*
X150703310Y-91970951D01*
X150646993Y-91974967D01*
X150643102Y-91974500D01*
X150056898Y-91974500D01*
X150056894Y-91974500D01*
X149968436Y-91985122D01*
X149827658Y-92040638D01*
X149827658Y-92040639D01*
X149707079Y-92132076D01*
X149707076Y-92132079D01*
X149615639Y-92252658D01*
X149615638Y-92252658D01*
X149560122Y-92393436D01*
X149549500Y-92481894D01*
X149549500Y-93518105D01*
X149560122Y-93606563D01*
X149597768Y-93702024D01*
X149615639Y-93747342D01*
X149657551Y-93802611D01*
X149686660Y-93874032D01*
X149676158Y-93950442D01*
X149644185Y-93997999D01*
X149292686Y-94349500D01*
X149292685Y-94349499D01*
X149199502Y-94442683D01*
X149199497Y-94442689D01*
X149133609Y-94556811D01*
X149133112Y-94558013D01*
X149132320Y-94559045D01*
X149128725Y-94565272D01*
X149127905Y-94564798D01*
X149086162Y-94619205D01*
X149014907Y-94648724D01*
X148995451Y-94650000D01*
X148950000Y-94650000D01*
X148950000Y-96849999D01*
X149119795Y-96849999D01*
X149144878Y-96847089D01*
X149155692Y-96844148D01*
X149156446Y-96846920D01*
X149215400Y-96837764D01*
X149243985Y-96845423D01*
X149244198Y-96844643D01*
X149255004Y-96847583D01*
X149255009Y-96847585D01*
X149280135Y-96850500D01*
X149919864Y-96850499D01*
X149919866Y-96850499D01*
X149926458Y-96849734D01*
X149944991Y-96847585D01*
X149944993Y-96847584D01*
X149944994Y-96847584D01*
X149955808Y-96844643D01*
X149956478Y-96847107D01*
X150016639Y-96837765D01*
X150044052Y-96845110D01*
X150044314Y-96844148D01*
X150055131Y-96847091D01*
X150080204Y-96849999D01*
X150250000Y-96849999D01*
X150250000Y-95899000D01*
X150269962Y-95824500D01*
X150324500Y-95769962D01*
X150399000Y-95750000D01*
X150401000Y-95750000D01*
X150475500Y-95769962D01*
X150530038Y-95824500D01*
X150550000Y-95899000D01*
X150550000Y-96849999D01*
X150550500Y-96849999D01*
X150625000Y-96869961D01*
X150679538Y-96924499D01*
X150699500Y-96998999D01*
X150699500Y-101678393D01*
X150708639Y-101712501D01*
X150733608Y-101805686D01*
X150739501Y-101815893D01*
X150799497Y-101919810D01*
X150799498Y-101919811D01*
X150799500Y-101919814D01*
X151455860Y-102576174D01*
X151494423Y-102642967D01*
X151499500Y-102681531D01*
X151499500Y-103000500D01*
X151479538Y-103075000D01*
X151425000Y-103129538D01*
X151350500Y-103149500D01*
X150880133Y-103149500D01*
X150855011Y-103152414D01*
X150844196Y-103155357D01*
X150843480Y-103152726D01*
X150783944Y-103161957D01*
X150756046Y-103154480D01*
X150755808Y-103155357D01*
X150744992Y-103152414D01*
X150719867Y-103149500D01*
X150080133Y-103149500D01*
X150055011Y-103152414D01*
X150044196Y-103155357D01*
X150043525Y-103152893D01*
X149983342Y-103162233D01*
X149955945Y-103154891D01*
X149955684Y-103155851D01*
X149944872Y-103152909D01*
X149919796Y-103150000D01*
X149750000Y-103150000D01*
X149750000Y-105349999D01*
X149805879Y-105349999D01*
X149880379Y-105369961D01*
X149934917Y-105424499D01*
X149949802Y-105460436D01*
X149958554Y-105493102D01*
X149958555Y-105493102D01*
X149980202Y-105573891D01*
X150039506Y-105676607D01*
X150039509Y-105676612D01*
X150163589Y-105800692D01*
X150202153Y-105867488D01*
X150202153Y-105944616D01*
X150200000Y-105948345D01*
X150200000Y-108850000D01*
X150850000Y-108850000D01*
X150867137Y-108832862D01*
X150869962Y-108822321D01*
X150883833Y-108808449D01*
X150893641Y-108791462D01*
X150910628Y-108781654D01*
X150924500Y-108767783D01*
X150943448Y-108762705D01*
X150960436Y-108752898D01*
X150980052Y-108752898D01*
X150999000Y-108747821D01*
X151017948Y-108752898D01*
X151037564Y-108752898D01*
X151054551Y-108762705D01*
X151073500Y-108767783D01*
X151104359Y-108791462D01*
X151105859Y-108792962D01*
X151144423Y-108859757D01*
X151149500Y-108898321D01*
X151149500Y-109518105D01*
X151160122Y-109606563D01*
X151215638Y-109747341D01*
X151307076Y-109867920D01*
X151307079Y-109867923D01*
X151313760Y-109872989D01*
X151427658Y-109959361D01*
X151568436Y-110014877D01*
X151656898Y-110025500D01*
X151656899Y-110025500D01*
X152243101Y-110025500D01*
X152243102Y-110025500D01*
X152331564Y-110014877D01*
X152472342Y-109959361D01*
X152592922Y-109867922D01*
X152684361Y-109747342D01*
X152739877Y-109606564D01*
X152750500Y-109518102D01*
X152750500Y-108481898D01*
X152739877Y-108393436D01*
X152684361Y-108252658D01*
X152613943Y-108159798D01*
X152592923Y-108132079D01*
X152592922Y-108132078D01*
X152590194Y-108130009D01*
X152575311Y-108118723D01*
X152528012Y-108057804D01*
X152517509Y-107981394D01*
X152546618Y-107909970D01*
X152575313Y-107881275D01*
X152592922Y-107867922D01*
X152684361Y-107747342D01*
X152720133Y-107656629D01*
X152766032Y-107594650D01*
X152836775Y-107563922D01*
X152897302Y-107567370D01*
X153020943Y-107600500D01*
X153179057Y-107600500D01*
X153331784Y-107559577D01*
X153468716Y-107480520D01*
X153580520Y-107368716D01*
X153659577Y-107231784D01*
X153663597Y-107216777D01*
X153702158Y-107149985D01*
X153768952Y-107111419D01*
X153846080Y-107111417D01*
X153912876Y-107149979D01*
X154623386Y-107860489D01*
X154650448Y-107876113D01*
X154726114Y-107919799D01*
X154840691Y-107950500D01*
X154877384Y-107950500D01*
X154900763Y-107958471D01*
X154912978Y-107966656D01*
X154927180Y-107970462D01*
X154944494Y-107987776D01*
X154964835Y-108001407D01*
X154971320Y-108014602D01*
X154981718Y-108025000D01*
X154988055Y-108048651D01*
X154998856Y-108070627D01*
X154997874Y-108085298D01*
X155001680Y-108099500D01*
X154995343Y-108123149D01*
X154993709Y-108147583D01*
X154985523Y-108159798D01*
X154981718Y-108174000D01*
X154958042Y-108204854D01*
X154617558Y-108545339D01*
X154339509Y-108823388D01*
X154339508Y-108823389D01*
X154280201Y-108926111D01*
X154280202Y-108926111D01*
X154280201Y-108926115D01*
X154249500Y-109040689D01*
X154249500Y-109801679D01*
X154229538Y-109876179D01*
X154205859Y-109907038D01*
X153357038Y-110755859D01*
X153290243Y-110794423D01*
X153251679Y-110799500D01*
X143998321Y-110799500D01*
X143923821Y-110779538D01*
X143892962Y-110755859D01*
X138994141Y-105857038D01*
X138955577Y-105790243D01*
X138950500Y-105751679D01*
X138950500Y-104947320D01*
X138970462Y-104872820D01*
X139025000Y-104818282D01*
X139099500Y-104798320D01*
X139174000Y-104818282D01*
X139204854Y-104841957D01*
X139602404Y-105239508D01*
X139730292Y-105367396D01*
X139727710Y-105369977D01*
X139763153Y-105416159D01*
X139774500Y-105473190D01*
X139774500Y-105493102D01*
X139785122Y-105581563D01*
X139840638Y-105722341D01*
X139900053Y-105800692D01*
X139932078Y-105842922D01*
X140052658Y-105934361D01*
X140193436Y-105989877D01*
X140281898Y-106000500D01*
X140281899Y-106000500D01*
X140893101Y-106000500D01*
X140893102Y-106000500D01*
X140981564Y-105989877D01*
X141122342Y-105934361D01*
X141242922Y-105842922D01*
X141334361Y-105722342D01*
X141361390Y-105653800D01*
X141407289Y-105591821D01*
X141478032Y-105561093D01*
X141554661Y-105569853D01*
X141616644Y-105615754D01*
X141638608Y-105653798D01*
X141665639Y-105722342D01*
X141665640Y-105722343D01*
X141757076Y-105842920D01*
X141757079Y-105842923D01*
X141840947Y-105906522D01*
X141888247Y-105967443D01*
X141898750Y-106043853D01*
X141879954Y-106099745D01*
X141840424Y-106168212D01*
X141799500Y-106320941D01*
X141799500Y-106320943D01*
X141799500Y-106479057D01*
X141840423Y-106631784D01*
X141896124Y-106728261D01*
X141924363Y-106777173D01*
X141922962Y-106777981D01*
X141948225Y-106838967D01*
X141949500Y-106858417D01*
X141949500Y-108259309D01*
X141971904Y-108342922D01*
X141978448Y-108367346D01*
X141980202Y-108373891D01*
X142039506Y-108476607D01*
X142039509Y-108476611D01*
X142039511Y-108476614D01*
X143435886Y-109872989D01*
X143494038Y-109906563D01*
X143494040Y-109906564D01*
X143494041Y-109906565D01*
X143538610Y-109932297D01*
X143538611Y-109932297D01*
X143538614Y-109932299D01*
X143653191Y-109963000D01*
X143831056Y-109963000D01*
X143905556Y-109982962D01*
X143960094Y-110037500D01*
X143960931Y-110038970D01*
X143965636Y-110047338D01*
X143965638Y-110047341D01*
X143965639Y-110047342D01*
X144057078Y-110167922D01*
X144177658Y-110259361D01*
X144318436Y-110314877D01*
X144406898Y-110325500D01*
X144406899Y-110325500D01*
X145393101Y-110325500D01*
X145393102Y-110325500D01*
X145481564Y-110314877D01*
X145622342Y-110259361D01*
X145742922Y-110167922D01*
X145834361Y-110047342D01*
X145889877Y-109906564D01*
X145894025Y-109872017D01*
X145895291Y-109868859D01*
X145894959Y-109865470D01*
X145909565Y-109833257D01*
X145922726Y-109800431D01*
X145925403Y-109798327D01*
X145926810Y-109795226D01*
X145955569Y-109774629D01*
X145983377Y-109752784D01*
X145986746Y-109752301D01*
X145989516Y-109750318D01*
X146024725Y-109746860D01*
X146059726Y-109741846D01*
X146062885Y-109743112D01*
X146066275Y-109742780D01*
X146081256Y-109750478D01*
X146131314Y-109770547D01*
X146136519Y-109774631D01*
X146142160Y-109779263D01*
X146235886Y-109872989D01*
X146294040Y-109906564D01*
X146304639Y-109912683D01*
X146304640Y-109912684D01*
X146338610Y-109932297D01*
X146338611Y-109932297D01*
X146338614Y-109932299D01*
X146453191Y-109963000D01*
X146531056Y-109963000D01*
X146605556Y-109982962D01*
X146660094Y-110037500D01*
X146660931Y-110038970D01*
X146665636Y-110047338D01*
X146665638Y-110047341D01*
X146665639Y-110047342D01*
X146757078Y-110167922D01*
X146877658Y-110259361D01*
X147018436Y-110314877D01*
X147106898Y-110325500D01*
X147106899Y-110325500D01*
X148093101Y-110325500D01*
X148093102Y-110325500D01*
X148181564Y-110314877D01*
X148322342Y-110259361D01*
X148442922Y-110167922D01*
X148534361Y-110047342D01*
X148589877Y-109906564D01*
X148600500Y-109818102D01*
X148600500Y-109518060D01*
X149250000Y-109518060D01*
X149260613Y-109606443D01*
X149316079Y-109747096D01*
X149407433Y-109867562D01*
X149407437Y-109867566D01*
X149527904Y-109958920D01*
X149527903Y-109958920D01*
X149668556Y-110014386D01*
X149756939Y-110024999D01*
X149756941Y-110025000D01*
X149900000Y-110025000D01*
X150200000Y-110025000D01*
X150343059Y-110025000D01*
X150343060Y-110024999D01*
X150431443Y-110014386D01*
X150572096Y-109958920D01*
X150692562Y-109867566D01*
X150692566Y-109867562D01*
X150783920Y-109747096D01*
X150839386Y-109606443D01*
X150849999Y-109518060D01*
X150850000Y-109518058D01*
X150850000Y-109150000D01*
X150200000Y-109150000D01*
X150200000Y-110025000D01*
X149900000Y-110025000D01*
X149900000Y-109150000D01*
X149250000Y-109150000D01*
X149250000Y-109518060D01*
X148600500Y-109518060D01*
X148600500Y-109206898D01*
X148589877Y-109118436D01*
X148534361Y-108977658D01*
X148442922Y-108857078D01*
X148442920Y-108857076D01*
X148322343Y-108765640D01*
X148322342Y-108765639D01*
X148253800Y-108738609D01*
X148191821Y-108692711D01*
X148161093Y-108621968D01*
X148169853Y-108545339D01*
X148215754Y-108483356D01*
X148253798Y-108461391D01*
X148322342Y-108434361D01*
X148442922Y-108342922D01*
X148534361Y-108222342D01*
X148589877Y-108081564D01*
X148600500Y-107993102D01*
X148600500Y-107518060D01*
X149250000Y-107518060D01*
X149260613Y-107606443D01*
X149316079Y-107747096D01*
X149407433Y-107867562D01*
X149407437Y-107867566D01*
X149425517Y-107881277D01*
X149472817Y-107942199D01*
X149483318Y-108018609D01*
X149454208Y-108090032D01*
X149425517Y-108118723D01*
X149407437Y-108132433D01*
X149407433Y-108132437D01*
X149316079Y-108252903D01*
X149260613Y-108393556D01*
X149250000Y-108481939D01*
X149250000Y-108850000D01*
X149900000Y-108850000D01*
X149900000Y-107150000D01*
X149250000Y-107150000D01*
X149250000Y-107518060D01*
X148600500Y-107518060D01*
X148600500Y-107381898D01*
X148589877Y-107293436D01*
X148534361Y-107152658D01*
X148479750Y-107080643D01*
X148478732Y-107079234D01*
X148465600Y-107044761D01*
X148451666Y-107010570D01*
X148451486Y-107007708D01*
X148451277Y-107007158D01*
X148451403Y-107006374D01*
X148450500Y-106991964D01*
X148450500Y-106481939D01*
X149250000Y-106481939D01*
X149250000Y-106850000D01*
X149900000Y-106850000D01*
X149900000Y-105975000D01*
X149756939Y-105975000D01*
X149668556Y-105985613D01*
X149527903Y-106041079D01*
X149407437Y-106132433D01*
X149407433Y-106132437D01*
X149316079Y-106252903D01*
X149260613Y-106393556D01*
X149250000Y-106481939D01*
X148450500Y-106481939D01*
X148450500Y-105499499D01*
X148470462Y-105424999D01*
X148525000Y-105370461D01*
X148599496Y-105350499D01*
X149119864Y-105350499D01*
X149119867Y-105350499D01*
X149128609Y-105349484D01*
X149144991Y-105347585D01*
X149144993Y-105347584D01*
X149144994Y-105347584D01*
X149155808Y-105344643D01*
X149156478Y-105347107D01*
X149216639Y-105337765D01*
X149244052Y-105345110D01*
X149244314Y-105344148D01*
X149255131Y-105347091D01*
X149280204Y-105349999D01*
X149450000Y-105349999D01*
X149450000Y-103150000D01*
X149280205Y-103150000D01*
X149255128Y-103152909D01*
X149244313Y-103155852D01*
X149243559Y-103153082D01*
X149184562Y-103162230D01*
X149156019Y-103154580D01*
X149155808Y-103155357D01*
X149144992Y-103152414D01*
X149119867Y-103149500D01*
X148480133Y-103149500D01*
X148455011Y-103152414D01*
X148444196Y-103155357D01*
X148443480Y-103152726D01*
X148383944Y-103161957D01*
X148356046Y-103154480D01*
X148355808Y-103155357D01*
X148344992Y-103152414D01*
X148319867Y-103149500D01*
X147680133Y-103149500D01*
X147655011Y-103152414D01*
X147644196Y-103155357D01*
X147643480Y-103152726D01*
X147583944Y-103161957D01*
X147556046Y-103154480D01*
X147555808Y-103155357D01*
X147544992Y-103152414D01*
X147519868Y-103149500D01*
X146999499Y-103149500D01*
X146924999Y-103129538D01*
X146870461Y-103075000D01*
X146850499Y-103000503D01*
X146850499Y-102480136D01*
X146847585Y-102455009D01*
X146847584Y-102455007D01*
X146847584Y-102455005D01*
X146844643Y-102444192D01*
X146847277Y-102443475D01*
X146838038Y-102383978D01*
X146845524Y-102356041D01*
X146844643Y-102355802D01*
X146847582Y-102344996D01*
X146847585Y-102344991D01*
X146850500Y-102319865D01*
X146850499Y-101799499D01*
X146870461Y-101725000D01*
X146924999Y-101670462D01*
X146999499Y-101650500D01*
X147641583Y-101650500D01*
X147716083Y-101670462D01*
X147730182Y-101679883D01*
X147731282Y-101680518D01*
X147731284Y-101680520D01*
X147868216Y-101759577D01*
X148020943Y-101800500D01*
X148179057Y-101800500D01*
X148331784Y-101759577D01*
X148468716Y-101680520D01*
X148580520Y-101568716D01*
X148659577Y-101431784D01*
X148700500Y-101279057D01*
X148700500Y-101120943D01*
X148659577Y-100968216D01*
X148580520Y-100831284D01*
X148468716Y-100719480D01*
X148331784Y-100640423D01*
X148179057Y-100599500D01*
X148049500Y-100599500D01*
X147975000Y-100579538D01*
X147920462Y-100525000D01*
X147900500Y-100450500D01*
X147900500Y-100320943D01*
X147900499Y-100320941D01*
X147859577Y-100168216D01*
X147780520Y-100031284D01*
X147668716Y-99919480D01*
X147531784Y-99840423D01*
X147379057Y-99799500D01*
X147220943Y-99799500D01*
X147068211Y-99840424D01*
X147059191Y-99844161D01*
X147058032Y-99841364D01*
X146999482Y-99857046D01*
X146924984Y-99837075D01*
X146870453Y-99782531D01*
X146850499Y-99708048D01*
X146850499Y-99280136D01*
X146847585Y-99255009D01*
X146847584Y-99255007D01*
X146847584Y-99255005D01*
X146844643Y-99244192D01*
X146847277Y-99243475D01*
X146838038Y-99183978D01*
X146845524Y-99156041D01*
X146844643Y-99155802D01*
X146847582Y-99144996D01*
X146847585Y-99144991D01*
X146850500Y-99119865D01*
X146850499Y-98480136D01*
X146847585Y-98455009D01*
X146847584Y-98455007D01*
X146847584Y-98455005D01*
X146844643Y-98444192D01*
X146847277Y-98443475D01*
X146838038Y-98383978D01*
X146845524Y-98356041D01*
X146844643Y-98355802D01*
X146847582Y-98344996D01*
X146847585Y-98344991D01*
X146850500Y-98319865D01*
X146850499Y-97680136D01*
X146847585Y-97655009D01*
X146847584Y-97655007D01*
X146847584Y-97655005D01*
X146844643Y-97644192D01*
X146847277Y-97643475D01*
X146838038Y-97583978D01*
X146845524Y-97556041D01*
X146844643Y-97555802D01*
X146847582Y-97544996D01*
X146847585Y-97544991D01*
X146850500Y-97519865D01*
X146850499Y-96999498D01*
X146870461Y-96924999D01*
X146924999Y-96870461D01*
X146999495Y-96850499D01*
X147519864Y-96850499D01*
X147519867Y-96850499D01*
X147528609Y-96849484D01*
X147544991Y-96847585D01*
X147544993Y-96847584D01*
X147544994Y-96847584D01*
X147555808Y-96844643D01*
X147556525Y-96847278D01*
X147616010Y-96838037D01*
X147643958Y-96845524D01*
X147644198Y-96844643D01*
X147655004Y-96847583D01*
X147655009Y-96847585D01*
X147680135Y-96850500D01*
X148319864Y-96850499D01*
X148319866Y-96850499D01*
X148326458Y-96849734D01*
X148344991Y-96847585D01*
X148344993Y-96847584D01*
X148344994Y-96847584D01*
X148355808Y-96844643D01*
X148356478Y-96847107D01*
X148416639Y-96837765D01*
X148444052Y-96845110D01*
X148444314Y-96844148D01*
X148455131Y-96847091D01*
X148480204Y-96849999D01*
X148650000Y-96849999D01*
X148650000Y-94650000D01*
X148599500Y-94650000D01*
X148525000Y-94630038D01*
X148470462Y-94575500D01*
X148450500Y-94501000D01*
X148450500Y-94340691D01*
X148450499Y-94340689D01*
X148419799Y-94226114D01*
X148419799Y-94226113D01*
X148360490Y-94123386D01*
X148334161Y-94097057D01*
X148325423Y-94083374D01*
X148319543Y-94064799D01*
X148305077Y-94039742D01*
X148300000Y-94001178D01*
X148300000Y-93959659D01*
X148600000Y-93959659D01*
X148641728Y-94025000D01*
X148743059Y-94025000D01*
X148743060Y-94024999D01*
X148831443Y-94014386D01*
X148972096Y-93958920D01*
X149092562Y-93867566D01*
X149092566Y-93867562D01*
X149183920Y-93747096D01*
X149239386Y-93606443D01*
X149249999Y-93518060D01*
X149250000Y-93518058D01*
X149250000Y-93150000D01*
X148600000Y-93150000D01*
X148600000Y-93959659D01*
X148300000Y-93959659D01*
X148300000Y-93150000D01*
X147650000Y-93150000D01*
X147623911Y-93176089D01*
X147557116Y-93214653D01*
X147479988Y-93214653D01*
X147413193Y-93176089D01*
X147221882Y-92984778D01*
X147183318Y-92917983D01*
X147183318Y-92840855D01*
X147208516Y-92789390D01*
X147259361Y-92722342D01*
X147314877Y-92581564D01*
X147325500Y-92493102D01*
X147325500Y-92481939D01*
X147650000Y-92481939D01*
X147650000Y-92850000D01*
X148300000Y-92850000D01*
X148600000Y-92850000D01*
X149250000Y-92850000D01*
X149250000Y-92481941D01*
X149249999Y-92481939D01*
X149239386Y-92393556D01*
X149183920Y-92252903D01*
X149092566Y-92132437D01*
X149092562Y-92132433D01*
X148972095Y-92041079D01*
X148972096Y-92041079D01*
X148831443Y-91985613D01*
X148743060Y-91975000D01*
X148600000Y-91975000D01*
X148600000Y-92850000D01*
X148300000Y-92850000D01*
X148300000Y-91975000D01*
X148156939Y-91975000D01*
X148068556Y-91985613D01*
X147927903Y-92041079D01*
X147807437Y-92132433D01*
X147807433Y-92132437D01*
X147716079Y-92252903D01*
X147660613Y-92393556D01*
X147650000Y-92481939D01*
X147325500Y-92481939D01*
X147325500Y-91506898D01*
X147324242Y-91496425D01*
X147335175Y-91420079D01*
X147382818Y-91359425D01*
X147454405Y-91330719D01*
X147530754Y-91341652D01*
X147590902Y-91388624D01*
X147630182Y-91440423D01*
X147632078Y-91442922D01*
X147752658Y-91534361D01*
X147893436Y-91589877D01*
X147981898Y-91600500D01*
X147981899Y-91600500D01*
X148593101Y-91600500D01*
X148593102Y-91600500D01*
X148681564Y-91589877D01*
X148822342Y-91534361D01*
X148942922Y-91442922D01*
X149034361Y-91322342D01*
X149061390Y-91253800D01*
X149107289Y-91191821D01*
X149178032Y-91161093D01*
X149254661Y-91169853D01*
G37*
%TD.AperFunction*%
%TA.AperFunction,Conductor*%
G36*
X153923953Y-83464204D02*
G01*
X154269900Y-83545570D01*
X154276509Y-83547286D01*
X154719193Y-83673240D01*
X154785385Y-83712828D01*
X154822916Y-83780209D01*
X154821728Y-83857328D01*
X154782140Y-83923521D01*
X154726509Y-83954553D01*
X154727324Y-83956618D01*
X154577658Y-84015638D01*
X154577658Y-84015639D01*
X154457079Y-84107076D01*
X154457076Y-84107079D01*
X154365639Y-84227658D01*
X154365638Y-84227658D01*
X154310122Y-84368436D01*
X154299500Y-84456894D01*
X154299500Y-85743105D01*
X154310122Y-85831563D01*
X154365638Y-85972341D01*
X154418612Y-86042198D01*
X154457078Y-86092922D01*
X154577658Y-86184361D01*
X154718436Y-86239877D01*
X154806898Y-86250500D01*
X154806899Y-86250500D01*
X155693101Y-86250500D01*
X155693102Y-86250500D01*
X155781564Y-86239877D01*
X155922342Y-86184361D01*
X156042922Y-86092922D01*
X156134361Y-85972342D01*
X156138542Y-85961737D01*
X156184440Y-85899756D01*
X156255182Y-85869026D01*
X156331811Y-85877784D01*
X156382513Y-85911038D01*
X156910390Y-86438915D01*
X156933985Y-86474225D01*
X156935541Y-86473328D01*
X156940422Y-86481783D01*
X156940423Y-86481784D01*
X157019480Y-86618716D01*
X157131284Y-86730520D01*
X157268216Y-86809577D01*
X157420943Y-86850500D01*
X157579057Y-86850500D01*
X157731784Y-86809577D01*
X157868716Y-86730520D01*
X157980520Y-86618716D01*
X158059577Y-86481784D01*
X158100500Y-86329057D01*
X158100500Y-86170943D01*
X158059577Y-86018216D01*
X157980520Y-85881284D01*
X157868716Y-85769480D01*
X157868715Y-85769479D01*
X157723328Y-85685541D01*
X157724225Y-85683985D01*
X157688915Y-85660390D01*
X156742446Y-84713921D01*
X156703882Y-84647126D01*
X156703882Y-84569998D01*
X156742446Y-84503203D01*
X156809241Y-84464639D01*
X156886369Y-84464639D01*
X156907983Y-84472256D01*
X156978072Y-84503203D01*
X157220668Y-84610320D01*
X157226899Y-84613245D01*
X157429084Y-84713921D01*
X157923716Y-84960218D01*
X157929782Y-84963415D01*
X158090668Y-85053028D01*
X158609861Y-85342217D01*
X158615795Y-85345705D01*
X159257618Y-85743105D01*
X159277597Y-85755475D01*
X159283357Y-85759227D01*
X159560559Y-85949115D01*
X159925561Y-86199147D01*
X159931148Y-86203167D01*
X160552359Y-86672283D01*
X160557745Y-86676549D01*
X160767225Y-86850499D01*
X161156612Y-87173842D01*
X161161805Y-87178361D01*
X161737061Y-87702777D01*
X161742039Y-87707530D01*
X162292469Y-88257960D01*
X162297222Y-88262938D01*
X162821638Y-88838194D01*
X162826157Y-88843387D01*
X163298274Y-89411936D01*
X163323442Y-89442244D01*
X163327716Y-89447640D01*
X163796832Y-90068851D01*
X163800852Y-90074438D01*
X164240767Y-90716635D01*
X164244524Y-90722402D01*
X164654294Y-91384204D01*
X164657782Y-91390138D01*
X165036578Y-92070206D01*
X165039787Y-92076295D01*
X165386754Y-92773100D01*
X165389679Y-92779331D01*
X165704099Y-93491423D01*
X165706733Y-93497782D01*
X165729602Y-93556814D01*
X165829969Y-93815891D01*
X165830467Y-93817175D01*
X165838766Y-93893855D01*
X165807612Y-93964411D01*
X165745354Y-94009938D01*
X165691529Y-94020000D01*
X165150000Y-94020000D01*
X165150000Y-95260000D01*
X166105388Y-95260000D01*
X166125057Y-95248643D01*
X166157222Y-95229407D01*
X166158406Y-95229388D01*
X166159431Y-95228797D01*
X166196851Y-95228796D01*
X166234341Y-95228219D01*
X166235376Y-95228796D01*
X166236559Y-95228796D01*
X166268948Y-95247495D01*
X166301721Y-95265750D01*
X166302329Y-95266767D01*
X166303354Y-95267359D01*
X166341309Y-95331944D01*
X166370959Y-95436154D01*
X166371494Y-95470932D01*
X166378038Y-95477476D01*
X166392311Y-95511198D01*
X166434292Y-95658746D01*
X166452706Y-95723464D01*
X166454436Y-95730126D01*
X166632653Y-96487859D01*
X166634074Y-96494594D01*
X166777111Y-97259771D01*
X166778219Y-97266565D01*
X166885763Y-98037519D01*
X166886556Y-98044356D01*
X166958378Y-98819444D01*
X166958855Y-98826311D01*
X166994806Y-99603907D01*
X166994965Y-99610788D01*
X166994965Y-100389211D01*
X166994806Y-100396092D01*
X166958855Y-101173688D01*
X166958378Y-101180555D01*
X166886556Y-101955643D01*
X166885763Y-101962480D01*
X166778219Y-102733434D01*
X166777111Y-102740228D01*
X166634074Y-103505405D01*
X166632653Y-103512140D01*
X166454436Y-104269873D01*
X166452706Y-104276535D01*
X166392811Y-104487045D01*
X166353223Y-104553238D01*
X166285842Y-104590769D01*
X166208723Y-104589581D01*
X166142530Y-104549993D01*
X166104999Y-104482612D01*
X166100499Y-104446269D01*
X166100499Y-103455133D01*
X166097585Y-103430010D01*
X166097584Y-103430007D01*
X166086602Y-103405136D01*
X166052206Y-103327235D01*
X165972765Y-103247794D01*
X165972764Y-103247793D01*
X165869994Y-103202416D01*
X165869991Y-103202415D01*
X165869982Y-103202414D01*
X165844865Y-103199500D01*
X165844859Y-103199500D01*
X164155133Y-103199500D01*
X164130010Y-103202414D01*
X164130007Y-103202415D01*
X164027235Y-103247793D01*
X163954859Y-103320170D01*
X163888064Y-103358734D01*
X163810936Y-103358734D01*
X163744141Y-103320170D01*
X163705577Y-103253375D01*
X163700500Y-103214811D01*
X163700500Y-97690691D01*
X163700499Y-97690689D01*
X163700281Y-97689877D01*
X163669799Y-97576114D01*
X163669799Y-97576113D01*
X163669798Y-97576111D01*
X163610491Y-97473389D01*
X163610490Y-97473388D01*
X163610489Y-97473386D01*
X162476614Y-96339511D01*
X162476611Y-96339509D01*
X162476607Y-96339506D01*
X162373890Y-96280202D01*
X162373888Y-96280201D01*
X162361524Y-96276888D01*
X162340107Y-96271150D01*
X162340101Y-96271146D01*
X162340101Y-96271148D01*
X162327011Y-96267640D01*
X162319742Y-96263443D01*
X162317448Y-96263069D01*
X162313486Y-96259830D01*
X162260218Y-96229074D01*
X162221657Y-96162277D01*
X162217646Y-96141499D01*
X162214877Y-96118436D01*
X162159361Y-95977658D01*
X162145449Y-95959312D01*
X162067923Y-95857079D01*
X162067920Y-95857076D01*
X162009000Y-95812396D01*
X161947342Y-95765639D01*
X161947341Y-95765638D01*
X161806563Y-95710122D01*
X161718105Y-95699500D01*
X161718102Y-95699500D01*
X161106898Y-95699500D01*
X161106894Y-95699500D01*
X161018436Y-95710122D01*
X160877658Y-95765638D01*
X160877658Y-95765639D01*
X160757079Y-95857076D01*
X160757076Y-95857079D01*
X160665639Y-95977658D01*
X160665638Y-95977658D01*
X160638611Y-96046196D01*
X160592710Y-96108178D01*
X160521967Y-96138906D01*
X160445338Y-96130145D01*
X160383356Y-96084244D01*
X160361389Y-96046196D01*
X160334361Y-95977658D01*
X160242923Y-95857079D01*
X160242920Y-95857076D01*
X160184000Y-95812396D01*
X160122342Y-95765639D01*
X160122341Y-95765638D01*
X159981563Y-95710122D01*
X159893105Y-95699500D01*
X159893102Y-95699500D01*
X159281898Y-95699500D01*
X159281894Y-95699500D01*
X159193436Y-95710122D01*
X159054162Y-95765046D01*
X158977533Y-95773807D01*
X158906790Y-95743079D01*
X158860889Y-95681097D01*
X158850500Y-95626435D01*
X158850500Y-95273564D01*
X158870462Y-95199064D01*
X158925000Y-95144526D01*
X158999500Y-95124564D01*
X159054156Y-95134951D01*
X159193436Y-95189877D01*
X159281898Y-95200500D01*
X159281899Y-95200500D01*
X159893101Y-95200500D01*
X159893102Y-95200500D01*
X159981564Y-95189877D01*
X160122342Y-95134361D01*
X160242922Y-95042922D01*
X160334361Y-94922342D01*
X160361390Y-94853800D01*
X160407289Y-94791821D01*
X160478032Y-94761093D01*
X160554661Y-94769853D01*
X160616644Y-94815754D01*
X160638608Y-94853798D01*
X160665639Y-94922342D01*
X160757078Y-95042922D01*
X160877658Y-95134361D01*
X161018436Y-95189877D01*
X161106898Y-95200500D01*
X161106899Y-95200500D01*
X161718101Y-95200500D01*
X161718102Y-95200500D01*
X161806564Y-95189877D01*
X161820504Y-95184379D01*
X161897128Y-95175616D01*
X161967872Y-95206340D01*
X161980527Y-95217630D01*
X162757298Y-95994401D01*
X162763412Y-96004991D01*
X162772879Y-96012729D01*
X162783827Y-96040351D01*
X162795862Y-96061196D01*
X162795862Y-96069920D01*
X162796972Y-96069623D01*
X162813189Y-96130145D01*
X162825639Y-96176611D01*
X162840424Y-96231787D01*
X162908859Y-96350321D01*
X162908860Y-96350322D01*
X162919480Y-96368716D01*
X163031284Y-96480520D01*
X163168216Y-96559577D01*
X163320943Y-96600500D01*
X163479057Y-96600500D01*
X163631784Y-96559577D01*
X163700456Y-96519929D01*
X163774954Y-96499968D01*
X163849454Y-96519930D01*
X163903992Y-96574468D01*
X163911258Y-96588784D01*
X163948211Y-96672475D01*
X163948213Y-96672478D01*
X164027521Y-96751786D01*
X164130128Y-96797091D01*
X164155204Y-96799999D01*
X164850000Y-96799999D01*
X165150000Y-96799999D01*
X165844795Y-96799999D01*
X165869874Y-96797090D01*
X165972477Y-96751787D01*
X165972478Y-96751787D01*
X166051786Y-96672478D01*
X166097091Y-96569871D01*
X166100000Y-96544795D01*
X166100000Y-95560000D01*
X165150000Y-95560000D01*
X165150000Y-96799999D01*
X164850000Y-96799999D01*
X164850000Y-95560000D01*
X163870954Y-95560000D01*
X163852006Y-95554923D01*
X163832390Y-95554923D01*
X163815402Y-95545115D01*
X163796454Y-95540038D01*
X163765595Y-95516359D01*
X163763595Y-95514359D01*
X163756618Y-95502275D01*
X163749070Y-95502275D01*
X163713135Y-95487390D01*
X163631787Y-95440424D01*
X163631784Y-95440423D01*
X163545392Y-95417274D01*
X163469623Y-95396972D01*
X163470041Y-95395411D01*
X163409049Y-95370144D01*
X163394401Y-95357298D01*
X162312307Y-94275204D01*
X163900000Y-94275204D01*
X163900000Y-95260000D01*
X164850000Y-95260000D01*
X164850000Y-94020000D01*
X164155205Y-94020000D01*
X164130125Y-94022909D01*
X164027522Y-94068212D01*
X164027522Y-94068213D01*
X163948213Y-94147521D01*
X163902908Y-94250128D01*
X163900000Y-94275204D01*
X162312307Y-94275204D01*
X162269141Y-94232038D01*
X162230577Y-94165243D01*
X162225500Y-94126679D01*
X162225500Y-93706899D01*
X162225500Y-93706898D01*
X162214877Y-93618436D01*
X162159361Y-93477658D01*
X162067922Y-93357078D01*
X162067920Y-93357076D01*
X162015983Y-93317691D01*
X161947342Y-93265639D01*
X161947340Y-93265638D01*
X161817381Y-93214388D01*
X161755399Y-93168487D01*
X161724671Y-93097744D01*
X161733432Y-93021115D01*
X161766686Y-92970416D01*
X161772990Y-92964113D01*
X161832299Y-92861386D01*
X161839742Y-92833608D01*
X161863000Y-92746809D01*
X161865528Y-92737375D01*
X161867651Y-92737944D01*
X161892047Y-92679024D01*
X161940043Y-92642183D01*
X161938455Y-92639358D01*
X161947338Y-92634362D01*
X161947342Y-92634361D01*
X162067922Y-92542922D01*
X162159361Y-92422342D01*
X162214877Y-92281564D01*
X162225500Y-92193102D01*
X162225500Y-91206898D01*
X162214877Y-91118436D01*
X162159361Y-90977658D01*
X162091156Y-90887716D01*
X162067923Y-90857079D01*
X162067920Y-90857076D01*
X162020982Y-90821482D01*
X161947342Y-90765639D01*
X161947341Y-90765638D01*
X161806563Y-90710122D01*
X161718105Y-90699500D01*
X161718102Y-90699500D01*
X161106898Y-90699500D01*
X161106894Y-90699500D01*
X161018436Y-90710122D01*
X160877658Y-90765638D01*
X160877658Y-90765639D01*
X160757079Y-90857076D01*
X160757076Y-90857079D01*
X160665639Y-90977658D01*
X160665638Y-90977658D01*
X160638611Y-91046196D01*
X160592710Y-91108178D01*
X160521967Y-91138906D01*
X160445338Y-91130145D01*
X160383356Y-91084244D01*
X160361389Y-91046196D01*
X160334361Y-90977658D01*
X160242923Y-90857079D01*
X160242920Y-90857076D01*
X160195982Y-90821482D01*
X160122342Y-90765639D01*
X160122341Y-90765638D01*
X159981563Y-90710122D01*
X159893105Y-90699500D01*
X159893102Y-90699500D01*
X159281898Y-90699500D01*
X159281894Y-90699500D01*
X159193436Y-90710122D01*
X159052658Y-90765638D01*
X159052658Y-90765639D01*
X158932079Y-90857076D01*
X158932076Y-90857079D01*
X158840639Y-90977658D01*
X158840638Y-90977658D01*
X158785122Y-91118436D01*
X158782782Y-91127698D01*
X158781491Y-91127371D01*
X158756446Y-91189848D01*
X158695797Y-91237497D01*
X158637207Y-91249500D01*
X158140687Y-91249500D01*
X158050326Y-91273712D01*
X158050326Y-91273713D01*
X158026113Y-91280201D01*
X157923389Y-91339508D01*
X157504859Y-91758038D01*
X157438064Y-91796602D01*
X157360936Y-91796602D01*
X157294141Y-91758038D01*
X157255577Y-91691243D01*
X157250500Y-91652679D01*
X157250500Y-91262793D01*
X157270462Y-91188293D01*
X157325000Y-91133755D01*
X157372484Y-91117938D01*
X157372302Y-91117218D01*
X157381562Y-91114877D01*
X157381564Y-91114877D01*
X157522342Y-91059361D01*
X157642922Y-90967922D01*
X157734361Y-90847342D01*
X157789877Y-90706564D01*
X157800500Y-90618102D01*
X157800500Y-90006898D01*
X157789877Y-89918436D01*
X157734361Y-89777658D01*
X157642922Y-89657078D01*
X157642920Y-89657076D01*
X157538827Y-89578140D01*
X157522342Y-89565639D01*
X157453800Y-89538609D01*
X157391821Y-89492711D01*
X157361093Y-89421968D01*
X157369853Y-89345339D01*
X157415754Y-89283356D01*
X157453798Y-89261391D01*
X157522342Y-89234361D01*
X157642922Y-89142922D01*
X157734361Y-89022342D01*
X157789877Y-88881564D01*
X157800500Y-88793102D01*
X157800500Y-88181898D01*
X157789877Y-88093436D01*
X157734361Y-87952658D01*
X157702329Y-87910417D01*
X157642923Y-87832079D01*
X157642920Y-87832076D01*
X157591964Y-87793435D01*
X157522342Y-87740639D01*
X157522341Y-87740638D01*
X157381563Y-87685122D01*
X157293105Y-87674500D01*
X157293102Y-87674500D01*
X156306898Y-87674500D01*
X156306894Y-87674500D01*
X156218436Y-87685122D01*
X156077658Y-87740638D01*
X156077658Y-87740639D01*
X155957079Y-87832076D01*
X155957076Y-87832079D01*
X155865639Y-87952658D01*
X155865638Y-87952658D01*
X155810122Y-88093436D01*
X155799500Y-88181894D01*
X155799500Y-88793105D01*
X155810122Y-88881563D01*
X155865638Y-89022341D01*
X155906807Y-89076631D01*
X155957078Y-89142922D01*
X156077658Y-89234361D01*
X156146196Y-89261389D01*
X156208178Y-89307290D01*
X156238906Y-89378033D01*
X156230145Y-89454662D01*
X156184244Y-89516644D01*
X156146196Y-89538611D01*
X156077658Y-89565638D01*
X156077658Y-89565639D01*
X155957079Y-89657076D01*
X155957076Y-89657079D01*
X155865639Y-89777658D01*
X155865638Y-89777658D01*
X155810122Y-89918436D01*
X155799500Y-90006894D01*
X155799500Y-90618105D01*
X155810122Y-90706563D01*
X155865638Y-90847341D01*
X155903221Y-90896902D01*
X155957078Y-90967922D01*
X156077658Y-91059361D01*
X156218436Y-91114877D01*
X156227698Y-91117218D01*
X156227371Y-91118508D01*
X156289848Y-91143554D01*
X156337497Y-91204203D01*
X156349500Y-91262793D01*
X156349500Y-95751679D01*
X156329538Y-95826179D01*
X156305859Y-95857038D01*
X155461793Y-96701104D01*
X155394998Y-96739668D01*
X155317870Y-96739668D01*
X155251075Y-96701104D01*
X155222764Y-96672793D01*
X155119994Y-96627416D01*
X155119991Y-96627415D01*
X155094865Y-96624500D01*
X155094859Y-96624500D01*
X153524499Y-96624500D01*
X153449999Y-96604538D01*
X153395461Y-96550000D01*
X153375499Y-96475503D01*
X153375499Y-94905136D01*
X153372585Y-94880009D01*
X153327206Y-94777235D01*
X153294141Y-94744170D01*
X153255577Y-94677375D01*
X153250500Y-94638811D01*
X153250500Y-93684106D01*
X154749500Y-93684106D01*
X154749500Y-93684108D01*
X154749500Y-93815892D01*
X154783608Y-93943186D01*
X154808623Y-93986514D01*
X154849497Y-94057310D01*
X154849498Y-94057311D01*
X154849500Y-94057314D01*
X154942686Y-94150500D01*
X155056814Y-94216392D01*
X155184108Y-94250500D01*
X155315892Y-94250500D01*
X155443186Y-94216392D01*
X155557314Y-94150500D01*
X155650500Y-94057314D01*
X155716392Y-93943186D01*
X155750500Y-93815892D01*
X155750500Y-93684108D01*
X155716392Y-93556814D01*
X155650500Y-93442686D01*
X155557314Y-93349500D01*
X155557311Y-93349498D01*
X155557310Y-93349497D01*
X155462183Y-93294576D01*
X155443186Y-93283608D01*
X155315892Y-93249500D01*
X155184108Y-93249500D01*
X155056814Y-93283608D01*
X155056812Y-93283608D01*
X155056812Y-93283609D01*
X154942689Y-93349497D01*
X154849497Y-93442689D01*
X154783609Y-93556812D01*
X154749500Y-93684106D01*
X153250500Y-93684106D01*
X153250500Y-93648321D01*
X153270462Y-93573821D01*
X153294141Y-93542962D01*
X153855319Y-92981784D01*
X154460490Y-92376614D01*
X154519799Y-92273886D01*
X154521453Y-92267711D01*
X154521458Y-92267702D01*
X154521456Y-92267702D01*
X154532898Y-92225000D01*
X154550500Y-92159309D01*
X154550500Y-91275293D01*
X154570462Y-91200793D01*
X154625000Y-91146255D01*
X154672484Y-91130438D01*
X154672302Y-91129718D01*
X154681562Y-91127377D01*
X154681564Y-91127377D01*
X154822342Y-91071861D01*
X154942922Y-90980422D01*
X155034361Y-90859842D01*
X155089877Y-90719064D01*
X155100500Y-90630602D01*
X155100500Y-90019398D01*
X155089877Y-89930936D01*
X155034361Y-89790158D01*
X154963681Y-89696953D01*
X154942923Y-89669579D01*
X154942920Y-89669576D01*
X154850511Y-89599500D01*
X154822342Y-89578139D01*
X154753800Y-89551109D01*
X154691821Y-89505211D01*
X154661093Y-89434468D01*
X154669853Y-89357839D01*
X154715754Y-89295856D01*
X154753798Y-89273891D01*
X154822342Y-89246861D01*
X154942922Y-89155422D01*
X155034361Y-89034842D01*
X155089877Y-88894064D01*
X155100500Y-88805602D01*
X155100500Y-88194398D01*
X155089877Y-88105936D01*
X155034361Y-87965158D01*
X154997870Y-87917038D01*
X154942923Y-87844579D01*
X154942920Y-87844576D01*
X154895982Y-87808982D01*
X154822342Y-87753139D01*
X154822341Y-87753138D01*
X154681563Y-87697622D01*
X154593105Y-87687000D01*
X154593102Y-87687000D01*
X153606898Y-87687000D01*
X153606894Y-87687000D01*
X153518436Y-87697622D01*
X153377658Y-87753138D01*
X153377658Y-87753139D01*
X153257079Y-87844576D01*
X153257076Y-87844579D01*
X153165639Y-87965158D01*
X153165638Y-87965158D01*
X153130146Y-88055162D01*
X153123474Y-88064170D01*
X153120573Y-88075000D01*
X153100845Y-88094727D01*
X153084245Y-88117144D01*
X153073962Y-88121610D01*
X153066035Y-88129538D01*
X153039088Y-88136758D01*
X153013502Y-88147872D01*
X152991535Y-88149500D01*
X152858417Y-88149500D01*
X152783917Y-88129538D01*
X152769817Y-88120116D01*
X152768716Y-88119480D01*
X152631784Y-88040423D01*
X152479057Y-87999500D01*
X152320943Y-87999500D01*
X152168216Y-88040423D01*
X152168214Y-88040423D01*
X152168214Y-88040424D01*
X152031283Y-88119480D01*
X151919480Y-88231283D01*
X151840424Y-88368214D01*
X151840423Y-88368216D01*
X151821431Y-88439095D01*
X151799500Y-88520941D01*
X151799500Y-88520943D01*
X151799500Y-88679057D01*
X151840423Y-88831784D01*
X151919480Y-88968716D01*
X152031284Y-89080520D01*
X152168216Y-89159577D01*
X152320943Y-89200500D01*
X152479057Y-89200500D01*
X152631784Y-89159577D01*
X152768716Y-89080520D01*
X152768717Y-89080518D01*
X152777173Y-89075637D01*
X152777747Y-89076631D01*
X152783917Y-89070462D01*
X152812057Y-89062921D01*
X152838967Y-89051775D01*
X152858417Y-89050500D01*
X153103506Y-89050500D01*
X153178006Y-89070462D01*
X153222229Y-89109467D01*
X153257076Y-89155420D01*
X153257079Y-89155423D01*
X153262557Y-89159577D01*
X153377658Y-89246861D01*
X153425275Y-89265639D01*
X153446196Y-89273889D01*
X153508178Y-89319790D01*
X153538906Y-89390533D01*
X153530145Y-89467162D01*
X153484244Y-89529144D01*
X153446196Y-89551111D01*
X153377658Y-89578138D01*
X153377658Y-89578139D01*
X153257079Y-89669576D01*
X153257076Y-89669579D01*
X153165639Y-89790158D01*
X153165638Y-89790158D01*
X153110122Y-89930936D01*
X153099500Y-90019394D01*
X153099500Y-90602680D01*
X153079538Y-90677180D01*
X153025000Y-90731718D01*
X152950500Y-90751680D01*
X152876000Y-90731718D01*
X152845145Y-90708042D01*
X150476614Y-88339511D01*
X150476611Y-88339509D01*
X150476610Y-88339508D01*
X150420661Y-88307206D01*
X150373887Y-88280201D01*
X150348452Y-88273386D01*
X150348451Y-88273385D01*
X150259309Y-88249500D01*
X149322859Y-88249500D01*
X149248359Y-88229538D01*
X149193821Y-88175000D01*
X149173859Y-88100500D01*
X149184248Y-88045838D01*
X149189877Y-88031563D01*
X149193727Y-87999500D01*
X149200500Y-87943102D01*
X149200500Y-86656898D01*
X149189877Y-86568436D01*
X149134361Y-86427658D01*
X149059589Y-86329057D01*
X149042923Y-86307079D01*
X149042920Y-86307076D01*
X149001807Y-86275899D01*
X148926407Y-86218721D01*
X148879109Y-86157803D01*
X148868606Y-86081393D01*
X148897716Y-86009969D01*
X148926405Y-85981279D01*
X149042922Y-85892922D01*
X149134361Y-85772342D01*
X149169205Y-85683985D01*
X149184643Y-85644838D01*
X149230544Y-85582856D01*
X149301287Y-85552128D01*
X149323254Y-85550500D01*
X150650500Y-85550500D01*
X150725000Y-85570462D01*
X150779538Y-85625000D01*
X150799500Y-85699500D01*
X150799500Y-85743105D01*
X150810122Y-85831563D01*
X150865638Y-85972341D01*
X150918612Y-86042198D01*
X150957078Y-86092922D01*
X151077658Y-86184361D01*
X151218436Y-86239877D01*
X151306898Y-86250500D01*
X151306899Y-86250500D01*
X152193101Y-86250500D01*
X152193102Y-86250500D01*
X152281564Y-86239877D01*
X152422342Y-86184361D01*
X152542922Y-86092922D01*
X152634361Y-85972342D01*
X152689877Y-85831564D01*
X152700500Y-85743102D01*
X152700500Y-85197228D01*
X152720462Y-85122728D01*
X152775000Y-85068190D01*
X152813593Y-85055091D01*
X152813041Y-85053028D01*
X152822475Y-85050500D01*
X152962485Y-85012984D01*
X153088015Y-84940510D01*
X153438916Y-84589607D01*
X153474225Y-84566018D01*
X153473326Y-84564460D01*
X153481784Y-84559577D01*
X153618716Y-84480520D01*
X153730520Y-84368716D01*
X153809577Y-84231784D01*
X153850500Y-84079057D01*
X153850500Y-83920943D01*
X153809577Y-83768216D01*
X153760808Y-83683746D01*
X153740847Y-83609246D01*
X153760809Y-83534747D01*
X153815347Y-83480209D01*
X153889848Y-83460247D01*
X153923953Y-83464204D01*
G37*
%TD.AperFunction*%
%TA.AperFunction,Conductor*%
G36*
X152443958Y-96845524D02*
G01*
X152444198Y-96844643D01*
X152455004Y-96847583D01*
X152455009Y-96847585D01*
X152480135Y-96850500D01*
X153000500Y-96850499D01*
X153075000Y-96870461D01*
X153129538Y-96924999D01*
X153149500Y-96999499D01*
X153149500Y-97519866D01*
X153152414Y-97544988D01*
X153155357Y-97555804D01*
X153152724Y-97556520D01*
X153161959Y-97616045D01*
X153154480Y-97643953D01*
X153155357Y-97644192D01*
X153152414Y-97655007D01*
X153149500Y-97680132D01*
X153149500Y-98319866D01*
X153152414Y-98344988D01*
X153155357Y-98355804D01*
X153152724Y-98356520D01*
X153161959Y-98416045D01*
X153154480Y-98443953D01*
X153155357Y-98444192D01*
X153152414Y-98455007D01*
X153149500Y-98480132D01*
X153149500Y-99119866D01*
X153152414Y-99144988D01*
X153155357Y-99155804D01*
X153152724Y-99156520D01*
X153161959Y-99216045D01*
X153154480Y-99243953D01*
X153155357Y-99244192D01*
X153152414Y-99255007D01*
X153149500Y-99280132D01*
X153149500Y-99919866D01*
X153152414Y-99944988D01*
X153155357Y-99955804D01*
X153152724Y-99956520D01*
X153161959Y-100016045D01*
X153154480Y-100043953D01*
X153155357Y-100044192D01*
X153152414Y-100055007D01*
X153149500Y-100080132D01*
X153149500Y-100719866D01*
X153152414Y-100744988D01*
X153155357Y-100755804D01*
X153152724Y-100756520D01*
X153161959Y-100816045D01*
X153154480Y-100843953D01*
X153155357Y-100844192D01*
X153152414Y-100855007D01*
X153149500Y-100880132D01*
X153149500Y-101519866D01*
X153152414Y-101544988D01*
X153155357Y-101555804D01*
X153152724Y-101556520D01*
X153161959Y-101616045D01*
X153154480Y-101643953D01*
X153155357Y-101644192D01*
X153152414Y-101655007D01*
X153149500Y-101680132D01*
X153149500Y-102319866D01*
X153152414Y-102344988D01*
X153155357Y-102355804D01*
X153152724Y-102356520D01*
X153161959Y-102416045D01*
X153154480Y-102443953D01*
X153155357Y-102444192D01*
X153152414Y-102455007D01*
X153150622Y-102470462D01*
X153149500Y-102480135D01*
X153149500Y-102799500D01*
X153149501Y-103000500D01*
X153129539Y-103075000D01*
X153075001Y-103129538D01*
X153000501Y-103149500D01*
X152649500Y-103149500D01*
X152575000Y-103129538D01*
X152520462Y-103075000D01*
X152500500Y-103000500D01*
X152500500Y-102346608D01*
X152500499Y-102346606D01*
X152466392Y-102219314D01*
X152400500Y-102105186D01*
X152370301Y-102074987D01*
X152307314Y-102011999D01*
X152307314Y-102012000D01*
X151744141Y-101448827D01*
X151705577Y-101382032D01*
X151700500Y-101343468D01*
X151700500Y-96999499D01*
X151720462Y-96924999D01*
X151775000Y-96870461D01*
X151849500Y-96850499D01*
X152319867Y-96850499D01*
X152328609Y-96849484D01*
X152344991Y-96847585D01*
X152344993Y-96847584D01*
X152344994Y-96847584D01*
X152355808Y-96844643D01*
X152356525Y-96847278D01*
X152416010Y-96838037D01*
X152443958Y-96845524D01*
G37*
%TD.AperFunction*%
%TD*%
M02*
