M48
; DRILL file {KiCad 8.0.8} date 2025-01-19T18:25:23+0200
; FORMAT={-:-/ absolute / inch / decimal}
; #@! TF.CreationDate,2025-01-19T18:25:23+02:00
; #@! TF.GenerationSoftware,Kicad,Pcbnew,8.0.8
; #@! TF.FileFunction,Plated,1,2,PTH
FMAT,2
INCH
; #@! TA.AperFunction,Plated,PTH,ViaDrill
T1C0.0118
%
G90
G05
T1
X5.4331Y-4.0276
X5.4429Y-3.6516
X5.4488Y-3.7874
X5.4917Y-4.0787
X5.5293Y-3.61
X5.6063Y-4.189
X5.6299Y-3.3465
X5.6358Y-3.7677
X5.6599Y-3.6174
X5.7598Y-4.2835
X5.7628Y-3.5223
X5.7992Y-3.9528
X5.8169Y-3.622
X5.8307Y-3.9843
X5.8583Y-4.1772
X5.874Y-4.0157
X5.9646Y-3.4134
X5.9744Y-3.622
X6.0Y-3.4882
X6.0039Y-3.8976
X6.0276Y-4.2126
X6.0335Y-3.3071
X6.0335Y-4.3406
X6.1516Y-4.0709
X6.1732Y-3.4838
X6.2008Y-3.3957
X6.2402Y-4.2717
X6.3337Y-3.6591
X6.3484Y-4.252
X6.3543Y-4.0669
X6.3772Y-4.2158
X6.4331Y-3.7795
X6.4488Y-3.6496
M30
