%TF.GenerationSoftware,KiCad,Pcbnew,8.0.7*%
%TF.CreationDate,2025-01-14T01:45:44+02:00*%
%TF.ProjectId,LumiTimeV2,4c756d69-5469-46d6-9556-322e6b696361,rev?*%
%TF.SameCoordinates,Original*%
%TF.FileFunction,Paste,Top*%
%TF.FilePolarity,Positive*%
%FSLAX46Y46*%
G04 Gerber Fmt 4.6, Leading zero omitted, Abs format (unit mm)*
G04 Created by KiCad (PCBNEW 8.0.7) date 2025-01-14 01:45:44*
%MOMM*%
%LPD*%
G01*
G04 APERTURE LIST*
G04 Aperture macros list*
%AMRoundRect*
0 Rectangle with rounded corners*
0 $1 Rounding radius*
0 $2 $3 $4 $5 $6 $7 $8 $9 X,Y pos of 4 corners*
0 Add a 4 corners polygon primitive as box body*
4,1,4,$2,$3,$4,$5,$6,$7,$8,$9,$2,$3,0*
0 Add four circle primitives for the rounded corners*
1,1,$1+$1,$2,$3*
1,1,$1+$1,$4,$5*
1,1,$1+$1,$6,$7*
1,1,$1+$1,$8,$9*
0 Add four rect primitives between the rounded corners*
20,1,$1+$1,$2,$3,$4,$5,0*
20,1,$1+$1,$4,$5,$6,$7,0*
20,1,$1+$1,$6,$7,$8,$9,0*
20,1,$1+$1,$8,$9,$2,$3,0*%
G04 Aperture macros list end*
%ADD10RoundRect,0.162500X0.487500X0.787500X-0.487500X0.787500X-0.487500X-0.787500X0.487500X-0.787500X0*%
%ADD11RoundRect,0.137500X0.512500X0.412500X-0.512500X0.412500X-0.512500X-0.412500X0.512500X-0.412500X0*%
%ADD12RoundRect,0.243750X-0.516999X-0.017031X-0.273249X-0.439219X0.516999X0.017031X0.273249X0.439219X0*%
%ADD13RoundRect,0.150000X0.825000X0.150000X-0.825000X0.150000X-0.825000X-0.150000X0.825000X-0.150000X0*%
%ADD14RoundRect,0.243750X-0.017031X0.516999X-0.439219X0.273249X0.017031X-0.516999X0.439219X-0.273249X0*%
%ADD15RoundRect,0.243750X-0.439219X-0.273249X-0.017031X-0.516999X0.439219X0.273249X0.017031X0.516999X0*%
%ADD16RoundRect,0.162500X0.815937X0.438245X-0.028437X0.925745X-0.815937X-0.438245X0.028437X-0.925745X0*%
%ADD17RoundRect,0.137500X0.650088X0.100985X-0.237588X0.613485X-0.650088X-0.100985X0.237588X-0.613485X0*%
%ADD18RoundRect,0.162500X-0.925745X0.028437X-0.438245X-0.815937X0.925745X-0.028437X0.438245X0.815937X0*%
%ADD19RoundRect,0.137500X-0.613485X0.237588X-0.100985X-0.650088X0.613485X-0.237588X0.100985X0.650088X0*%
%ADD20RoundRect,0.162500X-0.815937X-0.438245X0.028437X-0.925745X0.815937X0.438245X-0.028437X0.925745X0*%
%ADD21RoundRect,0.137500X-0.650088X-0.100985X0.237588X-0.613485X0.650088X0.100985X-0.237588X0.613485X0*%
%ADD22RoundRect,0.243750X-0.456250X0.243750X-0.456250X-0.243750X0.456250X-0.243750X0.456250X0.243750X0*%
%ADD23RoundRect,0.243750X0.273249X-0.439219X0.516999X-0.017031X-0.273249X0.439219X-0.516999X0.017031X0*%
%ADD24RoundRect,0.243750X0.516999X0.017031X0.273249X0.439219X-0.516999X-0.017031X-0.273249X-0.439219X0*%
%ADD25RoundRect,0.162500X0.787500X-0.487500X0.787500X0.487500X-0.787500X0.487500X-0.787500X-0.487500X0*%
%ADD26RoundRect,0.137500X0.412500X-0.512500X0.412500X0.512500X-0.412500X0.512500X-0.412500X-0.512500X0*%
%ADD27RoundRect,0.243750X-0.273249X0.439219X-0.516999X0.017031X0.273249X-0.439219X0.516999X-0.017031X0*%
%ADD28RoundRect,0.243750X0.439219X0.273249X0.017031X0.516999X-0.439219X-0.273249X-0.017031X-0.516999X0*%
%ADD29RoundRect,0.162500X0.925745X-0.028437X0.438245X0.815937X-0.925745X0.028437X-0.438245X-0.815937X0*%
%ADD30RoundRect,0.137500X0.613485X-0.237588X0.100985X0.650088X-0.613485X0.237588X-0.100985X-0.650088X0*%
%ADD31R,1.100000X0.600000*%
%ADD32R,2.400000X1.500000*%
%ADD33RoundRect,0.250000X-0.475000X0.250000X-0.475000X-0.250000X0.475000X-0.250000X0.475000X0.250000X0*%
%ADD34RoundRect,0.243750X-0.243750X-0.456250X0.243750X-0.456250X0.243750X0.456250X-0.243750X0.456250X0*%
%ADD35RoundRect,0.243750X0.017031X-0.516999X0.439219X-0.273249X-0.017031X0.516999X-0.439219X0.273249X0*%
%ADD36RoundRect,0.162500X-0.438245X0.815937X-0.925745X-0.028437X0.438245X-0.815937X0.925745X0.028437X0*%
%ADD37RoundRect,0.137500X-0.100985X0.650088X-0.613485X-0.237588X0.100985X-0.650088X0.613485X0.237588X0*%
%ADD38RoundRect,0.162500X0.438245X-0.815937X0.925745X0.028437X-0.438245X0.815937X-0.925745X-0.028437X0*%
%ADD39RoundRect,0.137500X0.100985X-0.650088X0.613485X0.237588X-0.100985X0.650088X-0.613485X-0.237588X0*%
%ADD40RoundRect,0.162500X-0.028437X-0.925745X0.815937X-0.438245X0.028437X0.925745X-0.815937X0.438245X0*%
%ADD41RoundRect,0.137500X-0.237588X-0.613485X0.650088X-0.100985X0.237588X0.613485X-0.650088X0.100985X0*%
%ADD42RoundRect,0.162500X0.028437X0.925745X-0.815937X0.438245X-0.028437X-0.925745X0.815937X-0.438245X0*%
%ADD43RoundRect,0.137500X0.237588X0.613485X-0.650088X0.100985X-0.237588X-0.613485X0.650088X-0.100985X0*%
%ADD44RoundRect,0.162500X-0.787500X0.487500X-0.787500X-0.487500X0.787500X-0.487500X0.787500X0.487500X0*%
%ADD45RoundRect,0.137500X-0.412500X0.512500X-0.412500X-0.512500X0.412500X-0.512500X0.412500X0.512500X0*%
%ADD46RoundRect,0.162500X-0.487500X-0.787500X0.487500X-0.787500X0.487500X0.787500X-0.487500X0.787500X0*%
%ADD47RoundRect,0.137500X-0.512500X-0.412500X0.512500X-0.412500X0.512500X0.412500X-0.512500X0.412500X0*%
%ADD48RoundRect,0.243750X0.243750X0.456250X-0.243750X0.456250X-0.243750X-0.456250X0.243750X-0.456250X0*%
%ADD49RoundRect,0.243750X0.456250X-0.243750X0.456250X0.243750X-0.456250X0.243750X-0.456250X-0.243750X0*%
G04 APERTURE END LIST*
D10*
%TO.C,PV12*%
X146950000Y-85000000D03*
D11*
X153050000Y-85000000D03*
%TD*%
D12*
%TO.C,D2*%
X159500000Y-93438101D03*
X160437500Y-95061899D03*
%TD*%
D13*
%TO.C,U2*%
X149975000Y-97560000D03*
X149975000Y-96290000D03*
X149975000Y-95020000D03*
X149975000Y-93750000D03*
X145025000Y-93750000D03*
X145025000Y-95020000D03*
X145025000Y-96290000D03*
X145025000Y-97560000D03*
%TD*%
D14*
%TO.C,D5*%
X156561899Y-109531250D03*
X154938101Y-110468750D03*
%TD*%
D15*
%TO.C,D1*%
X154938101Y-89531250D03*
X156561899Y-90468750D03*
%TD*%
D16*
%TO.C,PV1*%
X154858622Y-85474999D03*
D17*
X160141378Y-88525001D03*
%TD*%
D18*
%TO.C,PV8*%
X138524999Y-110141377D03*
D19*
X135475001Y-104858623D03*
%TD*%
D20*
%TO.C,PV7*%
X145141377Y-114525000D03*
D21*
X139858623Y-111475000D03*
%TD*%
D22*
%TO.C,D3*%
X161500000Y-99000000D03*
X161500000Y-100875000D03*
%TD*%
D23*
%TO.C,D10*%
X139531250Y-95061899D03*
X140468750Y-93438101D03*
%TD*%
D24*
%TO.C,D8*%
X140468750Y-106561899D03*
X139531250Y-104938101D03*
%TD*%
D25*
%TO.C,PV3*%
X165000000Y-96950000D03*
D26*
X165000000Y-103050000D03*
%TD*%
D27*
%TO.C,D4*%
X160500000Y-104750000D03*
X159562500Y-106373798D03*
%TD*%
D28*
%TO.C,D7*%
X145061899Y-110468750D03*
X143438101Y-109531250D03*
%TD*%
D29*
%TO.C,PV2*%
X161474999Y-89858622D03*
D30*
X164525001Y-95141378D03*
%TD*%
D31*
%TO.C,Y1*%
X152375000Y-97500000D03*
X152375000Y-96500000D03*
D32*
X157975000Y-97000000D03*
%TD*%
D33*
%TO.C,C5*%
X145000000Y-99550000D03*
X145000000Y-101450000D03*
%TD*%
D34*
%TO.C,D12*%
X149062500Y-88500000D03*
X150937500Y-88500000D03*
%TD*%
D35*
%TO.C,D11*%
X143438101Y-90468750D03*
X145061899Y-89531250D03*
%TD*%
D36*
%TO.C,PV10*%
X135475000Y-95141377D03*
D37*
X138525000Y-89858623D03*
%TD*%
D38*
%TO.C,PV4*%
X164525000Y-104858623D03*
D39*
X161475000Y-110141377D03*
%TD*%
D40*
%TO.C,PV5*%
X160141377Y-111475000D03*
D41*
X154858623Y-114525000D03*
%TD*%
D42*
%TO.C,PV11*%
X139858623Y-88525000D03*
D43*
X145141377Y-85475000D03*
%TD*%
D44*
%TO.C,PV9*%
X135000000Y-103050000D03*
D45*
X135000000Y-96950000D03*
%TD*%
D46*
%TO.C,PV6*%
X153050000Y-115000000D03*
D47*
X146950000Y-115000000D03*
%TD*%
D48*
%TO.C,D6*%
X151125000Y-111500000D03*
X149250000Y-111500000D03*
%TD*%
D49*
%TO.C,D9*%
X138500000Y-101000000D03*
X138500000Y-99125000D03*
%TD*%
M02*
