%TF.GenerationSoftware,KiCad,Pcbnew,8.0.7*%
%TF.CreationDate,2025-01-14T01:45:44+02:00*%
%TF.ProjectId,LumiTimeV2,4c756d69-5469-46d6-9556-322e6b696361,rev?*%
%TF.SameCoordinates,Original*%
%TF.FileFunction,Legend,Bot*%
%TF.FilePolarity,Positive*%
%FSLAX46Y46*%
G04 Gerber Fmt 4.6, Leading zero omitted, Abs format (unit mm)*
G04 Created by KiCad (PCBNEW 8.0.7) date 2025-01-14 01:45:44*
%MOMM*%
%LPD*%
G01*
G04 APERTURE LIST*
%ADD10C,0.200000*%
%ADD11C,0.150000*%
%ADD12C,0.120000*%
G04 APERTURE END LIST*
D10*
X152239285Y-101936011D02*
X151734209Y-101430934D01*
X152340301Y-101430934D02*
X151633194Y-102542102D01*
X151498507Y-101801324D02*
X152003583Y-102306400D01*
X151397492Y-102306400D02*
X152104598Y-101195232D01*
X151835224Y-101060545D02*
X151431163Y-100656484D01*
X150926087Y-101565621D02*
X151633194Y-100858515D01*
X150252652Y-100824843D02*
X150286324Y-100925858D01*
X150286324Y-100925858D02*
X150421011Y-101060545D01*
X150421011Y-101060545D02*
X150522026Y-101094217D01*
X150522026Y-101094217D02*
X150623041Y-101060545D01*
X150623041Y-101060545D02*
X150892415Y-100791171D01*
X150892415Y-100791171D02*
X150926087Y-100690156D01*
X150926087Y-100690156D02*
X150892415Y-100589140D01*
X150892415Y-100589140D02*
X150757728Y-100454453D01*
X150757728Y-100454453D02*
X150656713Y-100420782D01*
X150656713Y-100420782D02*
X150555698Y-100454453D01*
X150555698Y-100454453D02*
X150488354Y-100521797D01*
X150488354Y-100521797D02*
X150757728Y-100925858D01*
X149612888Y-100185079D02*
X149646560Y-100286095D01*
X149646560Y-100286095D02*
X149781247Y-100420782D01*
X149781247Y-100420782D02*
X149882262Y-100454453D01*
X149882262Y-100454453D02*
X149949606Y-100454453D01*
X149949606Y-100454453D02*
X150050621Y-100420782D01*
X150050621Y-100420782D02*
X150252652Y-100218751D01*
X150252652Y-100218751D02*
X150286324Y-100117736D01*
X150286324Y-100117736D02*
X150286324Y-100050392D01*
X150286324Y-100050392D02*
X150252652Y-99949377D01*
X150252652Y-99949377D02*
X150117965Y-99814690D01*
X150117965Y-99814690D02*
X150016949Y-99781018D01*
X149276171Y-99915705D02*
X149983278Y-99208598D01*
X148973125Y-99612659D02*
X149343514Y-99242270D01*
X149343514Y-99242270D02*
X149444530Y-99208598D01*
X149444530Y-99208598D02*
X149545545Y-99242270D01*
X149545545Y-99242270D02*
X149646560Y-99343285D01*
X149646560Y-99343285D02*
X149680232Y-99444301D01*
X149680232Y-99444301D02*
X149680232Y-99511644D01*
X149208827Y-98434148D02*
X149141484Y-98366805D01*
X149141484Y-98366805D02*
X149040469Y-98333133D01*
X149040469Y-98333133D02*
X148973125Y-98333133D01*
X148973125Y-98333133D02*
X148872110Y-98366805D01*
X148872110Y-98366805D02*
X148703751Y-98467820D01*
X148703751Y-98467820D02*
X148535392Y-98636179D01*
X148535392Y-98636179D02*
X148434377Y-98804537D01*
X148434377Y-98804537D02*
X148400705Y-98905553D01*
X148400705Y-98905553D02*
X148400705Y-98972896D01*
X148400705Y-98972896D02*
X148434377Y-99073911D01*
X148434377Y-99073911D02*
X148501721Y-99141255D01*
X148501721Y-99141255D02*
X148602736Y-99174927D01*
X148602736Y-99174927D02*
X148670079Y-99174927D01*
X148670079Y-99174927D02*
X148771095Y-99141255D01*
X148771095Y-99141255D02*
X148939453Y-99040240D01*
X148939453Y-99040240D02*
X149107812Y-98871881D01*
X149107812Y-98871881D02*
X149208827Y-98703522D01*
X149208827Y-98703522D02*
X149242499Y-98602507D01*
X149242499Y-98602507D02*
X149242499Y-98535163D01*
X149242499Y-98535163D02*
X149208827Y-98434148D01*
X147592583Y-98232117D02*
X147996644Y-98636179D01*
X147794614Y-98434148D02*
X148501720Y-97727041D01*
X148501720Y-97727041D02*
X148468049Y-97895400D01*
X148468049Y-97895400D02*
X148468049Y-98030087D01*
X148468049Y-98030087D02*
X148501720Y-98131102D01*
D11*
X138166666Y-97609580D02*
X138214285Y-97657200D01*
X138214285Y-97657200D02*
X138357142Y-97704819D01*
X138357142Y-97704819D02*
X138452380Y-97704819D01*
X138452380Y-97704819D02*
X138595237Y-97657200D01*
X138595237Y-97657200D02*
X138690475Y-97561961D01*
X138690475Y-97561961D02*
X138738094Y-97466723D01*
X138738094Y-97466723D02*
X138785713Y-97276247D01*
X138785713Y-97276247D02*
X138785713Y-97133390D01*
X138785713Y-97133390D02*
X138738094Y-96942914D01*
X138738094Y-96942914D02*
X138690475Y-96847676D01*
X138690475Y-96847676D02*
X138595237Y-96752438D01*
X138595237Y-96752438D02*
X138452380Y-96704819D01*
X138452380Y-96704819D02*
X138357142Y-96704819D01*
X138357142Y-96704819D02*
X138214285Y-96752438D01*
X138214285Y-96752438D02*
X138166666Y-96800057D01*
X137309523Y-97038152D02*
X137309523Y-97704819D01*
X137547618Y-96657200D02*
X137785713Y-97371485D01*
X137785713Y-97371485D02*
X137166666Y-97371485D01*
X146242857Y-90704819D02*
X146576190Y-90228628D01*
X146814285Y-90704819D02*
X146814285Y-89704819D01*
X146814285Y-89704819D02*
X146433333Y-89704819D01*
X146433333Y-89704819D02*
X146338095Y-89752438D01*
X146338095Y-89752438D02*
X146290476Y-89800057D01*
X146290476Y-89800057D02*
X146242857Y-89895295D01*
X146242857Y-89895295D02*
X146242857Y-90038152D01*
X146242857Y-90038152D02*
X146290476Y-90133390D01*
X146290476Y-90133390D02*
X146338095Y-90181009D01*
X146338095Y-90181009D02*
X146433333Y-90228628D01*
X146433333Y-90228628D02*
X146814285Y-90228628D01*
X145290476Y-90704819D02*
X145861904Y-90704819D01*
X145576190Y-90704819D02*
X145576190Y-89704819D01*
X145576190Y-89704819D02*
X145671428Y-89847676D01*
X145671428Y-89847676D02*
X145766666Y-89942914D01*
X145766666Y-89942914D02*
X145861904Y-89990533D01*
X144671428Y-89704819D02*
X144576190Y-89704819D01*
X144576190Y-89704819D02*
X144480952Y-89752438D01*
X144480952Y-89752438D02*
X144433333Y-89800057D01*
X144433333Y-89800057D02*
X144385714Y-89895295D01*
X144385714Y-89895295D02*
X144338095Y-90085771D01*
X144338095Y-90085771D02*
X144338095Y-90323866D01*
X144338095Y-90323866D02*
X144385714Y-90514342D01*
X144385714Y-90514342D02*
X144433333Y-90609580D01*
X144433333Y-90609580D02*
X144480952Y-90657200D01*
X144480952Y-90657200D02*
X144576190Y-90704819D01*
X144576190Y-90704819D02*
X144671428Y-90704819D01*
X144671428Y-90704819D02*
X144766666Y-90657200D01*
X144766666Y-90657200D02*
X144814285Y-90609580D01*
X144814285Y-90609580D02*
X144861904Y-90514342D01*
X144861904Y-90514342D02*
X144909523Y-90323866D01*
X144909523Y-90323866D02*
X144909523Y-90085771D01*
X144909523Y-90085771D02*
X144861904Y-89895295D01*
X144861904Y-89895295D02*
X144814285Y-89800057D01*
X144814285Y-89800057D02*
X144766666Y-89752438D01*
X144766666Y-89752438D02*
X144671428Y-89704819D01*
X157666666Y-94704819D02*
X157999999Y-94228628D01*
X158238094Y-94704819D02*
X158238094Y-93704819D01*
X158238094Y-93704819D02*
X157857142Y-93704819D01*
X157857142Y-93704819D02*
X157761904Y-93752438D01*
X157761904Y-93752438D02*
X157714285Y-93800057D01*
X157714285Y-93800057D02*
X157666666Y-93895295D01*
X157666666Y-93895295D02*
X157666666Y-94038152D01*
X157666666Y-94038152D02*
X157714285Y-94133390D01*
X157714285Y-94133390D02*
X157761904Y-94181009D01*
X157761904Y-94181009D02*
X157857142Y-94228628D01*
X157857142Y-94228628D02*
X158238094Y-94228628D01*
X157333332Y-93704819D02*
X156714285Y-93704819D01*
X156714285Y-93704819D02*
X157047618Y-94085771D01*
X157047618Y-94085771D02*
X156904761Y-94085771D01*
X156904761Y-94085771D02*
X156809523Y-94133390D01*
X156809523Y-94133390D02*
X156761904Y-94181009D01*
X156761904Y-94181009D02*
X156714285Y-94276247D01*
X156714285Y-94276247D02*
X156714285Y-94514342D01*
X156714285Y-94514342D02*
X156761904Y-94609580D01*
X156761904Y-94609580D02*
X156809523Y-94657200D01*
X156809523Y-94657200D02*
X156904761Y-94704819D01*
X156904761Y-94704819D02*
X157190475Y-94704819D01*
X157190475Y-94704819D02*
X157285713Y-94657200D01*
X157285713Y-94657200D02*
X157333332Y-94609580D01*
X154416666Y-107109580D02*
X154464285Y-107157200D01*
X154464285Y-107157200D02*
X154607142Y-107204819D01*
X154607142Y-107204819D02*
X154702380Y-107204819D01*
X154702380Y-107204819D02*
X154845237Y-107157200D01*
X154845237Y-107157200D02*
X154940475Y-107061961D01*
X154940475Y-107061961D02*
X154988094Y-106966723D01*
X154988094Y-106966723D02*
X155035713Y-106776247D01*
X155035713Y-106776247D02*
X155035713Y-106633390D01*
X155035713Y-106633390D02*
X154988094Y-106442914D01*
X154988094Y-106442914D02*
X154940475Y-106347676D01*
X154940475Y-106347676D02*
X154845237Y-106252438D01*
X154845237Y-106252438D02*
X154702380Y-106204819D01*
X154702380Y-106204819D02*
X154607142Y-106204819D01*
X154607142Y-106204819D02*
X154464285Y-106252438D01*
X154464285Y-106252438D02*
X154416666Y-106300057D01*
X154035713Y-106300057D02*
X153988094Y-106252438D01*
X153988094Y-106252438D02*
X153892856Y-106204819D01*
X153892856Y-106204819D02*
X153654761Y-106204819D01*
X153654761Y-106204819D02*
X153559523Y-106252438D01*
X153559523Y-106252438D02*
X153511904Y-106300057D01*
X153511904Y-106300057D02*
X153464285Y-106395295D01*
X153464285Y-106395295D02*
X153464285Y-106490533D01*
X153464285Y-106490533D02*
X153511904Y-106633390D01*
X153511904Y-106633390D02*
X154083332Y-107204819D01*
X154083332Y-107204819D02*
X153464285Y-107204819D01*
X157454819Y-92333333D02*
X156978628Y-92000000D01*
X157454819Y-91761905D02*
X156454819Y-91761905D01*
X156454819Y-91761905D02*
X156454819Y-92142857D01*
X156454819Y-92142857D02*
X156502438Y-92238095D01*
X156502438Y-92238095D02*
X156550057Y-92285714D01*
X156550057Y-92285714D02*
X156645295Y-92333333D01*
X156645295Y-92333333D02*
X156788152Y-92333333D01*
X156788152Y-92333333D02*
X156883390Y-92285714D01*
X156883390Y-92285714D02*
X156931009Y-92238095D01*
X156931009Y-92238095D02*
X156978628Y-92142857D01*
X156978628Y-92142857D02*
X156978628Y-91761905D01*
X157454819Y-93285714D02*
X157454819Y-92714286D01*
X157454819Y-93000000D02*
X156454819Y-93000000D01*
X156454819Y-93000000D02*
X156597676Y-92904762D01*
X156597676Y-92904762D02*
X156692914Y-92809524D01*
X156692914Y-92809524D02*
X156740533Y-92714286D01*
X138392857Y-95204819D02*
X138726190Y-94728628D01*
X138964285Y-95204819D02*
X138964285Y-94204819D01*
X138964285Y-94204819D02*
X138583333Y-94204819D01*
X138583333Y-94204819D02*
X138488095Y-94252438D01*
X138488095Y-94252438D02*
X138440476Y-94300057D01*
X138440476Y-94300057D02*
X138392857Y-94395295D01*
X138392857Y-94395295D02*
X138392857Y-94538152D01*
X138392857Y-94538152D02*
X138440476Y-94633390D01*
X138440476Y-94633390D02*
X138488095Y-94681009D01*
X138488095Y-94681009D02*
X138583333Y-94728628D01*
X138583333Y-94728628D02*
X138964285Y-94728628D01*
X137440476Y-95204819D02*
X138011904Y-95204819D01*
X137726190Y-95204819D02*
X137726190Y-94204819D01*
X137726190Y-94204819D02*
X137821428Y-94347676D01*
X137821428Y-94347676D02*
X137916666Y-94442914D01*
X137916666Y-94442914D02*
X138011904Y-94490533D01*
X137107142Y-94204819D02*
X136488095Y-94204819D01*
X136488095Y-94204819D02*
X136821428Y-94585771D01*
X136821428Y-94585771D02*
X136678571Y-94585771D01*
X136678571Y-94585771D02*
X136583333Y-94633390D01*
X136583333Y-94633390D02*
X136535714Y-94681009D01*
X136535714Y-94681009D02*
X136488095Y-94776247D01*
X136488095Y-94776247D02*
X136488095Y-95014342D01*
X136488095Y-95014342D02*
X136535714Y-95109580D01*
X136535714Y-95109580D02*
X136583333Y-95157200D01*
X136583333Y-95157200D02*
X136678571Y-95204819D01*
X136678571Y-95204819D02*
X136964285Y-95204819D01*
X136964285Y-95204819D02*
X137059523Y-95157200D01*
X137059523Y-95157200D02*
X137107142Y-95109580D01*
X152666666Y-93359580D02*
X152714285Y-93407200D01*
X152714285Y-93407200D02*
X152857142Y-93454819D01*
X152857142Y-93454819D02*
X152952380Y-93454819D01*
X152952380Y-93454819D02*
X153095237Y-93407200D01*
X153095237Y-93407200D02*
X153190475Y-93311961D01*
X153190475Y-93311961D02*
X153238094Y-93216723D01*
X153238094Y-93216723D02*
X153285713Y-93026247D01*
X153285713Y-93026247D02*
X153285713Y-92883390D01*
X153285713Y-92883390D02*
X153238094Y-92692914D01*
X153238094Y-92692914D02*
X153190475Y-92597676D01*
X153190475Y-92597676D02*
X153095237Y-92502438D01*
X153095237Y-92502438D02*
X152952380Y-92454819D01*
X152952380Y-92454819D02*
X152857142Y-92454819D01*
X152857142Y-92454819D02*
X152714285Y-92502438D01*
X152714285Y-92502438D02*
X152666666Y-92550057D01*
X152333332Y-92454819D02*
X151714285Y-92454819D01*
X151714285Y-92454819D02*
X152047618Y-92835771D01*
X152047618Y-92835771D02*
X151904761Y-92835771D01*
X151904761Y-92835771D02*
X151809523Y-92883390D01*
X151809523Y-92883390D02*
X151761904Y-92931009D01*
X151761904Y-92931009D02*
X151714285Y-93026247D01*
X151714285Y-93026247D02*
X151714285Y-93264342D01*
X151714285Y-93264342D02*
X151761904Y-93359580D01*
X151761904Y-93359580D02*
X151809523Y-93407200D01*
X151809523Y-93407200D02*
X151904761Y-93454819D01*
X151904761Y-93454819D02*
X152190475Y-93454819D01*
X152190475Y-93454819D02*
X152285713Y-93407200D01*
X152285713Y-93407200D02*
X152333332Y-93359580D01*
X157833333Y-110954819D02*
X157833333Y-111669104D01*
X157833333Y-111669104D02*
X157880952Y-111811961D01*
X157880952Y-111811961D02*
X157976190Y-111907200D01*
X157976190Y-111907200D02*
X158119047Y-111954819D01*
X158119047Y-111954819D02*
X158214285Y-111954819D01*
X156833333Y-111954819D02*
X157404761Y-111954819D01*
X157119047Y-111954819D02*
X157119047Y-110954819D01*
X157119047Y-110954819D02*
X157214285Y-111097676D01*
X157214285Y-111097676D02*
X157309523Y-111192914D01*
X157309523Y-111192914D02*
X157404761Y-111240533D01*
X138666666Y-105454819D02*
X138999999Y-104978628D01*
X139238094Y-105454819D02*
X139238094Y-104454819D01*
X139238094Y-104454819D02*
X138857142Y-104454819D01*
X138857142Y-104454819D02*
X138761904Y-104502438D01*
X138761904Y-104502438D02*
X138714285Y-104550057D01*
X138714285Y-104550057D02*
X138666666Y-104645295D01*
X138666666Y-104645295D02*
X138666666Y-104788152D01*
X138666666Y-104788152D02*
X138714285Y-104883390D01*
X138714285Y-104883390D02*
X138761904Y-104931009D01*
X138761904Y-104931009D02*
X138857142Y-104978628D01*
X138857142Y-104978628D02*
X139238094Y-104978628D01*
X138190475Y-105454819D02*
X137999999Y-105454819D01*
X137999999Y-105454819D02*
X137904761Y-105407200D01*
X137904761Y-105407200D02*
X137857142Y-105359580D01*
X137857142Y-105359580D02*
X137761904Y-105216723D01*
X137761904Y-105216723D02*
X137714285Y-105026247D01*
X137714285Y-105026247D02*
X137714285Y-104645295D01*
X137714285Y-104645295D02*
X137761904Y-104550057D01*
X137761904Y-104550057D02*
X137809523Y-104502438D01*
X137809523Y-104502438D02*
X137904761Y-104454819D01*
X137904761Y-104454819D02*
X138095237Y-104454819D01*
X138095237Y-104454819D02*
X138190475Y-104502438D01*
X138190475Y-104502438D02*
X138238094Y-104550057D01*
X138238094Y-104550057D02*
X138285713Y-104645295D01*
X138285713Y-104645295D02*
X138285713Y-104883390D01*
X138285713Y-104883390D02*
X138238094Y-104978628D01*
X138238094Y-104978628D02*
X138190475Y-105026247D01*
X138190475Y-105026247D02*
X138095237Y-105073866D01*
X138095237Y-105073866D02*
X137904761Y-105073866D01*
X137904761Y-105073866D02*
X137809523Y-105026247D01*
X137809523Y-105026247D02*
X137761904Y-104978628D01*
X137761904Y-104978628D02*
X137714285Y-104883390D01*
X145454819Y-111333333D02*
X144978628Y-111000000D01*
X145454819Y-110761905D02*
X144454819Y-110761905D01*
X144454819Y-110761905D02*
X144454819Y-111142857D01*
X144454819Y-111142857D02*
X144502438Y-111238095D01*
X144502438Y-111238095D02*
X144550057Y-111285714D01*
X144550057Y-111285714D02*
X144645295Y-111333333D01*
X144645295Y-111333333D02*
X144788152Y-111333333D01*
X144788152Y-111333333D02*
X144883390Y-111285714D01*
X144883390Y-111285714D02*
X144931009Y-111238095D01*
X144931009Y-111238095D02*
X144978628Y-111142857D01*
X144978628Y-111142857D02*
X144978628Y-110761905D01*
X144883390Y-111904762D02*
X144835771Y-111809524D01*
X144835771Y-111809524D02*
X144788152Y-111761905D01*
X144788152Y-111761905D02*
X144692914Y-111714286D01*
X144692914Y-111714286D02*
X144645295Y-111714286D01*
X144645295Y-111714286D02*
X144550057Y-111761905D01*
X144550057Y-111761905D02*
X144502438Y-111809524D01*
X144502438Y-111809524D02*
X144454819Y-111904762D01*
X144454819Y-111904762D02*
X144454819Y-112095238D01*
X144454819Y-112095238D02*
X144502438Y-112190476D01*
X144502438Y-112190476D02*
X144550057Y-112238095D01*
X144550057Y-112238095D02*
X144645295Y-112285714D01*
X144645295Y-112285714D02*
X144692914Y-112285714D01*
X144692914Y-112285714D02*
X144788152Y-112238095D01*
X144788152Y-112238095D02*
X144835771Y-112190476D01*
X144835771Y-112190476D02*
X144883390Y-112095238D01*
X144883390Y-112095238D02*
X144883390Y-111904762D01*
X144883390Y-111904762D02*
X144931009Y-111809524D01*
X144931009Y-111809524D02*
X144978628Y-111761905D01*
X144978628Y-111761905D02*
X145073866Y-111714286D01*
X145073866Y-111714286D02*
X145264342Y-111714286D01*
X145264342Y-111714286D02*
X145359580Y-111761905D01*
X145359580Y-111761905D02*
X145407200Y-111809524D01*
X145407200Y-111809524D02*
X145454819Y-111904762D01*
X145454819Y-111904762D02*
X145454819Y-112095238D01*
X145454819Y-112095238D02*
X145407200Y-112190476D01*
X145407200Y-112190476D02*
X145359580Y-112238095D01*
X145359580Y-112238095D02*
X145264342Y-112285714D01*
X145264342Y-112285714D02*
X145073866Y-112285714D01*
X145073866Y-112285714D02*
X144978628Y-112238095D01*
X144978628Y-112238095D02*
X144931009Y-112190476D01*
X144931009Y-112190476D02*
X144883390Y-112095238D01*
X154166666Y-109359580D02*
X154214285Y-109407200D01*
X154214285Y-109407200D02*
X154357142Y-109454819D01*
X154357142Y-109454819D02*
X154452380Y-109454819D01*
X154452380Y-109454819D02*
X154595237Y-109407200D01*
X154595237Y-109407200D02*
X154690475Y-109311961D01*
X154690475Y-109311961D02*
X154738094Y-109216723D01*
X154738094Y-109216723D02*
X154785713Y-109026247D01*
X154785713Y-109026247D02*
X154785713Y-108883390D01*
X154785713Y-108883390D02*
X154738094Y-108692914D01*
X154738094Y-108692914D02*
X154690475Y-108597676D01*
X154690475Y-108597676D02*
X154595237Y-108502438D01*
X154595237Y-108502438D02*
X154452380Y-108454819D01*
X154452380Y-108454819D02*
X154357142Y-108454819D01*
X154357142Y-108454819D02*
X154214285Y-108502438D01*
X154214285Y-108502438D02*
X154166666Y-108550057D01*
X153214285Y-109454819D02*
X153785713Y-109454819D01*
X153499999Y-109454819D02*
X153499999Y-108454819D01*
X153499999Y-108454819D02*
X153595237Y-108597676D01*
X153595237Y-108597676D02*
X153690475Y-108692914D01*
X153690475Y-108692914D02*
X153785713Y-108740533D01*
X142204819Y-91607142D02*
X141728628Y-91273809D01*
X142204819Y-91035714D02*
X141204819Y-91035714D01*
X141204819Y-91035714D02*
X141204819Y-91416666D01*
X141204819Y-91416666D02*
X141252438Y-91511904D01*
X141252438Y-91511904D02*
X141300057Y-91559523D01*
X141300057Y-91559523D02*
X141395295Y-91607142D01*
X141395295Y-91607142D02*
X141538152Y-91607142D01*
X141538152Y-91607142D02*
X141633390Y-91559523D01*
X141633390Y-91559523D02*
X141681009Y-91511904D01*
X141681009Y-91511904D02*
X141728628Y-91416666D01*
X141728628Y-91416666D02*
X141728628Y-91035714D01*
X142204819Y-92559523D02*
X142204819Y-91988095D01*
X142204819Y-92273809D02*
X141204819Y-92273809D01*
X141204819Y-92273809D02*
X141347676Y-92178571D01*
X141347676Y-92178571D02*
X141442914Y-92083333D01*
X141442914Y-92083333D02*
X141490533Y-91988095D01*
X142204819Y-93511904D02*
X142204819Y-92940476D01*
X142204819Y-93226190D02*
X141204819Y-93226190D01*
X141204819Y-93226190D02*
X141347676Y-93130952D01*
X141347676Y-93130952D02*
X141442914Y-93035714D01*
X141442914Y-93035714D02*
X141490533Y-92940476D01*
X157666666Y-99704819D02*
X157999999Y-99228628D01*
X158238094Y-99704819D02*
X158238094Y-98704819D01*
X158238094Y-98704819D02*
X157857142Y-98704819D01*
X157857142Y-98704819D02*
X157761904Y-98752438D01*
X157761904Y-98752438D02*
X157714285Y-98800057D01*
X157714285Y-98800057D02*
X157666666Y-98895295D01*
X157666666Y-98895295D02*
X157666666Y-99038152D01*
X157666666Y-99038152D02*
X157714285Y-99133390D01*
X157714285Y-99133390D02*
X157761904Y-99181009D01*
X157761904Y-99181009D02*
X157857142Y-99228628D01*
X157857142Y-99228628D02*
X158238094Y-99228628D01*
X156761904Y-98704819D02*
X157238094Y-98704819D01*
X157238094Y-98704819D02*
X157285713Y-99181009D01*
X157285713Y-99181009D02*
X157238094Y-99133390D01*
X157238094Y-99133390D02*
X157142856Y-99085771D01*
X157142856Y-99085771D02*
X156904761Y-99085771D01*
X156904761Y-99085771D02*
X156809523Y-99133390D01*
X156809523Y-99133390D02*
X156761904Y-99181009D01*
X156761904Y-99181009D02*
X156714285Y-99276247D01*
X156714285Y-99276247D02*
X156714285Y-99514342D01*
X156714285Y-99514342D02*
X156761904Y-99609580D01*
X156761904Y-99609580D02*
X156809523Y-99657200D01*
X156809523Y-99657200D02*
X156904761Y-99704819D01*
X156904761Y-99704819D02*
X157142856Y-99704819D01*
X157142856Y-99704819D02*
X157238094Y-99657200D01*
X157238094Y-99657200D02*
X157285713Y-99609580D01*
X146261904Y-103954819D02*
X146261904Y-104764342D01*
X146261904Y-104764342D02*
X146214285Y-104859580D01*
X146214285Y-104859580D02*
X146166666Y-104907200D01*
X146166666Y-104907200D02*
X146071428Y-104954819D01*
X146071428Y-104954819D02*
X145880952Y-104954819D01*
X145880952Y-104954819D02*
X145785714Y-104907200D01*
X145785714Y-104907200D02*
X145738095Y-104859580D01*
X145738095Y-104859580D02*
X145690476Y-104764342D01*
X145690476Y-104764342D02*
X145690476Y-103954819D01*
X144690476Y-104954819D02*
X145261904Y-104954819D01*
X144976190Y-104954819D02*
X144976190Y-103954819D01*
X144976190Y-103954819D02*
X145071428Y-104097676D01*
X145071428Y-104097676D02*
X145166666Y-104192914D01*
X145166666Y-104192914D02*
X145261904Y-104240533D01*
X154954819Y-92357142D02*
X154478628Y-92023809D01*
X154954819Y-91785714D02*
X153954819Y-91785714D01*
X153954819Y-91785714D02*
X153954819Y-92166666D01*
X153954819Y-92166666D02*
X154002438Y-92261904D01*
X154002438Y-92261904D02*
X154050057Y-92309523D01*
X154050057Y-92309523D02*
X154145295Y-92357142D01*
X154145295Y-92357142D02*
X154288152Y-92357142D01*
X154288152Y-92357142D02*
X154383390Y-92309523D01*
X154383390Y-92309523D02*
X154431009Y-92261904D01*
X154431009Y-92261904D02*
X154478628Y-92166666D01*
X154478628Y-92166666D02*
X154478628Y-91785714D01*
X154954819Y-93309523D02*
X154954819Y-92738095D01*
X154954819Y-93023809D02*
X153954819Y-93023809D01*
X153954819Y-93023809D02*
X154097676Y-92928571D01*
X154097676Y-92928571D02*
X154192914Y-92833333D01*
X154192914Y-92833333D02*
X154240533Y-92738095D01*
X154050057Y-93690476D02*
X154002438Y-93738095D01*
X154002438Y-93738095D02*
X153954819Y-93833333D01*
X153954819Y-93833333D02*
X153954819Y-94071428D01*
X153954819Y-94071428D02*
X154002438Y-94166666D01*
X154002438Y-94166666D02*
X154050057Y-94214285D01*
X154050057Y-94214285D02*
X154145295Y-94261904D01*
X154145295Y-94261904D02*
X154240533Y-94261904D01*
X154240533Y-94261904D02*
X154383390Y-94214285D01*
X154383390Y-94214285D02*
X154954819Y-93642857D01*
X154954819Y-93642857D02*
X154954819Y-94261904D01*
X143714285Y-86204819D02*
X143714285Y-85204819D01*
X143714285Y-85204819D02*
X143476190Y-85204819D01*
X143476190Y-85204819D02*
X143333333Y-85252438D01*
X143333333Y-85252438D02*
X143238095Y-85347676D01*
X143238095Y-85347676D02*
X143190476Y-85442914D01*
X143190476Y-85442914D02*
X143142857Y-85633390D01*
X143142857Y-85633390D02*
X143142857Y-85776247D01*
X143142857Y-85776247D02*
X143190476Y-85966723D01*
X143190476Y-85966723D02*
X143238095Y-86061961D01*
X143238095Y-86061961D02*
X143333333Y-86157200D01*
X143333333Y-86157200D02*
X143476190Y-86204819D01*
X143476190Y-86204819D02*
X143714285Y-86204819D01*
X142190476Y-86204819D02*
X142761904Y-86204819D01*
X142476190Y-86204819D02*
X142476190Y-85204819D01*
X142476190Y-85204819D02*
X142571428Y-85347676D01*
X142571428Y-85347676D02*
X142666666Y-85442914D01*
X142666666Y-85442914D02*
X142761904Y-85490533D01*
X141857142Y-85204819D02*
X141238095Y-85204819D01*
X141238095Y-85204819D02*
X141571428Y-85585771D01*
X141571428Y-85585771D02*
X141428571Y-85585771D01*
X141428571Y-85585771D02*
X141333333Y-85633390D01*
X141333333Y-85633390D02*
X141285714Y-85681009D01*
X141285714Y-85681009D02*
X141238095Y-85776247D01*
X141238095Y-85776247D02*
X141238095Y-86014342D01*
X141238095Y-86014342D02*
X141285714Y-86109580D01*
X141285714Y-86109580D02*
X141333333Y-86157200D01*
X141333333Y-86157200D02*
X141428571Y-86204819D01*
X141428571Y-86204819D02*
X141714285Y-86204819D01*
X141714285Y-86204819D02*
X141809523Y-86157200D01*
X141809523Y-86157200D02*
X141857142Y-86109580D01*
X138642857Y-100454819D02*
X138976190Y-99978628D01*
X139214285Y-100454819D02*
X139214285Y-99454819D01*
X139214285Y-99454819D02*
X138833333Y-99454819D01*
X138833333Y-99454819D02*
X138738095Y-99502438D01*
X138738095Y-99502438D02*
X138690476Y-99550057D01*
X138690476Y-99550057D02*
X138642857Y-99645295D01*
X138642857Y-99645295D02*
X138642857Y-99788152D01*
X138642857Y-99788152D02*
X138690476Y-99883390D01*
X138690476Y-99883390D02*
X138738095Y-99931009D01*
X138738095Y-99931009D02*
X138833333Y-99978628D01*
X138833333Y-99978628D02*
X139214285Y-99978628D01*
X137690476Y-100454819D02*
X138261904Y-100454819D01*
X137976190Y-100454819D02*
X137976190Y-99454819D01*
X137976190Y-99454819D02*
X138071428Y-99597676D01*
X138071428Y-99597676D02*
X138166666Y-99692914D01*
X138166666Y-99692914D02*
X138261904Y-99740533D01*
X136833333Y-99788152D02*
X136833333Y-100454819D01*
X137071428Y-99407200D02*
X137309523Y-100121485D01*
X137309523Y-100121485D02*
X136690476Y-100121485D01*
X157666666Y-97204819D02*
X157999999Y-96728628D01*
X158238094Y-97204819D02*
X158238094Y-96204819D01*
X158238094Y-96204819D02*
X157857142Y-96204819D01*
X157857142Y-96204819D02*
X157761904Y-96252438D01*
X157761904Y-96252438D02*
X157714285Y-96300057D01*
X157714285Y-96300057D02*
X157666666Y-96395295D01*
X157666666Y-96395295D02*
X157666666Y-96538152D01*
X157666666Y-96538152D02*
X157714285Y-96633390D01*
X157714285Y-96633390D02*
X157761904Y-96681009D01*
X157761904Y-96681009D02*
X157857142Y-96728628D01*
X157857142Y-96728628D02*
X158238094Y-96728628D01*
X156809523Y-96538152D02*
X156809523Y-97204819D01*
X157047618Y-96157200D02*
X157285713Y-96871485D01*
X157285713Y-96871485D02*
X156666666Y-96871485D01*
X147954819Y-111333333D02*
X147478628Y-111000000D01*
X147954819Y-110761905D02*
X146954819Y-110761905D01*
X146954819Y-110761905D02*
X146954819Y-111142857D01*
X146954819Y-111142857D02*
X147002438Y-111238095D01*
X147002438Y-111238095D02*
X147050057Y-111285714D01*
X147050057Y-111285714D02*
X147145295Y-111333333D01*
X147145295Y-111333333D02*
X147288152Y-111333333D01*
X147288152Y-111333333D02*
X147383390Y-111285714D01*
X147383390Y-111285714D02*
X147431009Y-111238095D01*
X147431009Y-111238095D02*
X147478628Y-111142857D01*
X147478628Y-111142857D02*
X147478628Y-110761905D01*
X146954819Y-111666667D02*
X146954819Y-112333333D01*
X146954819Y-112333333D02*
X147954819Y-111904762D01*
X150142857Y-89454819D02*
X150476190Y-88978628D01*
X150714285Y-89454819D02*
X150714285Y-88454819D01*
X150714285Y-88454819D02*
X150333333Y-88454819D01*
X150333333Y-88454819D02*
X150238095Y-88502438D01*
X150238095Y-88502438D02*
X150190476Y-88550057D01*
X150190476Y-88550057D02*
X150142857Y-88645295D01*
X150142857Y-88645295D02*
X150142857Y-88788152D01*
X150142857Y-88788152D02*
X150190476Y-88883390D01*
X150190476Y-88883390D02*
X150238095Y-88931009D01*
X150238095Y-88931009D02*
X150333333Y-88978628D01*
X150333333Y-88978628D02*
X150714285Y-88978628D01*
X149190476Y-89454819D02*
X149761904Y-89454819D01*
X149476190Y-89454819D02*
X149476190Y-88454819D01*
X149476190Y-88454819D02*
X149571428Y-88597676D01*
X149571428Y-88597676D02*
X149666666Y-88692914D01*
X149666666Y-88692914D02*
X149761904Y-88740533D01*
X148333333Y-88454819D02*
X148523809Y-88454819D01*
X148523809Y-88454819D02*
X148619047Y-88502438D01*
X148619047Y-88502438D02*
X148666666Y-88550057D01*
X148666666Y-88550057D02*
X148761904Y-88692914D01*
X148761904Y-88692914D02*
X148809523Y-88883390D01*
X148809523Y-88883390D02*
X148809523Y-89264342D01*
X148809523Y-89264342D02*
X148761904Y-89359580D01*
X148761904Y-89359580D02*
X148714285Y-89407200D01*
X148714285Y-89407200D02*
X148619047Y-89454819D01*
X148619047Y-89454819D02*
X148428571Y-89454819D01*
X148428571Y-89454819D02*
X148333333Y-89407200D01*
X148333333Y-89407200D02*
X148285714Y-89359580D01*
X148285714Y-89359580D02*
X148238095Y-89264342D01*
X148238095Y-89264342D02*
X148238095Y-89026247D01*
X148238095Y-89026247D02*
X148285714Y-88931009D01*
X148285714Y-88931009D02*
X148333333Y-88883390D01*
X148333333Y-88883390D02*
X148428571Y-88835771D01*
X148428571Y-88835771D02*
X148619047Y-88835771D01*
X148619047Y-88835771D02*
X148714285Y-88883390D01*
X148714285Y-88883390D02*
X148761904Y-88931009D01*
X148761904Y-88931009D02*
X148809523Y-89026247D01*
X157916666Y-101954819D02*
X158249999Y-101478628D01*
X158488094Y-101954819D02*
X158488094Y-100954819D01*
X158488094Y-100954819D02*
X158107142Y-100954819D01*
X158107142Y-100954819D02*
X158011904Y-101002438D01*
X158011904Y-101002438D02*
X157964285Y-101050057D01*
X157964285Y-101050057D02*
X157916666Y-101145295D01*
X157916666Y-101145295D02*
X157916666Y-101288152D01*
X157916666Y-101288152D02*
X157964285Y-101383390D01*
X157964285Y-101383390D02*
X158011904Y-101431009D01*
X158011904Y-101431009D02*
X158107142Y-101478628D01*
X158107142Y-101478628D02*
X158488094Y-101478628D01*
X157059523Y-100954819D02*
X157249999Y-100954819D01*
X157249999Y-100954819D02*
X157345237Y-101002438D01*
X157345237Y-101002438D02*
X157392856Y-101050057D01*
X157392856Y-101050057D02*
X157488094Y-101192914D01*
X157488094Y-101192914D02*
X157535713Y-101383390D01*
X157535713Y-101383390D02*
X157535713Y-101764342D01*
X157535713Y-101764342D02*
X157488094Y-101859580D01*
X157488094Y-101859580D02*
X157440475Y-101907200D01*
X157440475Y-101907200D02*
X157345237Y-101954819D01*
X157345237Y-101954819D02*
X157154761Y-101954819D01*
X157154761Y-101954819D02*
X157059523Y-101907200D01*
X157059523Y-101907200D02*
X157011904Y-101859580D01*
X157011904Y-101859580D02*
X156964285Y-101764342D01*
X156964285Y-101764342D02*
X156964285Y-101526247D01*
X156964285Y-101526247D02*
X157011904Y-101431009D01*
X157011904Y-101431009D02*
X157059523Y-101383390D01*
X157059523Y-101383390D02*
X157154761Y-101335771D01*
X157154761Y-101335771D02*
X157345237Y-101335771D01*
X157345237Y-101335771D02*
X157440475Y-101383390D01*
X157440475Y-101383390D02*
X157488094Y-101431009D01*
X157488094Y-101431009D02*
X157535713Y-101526247D01*
X143464285Y-87454819D02*
X143464285Y-86454819D01*
X143464285Y-86454819D02*
X143226190Y-86454819D01*
X143226190Y-86454819D02*
X143083333Y-86502438D01*
X143083333Y-86502438D02*
X142988095Y-86597676D01*
X142988095Y-86597676D02*
X142940476Y-86692914D01*
X142940476Y-86692914D02*
X142892857Y-86883390D01*
X142892857Y-86883390D02*
X142892857Y-87026247D01*
X142892857Y-87026247D02*
X142940476Y-87216723D01*
X142940476Y-87216723D02*
X142988095Y-87311961D01*
X142988095Y-87311961D02*
X143083333Y-87407200D01*
X143083333Y-87407200D02*
X143226190Y-87454819D01*
X143226190Y-87454819D02*
X143464285Y-87454819D01*
X141940476Y-87454819D02*
X142511904Y-87454819D01*
X142226190Y-87454819D02*
X142226190Y-86454819D01*
X142226190Y-86454819D02*
X142321428Y-86597676D01*
X142321428Y-86597676D02*
X142416666Y-86692914D01*
X142416666Y-86692914D02*
X142511904Y-86740533D01*
X141035714Y-86454819D02*
X141511904Y-86454819D01*
X141511904Y-86454819D02*
X141559523Y-86931009D01*
X141559523Y-86931009D02*
X141511904Y-86883390D01*
X141511904Y-86883390D02*
X141416666Y-86835771D01*
X141416666Y-86835771D02*
X141178571Y-86835771D01*
X141178571Y-86835771D02*
X141083333Y-86883390D01*
X141083333Y-86883390D02*
X141035714Y-86931009D01*
X141035714Y-86931009D02*
X140988095Y-87026247D01*
X140988095Y-87026247D02*
X140988095Y-87264342D01*
X140988095Y-87264342D02*
X141035714Y-87359580D01*
X141035714Y-87359580D02*
X141083333Y-87407200D01*
X141083333Y-87407200D02*
X141178571Y-87454819D01*
X141178571Y-87454819D02*
X141416666Y-87454819D01*
X141416666Y-87454819D02*
X141511904Y-87407200D01*
X141511904Y-87407200D02*
X141559523Y-87359580D01*
X138642857Y-102454819D02*
X138976190Y-101978628D01*
X139214285Y-102454819D02*
X139214285Y-101454819D01*
X139214285Y-101454819D02*
X138833333Y-101454819D01*
X138833333Y-101454819D02*
X138738095Y-101502438D01*
X138738095Y-101502438D02*
X138690476Y-101550057D01*
X138690476Y-101550057D02*
X138642857Y-101645295D01*
X138642857Y-101645295D02*
X138642857Y-101788152D01*
X138642857Y-101788152D02*
X138690476Y-101883390D01*
X138690476Y-101883390D02*
X138738095Y-101931009D01*
X138738095Y-101931009D02*
X138833333Y-101978628D01*
X138833333Y-101978628D02*
X139214285Y-101978628D01*
X137690476Y-102454819D02*
X138261904Y-102454819D01*
X137976190Y-102454819D02*
X137976190Y-101454819D01*
X137976190Y-101454819D02*
X138071428Y-101597676D01*
X138071428Y-101597676D02*
X138166666Y-101692914D01*
X138166666Y-101692914D02*
X138261904Y-101740533D01*
X136785714Y-101454819D02*
X137261904Y-101454819D01*
X137261904Y-101454819D02*
X137309523Y-101931009D01*
X137309523Y-101931009D02*
X137261904Y-101883390D01*
X137261904Y-101883390D02*
X137166666Y-101835771D01*
X137166666Y-101835771D02*
X136928571Y-101835771D01*
X136928571Y-101835771D02*
X136833333Y-101883390D01*
X136833333Y-101883390D02*
X136785714Y-101931009D01*
X136785714Y-101931009D02*
X136738095Y-102026247D01*
X136738095Y-102026247D02*
X136738095Y-102264342D01*
X136738095Y-102264342D02*
X136785714Y-102359580D01*
X136785714Y-102359580D02*
X136833333Y-102407200D01*
X136833333Y-102407200D02*
X136928571Y-102454819D01*
X136928571Y-102454819D02*
X137166666Y-102454819D01*
X137166666Y-102454819D02*
X137261904Y-102407200D01*
X137261904Y-102407200D02*
X137309523Y-102359580D01*
X164931009Y-97666666D02*
X164978628Y-97809523D01*
X164978628Y-97809523D02*
X165026247Y-97857142D01*
X165026247Y-97857142D02*
X165121485Y-97904761D01*
X165121485Y-97904761D02*
X165264342Y-97904761D01*
X165264342Y-97904761D02*
X165359580Y-97857142D01*
X165359580Y-97857142D02*
X165407200Y-97809523D01*
X165407200Y-97809523D02*
X165454819Y-97714285D01*
X165454819Y-97714285D02*
X165454819Y-97333333D01*
X165454819Y-97333333D02*
X164454819Y-97333333D01*
X164454819Y-97333333D02*
X164454819Y-97666666D01*
X164454819Y-97666666D02*
X164502438Y-97761904D01*
X164502438Y-97761904D02*
X164550057Y-97809523D01*
X164550057Y-97809523D02*
X164645295Y-97857142D01*
X164645295Y-97857142D02*
X164740533Y-97857142D01*
X164740533Y-97857142D02*
X164835771Y-97809523D01*
X164835771Y-97809523D02*
X164883390Y-97761904D01*
X164883390Y-97761904D02*
X164931009Y-97666666D01*
X164931009Y-97666666D02*
X164931009Y-97333333D01*
X164788152Y-98761904D02*
X165454819Y-98761904D01*
X164788152Y-98333333D02*
X165311961Y-98333333D01*
X165311961Y-98333333D02*
X165407200Y-98380952D01*
X165407200Y-98380952D02*
X165454819Y-98476190D01*
X165454819Y-98476190D02*
X165454819Y-98619047D01*
X165454819Y-98619047D02*
X165407200Y-98714285D01*
X165407200Y-98714285D02*
X165359580Y-98761904D01*
X164788152Y-99095238D02*
X164788152Y-99476190D01*
X164454819Y-99238095D02*
X165311961Y-99238095D01*
X165311961Y-99238095D02*
X165407200Y-99285714D01*
X165407200Y-99285714D02*
X165454819Y-99380952D01*
X165454819Y-99380952D02*
X165454819Y-99476190D01*
X164788152Y-99666667D02*
X164788152Y-100047619D01*
X164454819Y-99809524D02*
X165311961Y-99809524D01*
X165311961Y-99809524D02*
X165407200Y-99857143D01*
X165407200Y-99857143D02*
X165454819Y-99952381D01*
X165454819Y-99952381D02*
X165454819Y-100047619D01*
X165454819Y-100523810D02*
X165407200Y-100428572D01*
X165407200Y-100428572D02*
X165359580Y-100380953D01*
X165359580Y-100380953D02*
X165264342Y-100333334D01*
X165264342Y-100333334D02*
X164978628Y-100333334D01*
X164978628Y-100333334D02*
X164883390Y-100380953D01*
X164883390Y-100380953D02*
X164835771Y-100428572D01*
X164835771Y-100428572D02*
X164788152Y-100523810D01*
X164788152Y-100523810D02*
X164788152Y-100666667D01*
X164788152Y-100666667D02*
X164835771Y-100761905D01*
X164835771Y-100761905D02*
X164883390Y-100809524D01*
X164883390Y-100809524D02*
X164978628Y-100857143D01*
X164978628Y-100857143D02*
X165264342Y-100857143D01*
X165264342Y-100857143D02*
X165359580Y-100809524D01*
X165359580Y-100809524D02*
X165407200Y-100761905D01*
X165407200Y-100761905D02*
X165454819Y-100666667D01*
X165454819Y-100666667D02*
X165454819Y-100523810D01*
X164788152Y-101285715D02*
X165454819Y-101285715D01*
X164883390Y-101285715D02*
X164835771Y-101333334D01*
X164835771Y-101333334D02*
X164788152Y-101428572D01*
X164788152Y-101428572D02*
X164788152Y-101571429D01*
X164788152Y-101571429D02*
X164835771Y-101666667D01*
X164835771Y-101666667D02*
X164931009Y-101714286D01*
X164931009Y-101714286D02*
X165454819Y-101714286D01*
X165454819Y-102714286D02*
X165454819Y-102142858D01*
X165454819Y-102428572D02*
X164454819Y-102428572D01*
X164454819Y-102428572D02*
X164597676Y-102333334D01*
X164597676Y-102333334D02*
X164692914Y-102238096D01*
X164692914Y-102238096D02*
X164740533Y-102142858D01*
X159214285Y-86454819D02*
X159214285Y-85454819D01*
X159214285Y-85454819D02*
X158976190Y-85454819D01*
X158976190Y-85454819D02*
X158833333Y-85502438D01*
X158833333Y-85502438D02*
X158738095Y-85597676D01*
X158738095Y-85597676D02*
X158690476Y-85692914D01*
X158690476Y-85692914D02*
X158642857Y-85883390D01*
X158642857Y-85883390D02*
X158642857Y-86026247D01*
X158642857Y-86026247D02*
X158690476Y-86216723D01*
X158690476Y-86216723D02*
X158738095Y-86311961D01*
X158738095Y-86311961D02*
X158833333Y-86407200D01*
X158833333Y-86407200D02*
X158976190Y-86454819D01*
X158976190Y-86454819D02*
X159214285Y-86454819D01*
X157690476Y-86454819D02*
X158261904Y-86454819D01*
X157976190Y-86454819D02*
X157976190Y-85454819D01*
X157976190Y-85454819D02*
X158071428Y-85597676D01*
X158071428Y-85597676D02*
X158166666Y-85692914D01*
X158166666Y-85692914D02*
X158261904Y-85740533D01*
X156833333Y-85788152D02*
X156833333Y-86454819D01*
X157071428Y-85407200D02*
X157309523Y-86121485D01*
X157309523Y-86121485D02*
X156690476Y-86121485D01*
X163666666Y-92204819D02*
X163999999Y-91728628D01*
X164238094Y-92204819D02*
X164238094Y-91204819D01*
X164238094Y-91204819D02*
X163857142Y-91204819D01*
X163857142Y-91204819D02*
X163761904Y-91252438D01*
X163761904Y-91252438D02*
X163714285Y-91300057D01*
X163714285Y-91300057D02*
X163666666Y-91395295D01*
X163666666Y-91395295D02*
X163666666Y-91538152D01*
X163666666Y-91538152D02*
X163714285Y-91633390D01*
X163714285Y-91633390D02*
X163761904Y-91681009D01*
X163761904Y-91681009D02*
X163857142Y-91728628D01*
X163857142Y-91728628D02*
X164238094Y-91728628D01*
X163285713Y-91300057D02*
X163238094Y-91252438D01*
X163238094Y-91252438D02*
X163142856Y-91204819D01*
X163142856Y-91204819D02*
X162904761Y-91204819D01*
X162904761Y-91204819D02*
X162809523Y-91252438D01*
X162809523Y-91252438D02*
X162761904Y-91300057D01*
X162761904Y-91300057D02*
X162714285Y-91395295D01*
X162714285Y-91395295D02*
X162714285Y-91490533D01*
X162714285Y-91490533D02*
X162761904Y-91633390D01*
X162761904Y-91633390D02*
X163333332Y-92204819D01*
X163333332Y-92204819D02*
X162714285Y-92204819D01*
D12*
%TO.C,C4*%
X140938748Y-96165000D02*
X141461252Y-96165000D01*
X140938748Y-97635000D02*
X141461252Y-97635000D01*
%TO.C,R10*%
X145372936Y-91265000D02*
X145827064Y-91265000D01*
X145372936Y-92735000D02*
X145827064Y-92735000D01*
%TO.C,R3*%
X160272936Y-93465000D02*
X160727064Y-93465000D01*
X160272936Y-94935000D02*
X160727064Y-94935000D01*
%TO.C,C2*%
X150738748Y-106265000D02*
X151261252Y-106265000D01*
X150738748Y-107735000D02*
X151261252Y-107735000D01*
%TO.C,R1*%
X156065000Y-89172936D02*
X156065000Y-89627064D01*
X157535000Y-89172936D02*
X157535000Y-89627064D01*
%TO.C,R13*%
X141427064Y-93965000D02*
X140972936Y-93965000D01*
X141427064Y-95435000D02*
X140972936Y-95435000D01*
%TO.C,C3*%
X149138748Y-92265000D02*
X149661252Y-92265000D01*
X149138748Y-93735000D02*
X149661252Y-93735000D01*
%TO.C,J1*%
X155885000Y-103940000D02*
X156880000Y-103940000D01*
X156880000Y-103940000D02*
X156880000Y-103940000D01*
X156880000Y-103940000D02*
X158270000Y-103940000D01*
X156880000Y-105940000D02*
X156880000Y-105060000D01*
X156880000Y-107940000D02*
X156880000Y-107060000D01*
X156880000Y-110060000D02*
X156880000Y-109060000D01*
X156880000Y-110060000D02*
X158270000Y-110060000D01*
X158270000Y-104940000D02*
X158270000Y-103940000D01*
X158270000Y-104940000D02*
X158270000Y-104060000D01*
X158270000Y-106940000D02*
X158270000Y-106060000D01*
X158270000Y-108940000D02*
X158270000Y-108060000D01*
X158270000Y-110060000D02*
X158270000Y-110060000D01*
%TO.C,R9*%
X141272936Y-104265000D02*
X141727064Y-104265000D01*
X141272936Y-105735000D02*
X141727064Y-105735000D01*
%TO.C,R8*%
X144165000Y-108827064D02*
X144165000Y-108372936D01*
X145635000Y-108827064D02*
X145635000Y-108372936D01*
%TO.C,C1*%
X150738748Y-108265000D02*
X151261252Y-108265000D01*
X150738748Y-109735000D02*
X151261252Y-109735000D01*
%TO.C,R11*%
X141065000Y-89327064D02*
X141065000Y-88872936D01*
X142535000Y-89327064D02*
X142535000Y-88872936D01*
%TO.C,R5*%
X160272936Y-98465000D02*
X160727064Y-98465000D01*
X160272936Y-99935000D02*
X160727064Y-99935000D01*
D11*
%TO.C,U1*%
X146375000Y-96700000D02*
X146375000Y-96375000D01*
X146375000Y-103300000D02*
X146375000Y-103625000D01*
X146600000Y-96375000D02*
X146375000Y-96375000D01*
X146700000Y-103625000D02*
X146375000Y-103625000D01*
X153300000Y-96375000D02*
X153625000Y-96375000D01*
X153300000Y-103625000D02*
X153625000Y-103625000D01*
X153625000Y-96700000D02*
X153625000Y-96375000D01*
X153625000Y-103300000D02*
X153625000Y-103625000D01*
D12*
X146660000Y-95610000D02*
X146190000Y-95950000D01*
X146190000Y-95270000D01*
X146660000Y-95610000D01*
G36*
X146660000Y-95610000D02*
G01*
X146190000Y-95950000D01*
X146190000Y-95270000D01*
X146660000Y-95610000D01*
G37*
%TO.C,R12*%
X153365000Y-89185436D02*
X153365000Y-89639564D01*
X154835000Y-89185436D02*
X154835000Y-89639564D01*
%TO.C,D13*%
X144750000Y-85810000D02*
X149160000Y-85810000D01*
X149160000Y-83590000D02*
X144750000Y-83590000D01*
X149160000Y-85810000D02*
X149160000Y-83590000D01*
%TO.C,R14*%
X141272936Y-99165000D02*
X141727064Y-99165000D01*
X141272936Y-100635000D02*
X141727064Y-100635000D01*
%TO.C,R4*%
X160272936Y-95965000D02*
X160727064Y-95965000D01*
X160272936Y-97435000D02*
X160727064Y-97435000D01*
%TO.C,R7*%
X146865000Y-108372936D02*
X146865000Y-108827064D01*
X148335000Y-108372936D02*
X148335000Y-108827064D01*
%TO.C,R16*%
X148972936Y-89865000D02*
X149427064Y-89865000D01*
X148972936Y-91335000D02*
X149427064Y-91335000D01*
%TO.C,R6*%
X160272936Y-100965000D02*
X160727064Y-100965000D01*
X160272936Y-102435000D02*
X160727064Y-102435000D01*
%TO.C,D15*%
X143840000Y-86090000D02*
X143840000Y-88310000D01*
X143840000Y-88310000D02*
X148250000Y-88310000D01*
X148250000Y-86090000D02*
X143840000Y-86090000D01*
%TO.C,R15*%
X141272936Y-101265000D02*
X141727064Y-101265000D01*
X141272936Y-102735000D02*
X141727064Y-102735000D01*
%TO.C,Button1*%
X163590000Y-96940000D02*
X167210000Y-96940000D01*
X163590000Y-103060000D02*
X163590000Y-96940000D01*
X167210000Y-96940000D02*
X167210000Y-103060000D01*
X167210000Y-103060000D02*
X163590000Y-103060000D01*
%TO.C,D14*%
X151750000Y-85810000D02*
X156160000Y-85810000D01*
X156160000Y-83590000D02*
X151750000Y-83590000D01*
X156160000Y-85810000D02*
X156160000Y-83590000D01*
%TO.C,R2*%
X160272936Y-90965000D02*
X160727064Y-90965000D01*
X160272936Y-92435000D02*
X160727064Y-92435000D01*
%TD*%
M02*
