%TF.GenerationSoftware,KiCad,Pcbnew,8.0.7*%
%TF.CreationDate,2025-01-15T15:57:44+02:00*%
%TF.ProjectId,LumiTimeV2,4c756d69-5469-46d6-9556-322e6b696361,rev?*%
%TF.SameCoordinates,Original*%
%TF.FileFunction,Soldermask,Top*%
%TF.FilePolarity,Negative*%
%FSLAX46Y46*%
G04 Gerber Fmt 4.6, Leading zero omitted, Abs format (unit mm)*
G04 Created by KiCad (PCBNEW 8.0.7) date 2025-01-15 15:57:44*
%MOMM*%
%LPD*%
G01*
G04 APERTURE LIST*
G04 Aperture macros list*
%AMRoundRect*
0 Rectangle with rounded corners*
0 $1 Rounding radius*
0 $2 $3 $4 $5 $6 $7 $8 $9 X,Y pos of 4 corners*
0 Add a 4 corners polygon primitive as box body*
4,1,4,$2,$3,$4,$5,$6,$7,$8,$9,$2,$3,0*
0 Add four circle primitives for the rounded corners*
1,1,$1+$1,$2,$3*
1,1,$1+$1,$4,$5*
1,1,$1+$1,$6,$7*
1,1,$1+$1,$8,$9*
0 Add four rect primitives between the rounded corners*
20,1,$1+$1,$2,$3,$4,$5,0*
20,1,$1+$1,$4,$5,$6,$7,0*
20,1,$1+$1,$6,$7,$8,$9,0*
20,1,$1+$1,$8,$9,$2,$3,0*%
G04 Aperture macros list end*
%ADD10RoundRect,0.187500X0.562500X0.862500X-0.562500X0.862500X-0.562500X-0.862500X0.562500X-0.862500X0*%
%ADD11RoundRect,0.162500X0.587500X0.487500X-0.587500X0.487500X-0.587500X-0.487500X0.587500X-0.487500X0*%
%ADD12RoundRect,0.175000X0.525000X0.825000X-0.525000X0.825000X-0.525000X-0.825000X0.525000X-0.825000X0*%
%ADD13RoundRect,0.150000X0.525000X0.450000X-0.525000X0.450000X-0.525000X-0.450000X0.525000X-0.450000X0*%
%ADD14RoundRect,0.243750X-0.516999X-0.017031X-0.273249X-0.439219X0.516999X0.017031X0.273249X0.439219X0*%
%ADD15RoundRect,0.150000X0.825000X0.150000X-0.825000X0.150000X-0.825000X-0.150000X0.825000X-0.150000X0*%
%ADD16RoundRect,0.243750X-0.017031X0.516999X-0.439219X0.273249X0.017031X-0.516999X0.439219X-0.273249X0*%
%ADD17RoundRect,0.243750X-0.439219X-0.273249X-0.017031X-0.516999X0.439219X0.273249X0.017031X0.516999X0*%
%ADD18RoundRect,0.187500X0.918389X0.465697X-0.055889X1.028197X-0.918389X-0.465697X0.055889X-1.028197X0*%
%ADD19RoundRect,0.162500X0.752540X0.128437X-0.265040X0.715937X-0.752540X-0.128437X0.265040X-0.715937X0*%
%ADD20RoundRect,0.168750X0.854050X0.466759X-0.022800X0.973009X-0.854050X-0.466759X0.022800X-0.973009X0*%
%ADD21RoundRect,0.150000X0.701314X0.114711X-0.251314X0.664711X-0.701314X-0.114711X0.251314X-0.664711X0*%
%ADD22RoundRect,0.187500X-1.028197X0.055889X-0.465697X-0.918389X1.028197X-0.055889X0.465697X0.918389X0*%
%ADD23RoundRect,0.162500X-0.715937X0.265040X-0.128437X-0.752540X0.715937X-0.265040X0.128437X0.752540X0*%
%ADD24RoundRect,0.175000X-0.976971X0.042163X-0.451971X-0.867163X0.976971X-0.042163X0.451971X0.867163X0*%
%ADD25RoundRect,0.150000X-0.664711X0.251314X-0.114711X-0.701314X0.664711X-0.251314X0.114711X0.701314X0*%
%ADD26RoundRect,0.187500X-0.918389X-0.465697X0.055889X-1.028197X0.918389X0.465697X-0.055889X1.028197X0*%
%ADD27RoundRect,0.162500X-0.752540X-0.128437X0.265040X-0.715937X0.752540X0.128437X-0.265040X0.715937X0*%
%ADD28RoundRect,0.175000X-0.867163X-0.451971X0.042163X-0.976971X0.867163X0.451971X-0.042163X0.976971X0*%
%ADD29RoundRect,0.150000X-0.701314X-0.114711X0.251314X-0.664711X0.701314X0.114711X-0.251314X0.664711X0*%
%ADD30RoundRect,0.243750X-0.456250X0.243750X-0.456250X-0.243750X0.456250X-0.243750X0.456250X0.243750X0*%
%ADD31RoundRect,0.243750X0.273249X-0.439219X0.516999X-0.017031X-0.273249X0.439219X-0.516999X0.017031X0*%
%ADD32RoundRect,0.243750X0.516999X0.017031X0.273249X0.439219X-0.516999X-0.017031X-0.273249X-0.439219X0*%
%ADD33RoundRect,0.187500X0.862500X-0.562500X0.862500X0.562500X-0.862500X0.562500X-0.862500X-0.562500X0*%
%ADD34RoundRect,0.162500X0.487500X-0.587500X0.487500X0.587500X-0.487500X0.587500X-0.487500X-0.587500X0*%
%ADD35RoundRect,0.175000X0.825000X-0.525000X0.825000X0.525000X-0.825000X0.525000X-0.825000X-0.525000X0*%
%ADD36RoundRect,0.150000X0.450000X-0.550000X0.450000X0.550000X-0.450000X0.550000X-0.450000X-0.550000X0*%
%ADD37RoundRect,0.243750X-0.273249X0.439219X-0.516999X0.017031X0.273249X-0.439219X0.516999X-0.017031X0*%
%ADD38RoundRect,0.243750X0.439219X0.273249X0.017031X0.516999X-0.439219X-0.273249X-0.017031X-0.516999X0*%
%ADD39RoundRect,0.187500X1.028197X-0.055889X0.465697X0.918389X-1.028197X0.055889X-0.465697X-0.918389X0*%
%ADD40RoundRect,0.162500X0.715937X-0.265040X0.128437X0.752540X-0.715937X0.265040X-0.128437X-0.752540X0*%
%ADD41RoundRect,0.175000X0.976971X-0.042163X0.451971X0.867163X-0.976971X0.042163X-0.451971X-0.867163X0*%
%ADD42RoundRect,0.150000X0.664711X-0.251314X0.114711X0.701314X-0.664711X0.251314X-0.114711X-0.701314X0*%
%ADD43R,2.400000X1.500000*%
%ADD44R,1.100000X0.600000*%
%ADD45RoundRect,0.250000X-0.475000X0.250000X-0.475000X-0.250000X0.475000X-0.250000X0.475000X0.250000X0*%
%ADD46RoundRect,0.243750X-0.243750X-0.456250X0.243750X-0.456250X0.243750X0.456250X-0.243750X0.456250X0*%
%ADD47RoundRect,0.243750X0.017031X-0.516999X0.439219X-0.273249X-0.017031X0.516999X-0.439219X0.273249X0*%
%ADD48RoundRect,0.187500X-0.465697X0.918389X-1.028197X-0.055889X0.465697X-0.918389X1.028197X0.055889X0*%
%ADD49RoundRect,0.162500X-0.128437X0.752540X-0.715937X-0.265040X0.128437X-0.752540X0.715937X0.265040X0*%
%ADD50RoundRect,0.175000X-0.451971X0.867163X-0.976971X-0.042163X0.451971X-0.867163X0.976971X0.042163X0*%
%ADD51RoundRect,0.150000X-0.114711X0.701314X-0.664711X-0.251314X0.114711X-0.701314X0.664711X0.251314X0*%
%ADD52RoundRect,0.150000X0.114711X-0.701314X0.664711X0.251314X-0.114711X0.701314X-0.664711X-0.251314X0*%
%ADD53RoundRect,0.175000X0.451971X-0.867163X0.976971X0.042163X-0.451971X0.867163X-0.976971X-0.042163X0*%
%ADD54RoundRect,0.162500X0.128437X-0.752540X0.715937X0.265040X-0.128437X0.752540X-0.715937X-0.265040X0*%
%ADD55RoundRect,0.187500X0.465697X-0.918389X1.028197X0.055889X-0.465697X0.918389X-1.028197X-0.055889X0*%
%ADD56RoundRect,0.187500X-0.055889X-1.028197X0.918389X-0.465697X0.055889X1.028197X-0.918389X0.465697X0*%
%ADD57RoundRect,0.162500X-0.265040X-0.715937X0.752540X-0.128437X0.265040X0.715937X-0.752540X0.128437X0*%
%ADD58RoundRect,0.175000X-0.042163X-0.976971X0.867163X-0.451971X0.042163X0.976971X-0.867163X0.451971X0*%
%ADD59RoundRect,0.150000X-0.251314X-0.664711X0.701314X-0.114711X0.251314X0.664711X-0.701314X0.114711X0*%
%ADD60RoundRect,0.187500X0.055889X1.028197X-0.918389X0.465697X-0.055889X-1.028197X0.918389X-0.465697X0*%
%ADD61RoundRect,0.162500X0.265040X0.715937X-0.752540X0.128437X-0.265040X-0.715937X0.752540X-0.128437X0*%
%ADD62RoundRect,0.175000X0.042163X0.976971X-0.867163X0.451971X-0.042163X-0.976971X0.867163X-0.451971X0*%
%ADD63RoundRect,0.150000X0.251314X0.664711X-0.701314X0.114711X-0.251314X-0.664711X0.701314X-0.114711X0*%
%ADD64RoundRect,0.187500X-0.862500X0.562500X-0.862500X-0.562500X0.862500X-0.562500X0.862500X0.562500X0*%
%ADD65RoundRect,0.162500X-0.487500X0.587500X-0.487500X-0.587500X0.487500X-0.587500X0.487500X0.587500X0*%
%ADD66RoundRect,0.175000X-0.825000X0.525000X-0.825000X-0.525000X0.825000X-0.525000X0.825000X0.525000X0*%
%ADD67RoundRect,0.150000X-0.450000X0.550000X-0.450000X-0.550000X0.450000X-0.550000X0.450000X0.550000X0*%
%ADD68RoundRect,0.187500X-0.562500X-0.862500X0.562500X-0.862500X0.562500X0.862500X-0.562500X0.862500X0*%
%ADD69RoundRect,0.162500X-0.587500X-0.487500X0.587500X-0.487500X0.587500X0.487500X-0.587500X0.487500X0*%
%ADD70RoundRect,0.175000X-0.525000X-0.825000X0.525000X-0.825000X0.525000X0.825000X-0.525000X0.825000X0*%
%ADD71RoundRect,0.150000X-0.550000X-0.450000X0.550000X-0.450000X0.550000X0.450000X-0.550000X0.450000X0*%
%ADD72RoundRect,0.243750X0.243750X0.456250X-0.243750X0.456250X-0.243750X-0.456250X0.243750X-0.456250X0*%
%ADD73RoundRect,0.243750X0.456250X-0.243750X0.456250X0.243750X-0.456250X0.243750X-0.456250X-0.243750X0*%
G04 APERTURE END LIST*
D10*
%TO.C,PV12*%
X146950000Y-85000000D03*
D11*
X153050000Y-85000000D03*
D12*
X146950000Y-85000000D03*
D13*
X153050000Y-85000000D03*
%TD*%
D14*
%TO.C,D2*%
X159500000Y-93438101D03*
X160437500Y-95061899D03*
%TD*%
D15*
%TO.C,U2*%
X149975000Y-97655000D03*
X149975000Y-96385000D03*
X149975000Y-95115000D03*
X149975000Y-93845000D03*
X145025000Y-93845000D03*
X145025000Y-95115000D03*
X145025000Y-96385000D03*
X145025000Y-97655000D03*
%TD*%
D16*
%TO.C,D5*%
X156561899Y-109531250D03*
X154938101Y-110468750D03*
%TD*%
D17*
%TO.C,D1*%
X154938101Y-89531250D03*
X156561899Y-90468750D03*
%TD*%
D18*
%TO.C,PV1*%
X154858622Y-85474999D03*
D19*
X160141378Y-88525001D03*
D20*
X154858622Y-85474999D03*
D21*
X160141378Y-88525001D03*
%TD*%
D22*
%TO.C,PV8*%
X138524999Y-110141377D03*
D23*
X135475001Y-104858623D03*
D24*
X138524999Y-110141377D03*
D25*
X135475001Y-104858623D03*
%TD*%
D26*
%TO.C,PV7*%
X145141377Y-114525000D03*
D27*
X139858623Y-111475000D03*
D28*
X145141377Y-114525000D03*
D29*
X139858623Y-111475000D03*
%TD*%
D30*
%TO.C,D3*%
X161500000Y-99000000D03*
X161500000Y-100875000D03*
%TD*%
D31*
%TO.C,D10*%
X139531250Y-95061899D03*
X140468750Y-93438101D03*
%TD*%
D32*
%TO.C,D8*%
X140468750Y-106561899D03*
X139531250Y-104938101D03*
%TD*%
D33*
%TO.C,PV3*%
X165000000Y-96950000D03*
D34*
X165000000Y-103050000D03*
D35*
X165000000Y-96950000D03*
D36*
X165000000Y-103050000D03*
%TD*%
D37*
%TO.C,D4*%
X160500000Y-104750000D03*
X159562500Y-106373798D03*
%TD*%
D38*
%TO.C,D7*%
X145061899Y-110468750D03*
X143438101Y-109531250D03*
%TD*%
D39*
%TO.C,PV2*%
X161474999Y-89858622D03*
D40*
X164525001Y-95141378D03*
D41*
X161474999Y-89858622D03*
D42*
X164525001Y-95141378D03*
%TD*%
D43*
%TO.C,Y1*%
X157975000Y-97000000D03*
D44*
X152375000Y-96500000D03*
X152375000Y-97500000D03*
%TD*%
D45*
%TO.C,C5*%
X145000000Y-99550000D03*
X145000000Y-101450000D03*
%TD*%
D46*
%TO.C,D12*%
X149062500Y-88500000D03*
X150937500Y-88500000D03*
%TD*%
D47*
%TO.C,D11*%
X143438101Y-90468750D03*
X145061899Y-89531250D03*
%TD*%
D48*
%TO.C,PV10*%
X135475000Y-95141377D03*
D49*
X138525000Y-89858623D03*
D50*
X135475000Y-95141377D03*
D51*
X138525000Y-89858623D03*
%TD*%
D52*
%TO.C,PV4*%
X161475000Y-110141377D03*
D53*
X164525000Y-104858623D03*
D54*
X161475000Y-110141377D03*
D55*
X164525000Y-104858623D03*
%TD*%
D56*
%TO.C,PV5*%
X160141377Y-111475000D03*
D57*
X154858623Y-114525000D03*
D58*
X160141377Y-111475000D03*
D59*
X154858623Y-114525000D03*
%TD*%
D60*
%TO.C,PV11*%
X139858623Y-88525000D03*
D61*
X145141377Y-85475000D03*
D62*
X139858623Y-88525000D03*
D63*
X145141377Y-85475000D03*
%TD*%
D64*
%TO.C,PV9*%
X135000000Y-103050000D03*
D65*
X135000000Y-96950000D03*
D66*
X135000000Y-103050000D03*
D67*
X135000000Y-96950000D03*
%TD*%
D68*
%TO.C,PV6*%
X153050000Y-115000000D03*
D69*
X146950000Y-115000000D03*
D70*
X153050000Y-115000000D03*
D71*
X146950000Y-115000000D03*
%TD*%
D72*
%TO.C,D6*%
X151125000Y-111500000D03*
X149250000Y-111500000D03*
%TD*%
D73*
%TO.C,D9*%
X138500000Y-101000000D03*
X138500000Y-99125000D03*
%TD*%
M02*
