%TF.GenerationSoftware,KiCad,Pcbnew,8.0.7*%
%TF.CreationDate,2025-01-14T01:45:44+02:00*%
%TF.ProjectId,LumiTimeV2,4c756d69-5469-46d6-9556-322e6b696361,rev?*%
%TF.SameCoordinates,Original*%
%TF.FileFunction,Copper,L2,Bot*%
%TF.FilePolarity,Positive*%
%FSLAX46Y46*%
G04 Gerber Fmt 4.6, Leading zero omitted, Abs format (unit mm)*
G04 Created by KiCad (PCBNEW 8.0.7) date 2025-01-14 01:45:44*
%MOMM*%
%LPD*%
G01*
G04 APERTURE LIST*
G04 Aperture macros list*
%AMRoundRect*
0 Rectangle with rounded corners*
0 $1 Rounding radius*
0 $2 $3 $4 $5 $6 $7 $8 $9 X,Y pos of 4 corners*
0 Add a 4 corners polygon primitive as box body*
4,1,4,$2,$3,$4,$5,$6,$7,$8,$9,$2,$3,0*
0 Add four circle primitives for the rounded corners*
1,1,$1+$1,$2,$3*
1,1,$1+$1,$4,$5*
1,1,$1+$1,$6,$7*
1,1,$1+$1,$8,$9*
0 Add four rect primitives between the rounded corners*
20,1,$1+$1,$2,$3,$4,$5,0*
20,1,$1+$1,$4,$5,$6,$7,0*
20,1,$1+$1,$6,$7,$8,$9,0*
20,1,$1+$1,$8,$9,$2,$3,0*%
G04 Aperture macros list end*
%TA.AperFunction,SMDPad,CuDef*%
%ADD10RoundRect,0.250000X0.250000X0.475000X-0.250000X0.475000X-0.250000X-0.475000X0.250000X-0.475000X0*%
%TD*%
%TA.AperFunction,SMDPad,CuDef*%
%ADD11RoundRect,0.250000X0.262500X0.450000X-0.262500X0.450000X-0.262500X-0.450000X0.262500X-0.450000X0*%
%TD*%
%TA.AperFunction,SMDPad,CuDef*%
%ADD12RoundRect,0.250000X0.450000X-0.262500X0.450000X0.262500X-0.450000X0.262500X-0.450000X-0.262500X0*%
%TD*%
%TA.AperFunction,SMDPad,CuDef*%
%ADD13RoundRect,0.250000X-0.262500X-0.450000X0.262500X-0.450000X0.262500X0.450000X-0.262500X0.450000X0*%
%TD*%
%TA.AperFunction,SMDPad,CuDef*%
%ADD14R,1.750000X0.600000*%
%TD*%
%TA.AperFunction,SMDPad,CuDef*%
%ADD15RoundRect,0.250000X-0.450000X0.262500X-0.450000X-0.262500X0.450000X-0.262500X0.450000X0.262500X0*%
%TD*%
%TA.AperFunction,SMDPad,CuDef*%
%ADD16R,0.550000X1.600000*%
%TD*%
%TA.AperFunction,SMDPad,CuDef*%
%ADD17R,1.600000X0.550000*%
%TD*%
%TA.AperFunction,SMDPad,CuDef*%
%ADD18RoundRect,0.250000X0.400000X0.600000X-0.400000X0.600000X-0.400000X-0.600000X0.400000X-0.600000X0*%
%TD*%
%TA.AperFunction,SMDPad,CuDef*%
%ADD19RoundRect,0.250000X-0.400000X-0.600000X0.400000X-0.600000X0.400000X0.600000X-0.400000X0.600000X0*%
%TD*%
%TA.AperFunction,SMDPad,CuDef*%
%ADD20R,1.600000X2.180000*%
%TD*%
%TA.AperFunction,ViaPad*%
%ADD21C,0.600000*%
%TD*%
%TA.AperFunction,Conductor*%
%ADD22C,0.300000*%
%TD*%
%TA.AperFunction,Conductor*%
%ADD23C,0.500000*%
%TD*%
%TA.AperFunction,Conductor*%
%ADD24C,0.400000*%
%TD*%
G04 APERTURE END LIST*
D10*
%TO.P,C4,1*%
%TO.N,/Res*%
X142150000Y-96900000D03*
%TO.P,C4,2*%
%TO.N,GND*%
X140250000Y-96900000D03*
%TD*%
D11*
%TO.P,R10,1*%
%TO.N,/LED X*%
X146512500Y-92000000D03*
%TO.P,R10,2*%
%TO.N,Net-(D10-A)*%
X144687500Y-92000000D03*
%TD*%
%TO.P,R3,1*%
%TO.N,Net-(D3-A)*%
X161412500Y-94200000D03*
%TO.P,R3,2*%
%TO.N,/LED III*%
X159587500Y-94200000D03*
%TD*%
D10*
%TO.P,C2,1*%
%TO.N,+3V7*%
X151950000Y-107000000D03*
%TO.P,C2,2*%
%TO.N,GND*%
X150050000Y-107000000D03*
%TD*%
D12*
%TO.P,R1,1*%
%TO.N,/LED I*%
X156800000Y-90312500D03*
%TO.P,R1,2*%
%TO.N,Net-(D1-A)*%
X156800000Y-88487500D03*
%TD*%
D13*
%TO.P,R13,1*%
%TO.N,+3V7*%
X140287500Y-94700000D03*
%TO.P,R13,2*%
%TO.N,/Res*%
X142112500Y-94700000D03*
%TD*%
D10*
%TO.P,C3,1*%
%TO.N,+3V7*%
X150350000Y-93000000D03*
%TO.P,C3,2*%
%TO.N,GND*%
X148450000Y-93000000D03*
%TD*%
D14*
%TO.P,J1,1,Pin_1*%
%TO.N,+3V7*%
X156700000Y-104500000D03*
%TO.P,J1,2,Pin_2*%
%TO.N,/MOSI*%
X158450000Y-105500000D03*
%TO.P,J1,3,Pin_3*%
%TO.N,/MISO*%
X156700000Y-106500000D03*
%TO.P,J1,4,Pin_4*%
%TO.N,/SCK*%
X158450000Y-107500000D03*
%TO.P,J1,5,Pin_5*%
%TO.N,/Res*%
X156700000Y-108500000D03*
%TO.P,J1,6,Pin_6*%
%TO.N,GND*%
X158450000Y-109500000D03*
%TD*%
D11*
%TO.P,R9,1*%
%TO.N,/LED IX*%
X142412500Y-105000000D03*
%TO.P,R9,2*%
%TO.N,Net-(D9-A)*%
X140587500Y-105000000D03*
%TD*%
D15*
%TO.P,R8,1*%
%TO.N,/LED VIII*%
X144900000Y-107687500D03*
%TO.P,R8,2*%
%TO.N,Net-(D8-A)*%
X144900000Y-109512500D03*
%TD*%
D10*
%TO.P,C1,1*%
%TO.N,Net-(U1-AREF)*%
X151950000Y-109000000D03*
%TO.P,C1,2*%
%TO.N,GND*%
X150050000Y-109000000D03*
%TD*%
D15*
%TO.P,R11,1*%
%TO.N,/LED XI*%
X141800000Y-88187500D03*
%TO.P,R11,2*%
%TO.N,Net-(D11-A)*%
X141800000Y-90012500D03*
%TD*%
D11*
%TO.P,R5,1*%
%TO.N,Net-(D5-A)*%
X161412500Y-99200000D03*
%TO.P,R5,2*%
%TO.N,/LED V*%
X159587500Y-99200000D03*
%TD*%
D16*
%TO.P,U1,1,PD3*%
%TO.N,unconnected-(U1-PD3-Pad1)*%
X147200000Y-95750000D03*
%TO.P,U1,2,PD4*%
%TO.N,/LED X*%
X148000000Y-95750000D03*
%TO.P,U1,3,GND*%
%TO.N,GND*%
X148800000Y-95750000D03*
%TO.P,U1,4,VCC*%
%TO.N,+3V7*%
X149600000Y-95750000D03*
%TO.P,U1,5,GND*%
%TO.N,GND*%
X150400000Y-95750000D03*
%TO.P,U1,6,VCC*%
%TO.N,+3V7*%
X151200000Y-95750000D03*
%TO.P,U1,7,XTAL1/PB6*%
%TO.N,/LED XI*%
X152000000Y-95750000D03*
%TO.P,U1,8,XTAL2/PB7*%
%TO.N,/LED XII*%
X152800000Y-95750000D03*
D17*
%TO.P,U1,9,PD5*%
%TO.N,/LED I*%
X154250000Y-97200000D03*
%TO.P,U1,10,PD6*%
%TO.N,/LED II*%
X154250000Y-98000000D03*
%TO.P,U1,11,PD7*%
%TO.N,/LED III*%
X154250000Y-98800000D03*
%TO.P,U1,12,PB0*%
%TO.N,/LED IIII*%
X154250000Y-99600000D03*
%TO.P,U1,13,PB1*%
%TO.N,/LED V*%
X154250000Y-100400000D03*
%TO.P,U1,14,PB2*%
%TO.N,/LED VI*%
X154250000Y-101200000D03*
%TO.P,U1,15,PB3*%
%TO.N,/MOSI*%
X154250000Y-102000000D03*
%TO.P,U1,16,PB4*%
%TO.N,/MISO*%
X154250000Y-102800000D03*
D16*
%TO.P,U1,17,PB5*%
%TO.N,/SCK*%
X152800000Y-104250000D03*
%TO.P,U1,18,AVCC*%
%TO.N,+3V7*%
X152000000Y-104250000D03*
%TO.P,U1,19,ADC6*%
%TO.N,unconnected-(U1-ADC6-Pad19)*%
X151200000Y-104250000D03*
%TO.P,U1,20,AREF*%
%TO.N,Net-(U1-AREF)*%
X150400000Y-104250000D03*
%TO.P,U1,21,GND*%
%TO.N,GND*%
X149600000Y-104250000D03*
%TO.P,U1,22,ADC7*%
%TO.N,unconnected-(U1-ADC7-Pad22)*%
X148800000Y-104250000D03*
%TO.P,U1,23,PC0*%
%TO.N,/LED VII*%
X148000000Y-104250000D03*
%TO.P,U1,24,PC1*%
%TO.N,/LED VIII*%
X147200000Y-104250000D03*
D17*
%TO.P,U1,25,PC2*%
%TO.N,/LED IX*%
X145750000Y-102800000D03*
%TO.P,U1,26,PC3*%
%TO.N,/Pullup*%
X145750000Y-102000000D03*
%TO.P,U1,27,PC4*%
%TO.N,/SDA*%
X145750000Y-101200000D03*
%TO.P,U1,28,PC5*%
%TO.N,/SCL*%
X145750000Y-100400000D03*
%TO.P,U1,29,~{RESET}/PC6*%
%TO.N,/Res*%
X145750000Y-99600000D03*
%TO.P,U1,30,PD0*%
%TO.N,/RXD*%
X145750000Y-98800000D03*
%TO.P,U1,31,PD1*%
%TO.N,/TXD*%
X145750000Y-98000000D03*
%TO.P,U1,32,PD2*%
%TO.N,/But0*%
X145750000Y-97200000D03*
%TD*%
D12*
%TO.P,R12,1*%
%TO.N,/LED XII*%
X154100000Y-90325000D03*
%TO.P,R12,2*%
%TO.N,Net-(D12-A)*%
X154100000Y-88500000D03*
%TD*%
D18*
%TO.P,D13,1,K*%
%TO.N,Net-(D13-K)*%
X148250000Y-84700000D03*
%TO.P,D13,2,A*%
%TO.N,GND*%
X144750000Y-84700000D03*
%TD*%
D11*
%TO.P,R14,1*%
%TO.N,/SCL*%
X142412500Y-99900000D03*
%TO.P,R14,2*%
%TO.N,/Pullup*%
X140587500Y-99900000D03*
%TD*%
%TO.P,R4,1*%
%TO.N,Net-(D4-A)*%
X161412500Y-96700000D03*
%TO.P,R4,2*%
%TO.N,/LED IIII*%
X159587500Y-96700000D03*
%TD*%
D12*
%TO.P,R7,1*%
%TO.N,Net-(D7-A)*%
X147600000Y-109512500D03*
%TO.P,R7,2*%
%TO.N,/LED VII*%
X147600000Y-107687500D03*
%TD*%
D11*
%TO.P,R16,1*%
%TO.N,+3V7*%
X150112500Y-90600000D03*
%TO.P,R16,2*%
%TO.N,/But0*%
X148287500Y-90600000D03*
%TD*%
%TO.P,R6,1*%
%TO.N,Net-(D6-A)*%
X161412500Y-101700000D03*
%TO.P,R6,2*%
%TO.N,/LED VI*%
X159587500Y-101700000D03*
%TD*%
D19*
%TO.P,D15,1,K*%
%TO.N,/RXD*%
X144750000Y-87200000D03*
%TO.P,D15,2,A*%
%TO.N,Net-(D13-K)*%
X148250000Y-87200000D03*
%TD*%
D11*
%TO.P,R15,1*%
%TO.N,/SDA*%
X142412500Y-102000000D03*
%TO.P,R15,2*%
%TO.N,/Pullup*%
X140587500Y-102000000D03*
%TD*%
D20*
%TO.P,Button1,1,1*%
%TO.N,GND*%
X165400000Y-95410000D03*
%TO.P,Button1,2,2*%
%TO.N,/But0*%
X165400000Y-104590000D03*
%TD*%
D18*
%TO.P,D14,1,K*%
%TO.N,+3V7*%
X155250000Y-84700000D03*
%TO.P,D14,2,A*%
%TO.N,Net-(D13-K)*%
X151750000Y-84700000D03*
%TD*%
D11*
%TO.P,R2,1*%
%TO.N,Net-(D2-A)*%
X161412500Y-91700000D03*
%TO.P,R2,2*%
%TO.N,/LED II*%
X159587500Y-91700000D03*
%TD*%
D21*
%TO.N,GND*%
X138000000Y-102300000D03*
X138400000Y-96200000D03*
X151500000Y-86700000D03*
X163800000Y-92700000D03*
X148800000Y-106100000D03*
X149200000Y-102000000D03*
X153250000Y-110250000D03*
X149250000Y-91750000D03*
X143000000Y-85000000D03*
X160300000Y-108900000D03*
%TO.N,Net-(D1-A)*%
X156800000Y-88487500D03*
%TO.N,Net-(D2-A)*%
X160876672Y-92940832D03*
%TO.N,Net-(D3-A)*%
X163400000Y-96000000D03*
%TO.N,Net-(D4-A)*%
X161980331Y-107080331D03*
%TO.N,Net-(D5-A)*%
X160800000Y-107200000D03*
%TO.N,Net-(D6-A)*%
X161400000Y-103300000D03*
%TO.N,Net-(D7-A)*%
X146300000Y-108800000D03*
%TO.N,Net-(D8-A)*%
X142400000Y-106400000D03*
%TO.N,Net-(D9-A)*%
X139488685Y-103600000D03*
%TO.N,Net-(D10-A)*%
X143761307Y-91881712D03*
%TO.N,Net-(D11-A)*%
X146374171Y-89465168D03*
%TO.N,Net-(D12-A)*%
X152400000Y-88600000D03*
%TO.N,Net-(D13-K)*%
X153250000Y-84000000D03*
%TO.N,+3V7*%
X157000000Y-85250000D03*
X151100000Y-90800000D03*
X156700000Y-103400000D03*
X153100000Y-107000000D03*
X143150000Y-95700000D03*
%TO.N,/But0*%
X138250000Y-92750000D03*
X140444669Y-91694669D03*
%TO.N,/SDA*%
X148100000Y-101200000D03*
%TO.N,/SCL*%
X147300000Y-100400000D03*
%TD*%
D22*
%TO.N,Net-(D2-A)*%
X160876672Y-92940832D02*
X161159168Y-92940832D01*
X161412500Y-92687500D02*
X161412500Y-91700000D01*
X161159168Y-92940832D02*
X161412500Y-92687500D01*
%TO.N,Net-(D3-A)*%
X161600000Y-94200000D02*
X163400000Y-96000000D01*
X161412500Y-94200000D02*
X161600000Y-94200000D01*
%TO.N,Net-(D4-A)*%
X162200000Y-96700000D02*
X161412500Y-96700000D01*
X162000000Y-104800000D02*
X163250000Y-103550000D01*
X161980331Y-107080331D02*
X162000000Y-107060662D01*
X162000000Y-107060662D02*
X162000000Y-104800000D01*
X163250000Y-97750000D02*
X162200000Y-96700000D01*
X163250000Y-103550000D02*
X163250000Y-97750000D01*
%TO.N,Net-(D5-A)*%
X161250000Y-106750000D02*
X160800000Y-107200000D01*
X161950000Y-99200000D02*
X162500000Y-99750000D01*
X162500000Y-103451472D02*
X161250000Y-104701472D01*
X161412500Y-99200000D02*
X161950000Y-99200000D01*
X161250000Y-104701472D02*
X161250000Y-106750000D01*
X162500000Y-99750000D02*
X162500000Y-103451472D01*
%TO.N,Net-(D6-A)*%
X161400000Y-103300000D02*
X161400000Y-101712500D01*
X161400000Y-101712500D02*
X161412500Y-101700000D01*
%TO.N,Net-(D7-A)*%
X146300000Y-109300000D02*
X146512500Y-109512500D01*
X146512500Y-109512500D02*
X147600000Y-109512500D01*
X146300000Y-108800000D02*
X146300000Y-109300000D01*
%TO.N,Net-(D8-A)*%
X142400000Y-106400000D02*
X142400000Y-108200000D01*
X142400000Y-108200000D02*
X143712500Y-109512500D01*
X143712500Y-109512500D02*
X144900000Y-109512500D01*
%TO.N,Net-(D9-A)*%
X139488685Y-104488685D02*
X140000000Y-105000000D01*
X139488685Y-103600000D02*
X139488685Y-104488685D01*
X140000000Y-105000000D02*
X140587500Y-105000000D01*
%TO.N,Net-(D10-A)*%
X144169212Y-91881712D02*
X144587500Y-92300000D01*
X143761307Y-91881712D02*
X144169212Y-91881712D01*
%TO.N,Net-(D11-A)*%
X146374171Y-89465168D02*
X143034832Y-89465168D01*
X143034832Y-89465168D02*
X142187500Y-90312500D01*
X142187500Y-90312500D02*
X141800000Y-90312500D01*
%TO.N,Net-(D12-A)*%
X154000000Y-88600000D02*
X154100000Y-88500000D01*
X152400000Y-88600000D02*
X154000000Y-88600000D01*
D23*
%TO.N,Net-(D13-K)*%
X153250000Y-84000000D02*
X152750000Y-84500000D01*
X151750000Y-84500000D02*
X148250000Y-84500000D01*
D22*
X148250000Y-87100000D02*
X148250000Y-84600000D01*
X153150000Y-84100000D02*
X153250000Y-84000000D01*
D23*
X152750000Y-84500000D02*
X151750000Y-84500000D01*
D24*
%TO.N,+3V7*%
X150112500Y-90400000D02*
X149812500Y-90700000D01*
D22*
X140287500Y-94012500D02*
X140287500Y-94700000D01*
D23*
X153100000Y-107000000D02*
X151950000Y-107000000D01*
D24*
X158300000Y-103400000D02*
X158600000Y-103700000D01*
D22*
X140750000Y-93550000D02*
X140287500Y-94012500D01*
D24*
X150350000Y-92050000D02*
X150350000Y-93000000D01*
X151100000Y-90800000D02*
X151100000Y-91300000D01*
X149600000Y-95750000D02*
X149600000Y-94750000D01*
D22*
X143150000Y-95700000D02*
X143150000Y-94028122D01*
D24*
X158600000Y-103700000D02*
X158600000Y-104200000D01*
D22*
X152000000Y-106950000D02*
X151950000Y-107000000D01*
X142000000Y-93550000D02*
X140750000Y-93550000D01*
D24*
X151100000Y-91300000D02*
X150350000Y-92050000D01*
X150100000Y-94250000D02*
X151200000Y-94250000D01*
X149600000Y-94750000D02*
X150100000Y-94250000D01*
X151200000Y-95750000D02*
X151200000Y-94250000D01*
X156350000Y-84600000D02*
X155250000Y-84600000D01*
X158300000Y-104500000D02*
X156700000Y-104500000D01*
X151100000Y-90800000D02*
X150312500Y-90800000D01*
D22*
X142671878Y-93550000D02*
X142000000Y-93550000D01*
X143150000Y-94028122D02*
X142671878Y-93550000D01*
D24*
X150312500Y-90800000D02*
X150112500Y-90600000D01*
X158600000Y-104200000D02*
X158300000Y-104500000D01*
X150900000Y-93000000D02*
X150350000Y-93000000D01*
X151200000Y-97000000D02*
X151200000Y-95750000D01*
D22*
X142000000Y-93550000D02*
X141900000Y-93550000D01*
X151950000Y-104300000D02*
X152000000Y-104250000D01*
D24*
X152000000Y-104250000D02*
X152000000Y-106950000D01*
X152000000Y-104250000D02*
X152000000Y-102412500D01*
X151200000Y-94250000D02*
X151200000Y-93300000D01*
X156700000Y-103400000D02*
X158300000Y-103400000D01*
X151200000Y-101612500D02*
X151200000Y-97000000D01*
X157000000Y-85250000D02*
X156350000Y-84600000D01*
X152000000Y-102412500D02*
X151200000Y-101612500D01*
X151200000Y-93300000D02*
X150900000Y-93000000D01*
D22*
%TO.N,/But0*%
X145000000Y-95900000D02*
X144200000Y-96700000D01*
X143000000Y-114100000D02*
X157350000Y-114100000D01*
X142000000Y-91250000D02*
X142500000Y-91250000D01*
X164010000Y-104590000D02*
X165500000Y-104590000D01*
X138250000Y-94450000D02*
X137100000Y-95600000D01*
X144400000Y-97200000D02*
X145750000Y-97200000D01*
X163600000Y-105000000D02*
X164010000Y-104590000D01*
X142500000Y-91250000D02*
X143011307Y-91761307D01*
X140444669Y-91694669D02*
X140889338Y-91250000D01*
X144200000Y-97000000D02*
X144400000Y-97200000D01*
X143011307Y-92192373D02*
X145000000Y-94181066D01*
X148187500Y-90700000D02*
X148287500Y-90600000D01*
X143050000Y-90700000D02*
X148187500Y-90700000D01*
X138250000Y-92750000D02*
X138250000Y-94450000D01*
X145000000Y-94181066D02*
X145000000Y-95900000D01*
X137100000Y-95600000D02*
X137100000Y-108200000D01*
X140889338Y-91250000D02*
X142500000Y-91250000D01*
X144200000Y-96700000D02*
X144200000Y-97000000D01*
X137100000Y-108200000D02*
X143000000Y-114100000D01*
X143011307Y-91761307D02*
X143011307Y-92192373D01*
X163600000Y-107850000D02*
X163600000Y-105000000D01*
X142500000Y-91250000D02*
X143050000Y-90700000D01*
X157350000Y-114100000D02*
X163600000Y-107850000D01*
%TO.N,Net-(U1-AREF)*%
X150400000Y-105400000D02*
X150400000Y-104250000D01*
X151000000Y-106000000D02*
X150400000Y-105400000D01*
X151000000Y-108050000D02*
X151000000Y-106000000D01*
X151950000Y-109000000D02*
X151000000Y-108050000D01*
%TO.N,/SDA*%
X143112500Y-101200000D02*
X145750000Y-101200000D01*
X142412500Y-101900000D02*
X143112500Y-101200000D01*
X148100000Y-101200000D02*
X145750000Y-101200000D01*
%TO.N,/Res*%
X139000000Y-102500000D02*
X138500000Y-103000000D01*
X142400000Y-95112500D02*
X142400000Y-96750000D01*
X138500000Y-106000000D02*
X143750000Y-111250000D01*
X139000000Y-99375000D02*
X139000000Y-102500000D01*
X142150000Y-97450000D02*
X142150000Y-96900000D01*
X142250000Y-98250000D02*
X140125000Y-98250000D01*
X142150000Y-97450000D02*
X142600000Y-97900000D01*
X154700000Y-109100000D02*
X155300000Y-108500000D01*
X142600000Y-97900000D02*
X142250000Y-98250000D01*
X143750000Y-111250000D02*
X153500000Y-111250000D01*
X153500000Y-111250000D02*
X154700000Y-110050000D01*
X145750000Y-99600000D02*
X144300000Y-99600000D01*
X138500000Y-103000000D02*
X138500000Y-106000000D01*
X154700000Y-110050000D02*
X154700000Y-109100000D01*
X144300000Y-99600000D02*
X142150000Y-97450000D01*
X155300000Y-108500000D02*
X156700000Y-108500000D01*
X140125000Y-98250000D02*
X139000000Y-99375000D01*
%TO.N,/RXD*%
X140800000Y-87100000D02*
X144750000Y-87100000D01*
X143250000Y-96660661D02*
X144000000Y-95910661D01*
X142870406Y-92900000D02*
X140450000Y-92900000D01*
X143250000Y-97550000D02*
X143250000Y-96660661D01*
X140450000Y-92900000D02*
X139350000Y-91800000D01*
X144000000Y-95910661D02*
X144000000Y-94029594D01*
X145750000Y-98800000D02*
X144500000Y-98800000D01*
X139350000Y-91800000D02*
X139350000Y-88550000D01*
X144500000Y-98800000D02*
X143250000Y-97550000D01*
X139350000Y-88550000D02*
X140800000Y-87100000D01*
X144000000Y-94029594D02*
X142870406Y-92900000D01*
%TO.N,/SCK*%
X152800000Y-105400000D02*
X152800000Y-104250000D01*
X154900000Y-107500000D02*
X152800000Y-105400000D01*
X154900000Y-107500000D02*
X158450000Y-107500000D01*
%TO.N,/MOSI*%
X157900000Y-102000000D02*
X160100000Y-104200000D01*
X160100000Y-104900000D02*
X159500000Y-105500000D01*
X154050000Y-102000000D02*
X157900000Y-102000000D01*
X160100000Y-104200000D02*
X160100000Y-104900000D01*
X159500000Y-105500000D02*
X158450000Y-105500000D01*
%TO.N,/MISO*%
X155375000Y-103125000D02*
X155050000Y-102800000D01*
X156700000Y-106500000D02*
X155800000Y-106500000D01*
X155800000Y-106500000D02*
X155375000Y-106075000D01*
X155050000Y-102800000D02*
X154250000Y-102800000D01*
X155375000Y-106075000D02*
X155375000Y-103125000D01*
%TO.N,/LED V*%
X159887500Y-99200000D02*
X157800000Y-99200000D01*
X156600000Y-100400000D02*
X154250000Y-100400000D01*
X157800000Y-99200000D02*
X156600000Y-100400000D01*
%TO.N,/LED III*%
X158400000Y-94600000D02*
X158400000Y-96300000D01*
X158800000Y-94200000D02*
X158400000Y-94600000D01*
X158400000Y-96300000D02*
X155900000Y-98800000D01*
X155900000Y-98800000D02*
X154250000Y-98800000D01*
X159887500Y-94200000D02*
X158800000Y-94200000D01*
%TO.N,/LED VIII*%
X145800000Y-105600000D02*
X144900000Y-106500000D01*
X147200000Y-104250000D02*
X147200000Y-105400000D01*
X147000000Y-105600000D02*
X145800000Y-105600000D01*
X147200000Y-105400000D02*
X147000000Y-105600000D01*
X144900000Y-106500000D02*
X144900000Y-107687500D01*
%TO.N,/LED II*%
X158200000Y-91700000D02*
X159887500Y-91700000D01*
X155700000Y-98000000D02*
X157600000Y-96100000D01*
X157600000Y-96100000D02*
X157600000Y-92300000D01*
X154250000Y-98000000D02*
X155700000Y-98000000D01*
X157600000Y-92300000D02*
X158200000Y-91700000D01*
%TO.N,/LED XI*%
X150200000Y-88700000D02*
X143300000Y-88700000D01*
X152000000Y-95750000D02*
X152000000Y-90500000D01*
X152050000Y-95750000D02*
X152075000Y-95725000D01*
X143300000Y-88700000D02*
X142987500Y-88387500D01*
X152000000Y-90500000D02*
X150200000Y-88700000D01*
X152000000Y-95750000D02*
X152050000Y-95750000D01*
X142987500Y-88387500D02*
X141300000Y-88387500D01*
%TO.N,/LED XII*%
X152800000Y-93400000D02*
X154100000Y-92100000D01*
X152800000Y-95750000D02*
X152800000Y-93400000D01*
X154100000Y-92100000D02*
X154100000Y-90325000D01*
%TO.N,/LED VI*%
X159387500Y-101200000D02*
X154250000Y-101200000D01*
X159587500Y-101700000D02*
X159087500Y-101200000D01*
%TO.N,/LED VII*%
X148000000Y-107287500D02*
X148000000Y-104250000D01*
X147600000Y-107687500D02*
X148000000Y-107287500D01*
%TO.N,/LED IIII*%
X156100000Y-99600000D02*
X158900000Y-96800000D01*
X154250000Y-99600000D02*
X156100000Y-99600000D01*
X158900000Y-96800000D02*
X159887500Y-96800000D01*
%TO.N,/LED I*%
X156800000Y-96000000D02*
X155600000Y-97200000D01*
X156800000Y-90312500D02*
X156800000Y-96000000D01*
X155600000Y-97200000D02*
X154250000Y-97200000D01*
%TO.N,/LED X*%
X148000000Y-95750000D02*
X148000000Y-94400000D01*
X146512500Y-92912500D02*
X146512500Y-92000000D01*
X148000000Y-94400000D02*
X146512500Y-92912500D01*
%TO.N,/SCL*%
X143012500Y-100400000D02*
X145750000Y-100400000D01*
X147300000Y-100400000D02*
X145750000Y-100400000D01*
X142412500Y-99800000D02*
X143012500Y-100400000D01*
%TO.N,/LED IX*%
X142412500Y-105000000D02*
X142548528Y-105000000D01*
X144748528Y-102800000D02*
X145750000Y-102800000D01*
X142548528Y-105000000D02*
X144748528Y-102800000D01*
%TO.N,/Pullup*%
X144500000Y-102000000D02*
X142900000Y-103600000D01*
X140587500Y-102887500D02*
X140587500Y-102100000D01*
X145750000Y-102000000D02*
X144500000Y-102000000D01*
X141300000Y-103600000D02*
X140587500Y-102887500D01*
X140587500Y-102100000D02*
X140587500Y-99500000D01*
X142900000Y-103600000D02*
X141300000Y-103600000D01*
%TD*%
%TA.AperFunction,Conductor*%
%TO.N,GND*%
G36*
X150414369Y-83005638D02*
G01*
X151227782Y-83044982D01*
X151234934Y-83045502D01*
X152045498Y-83124099D01*
X152052605Y-83124962D01*
X152838934Y-83239782D01*
X152909766Y-83270299D01*
X152955851Y-83332144D01*
X152964839Y-83408747D01*
X152934322Y-83479581D01*
X152908109Y-83505427D01*
X152821720Y-83571715D01*
X152821715Y-83571720D01*
X152743695Y-83673397D01*
X152682505Y-83720350D01*
X152606036Y-83730416D01*
X152535455Y-83701415D01*
X152483496Y-83662014D01*
X152422342Y-83615639D01*
X152422341Y-83615638D01*
X152281563Y-83560122D01*
X152193105Y-83549500D01*
X152193102Y-83549500D01*
X151306898Y-83549500D01*
X151306894Y-83549500D01*
X151218436Y-83560122D01*
X151077658Y-83615638D01*
X151077658Y-83615639D01*
X150957079Y-83707076D01*
X150957076Y-83707079D01*
X150865641Y-83827654D01*
X150865637Y-83827661D01*
X150854793Y-83855161D01*
X150808892Y-83917144D01*
X150738150Y-83947872D01*
X150716182Y-83949500D01*
X149283818Y-83949500D01*
X149209318Y-83929538D01*
X149154780Y-83875000D01*
X149145207Y-83855161D01*
X149134362Y-83827661D01*
X149134361Y-83827658D01*
X149042922Y-83707078D01*
X149042920Y-83707076D01*
X148983496Y-83662014D01*
X148922342Y-83615639D01*
X148922341Y-83615638D01*
X148781563Y-83560122D01*
X148693105Y-83549500D01*
X148693102Y-83549500D01*
X147806898Y-83549500D01*
X147806894Y-83549500D01*
X147718436Y-83560122D01*
X147577658Y-83615638D01*
X147577658Y-83615639D01*
X147457079Y-83707076D01*
X147457076Y-83707079D01*
X147365639Y-83827658D01*
X147365638Y-83827658D01*
X147310122Y-83968436D01*
X147299500Y-84056894D01*
X147299500Y-85343105D01*
X147310122Y-85431563D01*
X147365638Y-85572341D01*
X147365639Y-85572342D01*
X147457078Y-85692922D01*
X147577658Y-85784361D01*
X147646197Y-85811389D01*
X147708176Y-85857288D01*
X147738905Y-85928031D01*
X147730145Y-86004660D01*
X147684244Y-86066642D01*
X147646197Y-86088609D01*
X147577661Y-86115637D01*
X147577658Y-86115639D01*
X147457079Y-86207076D01*
X147457076Y-86207079D01*
X147365639Y-86327658D01*
X147365638Y-86327658D01*
X147310122Y-86468436D01*
X147299500Y-86556894D01*
X147299500Y-87843105D01*
X147310122Y-87931563D01*
X147310123Y-87931566D01*
X147355187Y-88045839D01*
X147363948Y-88122467D01*
X147333220Y-88193210D01*
X147271237Y-88239111D01*
X147216576Y-88249500D01*
X145783424Y-88249500D01*
X145708924Y-88229538D01*
X145654386Y-88175000D01*
X145634424Y-88100500D01*
X145644813Y-88045839D01*
X145681267Y-87953398D01*
X145689877Y-87931564D01*
X145700500Y-87843102D01*
X145700500Y-86556898D01*
X145689877Y-86468436D01*
X145634361Y-86327658D01*
X145542922Y-86207078D01*
X145542920Y-86207076D01*
X145495982Y-86171482D01*
X145422342Y-86115639D01*
X145422341Y-86115638D01*
X145353122Y-86088342D01*
X145291140Y-86042441D01*
X145260412Y-85971698D01*
X145269173Y-85895069D01*
X145315074Y-85833087D01*
X145353125Y-85811119D01*
X145422092Y-85783922D01*
X145422095Y-85783920D01*
X145542562Y-85692566D01*
X145542566Y-85692562D01*
X145633920Y-85572096D01*
X145689386Y-85431443D01*
X145699999Y-85343060D01*
X145700000Y-85343058D01*
X145700000Y-84850000D01*
X143800000Y-84850000D01*
X143800000Y-85343060D01*
X143810613Y-85431443D01*
X143866079Y-85572096D01*
X143957433Y-85692562D01*
X143957437Y-85692566D01*
X144077904Y-85783920D01*
X144077905Y-85783921D01*
X144146875Y-85811119D01*
X144208858Y-85857019D01*
X144239587Y-85927762D01*
X144230827Y-86004391D01*
X144184927Y-86066374D01*
X144146877Y-86088342D01*
X144077659Y-86115638D01*
X144077658Y-86115639D01*
X143957079Y-86207076D01*
X143957076Y-86207079D01*
X143865639Y-86327658D01*
X143865638Y-86327658D01*
X143810123Y-86468435D01*
X143804139Y-86518266D01*
X143775436Y-86589854D01*
X143714785Y-86637500D01*
X143656202Y-86649500D01*
X140740687Y-86649500D01*
X140650326Y-86673712D01*
X140650326Y-86673713D01*
X140638219Y-86676957D01*
X140626112Y-86680201D01*
X140523385Y-86739510D01*
X140258134Y-87004762D01*
X138989511Y-88273386D01*
X138989510Y-88273387D01*
X138989508Y-88273389D01*
X138930201Y-88376111D01*
X138930202Y-88376111D01*
X138930201Y-88376115D01*
X138899500Y-88490689D01*
X138899500Y-88490691D01*
X138899500Y-91859309D01*
X138917417Y-91926178D01*
X138920990Y-91939510D01*
X138930202Y-91973891D01*
X138989506Y-92076607D01*
X138989509Y-92076611D01*
X138989511Y-92076614D01*
X140173386Y-93260489D01*
X140173388Y-93260490D01*
X140180292Y-93267394D01*
X140178172Y-93269513D01*
X140215135Y-93317691D01*
X140225198Y-93394160D01*
X140195679Y-93465415D01*
X140182833Y-93480062D01*
X139997305Y-93665589D01*
X139930510Y-93704153D01*
X139909719Y-93708166D01*
X139893442Y-93710121D01*
X139893432Y-93710124D01*
X139752658Y-93765638D01*
X139752658Y-93765639D01*
X139632079Y-93857076D01*
X139632076Y-93857079D01*
X139540639Y-93977658D01*
X139540638Y-93977658D01*
X139485122Y-94118436D01*
X139474500Y-94206894D01*
X139474500Y-95193105D01*
X139485122Y-95281563D01*
X139540638Y-95422341D01*
X139630384Y-95540689D01*
X139632078Y-95542922D01*
X139752658Y-95634361D01*
X139777679Y-95644228D01*
X139839661Y-95690129D01*
X139870389Y-95760872D01*
X139861628Y-95837501D01*
X139815727Y-95899483D01*
X139777678Y-95921451D01*
X139727904Y-95941079D01*
X139607437Y-96032433D01*
X139607433Y-96032437D01*
X139516079Y-96152903D01*
X139460613Y-96293556D01*
X139450000Y-96381939D01*
X139450000Y-96750000D01*
X141050000Y-96750000D01*
X141050000Y-96381941D01*
X141049999Y-96381939D01*
X141039386Y-96293556D01*
X140983920Y-96152903D01*
X140892566Y-96032437D01*
X140892562Y-96032433D01*
X140772095Y-95941079D01*
X140772096Y-95941079D01*
X140759822Y-95936239D01*
X140697839Y-95890338D01*
X140667111Y-95819595D01*
X140675871Y-95742966D01*
X140721772Y-95680983D01*
X140759822Y-95659016D01*
X140772787Y-95653902D01*
X140822342Y-95634361D01*
X140942922Y-95542922D01*
X141034361Y-95422342D01*
X141061390Y-95353800D01*
X141107289Y-95291821D01*
X141178032Y-95261093D01*
X141254661Y-95269853D01*
X141316644Y-95315754D01*
X141338608Y-95353798D01*
X141365639Y-95422342D01*
X141365640Y-95422343D01*
X141455384Y-95540689D01*
X141457078Y-95542922D01*
X141577658Y-95634361D01*
X141639500Y-95658748D01*
X141701479Y-95704647D01*
X141732208Y-95775390D01*
X141723448Y-95852019D01*
X141677547Y-95914001D01*
X141639503Y-95935967D01*
X141627661Y-95940637D01*
X141627658Y-95940639D01*
X141507079Y-96032076D01*
X141507076Y-96032079D01*
X141415639Y-96152658D01*
X141415638Y-96152658D01*
X141360122Y-96293436D01*
X141349500Y-96381894D01*
X141349500Y-97418105D01*
X141360122Y-97506561D01*
X141360122Y-97506563D01*
X141360123Y-97506564D01*
X141390651Y-97583978D01*
X141395329Y-97595839D01*
X141404089Y-97672468D01*
X141373361Y-97743211D01*
X141311378Y-97789112D01*
X141256717Y-97799500D01*
X141142746Y-97799500D01*
X141068246Y-97779538D01*
X141013708Y-97725000D01*
X140993746Y-97650500D01*
X141004134Y-97595840D01*
X141039385Y-97506444D01*
X141049999Y-97418060D01*
X141050000Y-97418058D01*
X141050000Y-97050000D01*
X139450000Y-97050000D01*
X139450000Y-97418060D01*
X139460613Y-97506443D01*
X139516079Y-97647096D01*
X139607433Y-97767562D01*
X139607437Y-97767566D01*
X139677664Y-97820822D01*
X139724964Y-97881744D01*
X139735465Y-97958154D01*
X139706355Y-98029577D01*
X139692991Y-98044904D01*
X138639509Y-99098388D01*
X138639508Y-99098389D01*
X138580201Y-99201111D01*
X138580202Y-99201111D01*
X138580201Y-99201115D01*
X138549500Y-99315689D01*
X138549500Y-102251678D01*
X138529538Y-102326178D01*
X138505859Y-102357037D01*
X138139509Y-102723388D01*
X138139508Y-102723389D01*
X138080201Y-102826111D01*
X138080202Y-102826111D01*
X138080201Y-102826113D01*
X138080201Y-102826114D01*
X138074233Y-102848386D01*
X138049500Y-102940689D01*
X138049500Y-106059311D01*
X138066668Y-106123382D01*
X138066669Y-106123386D01*
X138066670Y-106123387D01*
X138069597Y-106134312D01*
X138080201Y-106173889D01*
X138139506Y-106276607D01*
X138139509Y-106276611D01*
X138139511Y-106276614D01*
X143473386Y-111610489D01*
X143473388Y-111610490D01*
X143473389Y-111610491D01*
X143576115Y-111669800D01*
X143590424Y-111673633D01*
X143600317Y-111676283D01*
X143600324Y-111676287D01*
X143600325Y-111676286D01*
X143624539Y-111682774D01*
X143690691Y-111700500D01*
X143690694Y-111700500D01*
X153559306Y-111700500D01*
X153559309Y-111700500D01*
X153649673Y-111676286D01*
X153673887Y-111669799D01*
X153776614Y-111610489D01*
X155060489Y-110326614D01*
X155119798Y-110223887D01*
X155119799Y-110223886D01*
X155150500Y-110109309D01*
X155150500Y-109844794D01*
X157275001Y-109844794D01*
X157277909Y-109869874D01*
X157323212Y-109972477D01*
X157402521Y-110051786D01*
X157505128Y-110097091D01*
X157530204Y-110099999D01*
X158300000Y-110099999D01*
X158600000Y-110099999D01*
X159369795Y-110099999D01*
X159394874Y-110097090D01*
X159497477Y-110051787D01*
X159497478Y-110051787D01*
X159576786Y-109972478D01*
X159622091Y-109869871D01*
X159625000Y-109844795D01*
X159625000Y-109650000D01*
X158600000Y-109650000D01*
X158600000Y-110099999D01*
X158300000Y-110099999D01*
X158300000Y-109650000D01*
X157275001Y-109650000D01*
X157275001Y-109844794D01*
X155150500Y-109844794D01*
X155150500Y-109348321D01*
X155170462Y-109273821D01*
X155194141Y-109242962D01*
X155413207Y-109023896D01*
X155480002Y-108985332D01*
X155557130Y-108985332D01*
X155623925Y-109023896D01*
X155652235Y-109052206D01*
X155755009Y-109097585D01*
X155780135Y-109100500D01*
X157126001Y-109100499D01*
X157200500Y-109120461D01*
X157255038Y-109174999D01*
X157275000Y-109249499D01*
X157275000Y-109350000D01*
X158300000Y-109350000D01*
X158600000Y-109350000D01*
X159624999Y-109350000D01*
X159624999Y-109155205D01*
X159622090Y-109130125D01*
X159576787Y-109027522D01*
X159497478Y-108948213D01*
X159394871Y-108902908D01*
X159369796Y-108900000D01*
X158600000Y-108900000D01*
X158600000Y-109350000D01*
X158300000Y-109350000D01*
X158300000Y-108900000D01*
X158024500Y-108900000D01*
X157950000Y-108880038D01*
X157895462Y-108825500D01*
X157875500Y-108751000D01*
X157875499Y-108249499D01*
X157895461Y-108174999D01*
X157949999Y-108120461D01*
X158024499Y-108100499D01*
X159369867Y-108100499D01*
X159384940Y-108098750D01*
X159394991Y-108097585D01*
X159497765Y-108052206D01*
X159577206Y-107972765D01*
X159622585Y-107869991D01*
X159625500Y-107844865D01*
X159625499Y-107155136D01*
X159624903Y-107150000D01*
X159622585Y-107130010D01*
X159622584Y-107130007D01*
X159579343Y-107032076D01*
X159577206Y-107027235D01*
X159497765Y-106947794D01*
X159497764Y-106947793D01*
X159394994Y-106902416D01*
X159394991Y-106902415D01*
X159369865Y-106899500D01*
X159369859Y-106899500D01*
X158024500Y-106899500D01*
X157950000Y-106879538D01*
X157895462Y-106825000D01*
X157875500Y-106750500D01*
X157875499Y-106249499D01*
X157895461Y-106174999D01*
X157949999Y-106120461D01*
X158024499Y-106100499D01*
X159369867Y-106100499D01*
X159384940Y-106098750D01*
X159394991Y-106097585D01*
X159497765Y-106052206D01*
X159577206Y-105972765D01*
X159577207Y-105972761D01*
X159585938Y-105964031D01*
X159652730Y-105925466D01*
X159673887Y-105919799D01*
X159776614Y-105860489D01*
X160460489Y-105176614D01*
X160507691Y-105094859D01*
X160521462Y-105071007D01*
X160576000Y-105016469D01*
X160650501Y-104996507D01*
X160725000Y-105016469D01*
X160779538Y-105071007D01*
X160799500Y-105145507D01*
X160799500Y-106463714D01*
X160779538Y-106538214D01*
X160725000Y-106592752D01*
X160669951Y-106611439D01*
X160643237Y-106614956D01*
X160497159Y-106675463D01*
X160371718Y-106771717D01*
X160371717Y-106771718D01*
X160275463Y-106897159D01*
X160214954Y-107043242D01*
X160194318Y-107199997D01*
X160194318Y-107200002D01*
X160214954Y-107356757D01*
X160275463Y-107502840D01*
X160322351Y-107563945D01*
X160371718Y-107628282D01*
X160497159Y-107724536D01*
X160643238Y-107785044D01*
X160643241Y-107785044D01*
X160643243Y-107785045D01*
X160643240Y-107785045D01*
X160799997Y-107805682D01*
X160800000Y-107805682D01*
X160800003Y-107805682D01*
X160956757Y-107785045D01*
X160956758Y-107785044D01*
X160956762Y-107785044D01*
X161102841Y-107724536D01*
X161228282Y-107628282D01*
X161317870Y-107511527D01*
X161379056Y-107464578D01*
X161455524Y-107454509D01*
X161526781Y-107484024D01*
X161544803Y-107502046D01*
X161545143Y-107501707D01*
X161552048Y-107508612D01*
X161552049Y-107508613D01*
X161677490Y-107604867D01*
X161823569Y-107665375D01*
X161823572Y-107665375D01*
X161823574Y-107665376D01*
X161823571Y-107665376D01*
X161980328Y-107686013D01*
X161980331Y-107686013D01*
X161980334Y-107686013D01*
X162137088Y-107665376D01*
X162137089Y-107665375D01*
X162137093Y-107665375D01*
X162283172Y-107604867D01*
X162408613Y-107508613D01*
X162504867Y-107383172D01*
X162565375Y-107237093D01*
X162570259Y-107200000D01*
X162586013Y-107080333D01*
X162586013Y-107080328D01*
X162565376Y-106923573D01*
X162565375Y-106923571D01*
X162565375Y-106923569D01*
X162504867Y-106777490D01*
X162500437Y-106771717D01*
X162481289Y-106746762D01*
X162451774Y-106675504D01*
X162450500Y-106656058D01*
X162450500Y-105048320D01*
X162470462Y-104973820D01*
X162494137Y-104942965D01*
X163610489Y-103826614D01*
X163669799Y-103723887D01*
X163687102Y-103659309D01*
X163700500Y-103609309D01*
X163700500Y-97690691D01*
X163690939Y-97655009D01*
X163673730Y-97590783D01*
X163669799Y-97576113D01*
X163610491Y-97473389D01*
X163610490Y-97473388D01*
X163610489Y-97473386D01*
X162832809Y-96695706D01*
X162794247Y-96628914D01*
X162794247Y-96604966D01*
X162752628Y-96599487D01*
X162704293Y-96567190D01*
X162476614Y-96339511D01*
X162476611Y-96339509D01*
X162476607Y-96339506D01*
X162373890Y-96280202D01*
X162373888Y-96280201D01*
X162361524Y-96276888D01*
X162340107Y-96271150D01*
X162340101Y-96271146D01*
X162340101Y-96271148D01*
X162327011Y-96267640D01*
X162260218Y-96229074D01*
X162221657Y-96162277D01*
X162217646Y-96141499D01*
X162214877Y-96118436D01*
X162159361Y-95977658D01*
X162145449Y-95959312D01*
X162067923Y-95857079D01*
X162067920Y-95857076D01*
X162009000Y-95812396D01*
X161947342Y-95765639D01*
X161947341Y-95765638D01*
X161806563Y-95710122D01*
X161718105Y-95699500D01*
X161718102Y-95699500D01*
X161106898Y-95699500D01*
X161106894Y-95699500D01*
X161018436Y-95710122D01*
X160877658Y-95765638D01*
X160877658Y-95765639D01*
X160757079Y-95857076D01*
X160757076Y-95857079D01*
X160665639Y-95977658D01*
X160665638Y-95977658D01*
X160638611Y-96046196D01*
X160592710Y-96108178D01*
X160521967Y-96138906D01*
X160445338Y-96130145D01*
X160383356Y-96084244D01*
X160361389Y-96046196D01*
X160334361Y-95977658D01*
X160242923Y-95857079D01*
X160242920Y-95857076D01*
X160184000Y-95812396D01*
X160122342Y-95765639D01*
X160122341Y-95765638D01*
X159981563Y-95710122D01*
X159893105Y-95699500D01*
X159893102Y-95699500D01*
X159281898Y-95699500D01*
X159281894Y-95699500D01*
X159193436Y-95710122D01*
X159054162Y-95765046D01*
X158977533Y-95773807D01*
X158906790Y-95743079D01*
X158860889Y-95681097D01*
X158850500Y-95626435D01*
X158850500Y-95273564D01*
X158870462Y-95199064D01*
X158925000Y-95144526D01*
X158999500Y-95124564D01*
X159054156Y-95134951D01*
X159193436Y-95189877D01*
X159281898Y-95200500D01*
X159281899Y-95200500D01*
X159893101Y-95200500D01*
X159893102Y-95200500D01*
X159981564Y-95189877D01*
X160122342Y-95134361D01*
X160242922Y-95042922D01*
X160334361Y-94922342D01*
X160361390Y-94853800D01*
X160407289Y-94791821D01*
X160478032Y-94761093D01*
X160554661Y-94769853D01*
X160616644Y-94815754D01*
X160638608Y-94853798D01*
X160665639Y-94922342D01*
X160757078Y-95042922D01*
X160877658Y-95134361D01*
X161018436Y-95189877D01*
X161106898Y-95200500D01*
X161106899Y-95200500D01*
X161718101Y-95200500D01*
X161718102Y-95200500D01*
X161806564Y-95189877D01*
X161820504Y-95184379D01*
X161897128Y-95175616D01*
X161967872Y-95206340D01*
X161980527Y-95217630D01*
X162763317Y-96000420D01*
X162801881Y-96067215D01*
X162805682Y-96086328D01*
X162814956Y-96156762D01*
X162823178Y-96176611D01*
X162875463Y-96302840D01*
X162927859Y-96371124D01*
X162957374Y-96442381D01*
X162956841Y-96446427D01*
X162976734Y-96446427D01*
X163028875Y-96472140D01*
X163097159Y-96524536D01*
X163243238Y-96585044D01*
X163243241Y-96585044D01*
X163243243Y-96585045D01*
X163243240Y-96585045D01*
X163399997Y-96605682D01*
X163400000Y-96605682D01*
X163400003Y-96605682D01*
X163556757Y-96585045D01*
X163556758Y-96585044D01*
X163556762Y-96585044D01*
X163702841Y-96524536D01*
X163828282Y-96428282D01*
X163924536Y-96302841D01*
X163985044Y-96156762D01*
X163985585Y-96152658D01*
X164003276Y-96018278D01*
X164010095Y-96001812D01*
X164007586Y-95994420D01*
X164291387Y-95994420D01*
X164300001Y-96037726D01*
X164300001Y-96544794D01*
X164302909Y-96569874D01*
X164348212Y-96672477D01*
X164427521Y-96751786D01*
X164530128Y-96797091D01*
X164555204Y-96799999D01*
X165250000Y-96799999D01*
X165250000Y-95560000D01*
X164300001Y-95560000D01*
X164300001Y-95962273D01*
X164291387Y-95994420D01*
X164007586Y-95994420D01*
X164003276Y-95981721D01*
X163985045Y-95843242D01*
X163985044Y-95843240D01*
X163985044Y-95843238D01*
X163924536Y-95697159D01*
X163828282Y-95571718D01*
X163790755Y-95542922D01*
X163702840Y-95475463D01*
X163583697Y-95426113D01*
X163556762Y-95414956D01*
X163486328Y-95405682D01*
X163415072Y-95376167D01*
X163400420Y-95363317D01*
X162312307Y-94275204D01*
X164300000Y-94275204D01*
X164300000Y-95260000D01*
X165250000Y-95260000D01*
X165250000Y-94020000D01*
X164555205Y-94020000D01*
X164530125Y-94022909D01*
X164427522Y-94068212D01*
X164427522Y-94068213D01*
X164348213Y-94147521D01*
X164302908Y-94250128D01*
X164300000Y-94275204D01*
X162312307Y-94275204D01*
X162269141Y-94232038D01*
X162230577Y-94165243D01*
X162225500Y-94126679D01*
X162225500Y-93706899D01*
X162225500Y-93706898D01*
X162214877Y-93618436D01*
X162159361Y-93477658D01*
X162150041Y-93465368D01*
X162067923Y-93357079D01*
X162067920Y-93357076D01*
X162015983Y-93317691D01*
X161947342Y-93265639D01*
X161947340Y-93265638D01*
X161817381Y-93214388D01*
X161755399Y-93168487D01*
X161724671Y-93097744D01*
X161733432Y-93021115D01*
X161766686Y-92970416D01*
X161772990Y-92964113D01*
X161832299Y-92861386D01*
X161839742Y-92833608D01*
X161861427Y-92752678D01*
X161865528Y-92737375D01*
X161867651Y-92737944D01*
X161892047Y-92679024D01*
X161940043Y-92642183D01*
X161938455Y-92639358D01*
X161947338Y-92634362D01*
X161947342Y-92634361D01*
X162067922Y-92542922D01*
X162159361Y-92422342D01*
X162214877Y-92281564D01*
X162225500Y-92193102D01*
X162225500Y-91206898D01*
X162214877Y-91118436D01*
X162159361Y-90977658D01*
X162067922Y-90857078D01*
X162067920Y-90857076D01*
X162020982Y-90821482D01*
X161947342Y-90765639D01*
X161947341Y-90765638D01*
X161806563Y-90710122D01*
X161718105Y-90699500D01*
X161718102Y-90699500D01*
X161106898Y-90699500D01*
X161106894Y-90699500D01*
X161018436Y-90710122D01*
X160877658Y-90765638D01*
X160877658Y-90765639D01*
X160757079Y-90857076D01*
X160757076Y-90857079D01*
X160665639Y-90977658D01*
X160665638Y-90977658D01*
X160638611Y-91046196D01*
X160592710Y-91108178D01*
X160521967Y-91138906D01*
X160445338Y-91130145D01*
X160383356Y-91084244D01*
X160361389Y-91046196D01*
X160334361Y-90977658D01*
X160242923Y-90857079D01*
X160242920Y-90857076D01*
X160195982Y-90821482D01*
X160122342Y-90765639D01*
X160122341Y-90765638D01*
X159981563Y-90710122D01*
X159893105Y-90699500D01*
X159893102Y-90699500D01*
X159281898Y-90699500D01*
X159281894Y-90699500D01*
X159193436Y-90710122D01*
X159052658Y-90765638D01*
X159052658Y-90765639D01*
X158932079Y-90857076D01*
X158932076Y-90857079D01*
X158840639Y-90977658D01*
X158840638Y-90977658D01*
X158785122Y-91118436D01*
X158782782Y-91127698D01*
X158781491Y-91127371D01*
X158756446Y-91189848D01*
X158695797Y-91237497D01*
X158637207Y-91249500D01*
X158140687Y-91249500D01*
X158050326Y-91273712D01*
X158050326Y-91273713D01*
X158026113Y-91280201D01*
X157923389Y-91339508D01*
X157504859Y-91758038D01*
X157438064Y-91796602D01*
X157360936Y-91796602D01*
X157294141Y-91758038D01*
X157255577Y-91691243D01*
X157250500Y-91652679D01*
X157250500Y-91262793D01*
X157270462Y-91188293D01*
X157325000Y-91133755D01*
X157372484Y-91117938D01*
X157372302Y-91117218D01*
X157381562Y-91114877D01*
X157381564Y-91114877D01*
X157522342Y-91059361D01*
X157642922Y-90967922D01*
X157734361Y-90847342D01*
X157789877Y-90706564D01*
X157800500Y-90618102D01*
X157800500Y-90006898D01*
X157789877Y-89918436D01*
X157734361Y-89777658D01*
X157642922Y-89657078D01*
X157642920Y-89657076D01*
X157538827Y-89578140D01*
X157522342Y-89565639D01*
X157453800Y-89538609D01*
X157391821Y-89492711D01*
X157361093Y-89421968D01*
X157369853Y-89345339D01*
X157415754Y-89283356D01*
X157453798Y-89261391D01*
X157522342Y-89234361D01*
X157642922Y-89142922D01*
X157734361Y-89022342D01*
X157789877Y-88881564D01*
X157800500Y-88793102D01*
X157800500Y-88181898D01*
X157789877Y-88093436D01*
X157734361Y-87952658D01*
X157642922Y-87832078D01*
X157642920Y-87832076D01*
X157591964Y-87793435D01*
X157522342Y-87740639D01*
X157522341Y-87740638D01*
X157381563Y-87685122D01*
X157293105Y-87674500D01*
X157293102Y-87674500D01*
X156306898Y-87674500D01*
X156306894Y-87674500D01*
X156218436Y-87685122D01*
X156077658Y-87740638D01*
X156077658Y-87740639D01*
X155957079Y-87832076D01*
X155957076Y-87832079D01*
X155865639Y-87952658D01*
X155865638Y-87952658D01*
X155810122Y-88093436D01*
X155799500Y-88181894D01*
X155799500Y-88793105D01*
X155810122Y-88881563D01*
X155865638Y-89022341D01*
X155910340Y-89081290D01*
X155957078Y-89142922D01*
X156077658Y-89234361D01*
X156146196Y-89261389D01*
X156208178Y-89307290D01*
X156238906Y-89378033D01*
X156230145Y-89454662D01*
X156184244Y-89516644D01*
X156146196Y-89538611D01*
X156077658Y-89565638D01*
X156077658Y-89565639D01*
X155957079Y-89657076D01*
X155957076Y-89657079D01*
X155865639Y-89777658D01*
X155865638Y-89777658D01*
X155810122Y-89918436D01*
X155799500Y-90006894D01*
X155799500Y-90618105D01*
X155810122Y-90706563D01*
X155865638Y-90847341D01*
X155873020Y-90857076D01*
X155957078Y-90967922D01*
X156077658Y-91059361D01*
X156218436Y-91114877D01*
X156227698Y-91117218D01*
X156227371Y-91118508D01*
X156289848Y-91143554D01*
X156337497Y-91204203D01*
X156349500Y-91262793D01*
X156349500Y-95751679D01*
X156329538Y-95826179D01*
X156305859Y-95857038D01*
X155461793Y-96701104D01*
X155394998Y-96739668D01*
X155317870Y-96739668D01*
X155251075Y-96701104D01*
X155222764Y-96672793D01*
X155119994Y-96627416D01*
X155119991Y-96627415D01*
X155094865Y-96624500D01*
X155094859Y-96624500D01*
X153524499Y-96624500D01*
X153449999Y-96604538D01*
X153395461Y-96550000D01*
X153375499Y-96475503D01*
X153375499Y-94905136D01*
X153372585Y-94880009D01*
X153327206Y-94777235D01*
X153294141Y-94744170D01*
X153255577Y-94677375D01*
X153250500Y-94638811D01*
X153250500Y-93648321D01*
X153270462Y-93573821D01*
X153294141Y-93542962D01*
X153852325Y-92984778D01*
X154460490Y-92376614D01*
X154519799Y-92273886D01*
X154525487Y-92252658D01*
X154550500Y-92159309D01*
X154550500Y-91275293D01*
X154570462Y-91200793D01*
X154625000Y-91146255D01*
X154672484Y-91130438D01*
X154672302Y-91129718D01*
X154681562Y-91127377D01*
X154681564Y-91127377D01*
X154822342Y-91071861D01*
X154942922Y-90980422D01*
X155034361Y-90859842D01*
X155089877Y-90719064D01*
X155100500Y-90630602D01*
X155100500Y-90019398D01*
X155089877Y-89930936D01*
X155034361Y-89790158D01*
X154942922Y-89669578D01*
X154942920Y-89669576D01*
X154850511Y-89599500D01*
X154822342Y-89578139D01*
X154753800Y-89551109D01*
X154691821Y-89505211D01*
X154661093Y-89434468D01*
X154669853Y-89357839D01*
X154715754Y-89295856D01*
X154753798Y-89273891D01*
X154822342Y-89246861D01*
X154942922Y-89155422D01*
X155034361Y-89034842D01*
X155089877Y-88894064D01*
X155100500Y-88805602D01*
X155100500Y-88194398D01*
X155089877Y-88105936D01*
X155034361Y-87965158D01*
X154942922Y-87844578D01*
X154942920Y-87844576D01*
X154895982Y-87808982D01*
X154822342Y-87753139D01*
X154822341Y-87753138D01*
X154681563Y-87697622D01*
X154593105Y-87687000D01*
X154593102Y-87687000D01*
X153606898Y-87687000D01*
X153606894Y-87687000D01*
X153518436Y-87697622D01*
X153377658Y-87753138D01*
X153377658Y-87753139D01*
X153257079Y-87844576D01*
X153257076Y-87844579D01*
X153165639Y-87965158D01*
X153165638Y-87965158D01*
X153130146Y-88055162D01*
X153084245Y-88117144D01*
X153013502Y-88147872D01*
X152991535Y-88149500D01*
X152849905Y-88149500D01*
X152775405Y-88129538D01*
X152759204Y-88118712D01*
X152702841Y-88075464D01*
X152702840Y-88075463D01*
X152585865Y-88027011D01*
X152556762Y-88014956D01*
X152556760Y-88014955D01*
X152556756Y-88014954D01*
X152556759Y-88014954D01*
X152400003Y-87994318D01*
X152399997Y-87994318D01*
X152243242Y-88014954D01*
X152097159Y-88075463D01*
X151971718Y-88171717D01*
X151971717Y-88171718D01*
X151875463Y-88297159D01*
X151814954Y-88443242D01*
X151794318Y-88599997D01*
X151794318Y-88600002D01*
X151814954Y-88756757D01*
X151875463Y-88902840D01*
X151961272Y-89014668D01*
X151971718Y-89028282D01*
X152097159Y-89124536D01*
X152243238Y-89185044D01*
X152243241Y-89185044D01*
X152243243Y-89185045D01*
X152243240Y-89185045D01*
X152399997Y-89205682D01*
X152400000Y-89205682D01*
X152400003Y-89205682D01*
X152556757Y-89185045D01*
X152556758Y-89185044D01*
X152556762Y-89185044D01*
X152702841Y-89124536D01*
X152759201Y-89081289D01*
X152830457Y-89051775D01*
X152849905Y-89050500D01*
X153103506Y-89050500D01*
X153178006Y-89070462D01*
X153222229Y-89109467D01*
X153257076Y-89155420D01*
X153257079Y-89155423D01*
X153276911Y-89170462D01*
X153377658Y-89246861D01*
X153425275Y-89265639D01*
X153446196Y-89273889D01*
X153508178Y-89319790D01*
X153538906Y-89390533D01*
X153530145Y-89467162D01*
X153484244Y-89529144D01*
X153446196Y-89551111D01*
X153377658Y-89578138D01*
X153377658Y-89578139D01*
X153257079Y-89669576D01*
X153257076Y-89669579D01*
X153165639Y-89790158D01*
X153165638Y-89790158D01*
X153110122Y-89930936D01*
X153099500Y-90019394D01*
X153099500Y-90630605D01*
X153110122Y-90719063D01*
X153165638Y-90859841D01*
X153247599Y-90967923D01*
X153257078Y-90980422D01*
X153377658Y-91071861D01*
X153518436Y-91127377D01*
X153527698Y-91129718D01*
X153527371Y-91131008D01*
X153589848Y-91156054D01*
X153637497Y-91216703D01*
X153649500Y-91275293D01*
X153649500Y-91851678D01*
X153629538Y-91926178D01*
X153605859Y-91957037D01*
X152704859Y-92858037D01*
X152638064Y-92896601D01*
X152560936Y-92896601D01*
X152494141Y-92858037D01*
X152455577Y-92791242D01*
X152450500Y-92752678D01*
X152450500Y-90440691D01*
X152450499Y-90440689D01*
X152419799Y-90326114D01*
X152415175Y-90318105D01*
X152390557Y-90275465D01*
X152390556Y-90275464D01*
X152375566Y-90249500D01*
X152360489Y-90223386D01*
X150476614Y-88339511D01*
X150476611Y-88339509D01*
X150476610Y-88339508D01*
X150420661Y-88307206D01*
X150373887Y-88280201D01*
X150348452Y-88273386D01*
X150348451Y-88273385D01*
X150259309Y-88249500D01*
X149283424Y-88249500D01*
X149208924Y-88229538D01*
X149154386Y-88175000D01*
X149134424Y-88100500D01*
X149144813Y-88045839D01*
X149181267Y-87953398D01*
X149189877Y-87931564D01*
X149200500Y-87843102D01*
X149200500Y-86556898D01*
X149189877Y-86468436D01*
X149134361Y-86327658D01*
X149042922Y-86207078D01*
X149042920Y-86207076D01*
X148995982Y-86171482D01*
X148922342Y-86115639D01*
X148853803Y-86088610D01*
X148791821Y-86042708D01*
X148761094Y-85971965D01*
X148769855Y-85895336D01*
X148815757Y-85833354D01*
X148853799Y-85811390D01*
X148922342Y-85784361D01*
X149042922Y-85692922D01*
X149134361Y-85572342D01*
X149189877Y-85431564D01*
X149200500Y-85343102D01*
X149200500Y-85199500D01*
X149220462Y-85125000D01*
X149275000Y-85070462D01*
X149349500Y-85050500D01*
X150650500Y-85050500D01*
X150725000Y-85070462D01*
X150779538Y-85125000D01*
X150799500Y-85199500D01*
X150799500Y-85343105D01*
X150810122Y-85431563D01*
X150865638Y-85572341D01*
X150865639Y-85572342D01*
X150957078Y-85692922D01*
X151077658Y-85784361D01*
X151218436Y-85839877D01*
X151306898Y-85850500D01*
X151306899Y-85850500D01*
X152193101Y-85850500D01*
X152193102Y-85850500D01*
X152281564Y-85839877D01*
X152422342Y-85784361D01*
X152542922Y-85692922D01*
X152634361Y-85572342D01*
X152689877Y-85431564D01*
X152700500Y-85343102D01*
X152700500Y-85197228D01*
X152720462Y-85122728D01*
X152775000Y-85068190D01*
X152813593Y-85055091D01*
X152813041Y-85053028D01*
X152822475Y-85050500D01*
X152962485Y-85012984D01*
X152985379Y-84999766D01*
X153088015Y-84940510D01*
X153448491Y-84580032D01*
X153496826Y-84547737D01*
X153552841Y-84524536D01*
X153678282Y-84428282D01*
X153774536Y-84302841D01*
X153835044Y-84156762D01*
X153838164Y-84133067D01*
X153855682Y-84000002D01*
X153855682Y-83999997D01*
X153835045Y-83843242D01*
X153835044Y-83843240D01*
X153835044Y-83843238D01*
X153774536Y-83697159D01*
X153774534Y-83697156D01*
X153769654Y-83688703D01*
X153771938Y-83687383D01*
X153748176Y-83630014D01*
X153758243Y-83553546D01*
X153805196Y-83492356D01*
X153876453Y-83462841D01*
X153931556Y-83465895D01*
X154270753Y-83549500D01*
X154308476Y-83558798D01*
X154376034Y-83596009D01*
X154415935Y-83662014D01*
X154417488Y-83739126D01*
X154391543Y-83793498D01*
X154365638Y-83827658D01*
X154310122Y-83968436D01*
X154299500Y-84056894D01*
X154299500Y-85343105D01*
X154310122Y-85431563D01*
X154365638Y-85572341D01*
X154365639Y-85572342D01*
X154457078Y-85692922D01*
X154577658Y-85784361D01*
X154718436Y-85839877D01*
X154806898Y-85850500D01*
X154806899Y-85850500D01*
X155693101Y-85850500D01*
X155693102Y-85850500D01*
X155781564Y-85839877D01*
X155922342Y-85784361D01*
X156042922Y-85692922D01*
X156134361Y-85572342D01*
X156169446Y-85483372D01*
X156215344Y-85421394D01*
X156286086Y-85390665D01*
X156362715Y-85399425D01*
X156424698Y-85445326D01*
X156445713Y-85481016D01*
X156475464Y-85552841D01*
X156571718Y-85678282D01*
X156697159Y-85774536D01*
X156843238Y-85835044D01*
X156843241Y-85835044D01*
X156843243Y-85835045D01*
X156843240Y-85835045D01*
X156999997Y-85855682D01*
X157000000Y-85855682D01*
X157000003Y-85855682D01*
X157156757Y-85835045D01*
X157156758Y-85835044D01*
X157156762Y-85835044D01*
X157302841Y-85774536D01*
X157428282Y-85678282D01*
X157524536Y-85552841D01*
X157585044Y-85406762D01*
X157587164Y-85390665D01*
X157605682Y-85250002D01*
X157605682Y-85249997D01*
X157585045Y-85093242D01*
X157585044Y-85093240D01*
X157585044Y-85093238D01*
X157580950Y-85083356D01*
X157570882Y-85006890D01*
X157600397Y-84935632D01*
X157661586Y-84888679D01*
X157738054Y-84878610D01*
X157787849Y-84894402D01*
X157988598Y-84999763D01*
X158258296Y-85141312D01*
X158264589Y-85144812D01*
X158966507Y-85557639D01*
X158972622Y-85561436D01*
X159649145Y-86004660D01*
X159653798Y-86007708D01*
X159659722Y-86011796D01*
X160318570Y-86490478D01*
X160324258Y-86494825D01*
X160546995Y-86673713D01*
X160959189Y-87004762D01*
X160964692Y-87009405D01*
X161574234Y-87549411D01*
X161579497Y-87554306D01*
X162162258Y-88123150D01*
X162167266Y-88128281D01*
X162261436Y-88229538D01*
X162721856Y-88724610D01*
X162726631Y-88730000D01*
X163251749Y-89352410D01*
X163256258Y-89358024D01*
X163561189Y-89757079D01*
X163738945Y-89989704D01*
X163750688Y-90005071D01*
X163754920Y-90010896D01*
X164217533Y-90681105D01*
X164221473Y-90687119D01*
X164651153Y-91378877D01*
X164654801Y-91385081D01*
X165019580Y-92041079D01*
X165050554Y-92096780D01*
X165053901Y-92103157D01*
X165414821Y-92833177D01*
X165417855Y-92839707D01*
X165419256Y-92842923D01*
X165724200Y-93542962D01*
X165743070Y-93586279D01*
X165745782Y-93592941D01*
X165816801Y-93780202D01*
X165831198Y-93818164D01*
X165838951Y-93894901D01*
X165807297Y-93965234D01*
X165744717Y-94010317D01*
X165691881Y-94020000D01*
X165550000Y-94020000D01*
X165550000Y-96799999D01*
X166244795Y-96799999D01*
X166269874Y-96797090D01*
X166372477Y-96751787D01*
X166436407Y-96687857D01*
X166503202Y-96649292D01*
X166580330Y-96649292D01*
X166647125Y-96687855D01*
X166685690Y-96754650D01*
X166688640Y-96768130D01*
X166820505Y-97540195D01*
X166821546Y-97547320D01*
X166919705Y-98355736D01*
X166920400Y-98362903D01*
X166979388Y-99175123D01*
X166979735Y-99182316D01*
X166999412Y-99996400D01*
X166999412Y-100003600D01*
X166979735Y-100817683D01*
X166979388Y-100824876D01*
X166920400Y-101637096D01*
X166919705Y-101644263D01*
X166821546Y-102452679D01*
X166820505Y-102459804D01*
X166688743Y-103231266D01*
X166656523Y-103301342D01*
X166593582Y-103345920D01*
X166516785Y-103353054D01*
X166446709Y-103320834D01*
X166436511Y-103311540D01*
X166372764Y-103247793D01*
X166269994Y-103202416D01*
X166269991Y-103202415D01*
X166269982Y-103202414D01*
X166244865Y-103199500D01*
X166244859Y-103199500D01*
X164555133Y-103199500D01*
X164530010Y-103202414D01*
X164530007Y-103202415D01*
X164427235Y-103247793D01*
X164347793Y-103327235D01*
X164302416Y-103430005D01*
X164302415Y-103430008D01*
X164302415Y-103430009D01*
X164299500Y-103455135D01*
X164299500Y-103455136D01*
X164299500Y-103455140D01*
X164299500Y-103990500D01*
X164279538Y-104065000D01*
X164225000Y-104119538D01*
X164150500Y-104139500D01*
X163950691Y-104139500D01*
X163836112Y-104170201D01*
X163733386Y-104229510D01*
X163239509Y-104723388D01*
X163239508Y-104723389D01*
X163180201Y-104826111D01*
X163180202Y-104826111D01*
X163180201Y-104826115D01*
X163149500Y-104940689D01*
X163149500Y-107601678D01*
X163129538Y-107676178D01*
X163105859Y-107707037D01*
X157207038Y-113605859D01*
X157140243Y-113644423D01*
X157101679Y-113649500D01*
X143248321Y-113649500D01*
X143173821Y-113629538D01*
X143142962Y-113605859D01*
X137594141Y-108057038D01*
X137555577Y-107990243D01*
X137550500Y-107951679D01*
X137550500Y-95848321D01*
X137570462Y-95773821D01*
X137594141Y-95742962D01*
X138077103Y-95260000D01*
X138610490Y-94726614D01*
X138669799Y-94623886D01*
X138686786Y-94560489D01*
X138700500Y-94509309D01*
X138700500Y-93199904D01*
X138720462Y-93125404D01*
X138731292Y-93109197D01*
X138740081Y-93097744D01*
X138774536Y-93052841D01*
X138774537Y-93052840D01*
X138823612Y-92934361D01*
X138835044Y-92906762D01*
X138835044Y-92906761D01*
X138835045Y-92906759D01*
X138855682Y-92750002D01*
X138855682Y-92749997D01*
X138835045Y-92593242D01*
X138835044Y-92593240D01*
X138835044Y-92593238D01*
X138774536Y-92447159D01*
X138678282Y-92321718D01*
X138644396Y-92295716D01*
X138552840Y-92225463D01*
X138472944Y-92192369D01*
X138406762Y-92164956D01*
X138406760Y-92164955D01*
X138406756Y-92164954D01*
X138406759Y-92164954D01*
X138250003Y-92144318D01*
X138249997Y-92144318D01*
X138093242Y-92164954D01*
X137947159Y-92225463D01*
X137821718Y-92321717D01*
X137821717Y-92321718D01*
X137725463Y-92447159D01*
X137664954Y-92593242D01*
X137644318Y-92749997D01*
X137644318Y-92750002D01*
X137664954Y-92906759D01*
X137725462Y-93052840D01*
X137725463Y-93052841D01*
X137768708Y-93109197D01*
X137798225Y-93180453D01*
X137799500Y-93199904D01*
X137799500Y-94201678D01*
X137779538Y-94276178D01*
X137755859Y-94307037D01*
X136739509Y-95323388D01*
X136739506Y-95323392D01*
X136680201Y-95426111D01*
X136674232Y-95448386D01*
X136665988Y-95479154D01*
X136649500Y-95540689D01*
X136649500Y-95540691D01*
X136649500Y-108259309D01*
X136671904Y-108342922D01*
X136678448Y-108367346D01*
X136680202Y-108373891D01*
X136739506Y-108476607D01*
X136739509Y-108476611D01*
X136739511Y-108476614D01*
X142723386Y-114460489D01*
X142723388Y-114460490D01*
X142723389Y-114460491D01*
X142826115Y-114519800D01*
X142840424Y-114523633D01*
X142850317Y-114526283D01*
X142850324Y-114526287D01*
X142850325Y-114526286D01*
X142874539Y-114532774D01*
X142940691Y-114550500D01*
X142940694Y-114550500D01*
X157409306Y-114550500D01*
X157409309Y-114550500D01*
X157499673Y-114526286D01*
X157523887Y-114519799D01*
X157626614Y-114460489D01*
X163960490Y-108126614D01*
X164019799Y-108023887D01*
X164028694Y-107990691D01*
X164050500Y-107909309D01*
X164050500Y-105885794D01*
X164070462Y-105811294D01*
X164125000Y-105756756D01*
X164199500Y-105736794D01*
X164274000Y-105756756D01*
X164328538Y-105811294D01*
X164335796Y-105825593D01*
X164347794Y-105852765D01*
X164427235Y-105932206D01*
X164530009Y-105977585D01*
X164555135Y-105980500D01*
X165691690Y-105980499D01*
X165766190Y-106000461D01*
X165820728Y-106054999D01*
X165840690Y-106129499D01*
X165831007Y-106182335D01*
X165745777Y-106407069D01*
X165743062Y-106413738D01*
X165417855Y-107160292D01*
X165414821Y-107166822D01*
X165053901Y-107896842D01*
X165050554Y-107903219D01*
X164654803Y-108614916D01*
X164651153Y-108621122D01*
X164221480Y-109312870D01*
X164217533Y-109318894D01*
X163754920Y-109989103D01*
X163750688Y-109994928D01*
X163256258Y-110641975D01*
X163251749Y-110647589D01*
X162726631Y-111269999D01*
X162721856Y-111275389D01*
X162167277Y-111871707D01*
X162162247Y-111876860D01*
X161579507Y-112445684D01*
X161574234Y-112450588D01*
X160964692Y-112990594D01*
X160959189Y-112995237D01*
X160324275Y-113505161D01*
X160318553Y-113509534D01*
X159659724Y-113988201D01*
X159653798Y-113992291D01*
X158972624Y-114438561D01*
X158966507Y-114442360D01*
X158264589Y-114855187D01*
X158258296Y-114858687D01*
X157537218Y-115237139D01*
X157530763Y-115240330D01*
X156792265Y-115583490D01*
X156785663Y-115586366D01*
X156031450Y-115893447D01*
X156024717Y-115896000D01*
X155256530Y-116166289D01*
X155249682Y-116168515D01*
X154469330Y-116401376D01*
X154462382Y-116403267D01*
X153671723Y-116598147D01*
X153664692Y-116599701D01*
X152865514Y-116756160D01*
X152858416Y-116757372D01*
X152052628Y-116875034D01*
X152045479Y-116875902D01*
X151234947Y-116954496D01*
X151227766Y-116955018D01*
X150414369Y-116994362D01*
X150407170Y-116994536D01*
X149592830Y-116994536D01*
X149585631Y-116994362D01*
X148772233Y-116955018D01*
X148765052Y-116954496D01*
X147954520Y-116875902D01*
X147947371Y-116875034D01*
X147141583Y-116757372D01*
X147134485Y-116756160D01*
X146335307Y-116599701D01*
X146328276Y-116598147D01*
X145537617Y-116403267D01*
X145530669Y-116401376D01*
X145018097Y-116248422D01*
X144750309Y-116168512D01*
X144743469Y-116166289D01*
X143975282Y-115896000D01*
X143968549Y-115893447D01*
X143214336Y-115586366D01*
X143207734Y-115583490D01*
X142469236Y-115240330D01*
X142462781Y-115237139D01*
X141741703Y-114858687D01*
X141735410Y-114855187D01*
X141033492Y-114442360D01*
X141027375Y-114438561D01*
X140346201Y-113992291D01*
X140340275Y-113988201D01*
X139867105Y-113644423D01*
X139681435Y-113509526D01*
X139675735Y-113505169D01*
X139451426Y-113325019D01*
X139040810Y-112995237D01*
X139035307Y-112990594D01*
X138425765Y-112450588D01*
X138420492Y-112445684D01*
X138246918Y-112276255D01*
X137837740Y-111876848D01*
X137832734Y-111871719D01*
X137278143Y-111275389D01*
X137273368Y-111269999D01*
X136748250Y-110647589D01*
X136743741Y-110641975D01*
X136381502Y-110167923D01*
X136249304Y-109994918D01*
X136245079Y-109989103D01*
X135782466Y-109318894D01*
X135778532Y-109312891D01*
X135348837Y-108621108D01*
X135345205Y-108614931D01*
X134949436Y-107903202D01*
X134946098Y-107896842D01*
X134802525Y-107606443D01*
X134585178Y-107166822D01*
X134582152Y-107160309D01*
X134256917Y-106413692D01*
X134254225Y-106407079D01*
X133965448Y-105645635D01*
X133963059Y-105638846D01*
X133940642Y-105569853D01*
X133711408Y-104864345D01*
X133709352Y-104857453D01*
X133700820Y-104826115D01*
X133495420Y-104071718D01*
X133493706Y-104064767D01*
X133317966Y-103269532D01*
X133316596Y-103262529D01*
X133179491Y-102459788D01*
X133178453Y-102452679D01*
X133178188Y-102450500D01*
X133080293Y-101644259D01*
X133079599Y-101637096D01*
X133065926Y-101448827D01*
X133020610Y-100824855D01*
X133020264Y-100817683D01*
X133020224Y-100816045D01*
X133000587Y-100003599D01*
X133000587Y-99996400D01*
X133004034Y-99853804D01*
X133020265Y-99182294D01*
X133020609Y-99175146D01*
X133079599Y-98362894D01*
X133080294Y-98355736D01*
X133081599Y-98344988D01*
X133178455Y-97547299D01*
X133179490Y-97540217D01*
X133316597Y-96737463D01*
X133317965Y-96730475D01*
X133493708Y-95935222D01*
X133495417Y-95928290D01*
X133709357Y-95142526D01*
X133711404Y-95135665D01*
X133963064Y-94361136D01*
X133965449Y-94354361D01*
X133967293Y-94349499D01*
X134254231Y-93592906D01*
X134256911Y-93586321D01*
X134582159Y-92839674D01*
X134585178Y-92833177D01*
X134946107Y-92103139D01*
X134949427Y-92096813D01*
X135345215Y-91385050D01*
X135348826Y-91378909D01*
X135778544Y-90687089D01*
X135782466Y-90681105D01*
X135817328Y-90630600D01*
X136245080Y-90010894D01*
X136249289Y-90005100D01*
X136743748Y-89358015D01*
X136748250Y-89352410D01*
X136775771Y-89319790D01*
X137273378Y-88729988D01*
X137278143Y-88724610D01*
X137278877Y-88723821D01*
X137832753Y-88128259D01*
X137837720Y-88123171D01*
X138420522Y-87554286D01*
X138425734Y-87549438D01*
X139035312Y-87009400D01*
X139040810Y-87004762D01*
X139675760Y-86494809D01*
X139681409Y-86490493D01*
X140340296Y-86011783D01*
X140346179Y-86007723D01*
X141027396Y-85561424D01*
X141033470Y-85557652D01*
X141735411Y-85144810D01*
X141741703Y-85141312D01*
X141777112Y-85122728D01*
X142462816Y-84762842D01*
X142469200Y-84759686D01*
X143207753Y-84416500D01*
X143214316Y-84413641D01*
X143594816Y-84258719D01*
X143671340Y-84249115D01*
X143742418Y-84279060D01*
X143789000Y-84340533D01*
X143800000Y-84396720D01*
X143800000Y-84550000D01*
X145700000Y-84550000D01*
X145700000Y-84056941D01*
X145699999Y-84056939D01*
X145689386Y-83968556D01*
X145633920Y-83827904D01*
X145607929Y-83793629D01*
X145578819Y-83722206D01*
X145589322Y-83645796D01*
X145636622Y-83584874D01*
X145690993Y-83558928D01*
X146328312Y-83401844D01*
X146335270Y-83400306D01*
X147134520Y-83243832D01*
X147141548Y-83242632D01*
X147947399Y-83124961D01*
X147954496Y-83124099D01*
X148765068Y-83045501D01*
X148772214Y-83044982D01*
X149585631Y-83005638D01*
X149592830Y-83005464D01*
X150407170Y-83005464D01*
X150414369Y-83005638D01*
G37*
%TD.AperFunction*%
%TA.AperFunction,Conductor*%
G36*
X149254661Y-91169853D02*
G01*
X149316644Y-91215754D01*
X149338608Y-91253798D01*
X149365639Y-91322342D01*
X149378659Y-91339511D01*
X149439755Y-91420079D01*
X149457078Y-91442922D01*
X149577658Y-91534361D01*
X149718436Y-91589877D01*
X149792866Y-91598815D01*
X149864455Y-91627517D01*
X149912101Y-91688168D01*
X149923038Y-91764517D01*
X149904140Y-91821250D01*
X149883609Y-91856811D01*
X149883608Y-91856813D01*
X149883608Y-91856814D01*
X149882939Y-91859310D01*
X149849272Y-91984956D01*
X149810707Y-92051751D01*
X149795381Y-92065114D01*
X149707080Y-92132075D01*
X149707076Y-92132079D01*
X149660014Y-92194141D01*
X149615639Y-92252658D01*
X149594698Y-92305758D01*
X149560122Y-92393436D01*
X149549500Y-92481894D01*
X149549500Y-93518105D01*
X149560122Y-93606563D01*
X149597768Y-93702024D01*
X149615639Y-93747342D01*
X149657551Y-93802611D01*
X149686660Y-93874032D01*
X149676158Y-93950442D01*
X149644185Y-93997999D01*
X149292686Y-94349500D01*
X149292685Y-94349499D01*
X149199502Y-94442683D01*
X149199497Y-94442689D01*
X149133609Y-94556811D01*
X149133112Y-94558013D01*
X149132320Y-94559045D01*
X149128725Y-94565272D01*
X149127905Y-94564798D01*
X149086162Y-94619205D01*
X149014907Y-94648724D01*
X148995451Y-94650000D01*
X148950000Y-94650000D01*
X148950000Y-96849999D01*
X149119795Y-96849999D01*
X149144878Y-96847089D01*
X149155692Y-96844148D01*
X149156446Y-96846920D01*
X149215400Y-96837764D01*
X149243985Y-96845423D01*
X149244198Y-96844643D01*
X149255004Y-96847583D01*
X149255009Y-96847585D01*
X149280135Y-96850500D01*
X149919864Y-96850499D01*
X149919866Y-96850499D01*
X149926458Y-96849734D01*
X149944991Y-96847585D01*
X149944993Y-96847584D01*
X149944994Y-96847584D01*
X149955808Y-96844643D01*
X149956478Y-96847107D01*
X150016639Y-96837765D01*
X150044052Y-96845110D01*
X150044314Y-96844148D01*
X150055131Y-96847091D01*
X150080204Y-96849999D01*
X150250000Y-96849999D01*
X150250000Y-95899000D01*
X150269962Y-95824500D01*
X150324500Y-95769962D01*
X150399000Y-95750000D01*
X150401000Y-95750000D01*
X150475500Y-95769962D01*
X150530038Y-95824500D01*
X150550000Y-95899000D01*
X150550000Y-96849999D01*
X150550500Y-96849999D01*
X150625000Y-96869961D01*
X150679538Y-96924499D01*
X150699500Y-96998999D01*
X150699500Y-101678393D01*
X150701554Y-101686057D01*
X150733608Y-101805686D01*
X150733609Y-101805687D01*
X150799497Y-101919810D01*
X150799498Y-101919811D01*
X150799500Y-101919814D01*
X151455860Y-102576174D01*
X151494423Y-102642967D01*
X151499500Y-102681531D01*
X151499500Y-103000500D01*
X151479538Y-103075000D01*
X151425000Y-103129538D01*
X151350500Y-103149500D01*
X150880133Y-103149500D01*
X150855011Y-103152414D01*
X150844196Y-103155357D01*
X150843480Y-103152726D01*
X150783944Y-103161957D01*
X150756046Y-103154480D01*
X150755808Y-103155357D01*
X150744992Y-103152414D01*
X150719867Y-103149500D01*
X150080133Y-103149500D01*
X150055011Y-103152414D01*
X150044196Y-103155357D01*
X150043525Y-103152893D01*
X149983342Y-103162233D01*
X149955945Y-103154891D01*
X149955684Y-103155851D01*
X149944872Y-103152909D01*
X149919796Y-103150000D01*
X149750000Y-103150000D01*
X149750000Y-105349999D01*
X149805879Y-105349999D01*
X149880379Y-105369961D01*
X149934917Y-105424499D01*
X149949802Y-105460436D01*
X149958554Y-105493102D01*
X149958555Y-105493102D01*
X149980202Y-105573891D01*
X150039506Y-105676607D01*
X150039509Y-105676612D01*
X150163589Y-105800692D01*
X150202153Y-105867488D01*
X150202153Y-105944616D01*
X150200000Y-105948345D01*
X150200000Y-108850000D01*
X150850000Y-108850000D01*
X150867137Y-108832862D01*
X150869962Y-108822321D01*
X150924500Y-108767783D01*
X150999000Y-108747821D01*
X151073500Y-108767783D01*
X151104359Y-108791462D01*
X151105859Y-108792962D01*
X151144423Y-108859757D01*
X151149500Y-108898321D01*
X151149500Y-109518105D01*
X151160122Y-109606563D01*
X151215638Y-109747341D01*
X151307076Y-109867920D01*
X151307079Y-109867923D01*
X151313760Y-109872989D01*
X151427658Y-109959361D01*
X151568436Y-110014877D01*
X151656898Y-110025500D01*
X151656899Y-110025500D01*
X152243101Y-110025500D01*
X152243102Y-110025500D01*
X152331564Y-110014877D01*
X152472342Y-109959361D01*
X152592922Y-109867922D01*
X152684361Y-109747342D01*
X152739877Y-109606564D01*
X152750500Y-109518102D01*
X152750500Y-108481898D01*
X152739877Y-108393436D01*
X152684361Y-108252658D01*
X152661371Y-108222341D01*
X152592923Y-108132079D01*
X152592922Y-108132078D01*
X152590194Y-108130009D01*
X152575311Y-108118723D01*
X152528012Y-108057804D01*
X152517509Y-107981394D01*
X152546618Y-107909970D01*
X152575313Y-107881275D01*
X152592922Y-107867922D01*
X152684361Y-107747342D01*
X152720124Y-107656652D01*
X152766023Y-107594673D01*
X152836766Y-107563945D01*
X152913395Y-107572705D01*
X152915646Y-107573614D01*
X152943238Y-107585044D01*
X152943243Y-107585044D01*
X152943244Y-107585045D01*
X153099997Y-107605682D01*
X153100000Y-107605682D01*
X153100003Y-107605682D01*
X153256757Y-107585045D01*
X153256758Y-107585044D01*
X153256762Y-107585044D01*
X153402841Y-107524536D01*
X153528282Y-107428282D01*
X153624536Y-107302841D01*
X153668427Y-107196878D01*
X153715375Y-107135694D01*
X153786632Y-107106178D01*
X153863101Y-107116244D01*
X153911441Y-107148544D01*
X154623386Y-107860489D01*
X154650448Y-107876113D01*
X154650449Y-107876114D01*
X154726109Y-107919797D01*
X154726111Y-107919797D01*
X154726114Y-107919799D01*
X154840691Y-107950500D01*
X154852680Y-107950500D01*
X154927180Y-107970462D01*
X154981718Y-108025000D01*
X155001680Y-108099500D01*
X154981718Y-108174000D01*
X154958042Y-108204854D01*
X154617558Y-108545339D01*
X154339509Y-108823388D01*
X154339508Y-108823389D01*
X154280201Y-108926111D01*
X154280202Y-108926111D01*
X154280201Y-108926115D01*
X154249500Y-109040689D01*
X154249500Y-109801679D01*
X154229538Y-109876179D01*
X154205859Y-109907038D01*
X153357038Y-110755859D01*
X153290243Y-110794423D01*
X153251679Y-110799500D01*
X143998321Y-110799500D01*
X143923821Y-110779538D01*
X143892962Y-110755859D01*
X138994141Y-105857038D01*
X138955577Y-105790243D01*
X138950500Y-105751679D01*
X138950500Y-104947320D01*
X138970462Y-104872820D01*
X139025000Y-104818282D01*
X139099500Y-104798320D01*
X139174000Y-104818282D01*
X139204854Y-104841957D01*
X139602404Y-105239508D01*
X139730292Y-105367396D01*
X139727710Y-105369977D01*
X139763153Y-105416159D01*
X139774500Y-105473190D01*
X139774500Y-105493102D01*
X139785122Y-105581563D01*
X139840638Y-105722341D01*
X139918949Y-105825610D01*
X139932078Y-105842922D01*
X140052658Y-105934361D01*
X140193436Y-105989877D01*
X140281898Y-106000500D01*
X140281899Y-106000500D01*
X140893101Y-106000500D01*
X140893102Y-106000500D01*
X140981564Y-105989877D01*
X141122342Y-105934361D01*
X141242922Y-105842922D01*
X141334361Y-105722342D01*
X141361390Y-105653800D01*
X141407289Y-105591821D01*
X141478032Y-105561093D01*
X141554661Y-105569853D01*
X141616644Y-105615754D01*
X141638608Y-105653798D01*
X141665639Y-105722342D01*
X141676598Y-105736794D01*
X141757076Y-105842920D01*
X141757079Y-105842923D01*
X141836785Y-105903366D01*
X141884085Y-105964288D01*
X141894588Y-106040697D01*
X141878704Y-106087931D01*
X141879201Y-106088137D01*
X141876197Y-106095388D01*
X141875796Y-106096582D01*
X141875466Y-106097152D01*
X141814954Y-106243242D01*
X141794318Y-106399997D01*
X141794318Y-106400002D01*
X141814954Y-106556759D01*
X141875462Y-106702840D01*
X141875463Y-106702841D01*
X141918708Y-106759197D01*
X141948225Y-106830453D01*
X141949500Y-106849904D01*
X141949500Y-108259309D01*
X141971904Y-108342922D01*
X141978448Y-108367346D01*
X141980202Y-108373891D01*
X142039506Y-108476607D01*
X142039509Y-108476611D01*
X142039511Y-108476614D01*
X143435886Y-109872989D01*
X143494038Y-109906563D01*
X143494040Y-109906564D01*
X143494041Y-109906565D01*
X143538610Y-109932297D01*
X143538611Y-109932297D01*
X143538614Y-109932299D01*
X143653191Y-109963000D01*
X143831056Y-109963000D01*
X143905556Y-109982962D01*
X143960094Y-110037500D01*
X143960931Y-110038970D01*
X143965636Y-110047338D01*
X143965638Y-110047341D01*
X143965639Y-110047342D01*
X144057078Y-110167922D01*
X144177658Y-110259361D01*
X144318436Y-110314877D01*
X144406898Y-110325500D01*
X144406899Y-110325500D01*
X145393101Y-110325500D01*
X145393102Y-110325500D01*
X145481564Y-110314877D01*
X145622342Y-110259361D01*
X145742922Y-110167922D01*
X145834361Y-110047342D01*
X145889877Y-109906564D01*
X145894025Y-109872017D01*
X145922726Y-109800431D01*
X145983377Y-109752784D01*
X146059726Y-109741846D01*
X146131314Y-109770547D01*
X146147321Y-109784424D01*
X146235886Y-109872989D01*
X146294038Y-109906563D01*
X146294040Y-109906564D01*
X146294041Y-109906565D01*
X146338610Y-109932297D01*
X146338611Y-109932297D01*
X146338614Y-109932299D01*
X146453191Y-109963000D01*
X146531056Y-109963000D01*
X146605556Y-109982962D01*
X146660094Y-110037500D01*
X146660931Y-110038970D01*
X146665636Y-110047338D01*
X146665638Y-110047341D01*
X146665639Y-110047342D01*
X146757078Y-110167922D01*
X146877658Y-110259361D01*
X147018436Y-110314877D01*
X147106898Y-110325500D01*
X147106899Y-110325500D01*
X148093101Y-110325500D01*
X148093102Y-110325500D01*
X148181564Y-110314877D01*
X148322342Y-110259361D01*
X148442922Y-110167922D01*
X148534361Y-110047342D01*
X148589877Y-109906564D01*
X148600500Y-109818102D01*
X148600500Y-109518060D01*
X149250000Y-109518060D01*
X149260613Y-109606443D01*
X149316079Y-109747096D01*
X149407433Y-109867562D01*
X149407437Y-109867566D01*
X149527904Y-109958920D01*
X149527903Y-109958920D01*
X149668556Y-110014386D01*
X149756939Y-110024999D01*
X149756941Y-110025000D01*
X149900000Y-110025000D01*
X150200000Y-110025000D01*
X150343059Y-110025000D01*
X150343060Y-110024999D01*
X150431443Y-110014386D01*
X150572096Y-109958920D01*
X150692562Y-109867566D01*
X150692566Y-109867562D01*
X150783920Y-109747096D01*
X150839386Y-109606443D01*
X150849999Y-109518060D01*
X150850000Y-109518058D01*
X150850000Y-109150000D01*
X150200000Y-109150000D01*
X150200000Y-110025000D01*
X149900000Y-110025000D01*
X149900000Y-109150000D01*
X149250000Y-109150000D01*
X149250000Y-109518060D01*
X148600500Y-109518060D01*
X148600500Y-109206898D01*
X148589877Y-109118436D01*
X148534361Y-108977658D01*
X148442922Y-108857078D01*
X148442920Y-108857076D01*
X148322343Y-108765640D01*
X148322342Y-108765639D01*
X148253800Y-108738609D01*
X148191821Y-108692711D01*
X148161093Y-108621968D01*
X148169853Y-108545339D01*
X148215754Y-108483356D01*
X148253798Y-108461391D01*
X148322342Y-108434361D01*
X148442922Y-108342922D01*
X148534361Y-108222342D01*
X148589877Y-108081564D01*
X148600500Y-107993102D01*
X148600500Y-107518060D01*
X149250000Y-107518060D01*
X149260613Y-107606443D01*
X149316079Y-107747096D01*
X149407433Y-107867562D01*
X149407437Y-107867566D01*
X149425517Y-107881277D01*
X149472817Y-107942199D01*
X149483318Y-108018609D01*
X149454208Y-108090032D01*
X149425517Y-108118723D01*
X149407437Y-108132433D01*
X149407433Y-108132437D01*
X149316079Y-108252903D01*
X149260613Y-108393556D01*
X149250000Y-108481939D01*
X149250000Y-108850000D01*
X149900000Y-108850000D01*
X149900000Y-107150000D01*
X149250000Y-107150000D01*
X149250000Y-107518060D01*
X148600500Y-107518060D01*
X148600500Y-107381898D01*
X148589877Y-107293436D01*
X148534361Y-107152658D01*
X148521497Y-107135694D01*
X148480775Y-107081994D01*
X148451666Y-107010570D01*
X148450500Y-106991964D01*
X148450500Y-106481939D01*
X149250000Y-106481939D01*
X149250000Y-106850000D01*
X149900000Y-106850000D01*
X149900000Y-105975000D01*
X149756939Y-105975000D01*
X149668556Y-105985613D01*
X149527903Y-106041079D01*
X149407437Y-106132433D01*
X149407433Y-106132437D01*
X149316079Y-106252903D01*
X149260613Y-106393556D01*
X149250000Y-106481939D01*
X148450500Y-106481939D01*
X148450500Y-105499499D01*
X148470462Y-105424999D01*
X148525000Y-105370461D01*
X148599496Y-105350499D01*
X149119864Y-105350499D01*
X149119867Y-105350499D01*
X149128609Y-105349484D01*
X149144991Y-105347585D01*
X149144993Y-105347584D01*
X149144994Y-105347584D01*
X149155808Y-105344643D01*
X149156478Y-105347107D01*
X149216639Y-105337765D01*
X149244052Y-105345110D01*
X149244314Y-105344148D01*
X149255131Y-105347091D01*
X149280204Y-105349999D01*
X149450000Y-105349999D01*
X149450000Y-103150000D01*
X149280205Y-103150000D01*
X149255128Y-103152909D01*
X149244313Y-103155852D01*
X149243559Y-103153082D01*
X149184562Y-103162230D01*
X149156019Y-103154580D01*
X149155808Y-103155357D01*
X149144992Y-103152414D01*
X149119867Y-103149500D01*
X148480133Y-103149500D01*
X148455011Y-103152414D01*
X148444196Y-103155357D01*
X148443480Y-103152726D01*
X148383944Y-103161957D01*
X148356046Y-103154480D01*
X148355808Y-103155357D01*
X148344992Y-103152414D01*
X148319867Y-103149500D01*
X147680133Y-103149500D01*
X147655011Y-103152414D01*
X147644196Y-103155357D01*
X147643480Y-103152726D01*
X147583944Y-103161957D01*
X147556046Y-103154480D01*
X147555808Y-103155357D01*
X147544992Y-103152414D01*
X147519868Y-103149500D01*
X146999499Y-103149500D01*
X146924999Y-103129538D01*
X146870461Y-103075000D01*
X146850499Y-103000503D01*
X146850499Y-102480136D01*
X146847585Y-102455009D01*
X146847584Y-102455007D01*
X146847584Y-102455005D01*
X146844643Y-102444192D01*
X146847277Y-102443475D01*
X146838038Y-102383978D01*
X146845524Y-102356041D01*
X146844643Y-102355802D01*
X146847582Y-102344996D01*
X146847585Y-102344991D01*
X146850500Y-102319865D01*
X146850499Y-101799499D01*
X146870461Y-101725000D01*
X146924999Y-101670462D01*
X146999499Y-101650500D01*
X147650095Y-101650500D01*
X147724595Y-101670462D01*
X147740795Y-101681287D01*
X147797159Y-101724536D01*
X147943238Y-101785044D01*
X147943241Y-101785044D01*
X147943243Y-101785045D01*
X147943240Y-101785045D01*
X148099997Y-101805682D01*
X148100000Y-101805682D01*
X148100003Y-101805682D01*
X148256757Y-101785045D01*
X148256758Y-101785044D01*
X148256762Y-101785044D01*
X148402841Y-101724536D01*
X148528282Y-101628282D01*
X148624536Y-101502841D01*
X148685044Y-101356762D01*
X148686795Y-101343468D01*
X148705682Y-101200002D01*
X148705682Y-101199997D01*
X148685045Y-101043242D01*
X148685044Y-101043240D01*
X148685044Y-101043238D01*
X148624536Y-100897159D01*
X148528282Y-100771718D01*
X148520359Y-100765638D01*
X148402840Y-100675463D01*
X148322944Y-100642369D01*
X148256762Y-100614956D01*
X148256760Y-100614955D01*
X148256756Y-100614954D01*
X148256759Y-100614954D01*
X148100003Y-100594318D01*
X148099999Y-100594318D01*
X148068736Y-100598433D01*
X147992268Y-100588364D01*
X147931080Y-100541409D01*
X147901566Y-100470151D01*
X147901567Y-100431259D01*
X147905682Y-100400002D01*
X147905682Y-100399997D01*
X147885045Y-100243242D01*
X147885044Y-100243240D01*
X147885044Y-100243238D01*
X147824536Y-100097159D01*
X147728282Y-99971718D01*
X147707543Y-99955804D01*
X147602840Y-99875463D01*
X147496526Y-99831427D01*
X147456762Y-99814956D01*
X147456760Y-99814955D01*
X147456756Y-99814954D01*
X147456759Y-99814954D01*
X147300003Y-99794318D01*
X147299997Y-99794318D01*
X147143240Y-99814954D01*
X147056518Y-99850876D01*
X146980050Y-99860943D01*
X146908793Y-99831427D01*
X146861841Y-99770237D01*
X146850499Y-99713221D01*
X146850499Y-99280136D01*
X146847585Y-99255009D01*
X146847584Y-99255007D01*
X146847584Y-99255005D01*
X146844643Y-99244192D01*
X146847277Y-99243475D01*
X146838038Y-99183978D01*
X146845524Y-99156041D01*
X146844643Y-99155802D01*
X146847582Y-99144996D01*
X146847585Y-99144991D01*
X146850500Y-99119865D01*
X146850499Y-98480136D01*
X146847585Y-98455009D01*
X146847584Y-98455007D01*
X146847584Y-98455005D01*
X146844643Y-98444192D01*
X146847277Y-98443475D01*
X146838038Y-98383978D01*
X146845524Y-98356041D01*
X146844643Y-98355802D01*
X146847582Y-98344996D01*
X146847585Y-98344991D01*
X146850500Y-98319865D01*
X146850499Y-97680136D01*
X146847585Y-97655009D01*
X146847584Y-97655007D01*
X146847584Y-97655005D01*
X146844643Y-97644192D01*
X146847277Y-97643475D01*
X146838038Y-97583978D01*
X146845524Y-97556041D01*
X146844643Y-97555802D01*
X146847582Y-97544996D01*
X146847585Y-97544991D01*
X146850500Y-97519865D01*
X146850499Y-96999498D01*
X146870461Y-96924999D01*
X146924999Y-96870461D01*
X146999495Y-96850499D01*
X147519864Y-96850499D01*
X147519867Y-96850499D01*
X147528609Y-96849484D01*
X147544991Y-96847585D01*
X147544993Y-96847584D01*
X147544994Y-96847584D01*
X147555808Y-96844643D01*
X147556525Y-96847278D01*
X147616010Y-96838037D01*
X147643958Y-96845524D01*
X147644198Y-96844643D01*
X147655004Y-96847583D01*
X147655009Y-96847585D01*
X147680135Y-96850500D01*
X148319864Y-96850499D01*
X148319866Y-96850499D01*
X148326458Y-96849734D01*
X148344991Y-96847585D01*
X148344993Y-96847584D01*
X148344994Y-96847584D01*
X148355808Y-96844643D01*
X148356478Y-96847107D01*
X148416639Y-96837765D01*
X148444052Y-96845110D01*
X148444314Y-96844148D01*
X148455131Y-96847091D01*
X148480204Y-96849999D01*
X148650000Y-96849999D01*
X148650000Y-94650000D01*
X148599500Y-94650000D01*
X148525000Y-94630038D01*
X148470462Y-94575500D01*
X148450500Y-94501000D01*
X148450500Y-94340691D01*
X148450499Y-94340689D01*
X148442918Y-94312397D01*
X148419799Y-94226114D01*
X148419799Y-94226113D01*
X148419798Y-94226112D01*
X148416169Y-94212567D01*
X148416167Y-94142844D01*
X148376500Y-94132216D01*
X148345641Y-94108537D01*
X148343641Y-94106537D01*
X148305077Y-94039742D01*
X148303136Y-94025000D01*
X148594153Y-94025000D01*
X148743059Y-94025000D01*
X148743060Y-94024999D01*
X148831443Y-94014386D01*
X148972096Y-93958920D01*
X149092562Y-93867566D01*
X149092566Y-93867562D01*
X149183920Y-93747096D01*
X149239386Y-93606443D01*
X149249999Y-93518060D01*
X149250000Y-93518058D01*
X149250000Y-93150000D01*
X148600000Y-93150000D01*
X148600000Y-94003178D01*
X148594153Y-94025000D01*
X148303136Y-94025000D01*
X148300000Y-94001178D01*
X148300000Y-93150000D01*
X147650000Y-93150000D01*
X147623911Y-93176089D01*
X147557116Y-93214653D01*
X147479988Y-93214653D01*
X147413193Y-93176089D01*
X147221882Y-92984778D01*
X147183318Y-92917983D01*
X147183318Y-92840855D01*
X147208516Y-92789390D01*
X147259361Y-92722342D01*
X147314877Y-92581564D01*
X147325500Y-92493102D01*
X147325500Y-92481939D01*
X147650000Y-92481939D01*
X147650000Y-92850000D01*
X148300000Y-92850000D01*
X148600000Y-92850000D01*
X149250000Y-92850000D01*
X149250000Y-92481941D01*
X149249999Y-92481939D01*
X149239386Y-92393556D01*
X149183920Y-92252903D01*
X149092566Y-92132437D01*
X149092562Y-92132433D01*
X148972095Y-92041079D01*
X148972096Y-92041079D01*
X148831443Y-91985613D01*
X148743060Y-91975000D01*
X148600000Y-91975000D01*
X148600000Y-92850000D01*
X148300000Y-92850000D01*
X148300000Y-91975000D01*
X148156939Y-91975000D01*
X148068556Y-91985613D01*
X147927903Y-92041079D01*
X147807437Y-92132433D01*
X147807433Y-92132437D01*
X147716079Y-92252903D01*
X147660613Y-92393556D01*
X147650000Y-92481939D01*
X147325500Y-92481939D01*
X147325500Y-91506898D01*
X147324242Y-91496425D01*
X147335175Y-91420079D01*
X147382818Y-91359425D01*
X147454405Y-91330719D01*
X147530754Y-91341652D01*
X147590902Y-91388624D01*
X147614755Y-91420079D01*
X147632078Y-91442922D01*
X147752658Y-91534361D01*
X147893436Y-91589877D01*
X147981898Y-91600500D01*
X147981899Y-91600500D01*
X148593101Y-91600500D01*
X148593102Y-91600500D01*
X148681564Y-91589877D01*
X148822342Y-91534361D01*
X148942922Y-91442922D01*
X149034361Y-91322342D01*
X149061390Y-91253800D01*
X149107289Y-91191821D01*
X149178032Y-91161093D01*
X149254661Y-91169853D01*
G37*
%TD.AperFunction*%
%TD*%
M02*
